%TF.GenerationSoftware,KiCad,Pcbnew,9.0.0*%
%TF.CreationDate,2025-04-09T20:40:31+02:00*%
%TF.ProjectId,EEE3088F Project PCB,45454533-3038-4384-9620-50726f6a6563,rev?*%
%TF.SameCoordinates,Original*%
%TF.FileFunction,Legend,Bot*%
%TF.FilePolarity,Positive*%
%FSLAX46Y46*%
G04 Gerber Fmt 4.6, Leading zero omitted, Abs format (unit mm)*
G04 Created by KiCad (PCBNEW 9.0.0) date 2025-04-09 20:40:31*
%MOMM*%
%LPD*%
G01*
G04 APERTURE LIST*
G04 Aperture macros list*
%AMRoundRect*
0 Rectangle with rounded corners*
0 $1 Rounding radius*
0 $2 $3 $4 $5 $6 $7 $8 $9 X,Y pos of 4 corners*
0 Add a 4 corners polygon primitive as box body*
4,1,4,$2,$3,$4,$5,$6,$7,$8,$9,$2,$3,0*
0 Add four circle primitives for the rounded corners*
1,1,$1+$1,$2,$3*
1,1,$1+$1,$4,$5*
1,1,$1+$1,$6,$7*
1,1,$1+$1,$8,$9*
0 Add four rect primitives between the rounded corners*
20,1,$1+$1,$2,$3,$4,$5,0*
20,1,$1+$1,$4,$5,$6,$7,0*
20,1,$1+$1,$6,$7,$8,$9,0*
20,1,$1+$1,$8,$9,$2,$3,0*%
G04 Aperture macros list end*
%ADD10C,0.508000*%
%ADD11C,3.800000*%
%ADD12O,1.700000X1.700000*%
%ADD13R,1.700000X1.700000*%
%ADD14C,2.057400*%
%ADD15O,2.000000X1.905000*%
%ADD16R,2.000000X1.905000*%
%ADD17O,1.750000X1.200000*%
%ADD18RoundRect,0.250000X0.625000X-0.350000X0.625000X0.350000X-0.625000X0.350000X-0.625000X-0.350000X0*%
%ADD19O,2.000000X0.900000*%
%ADD20O,1.700000X0.900000*%
%ADD21C,0.600000*%
G04 APERTURE END LIST*
D10*
%TO.C,SW1*%
X226381000Y-103407400D02*
G75*
G02*
X225619000Y-103407400I-381000J0D01*
G01*
X225619000Y-103407400D02*
G75*
G02*
X226381000Y-103407400I381000J0D01*
G01*
%TD*%
%LPC*%
D11*
%TO.C,H1*%
X190870000Y-91090000D03*
%TD*%
D12*
%TO.C,am1*%
X176900000Y-116000000D03*
X184520000Y-118540000D03*
X181980000Y-116000000D03*
X187060000Y-116000000D03*
D13*
X209920000Y-116000000D03*
D12*
X209920000Y-118540000D03*
X207380000Y-116000000D03*
X207380000Y-118540000D03*
X204840000Y-116000000D03*
X204840000Y-118540000D03*
X202300000Y-116000000D03*
X202300000Y-118540000D03*
X199760000Y-116000000D03*
X199760000Y-118540000D03*
X197220000Y-116000000D03*
X197220000Y-118540000D03*
X194680000Y-116000000D03*
X194680000Y-118540000D03*
X192140000Y-116000000D03*
X192140000Y-118540000D03*
X189600000Y-116000000D03*
X189600000Y-118540000D03*
X187060000Y-118540000D03*
X184520000Y-116000000D03*
X181980000Y-118540000D03*
X179440000Y-116000000D03*
X179440000Y-118540000D03*
X176900000Y-118540000D03*
X174360000Y-116000000D03*
X174360000Y-118540000D03*
X171820000Y-116000000D03*
X171820000Y-118540000D03*
%TD*%
D14*
%TO.C,SW1*%
X226000000Y-99699000D03*
X226000000Y-95000000D03*
X226000000Y-90301000D03*
%TD*%
D15*
%TO.C,U10*%
X155760000Y-95340000D03*
D16*
X155760000Y-97880000D03*
D15*
X155760000Y-92800000D03*
%TD*%
D17*
%TO.C,J1*%
X224350000Y-108730000D03*
D18*
X224350000Y-110730000D03*
%TD*%
D19*
%TO.C,J2*%
X159140000Y-103325000D03*
X159140000Y-111975000D03*
D20*
X154970000Y-103325000D03*
X154970000Y-111975000D03*
D21*
X158650000Y-104760000D03*
X158650000Y-110540000D03*
%TD*%
%LPD*%
M02*
