%TF.GenerationSoftware,KiCad,Pcbnew,9.0.0*%
%TF.CreationDate,2025-04-09T21:56:34+02:00*%
%TF.ProjectId,EEE3088F Project PCB,45454533-3038-4384-9620-50726f6a6563,rev?*%
%TF.SameCoordinates,Original*%
%TF.FileFunction,Copper,L2,Bot*%
%TF.FilePolarity,Positive*%
%FSLAX46Y46*%
G04 Gerber Fmt 4.6, Leading zero omitted, Abs format (unit mm)*
G04 Created by KiCad (PCBNEW 9.0.0) date 2025-04-09 21:56:34*
%MOMM*%
%LPD*%
G01*
G04 APERTURE LIST*
G04 Aperture macros list*
%AMRoundRect*
0 Rectangle with rounded corners*
0 $1 Rounding radius*
0 $2 $3 $4 $5 $6 $7 $8 $9 X,Y pos of 4 corners*
0 Add a 4 corners polygon primitive as box body*
4,1,4,$2,$3,$4,$5,$6,$7,$8,$9,$2,$3,0*
0 Add four circle primitives for the rounded corners*
1,1,$1+$1,$2,$3*
1,1,$1+$1,$4,$5*
1,1,$1+$1,$6,$7*
1,1,$1+$1,$8,$9*
0 Add four rect primitives between the rounded corners*
20,1,$1+$1,$2,$3,$4,$5,0*
20,1,$1+$1,$4,$5,$6,$7,0*
20,1,$1+$1,$6,$7,$8,$9,0*
20,1,$1+$1,$8,$9,$2,$3,0*%
G04 Aperture macros list end*
%TA.AperFunction,ComponentPad*%
%ADD10C,3.800000*%
%TD*%
%TA.AperFunction,ComponentPad*%
%ADD11C,2.057400*%
%TD*%
%TA.AperFunction,ComponentPad*%
%ADD12O,2.000000X1.905000*%
%TD*%
%TA.AperFunction,ComponentPad*%
%ADD13R,2.000000X1.905000*%
%TD*%
%TA.AperFunction,ComponentPad*%
%ADD14O,1.750000X1.200000*%
%TD*%
%TA.AperFunction,ComponentPad*%
%ADD15RoundRect,0.250000X0.625000X-0.350000X0.625000X0.350000X-0.625000X0.350000X-0.625000X-0.350000X0*%
%TD*%
%TA.AperFunction,ComponentPad*%
%ADD16O,2.000000X0.900000*%
%TD*%
%TA.AperFunction,ComponentPad*%
%ADD17O,1.700000X0.900000*%
%TD*%
%TA.AperFunction,ComponentPad*%
%ADD18O,1.700000X1.700000*%
%TD*%
%TA.AperFunction,ComponentPad*%
%ADD19R,1.700000X1.700000*%
%TD*%
%TA.AperFunction,ViaPad*%
%ADD20C,0.600000*%
%TD*%
%TA.AperFunction,Conductor*%
%ADD21C,0.400000*%
%TD*%
%TA.AperFunction,Conductor*%
%ADD22C,0.200000*%
%TD*%
%TA.AperFunction,Conductor*%
%ADD23C,0.300000*%
%TD*%
%TA.AperFunction,Conductor*%
%ADD24C,0.350000*%
%TD*%
G04 APERTURE END LIST*
D10*
%TO.P,H1,1*%
%TO.N,N/C*%
X190870000Y-91090000D03*
%TD*%
D11*
%TO.P,SW1,1,1*%
%TO.N,GND*%
X226000000Y-99699000D03*
%TO.P,SW1,2,2*%
%TO.N,/V_switch*%
X226000000Y-95000000D03*
%TO.P,SW1,3,3*%
%TO.N,/Battery*%
X226000000Y-90301000D03*
%TD*%
D12*
%TO.P,U10,2,GND*%
%TO.N,GND*%
X155760000Y-95340000D03*
D13*
%TO.P,U10,1,VI*%
%TO.N,/HV*%
X155760000Y-97880000D03*
D12*
%TO.P,U10,3,VO*%
%TO.N,/V_BATT_CHRG*%
X155760000Y-92800000D03*
%TD*%
D14*
%TO.P,J1,2,Pin_2*%
%TO.N,GND*%
X224350000Y-108730000D03*
D15*
%TO.P,J1,1,Pin_1*%
%TO.N,/Battery*%
X224350000Y-110730000D03*
%TD*%
D16*
%TO.P,J2,S1,shield*%
%TO.N,GND*%
X159140000Y-103325000D03*
%TO.P,J2,S2*%
%TO.N,N/C*%
X159140000Y-111975000D03*
D17*
%TO.P,J2,S3*%
X154970000Y-103325000D03*
%TO.P,J2,S4*%
X154970000Y-111975000D03*
%TD*%
D18*
%TO.P,am1,27,Pin_27*%
%TO.N,/MOTOR3_A_OUT*%
X176900000Y-116000000D03*
%TO.P,am1,22,Pin_22*%
%TO.N,/HV*%
X184520000Y-118540000D03*
%TO.P,am1,23,Pin_23*%
%TO.N,GND*%
X181980000Y-116000000D03*
%TO.P,am1,19,Pin_19*%
X187060000Y-116000000D03*
D19*
%TO.P,am1,1,Pin_1*%
%TO.N,/Motor2_B_OUT*%
X209920000Y-116000000D03*
D18*
%TO.P,am1,2,Pin_2*%
%TO.N,/Motor2_A_OUT*%
X209920000Y-118540000D03*
%TO.P,am1,3,Pin_3*%
%TO.N,/Motor4_A_OUT*%
X207380000Y-116000000D03*
%TO.P,am1,4,Pin_4*%
%TO.N,/MOTOR2_CTRL1*%
X207380000Y-118540000D03*
%TO.P,am1,5,Pin_5*%
%TO.N,/Motor4_B_OUT*%
X204840000Y-116000000D03*
%TO.P,am1,6,Pin_6*%
%TO.N,/MOTOR2_CTRL2*%
X204840000Y-118540000D03*
%TO.P,am1,7,Pin_7*%
%TO.N,/CTRL_EXT_LOAD2*%
X202300000Y-116000000D03*
%TO.P,am1,8,Pin_8*%
%TO.N,/MOTOR4_CTRL1*%
X202300000Y-118540000D03*
%TO.P,am1,9,Pin_9*%
%TO.N,/USART2_RX*%
X199760000Y-116000000D03*
%TO.P,am1,10,Pin_10*%
%TO.N,/MOTOR4_CTRL2*%
X199760000Y-118540000D03*
%TO.P,am1,11,Pin_11*%
%TO.N,/EXT_LOAD2_OUT*%
X197220000Y-116000000D03*
%TO.P,am1,12,Pin_12*%
%TO.N,/USART2_TX*%
X197220000Y-118540000D03*
%TO.P,am1,13,Pin_13*%
%TO.N,/FAST_CHARGE_CTRL*%
X194680000Y-116000000D03*
%TO.P,am1,14,Pin_14*%
%TO.N,/Battery*%
X194680000Y-118540000D03*
%TO.P,am1,15,Pin_15*%
%TO.N,unconnected-(am1-Pin_15-Pad15)*%
X192140000Y-116000000D03*
%TO.P,am1,16,Pin_16*%
%TO.N,/I2C1_SCL*%
X192140000Y-118540000D03*
%TO.P,am1,17,Pin_17*%
%TO.N,/I2C1_SDA*%
X189600000Y-116000000D03*
%TO.P,am1,18,Pin_18*%
%TO.N,/3V3 Out*%
X189600000Y-118540000D03*
%TO.P,am1,20,Pin_20*%
%TO.N,/5V Out*%
X187060000Y-118540000D03*
%TO.P,am1,21,Pin_21*%
%TO.N,/EXT_LOAD1_OUT*%
X184520000Y-116000000D03*
%TO.P,am1,24,Pin_24*%
%TO.N,/MOTOR3_CTRL1*%
X181980000Y-118540000D03*
%TO.P,am1,25,Pin_25*%
%TO.N,/CTRL_EXT_LOAD1*%
X179440000Y-116000000D03*
%TO.P,am1,26,Pin_26*%
%TO.N,/MOTOR3_CTRL2*%
X179440000Y-118540000D03*
%TO.P,am1,28,Pin_28*%
%TO.N,/MOTOR1_CTRL1*%
X176900000Y-118540000D03*
%TO.P,am1,29,Pin_29*%
%TO.N,/MOTOR3_B_OUT*%
X174360000Y-116000000D03*
%TO.P,am1,30,Pin_30*%
%TO.N,/MOTOR1_CTRL2*%
X174360000Y-118540000D03*
%TO.P,am1,31,Pin_31*%
%TO.N,/MOTOR1_B_OUT*%
X171820000Y-116000000D03*
%TO.P,am1,32,Pin_32*%
%TO.N,/MOTOR1_A_OUT*%
X171820000Y-118540000D03*
%TD*%
D20*
%TO.N,Net-(JP11-A)*%
X175500000Y-101500000D03*
%TO.N,GND*%
X180500000Y-108500000D03*
%TO.N,Net-(JP11-A)*%
X175078909Y-104078909D03*
%TO.N,/V_sensing*%
X211848000Y-121284000D03*
X211848000Y-107448000D03*
X211848000Y-102240000D03*
X204984000Y-107946000D03*
X200519000Y-103481000D03*
X200412000Y-90815400D03*
X200412000Y-85957500D03*
X180485000Y-87848800D03*
X180485000Y-102602000D03*
%TO.N,/VDD*%
X169767000Y-102329000D03*
%TO.N,GND*%
X157618000Y-112727000D03*
%TO.N,Net-(JP5-B)*%
X168648000Y-111277000D03*
%TO.N,/CC2*%
X162096000Y-104861000D03*
X160792000Y-108977000D03*
%TO.N,/HV*%
X174532000Y-95819000D03*
%TO.N,/VDD*%
X170516000Y-95581200D03*
%TO.N,GND*%
X161000000Y-122500000D03*
%TO.N,Net-(JP5-B)*%
X169930000Y-124375000D03*
%TO.N,GND*%
X210500000Y-120303000D03*
X201271000Y-122354000D03*
X184956000Y-120771000D03*
X201271000Y-125870000D03*
X212500000Y-118000000D03*
X226500000Y-121500000D03*
%TO.N,/Motor4_B_OUT*%
X194795000Y-120786000D03*
X181543000Y-123483000D03*
%TO.N,/3V3 Out*%
X217039000Y-93716200D03*
X217039000Y-85334500D03*
X188399000Y-95355000D03*
%TO.N,/Battery*%
X192573000Y-105315000D03*
X190870000Y-124397000D03*
X193090000Y-93361300D03*
X190049000Y-79399700D03*
%TO.N,/MOTOR4_CTRL2*%
X185545000Y-124976000D03*
%TO.N,/MOTOR3_B_OUT*%
X170479000Y-123075000D03*
%TO.N,/Motor2_A_OUT*%
X202673000Y-130116000D03*
X204232000Y-120131000D03*
%TO.N,/MOTOR1_B_OUT*%
X182589000Y-122270000D03*
X185933000Y-126036000D03*
%TO.N,/CTRL_EXT_LOAD1*%
X199784000Y-120152000D03*
X214278000Y-104017000D03*
%TO.N,/MOTOR2_CTRL1*%
X205510000Y-130433000D03*
%TO.N,/FAST_CHARGE_CTRL*%
X183808000Y-105376000D03*
X194680000Y-99172600D03*
X187840000Y-96621100D03*
%TO.N,/MOTOR3_CTRL2*%
X175991000Y-123195000D03*
%TO.N,/MOTOR2_CTRL2*%
X205524000Y-129515000D03*
%TO.N,/MOTOR4_CTRL1*%
X166970000Y-126452000D03*
X166970000Y-118951000D03*
X181924000Y-126000000D03*
%TO.N,/EXT_LOAD2_OUT*%
X210500000Y-108000000D03*
X211143000Y-101802000D03*
%TO.N,/MOTOR3_CTRL1*%
X179138000Y-125133000D03*
%TO.N,/MOTOR1_CTRL2*%
X202453000Y-125131000D03*
X212455000Y-119702000D03*
X212455000Y-122320000D03*
X202330000Y-120981000D03*
%TO.N,/5V Out*%
X208280000Y-99695000D03*
X208307000Y-91653600D03*
%TO.N,/Motor4_A_OUT*%
X196783000Y-127282000D03*
X203570000Y-119196000D03*
%TO.N,/CTRL_EXT_LOAD2*%
X207377000Y-103640000D03*
%TO.N,/Motor2_B_OUT*%
X208002000Y-122812000D03*
X200660000Y-123110000D03*
X197183000Y-128297000D03*
%TO.N,Net-(U1-VINT)*%
X203582000Y-124500000D03*
X202971000Y-121691000D03*
%TO.N,Net-(U2-VCP)*%
X170096000Y-116579000D03*
X170096000Y-112372000D03*
%TO.N,/V_switch*%
X197320000Y-90710100D03*
X197320000Y-102790000D03*
X222685000Y-84654700D03*
%TO.N,Net-(U7-FB)*%
X193885000Y-101127000D03*
X195103000Y-87729300D03*
%TO.N,Net-(JP1-B)*%
X175362000Y-87405000D03*
X176166000Y-78031700D03*
%TO.N,Net-(JP2-C)*%
X181708000Y-94685200D03*
X182452000Y-85107900D03*
%TO.N,Net-(JP6-B)*%
X175133000Y-124383000D03*
X169922000Y-121125000D03*
%TD*%
D21*
%TO.N,/Battery*%
X222500000Y-93801000D02*
X226000000Y-90301000D01*
X222500000Y-108880000D02*
X222500000Y-93801000D01*
X224350000Y-110730000D02*
X222500000Y-108880000D01*
%TO.N,/V_switch*%
X228000000Y-89969700D02*
X222685000Y-84654700D01*
X228000000Y-93000000D02*
X228000000Y-89969700D01*
X226000000Y-95000000D02*
X228000000Y-93000000D01*
%TO.N,/Battery*%
X192500000Y-94500000D02*
X192000000Y-94000000D01*
X193090000Y-93910000D02*
X192500000Y-94500000D01*
X192000000Y-94000000D02*
X187500000Y-94000000D01*
X193090000Y-93361300D02*
X193090000Y-93910000D01*
X193090000Y-104798000D02*
X193090000Y-94000000D01*
X187500000Y-88030900D02*
X187500000Y-94000000D01*
X193090000Y-82440900D02*
X187500000Y-88030900D01*
D22*
%TO.N,Net-(U7-FB)*%
X193885000Y-88947300D02*
X195103000Y-87729300D01*
X193885000Y-101127000D02*
X193885000Y-88947300D01*
%TO.N,GND*%
X161595000Y-116704000D02*
X157618000Y-112727000D01*
X161000000Y-122500000D02*
X161595000Y-121905000D01*
X161595000Y-121905000D02*
X161595000Y-116704000D01*
D21*
%TO.N,/V_sensing*%
X200225000Y-91001800D02*
X200225000Y-103187000D01*
D22*
X200519000Y-103481000D02*
X200225000Y-103187000D01*
%TO.N,Net-(U1-VINT)*%
X203582000Y-122302000D02*
X203582000Y-124500000D01*
X202971000Y-121691000D02*
X203582000Y-122302000D01*
D21*
%TO.N,/V_sensing*%
X211500000Y-120936000D02*
X211848000Y-121284000D01*
X211500000Y-107796000D02*
X211500000Y-120936000D01*
X211848000Y-107448000D02*
X211500000Y-107796000D01*
D22*
%TO.N,/EXT_LOAD2_OUT*%
X211246000Y-101906000D02*
X211143000Y-101802000D01*
X210500000Y-108000000D02*
X211246000Y-107254000D01*
X211246000Y-107254000D02*
X211246000Y-101906000D01*
D21*
%TO.N,/Battery*%
X191031000Y-117339000D02*
X190870000Y-117500000D01*
X193839000Y-117339000D02*
X191031000Y-117339000D01*
X193888000Y-117388000D02*
X193839000Y-117339000D01*
X190870000Y-124397000D02*
X190870000Y-117500000D01*
X190870000Y-117500000D02*
X190870000Y-115100764D01*
X190870000Y-115100764D02*
X191470764Y-114500000D01*
X191470764Y-114500000D02*
X193528000Y-114500000D01*
X194680000Y-117388000D02*
X193888000Y-117388000D01*
X194680000Y-118540000D02*
X194680000Y-117388000D01*
D23*
%TO.N,/Motor4_B_OUT*%
X184725000Y-121639000D02*
X182328000Y-121639000D01*
X191098000Y-125041000D02*
X188127000Y-125041000D01*
X182328000Y-121639000D02*
X181013500Y-122953500D01*
X194795000Y-121344000D02*
X191098000Y-125041000D01*
X188127000Y-125041000D02*
X184725000Y-121639000D01*
X181013500Y-122953500D02*
X181543000Y-123483000D01*
X194795000Y-120786000D02*
X194795000Y-121344000D01*
D22*
%TO.N,/CTRL_EXT_LOAD1*%
X201030000Y-118906000D02*
X199784000Y-120152000D01*
X201030000Y-118122000D02*
X201030000Y-118906000D01*
X201882000Y-117270000D02*
X201030000Y-118122000D01*
X203230000Y-117270000D02*
X201882000Y-117270000D01*
X209558000Y-109382000D02*
X203570000Y-115370000D01*
X203570000Y-116930000D02*
X203230000Y-117270000D01*
X209558000Y-102506000D02*
X209558000Y-109382000D01*
X211626000Y-101152000D02*
X210913000Y-101152000D01*
X210913000Y-101152000D02*
X209558000Y-102506000D01*
X203570000Y-115370000D02*
X203570000Y-116930000D01*
X214278000Y-104017000D02*
X214278000Y-103804000D01*
D24*
%TO.N,/MOTOR3_B_OUT*%
X171000000Y-122000000D02*
X170479000Y-122521000D01*
X170479000Y-122521000D02*
X170479000Y-123075000D01*
X171500000Y-121000000D02*
X171353057Y-121000000D01*
X171353057Y-121000000D02*
X171000000Y-121353057D01*
X171000000Y-121353057D02*
X171000000Y-122000000D01*
X172000000Y-120500000D02*
X171500000Y-121000000D01*
X173000000Y-120500000D02*
X172000000Y-120500000D01*
D23*
X173000000Y-117500000D02*
X173000000Y-120500000D01*
D24*
X173348000Y-117152000D02*
X173000000Y-117500000D01*
X174360000Y-117152000D02*
X173348000Y-117152000D01*
D23*
%TO.N,/Motor2_B_OUT*%
X208768000Y-119232000D02*
X208002000Y-119998000D01*
D21*
X208719000Y-119037471D02*
X208768000Y-119086471D01*
D23*
X208719000Y-117339000D02*
X208719000Y-119037471D01*
X208002000Y-119998000D02*
X208002000Y-122812000D01*
X209632000Y-117152000D02*
X209444783Y-117339000D01*
X209444783Y-117339000D02*
X208719000Y-117339000D01*
X208768000Y-119086471D02*
X208768000Y-119232000D01*
D22*
%TO.N,GND*%
X180500000Y-108500000D02*
X180500000Y-114520000D01*
%TO.N,Net-(JP11-A)*%
X175078909Y-101921091D02*
X175500000Y-101500000D01*
X175078909Y-104078909D02*
X175078909Y-101921091D01*
%TO.N,GND*%
X180500000Y-114520000D02*
X181980000Y-116000000D01*
D21*
%TO.N,/V_sensing*%
X211848000Y-107448000D02*
X211848000Y-102240000D01*
X200225000Y-103187000D02*
X204984000Y-107946000D01*
D22*
X200412000Y-90815400D02*
X200225000Y-91001800D01*
D21*
X200412000Y-85957500D02*
X200412000Y-90815400D01*
X180485000Y-102602000D02*
X180485000Y-87848800D01*
D22*
%TO.N,/VDD*%
X170516000Y-101581000D02*
X169767000Y-102329000D01*
%TO.N,GND*%
X157618000Y-103545000D02*
X157618000Y-112727000D01*
%TO.N,/VDD*%
X170516000Y-95581200D02*
X170516000Y-101581000D01*
%TO.N,Net-(JP5-B)*%
X168648000Y-111277000D02*
X168648000Y-123093000D01*
%TO.N,/CC2*%
X162096000Y-104861000D02*
X162096000Y-107674000D01*
%TO.N,GND*%
X159140000Y-103325000D02*
X157838000Y-103325000D01*
%TO.N,/CC2*%
X162096000Y-107674000D02*
X160792000Y-108977000D01*
%TO.N,GND*%
X157838000Y-103325000D02*
X157618000Y-103545000D01*
%TO.N,Net-(JP5-B)*%
X168648000Y-123093000D02*
X169930000Y-124375000D01*
%TO.N,GND*%
X157838000Y-97577200D02*
X157838000Y-103325000D01*
%TO.N,/HV*%
X174532000Y-95819000D02*
X174532000Y-97500200D01*
%TO.N,GND*%
X156855000Y-96594200D02*
X157838000Y-97577200D01*
%TO.N,/HV*%
X174532000Y-97500200D02*
X183368000Y-106336000D01*
%TO.N,GND*%
X155760000Y-96594200D02*
X156855000Y-96594200D01*
%TO.N,/HV*%
X183368000Y-106336000D02*
X183368000Y-116525000D01*
%TO.N,GND*%
X155760000Y-95340000D02*
X155760000Y-96594200D01*
%TO.N,/HV*%
X183368000Y-116525000D02*
X184232000Y-117388000D01*
X184232000Y-117388000D02*
X184520000Y-117388000D01*
X184520000Y-117388000D02*
X184520000Y-118540000D01*
D23*
%TO.N,GND*%
X201271000Y-122354000D02*
X201271000Y-125870000D01*
D22*
X184956000Y-120771000D02*
X183132000Y-118947000D01*
X183132000Y-118947000D02*
X183132000Y-118015000D01*
X183132000Y-118015000D02*
X182268000Y-117152000D01*
X182268000Y-117152000D02*
X181980000Y-117152000D01*
X181980000Y-117152000D02*
X181980000Y-116000000D01*
X224350000Y-101349000D02*
X226000000Y-99699000D01*
X224350000Y-108730000D02*
X224350000Y-101349000D01*
%TO.N,/3V3 Out*%
X188442000Y-116518000D02*
X188442000Y-95397400D01*
X188442000Y-95397400D02*
X188399000Y-95355000D01*
X189312000Y-117388000D02*
X188442000Y-116518000D01*
X217039000Y-93716200D02*
X217039000Y-85334500D01*
X189600000Y-118540000D02*
X189600000Y-117388000D01*
X189600000Y-117388000D02*
X189312000Y-117388000D01*
D21*
%TO.N,/Battery*%
X193090000Y-94000000D02*
X193090000Y-93361300D01*
X193528000Y-106270000D02*
X192573000Y-105315000D01*
X190049000Y-79399700D02*
X193090000Y-82440900D01*
X193528000Y-114500000D02*
X193528000Y-106270000D01*
X192573000Y-105315000D02*
X193090000Y-104798000D01*
D22*
%TO.N,/MOTOR4_CTRL2*%
X198608000Y-118808000D02*
X198608000Y-118540000D01*
X187736000Y-125443000D02*
X191974000Y-125443000D01*
X187270000Y-124976000D02*
X187736000Y-125443000D01*
X185545000Y-124976000D02*
X187270000Y-124976000D01*
X198608000Y-118540000D02*
X199760000Y-118540000D01*
X191974000Y-125443000D02*
X198608000Y-118808000D01*
D23*
%TO.N,/MOTOR3_B_OUT*%
X174360000Y-116000000D02*
X174360000Y-117152000D01*
D21*
%TO.N,/Motor2_A_OUT*%
X204232000Y-128557000D02*
X204232000Y-120131000D01*
X202673000Y-130116000D02*
X204232000Y-128557000D01*
D22*
%TO.N,/MOTOR1_B_OUT*%
X185933000Y-126036000D02*
X185698000Y-126036000D01*
D24*
X182589000Y-122927000D02*
X182589000Y-122270000D01*
D23*
X185698000Y-126036000D02*
X182589000Y-122927000D01*
D22*
%TO.N,/MOTOR2_CTRL1*%
X207380000Y-118540000D02*
X207380000Y-128564000D01*
X207380000Y-128564000D02*
X205510000Y-130433000D01*
%TO.N,/FAST_CHARGE_CTRL*%
X187840000Y-101343000D02*
X183808000Y-105376000D01*
X187840000Y-96621100D02*
X187840000Y-101343000D01*
X194680000Y-116000000D02*
X194680000Y-99172600D01*
%TO.N,/MOTOR3_CTRL2*%
X179440000Y-118540000D02*
X179440000Y-119745000D01*
X179440000Y-119745000D02*
X175991000Y-123195000D01*
%TO.N,/MOTOR4_CTRL1*%
X166970000Y-126452000D02*
X166970000Y-118951000D01*
X202200000Y-119692000D02*
X195241000Y-126652000D01*
X195241000Y-126652000D02*
X182576000Y-126652000D01*
X202300000Y-118540000D02*
X202300000Y-119692000D01*
X202300000Y-119692000D02*
X202200000Y-119692000D01*
X182576000Y-126652000D02*
X181924000Y-126000000D01*
%TO.N,/MOTOR3_CTRL1*%
X179138000Y-122533000D02*
X179138000Y-125133000D01*
X181980000Y-119692000D02*
X179138000Y-122533000D01*
X181980000Y-118540000D02*
X181980000Y-119692000D01*
%TO.N,/MOTOR1_CTRL2*%
X202330000Y-125008000D02*
X202453000Y-125131000D01*
X202330000Y-120981000D02*
X202330000Y-125008000D01*
X212455000Y-119702000D02*
X212455000Y-122320000D01*
D21*
%TO.N,/5V Out*%
X208307000Y-91653600D02*
X208307000Y-99667800D01*
D22*
X208307000Y-99667800D02*
X208280000Y-99695000D01*
%TO.N,/Motor4_A_OUT*%
X202386000Y-120379000D02*
X202081000Y-120379000D01*
X201728000Y-121038000D02*
X196783000Y-125983000D01*
X203570000Y-119196000D02*
X202386000Y-120379000D01*
X196783000Y-125983000D02*
X196783000Y-127282000D01*
X201728000Y-120732000D02*
X201728000Y-121038000D01*
X202081000Y-120379000D02*
X201728000Y-120732000D01*
%TO.N,/CTRL_EXT_LOAD2*%
X207376000Y-109772000D02*
X202300000Y-114848000D01*
X207377000Y-103640000D02*
X207376000Y-103640000D01*
X202300000Y-114848000D02*
X202300000Y-116000000D01*
D21*
X207376000Y-103640000D02*
X207376000Y-109772000D01*
%TO.N,/Motor2_B_OUT*%
X197183000Y-128297000D02*
X200660000Y-124820000D01*
X200660000Y-124820000D02*
X200660000Y-123110000D01*
D23*
X209920000Y-116000000D02*
X209920000Y-117152000D01*
D22*
X209920000Y-117152000D02*
X209632000Y-117152000D01*
%TO.N,Net-(U2-VCP)*%
X170096000Y-116579000D02*
X170096000Y-112372000D01*
%TO.N,/V_switch*%
X197320000Y-90710100D02*
X197320000Y-102790000D01*
%TO.N,Net-(JP1-B)*%
X176166000Y-78031700D02*
X176166000Y-86600900D01*
X176166000Y-86600900D02*
X175362000Y-87405000D01*
%TO.N,Net-(JP2-C)*%
X182452000Y-93941500D02*
X181708000Y-94685200D01*
X182452000Y-85107900D02*
X182452000Y-93941500D01*
%TO.N,Net-(JP6-B)*%
X170909000Y-124383000D02*
X175133000Y-124383000D01*
X169851000Y-121195000D02*
X169851000Y-123325000D01*
X169922000Y-121125000D02*
X169851000Y-121195000D01*
X169851000Y-123325000D02*
X170909000Y-124383000D01*
%TO.N,/MOTOR2_CTRL2*%
X204840000Y-128832000D02*
X205524000Y-129515000D01*
X204840000Y-118540000D02*
X204840000Y-128832000D01*
%TO.N,/CTRL_EXT_LOAD1*%
X214278000Y-103804000D02*
X211626000Y-101152000D01*
%TD*%
%TA.AperFunction,Conductor*%
%TO.N,/Battery*%
G36*
X175325674Y-77750185D02*
G01*
X175371429Y-77802989D01*
X175381373Y-77872147D01*
X175380252Y-77878691D01*
X175365500Y-77952853D01*
X175365500Y-78110546D01*
X175396261Y-78265189D01*
X175396264Y-78265201D01*
X175456602Y-78410872D01*
X175456609Y-78410885D01*
X175544602Y-78542574D01*
X175565480Y-78609251D01*
X175565500Y-78611465D01*
X175565500Y-86300827D01*
X175545815Y-86367866D01*
X175529187Y-86388503D01*
X175347279Y-86570433D01*
X175285957Y-86603922D01*
X175283784Y-86604374D01*
X175128508Y-86635261D01*
X175128498Y-86635264D01*
X174982827Y-86695602D01*
X174982814Y-86695609D01*
X174851711Y-86783210D01*
X174851707Y-86783213D01*
X174740213Y-86894707D01*
X174740210Y-86894711D01*
X174652609Y-87025814D01*
X174652602Y-87025827D01*
X174592264Y-87171498D01*
X174592261Y-87171510D01*
X174561500Y-87326153D01*
X174561500Y-87483846D01*
X174592261Y-87638489D01*
X174592264Y-87638501D01*
X174652602Y-87784172D01*
X174652609Y-87784185D01*
X174740210Y-87915288D01*
X174740213Y-87915292D01*
X174851707Y-88026786D01*
X174851711Y-88026789D01*
X174982814Y-88114390D01*
X174982827Y-88114397D01*
X175128498Y-88174735D01*
X175128503Y-88174737D01*
X175283153Y-88205499D01*
X175283156Y-88205500D01*
X175283158Y-88205500D01*
X175440844Y-88205500D01*
X175440845Y-88205499D01*
X175595497Y-88174737D01*
X175741179Y-88114394D01*
X175872289Y-88026789D01*
X175983789Y-87915289D01*
X176071394Y-87784179D01*
X176077285Y-87769958D01*
X176126496Y-87651150D01*
X176131737Y-87638497D01*
X176162500Y-87483842D01*
X176162650Y-87483088D01*
X176195035Y-87421177D01*
X176196542Y-87419641D01*
X176582269Y-87033865D01*
X176582275Y-87033861D01*
X176644739Y-86971397D01*
X176646432Y-86969775D01*
X176646540Y-86969587D01*
X176646542Y-86969586D01*
X176682424Y-86907427D01*
X176723653Y-86836015D01*
X176725176Y-86833563D01*
X176725562Y-86832709D01*
X176725577Y-86832684D01*
X176725579Y-86832670D01*
X176725585Y-86832658D01*
X176725591Y-86832650D01*
X176725593Y-86832640D01*
X176725782Y-86832224D01*
X176726427Y-86829529D01*
X176746524Y-86754508D01*
X176746526Y-86754502D01*
X176762306Y-86695609D01*
X176766500Y-86679957D01*
X176766500Y-86679949D01*
X176766502Y-86679927D01*
X176766505Y-86679920D01*
X176766500Y-86600863D01*
X176766500Y-78611465D01*
X176786185Y-78544426D01*
X176787398Y-78542574D01*
X176875390Y-78410885D01*
X176875390Y-78410884D01*
X176875394Y-78410879D01*
X176935737Y-78265197D01*
X176966500Y-78110542D01*
X176966500Y-77952858D01*
X176966500Y-77952855D01*
X176966499Y-77952853D01*
X176951748Y-77878691D01*
X176957975Y-77809100D01*
X177000838Y-77753922D01*
X177066728Y-77730678D01*
X177073365Y-77730500D01*
X231145226Y-77730500D01*
X231212265Y-77750185D01*
X231258020Y-77802989D01*
X231269225Y-77854595D01*
X231239275Y-116539882D01*
X231239077Y-116795596D01*
X231219341Y-116862620D01*
X231166501Y-116908334D01*
X231115077Y-116919500D01*
X212324500Y-116919500D01*
X212257461Y-116899815D01*
X212211706Y-116847011D01*
X212200500Y-116795500D01*
X212200500Y-108643389D01*
X222974500Y-108643389D01*
X222974500Y-108816611D01*
X223001598Y-108987701D01*
X223055127Y-109152445D01*
X223133768Y-109306788D01*
X223235586Y-109446928D01*
X223235588Y-109446930D01*
X223343491Y-109554833D01*
X223376976Y-109616156D01*
X223371992Y-109685848D01*
X223330120Y-109741781D01*
X223320907Y-109748053D01*
X223256654Y-109787684D01*
X223132684Y-109911654D01*
X223040643Y-110060875D01*
X223040641Y-110060880D01*
X222985494Y-110227302D01*
X222985493Y-110227309D01*
X222975000Y-110330013D01*
X222975000Y-110480000D01*
X224069670Y-110480000D01*
X224049925Y-110499745D01*
X224000556Y-110585255D01*
X223975000Y-110680630D01*
X223975000Y-110779370D01*
X224000556Y-110874745D01*
X224049925Y-110960255D01*
X224069670Y-110980000D01*
X222975001Y-110980000D01*
X222975001Y-111129986D01*
X222985494Y-111232697D01*
X223040641Y-111399119D01*
X223040643Y-111399124D01*
X223132684Y-111548345D01*
X223256654Y-111672315D01*
X223405875Y-111764356D01*
X223405880Y-111764358D01*
X223572302Y-111819505D01*
X223572309Y-111819506D01*
X223675019Y-111829999D01*
X224099999Y-111829999D01*
X224100000Y-111829998D01*
X224100000Y-111010330D01*
X224119745Y-111030075D01*
X224205255Y-111079444D01*
X224300630Y-111105000D01*
X224399370Y-111105000D01*
X224494745Y-111079444D01*
X224580255Y-111030075D01*
X224600000Y-111010330D01*
X224600000Y-111829999D01*
X225024972Y-111829999D01*
X225024986Y-111829998D01*
X225127697Y-111819505D01*
X225294119Y-111764358D01*
X225294124Y-111764356D01*
X225443345Y-111672315D01*
X225567315Y-111548345D01*
X225659356Y-111399124D01*
X225659358Y-111399119D01*
X225714505Y-111232697D01*
X225714506Y-111232690D01*
X225724999Y-111129986D01*
X225725000Y-111129973D01*
X225725000Y-110980000D01*
X224630330Y-110980000D01*
X224650075Y-110960255D01*
X224699444Y-110874745D01*
X224725000Y-110779370D01*
X224725000Y-110680630D01*
X224699444Y-110585255D01*
X224650075Y-110499745D01*
X224630330Y-110480000D01*
X225724999Y-110480000D01*
X225724999Y-110330028D01*
X225724998Y-110330013D01*
X225714505Y-110227302D01*
X225659358Y-110060880D01*
X225659356Y-110060875D01*
X225567315Y-109911654D01*
X225443343Y-109787682D01*
X225379093Y-109748053D01*
X225332368Y-109696105D01*
X225321145Y-109627143D01*
X225348988Y-109563061D01*
X225356486Y-109554855D01*
X225464414Y-109446928D01*
X225566232Y-109306788D01*
X225644873Y-109152445D01*
X225698402Y-108987701D01*
X225725500Y-108816611D01*
X225725500Y-108643389D01*
X225698402Y-108472299D01*
X225644873Y-108307555D01*
X225566232Y-108153212D01*
X225464414Y-108013072D01*
X225341928Y-107890586D01*
X225201788Y-107788768D01*
X225047445Y-107710127D01*
X225047444Y-107710126D01*
X225047445Y-107710126D01*
X225036177Y-107706465D01*
X224978503Y-107667025D01*
X224951308Y-107602666D01*
X224950500Y-107588536D01*
X224950500Y-101649096D01*
X224970185Y-101582057D01*
X224986815Y-101561419D01*
X225373660Y-101174573D01*
X225434981Y-101141090D01*
X225499657Y-101144325D01*
X225641911Y-101190546D01*
X225879649Y-101228200D01*
X225879650Y-101228200D01*
X226120350Y-101228200D01*
X226120351Y-101228200D01*
X226358089Y-101190546D01*
X226578752Y-101118848D01*
X226587006Y-101116167D01*
X226587009Y-101116166D01*
X226599122Y-101109994D01*
X226801476Y-101006889D01*
X226996207Y-100865409D01*
X227166409Y-100695207D01*
X227307889Y-100500476D01*
X227417166Y-100286009D01*
X227491546Y-100057089D01*
X227529200Y-99819351D01*
X227529200Y-99578649D01*
X227491546Y-99340911D01*
X227442528Y-99190047D01*
X227417167Y-99111993D01*
X227417166Y-99111990D01*
X227352188Y-98984465D01*
X227307889Y-98897524D01*
X227289814Y-98872646D01*
X227166414Y-98702799D01*
X227166410Y-98702794D01*
X226996205Y-98532589D01*
X226996200Y-98532585D01*
X226801479Y-98391113D01*
X226801478Y-98391112D01*
X226801476Y-98391111D01*
X226725531Y-98352415D01*
X226587009Y-98281833D01*
X226587006Y-98281832D01*
X226358090Y-98207454D01*
X226239220Y-98188627D01*
X226120351Y-98169800D01*
X225879649Y-98169800D01*
X225800403Y-98182351D01*
X225641909Y-98207454D01*
X225412993Y-98281832D01*
X225412990Y-98281833D01*
X225198520Y-98391113D01*
X225003799Y-98532585D01*
X225003794Y-98532589D01*
X224833589Y-98702794D01*
X224833585Y-98702799D01*
X224692113Y-98897520D01*
X224582833Y-99111990D01*
X224582832Y-99111993D01*
X224508454Y-99340909D01*
X224470800Y-99578649D01*
X224470800Y-99819350D01*
X224508454Y-100057092D01*
X224554673Y-100199342D01*
X224556668Y-100269183D01*
X224524423Y-100325340D01*
X223981286Y-100868478D01*
X223869481Y-100980282D01*
X223869475Y-100980290D01*
X223821764Y-101062930D01*
X223821764Y-101062931D01*
X223790423Y-101117215D01*
X223749499Y-101269943D01*
X223749499Y-101269945D01*
X223749499Y-101438046D01*
X223749500Y-101438059D01*
X223749500Y-107588536D01*
X223729815Y-107655575D01*
X223677011Y-107701330D01*
X223663823Y-107706465D01*
X223652555Y-107710126D01*
X223498211Y-107788768D01*
X223439922Y-107831118D01*
X223358072Y-107890586D01*
X223358070Y-107890588D01*
X223358069Y-107890588D01*
X223235588Y-108013069D01*
X223235588Y-108013070D01*
X223235586Y-108013072D01*
X223213915Y-108042900D01*
X223133768Y-108153211D01*
X223055128Y-108307552D01*
X223001597Y-108472302D01*
X222981718Y-108597814D01*
X222974500Y-108643389D01*
X212200500Y-108643389D01*
X212200500Y-108241499D01*
X212220185Y-108174460D01*
X212255607Y-108138398D01*
X212358289Y-108069789D01*
X212469789Y-107958289D01*
X212557394Y-107827179D01*
X212617737Y-107681497D01*
X212648500Y-107526842D01*
X212648500Y-107369158D01*
X212648500Y-107369155D01*
X212648499Y-107369153D01*
X212622134Y-107236609D01*
X212617737Y-107214503D01*
X212573328Y-107107289D01*
X212557939Y-107070136D01*
X212548500Y-107022684D01*
X212548500Y-103223097D01*
X212568185Y-103156058D01*
X212620989Y-103110303D01*
X212690147Y-103100359D01*
X212753703Y-103129384D01*
X212760181Y-103135416D01*
X213444805Y-103820040D01*
X213478290Y-103881363D01*
X213478743Y-103931904D01*
X213477500Y-103938154D01*
X213477500Y-104095846D01*
X213508261Y-104250489D01*
X213508264Y-104250501D01*
X213568602Y-104396172D01*
X213568609Y-104396185D01*
X213656210Y-104527288D01*
X213656213Y-104527292D01*
X213767707Y-104638786D01*
X213767711Y-104638789D01*
X213898814Y-104726390D01*
X213898827Y-104726397D01*
X214033436Y-104782153D01*
X214044503Y-104786737D01*
X214199153Y-104817499D01*
X214199156Y-104817500D01*
X214199158Y-104817500D01*
X214356844Y-104817500D01*
X214356845Y-104817499D01*
X214511497Y-104786737D01*
X214657179Y-104726394D01*
X214788289Y-104638789D01*
X214899789Y-104527289D01*
X214987394Y-104396179D01*
X215047737Y-104250497D01*
X215078500Y-104095842D01*
X215078500Y-103938158D01*
X215078500Y-103938155D01*
X215078499Y-103938153D01*
X215060053Y-103845419D01*
X215047737Y-103783503D01*
X215044311Y-103775231D01*
X214987397Y-103637827D01*
X214987390Y-103637814D01*
X214899789Y-103506711D01*
X214899786Y-103506707D01*
X214788292Y-103395213D01*
X214788288Y-103395210D01*
X214657185Y-103307609D01*
X214657175Y-103307604D01*
X214635003Y-103298420D01*
X214594775Y-103271540D01*
X212113590Y-100790355D01*
X212113588Y-100790352D01*
X211994717Y-100671481D01*
X211994716Y-100671480D01*
X211907904Y-100621360D01*
X211907904Y-100621359D01*
X211907900Y-100621358D01*
X211857785Y-100592423D01*
X211705057Y-100551499D01*
X211546943Y-100551499D01*
X211539347Y-100551499D01*
X211539331Y-100551500D01*
X210913221Y-100551500D01*
X210834164Y-100551471D01*
X210834056Y-100551500D01*
X210833943Y-100551500D01*
X210757266Y-100572045D01*
X210749398Y-100574149D01*
X210749391Y-100574151D01*
X210681404Y-100592342D01*
X210681215Y-100592421D01*
X210611827Y-100632483D01*
X210611789Y-100632506D01*
X210544455Y-100671348D01*
X210544286Y-100671477D01*
X210487522Y-100728241D01*
X209195151Y-102019658D01*
X209195150Y-102019657D01*
X209189376Y-102025426D01*
X209189284Y-102025480D01*
X209134723Y-102080039D01*
X209133280Y-102081482D01*
X209131874Y-102082889D01*
X209131844Y-102082919D01*
X209077607Y-102137116D01*
X209077481Y-102137282D01*
X209037332Y-102206822D01*
X209037310Y-102206860D01*
X208998507Y-102274012D01*
X208998427Y-102274202D01*
X208998423Y-102274215D01*
X208998423Y-102274216D01*
X208978660Y-102347974D01*
X208978014Y-102350384D01*
X208978002Y-102350427D01*
X208957528Y-102426722D01*
X208957500Y-102426933D01*
X208957500Y-102504484D01*
X208957467Y-102592674D01*
X208957500Y-102593177D01*
X208957500Y-109081902D01*
X208937815Y-109148941D01*
X208921181Y-109169583D01*
X208288181Y-109802583D01*
X208226858Y-109836068D01*
X208157166Y-109831084D01*
X208101233Y-109789212D01*
X208076816Y-109723748D01*
X208076500Y-109714902D01*
X208076500Y-104067730D01*
X208085939Y-104020278D01*
X208122544Y-103931904D01*
X208146737Y-103873497D01*
X208177500Y-103718842D01*
X208177500Y-103561158D01*
X208177500Y-103561155D01*
X208177499Y-103561153D01*
X208174750Y-103547331D01*
X208146737Y-103406503D01*
X208105772Y-103307604D01*
X208086397Y-103260827D01*
X208086390Y-103260814D01*
X207998789Y-103129711D01*
X207998786Y-103129707D01*
X207887292Y-103018213D01*
X207887288Y-103018210D01*
X207756185Y-102930609D01*
X207756172Y-102930602D01*
X207610501Y-102870264D01*
X207610489Y-102870261D01*
X207455845Y-102839500D01*
X207455842Y-102839500D01*
X207298158Y-102839500D01*
X207298155Y-102839500D01*
X207143510Y-102870261D01*
X207143498Y-102870264D01*
X206997827Y-102930602D01*
X206997814Y-102930609D01*
X206866711Y-103018210D01*
X206866707Y-103018213D01*
X206755213Y-103129707D01*
X206755210Y-103129711D01*
X206667609Y-103260814D01*
X206667602Y-103260827D01*
X206607264Y-103406498D01*
X206607261Y-103406510D01*
X206576500Y-103561153D01*
X206576500Y-103718846D01*
X206607261Y-103873489D01*
X206607264Y-103873501D01*
X206666061Y-104015450D01*
X206675500Y-104062902D01*
X206675500Y-109571902D01*
X206655815Y-109638941D01*
X206639181Y-109659583D01*
X201819481Y-114479282D01*
X201819480Y-114479284D01*
X201769360Y-114566095D01*
X201740423Y-114616215D01*
X201705751Y-114745607D01*
X201703865Y-114750772D01*
X201686244Y-114774641D01*
X201670804Y-114799974D01*
X201664154Y-114804567D01*
X201662370Y-114806985D01*
X201658549Y-114808439D01*
X201643692Y-114818703D01*
X201592180Y-114844950D01*
X201420213Y-114969890D01*
X201269890Y-115120213D01*
X201144949Y-115292182D01*
X201140484Y-115300946D01*
X201092509Y-115351742D01*
X201024688Y-115368536D01*
X200958553Y-115345998D01*
X200919516Y-115300946D01*
X200915050Y-115292182D01*
X200790109Y-115120213D01*
X200639786Y-114969890D01*
X200467820Y-114844951D01*
X200278414Y-114748444D01*
X200278413Y-114748443D01*
X200278412Y-114748443D01*
X200076243Y-114682754D01*
X200076241Y-114682753D01*
X200076240Y-114682753D01*
X199914957Y-114657208D01*
X199866287Y-114649500D01*
X199653713Y-114649500D01*
X199605042Y-114657208D01*
X199443760Y-114682753D01*
X199241585Y-114748444D01*
X199052179Y-114844951D01*
X198880213Y-114969890D01*
X198729890Y-115120213D01*
X198604949Y-115292182D01*
X198600484Y-115300946D01*
X198552509Y-115351742D01*
X198484688Y-115368536D01*
X198418553Y-115345998D01*
X198379516Y-115300946D01*
X198375050Y-115292182D01*
X198250109Y-115120213D01*
X198099786Y-114969890D01*
X197927820Y-114844951D01*
X197738414Y-114748444D01*
X197738413Y-114748443D01*
X197738412Y-114748443D01*
X197536243Y-114682754D01*
X197536241Y-114682753D01*
X197536240Y-114682753D01*
X197374957Y-114657208D01*
X197326287Y-114649500D01*
X197113713Y-114649500D01*
X197065042Y-114657208D01*
X196903760Y-114682753D01*
X196701585Y-114748444D01*
X196512179Y-114844951D01*
X196340213Y-114969890D01*
X196189890Y-115120213D01*
X196064949Y-115292182D01*
X196060484Y-115300946D01*
X196012509Y-115351742D01*
X195944688Y-115368536D01*
X195878553Y-115345998D01*
X195839516Y-115300946D01*
X195835050Y-115292182D01*
X195710109Y-115120213D01*
X195559786Y-114969890D01*
X195387815Y-114844948D01*
X195387814Y-114844947D01*
X195348205Y-114824765D01*
X195297409Y-114776791D01*
X195280500Y-114714281D01*
X195280500Y-99752365D01*
X195300185Y-99685326D01*
X195301398Y-99683474D01*
X195389390Y-99551785D01*
X195389390Y-99551784D01*
X195389394Y-99551779D01*
X195449737Y-99406097D01*
X195480500Y-99251442D01*
X195480500Y-99093758D01*
X195480500Y-99093755D01*
X195480499Y-99093753D01*
X195449738Y-98939110D01*
X195449737Y-98939103D01*
X195425409Y-98880370D01*
X195389397Y-98793427D01*
X195389390Y-98793414D01*
X195301789Y-98662311D01*
X195301786Y-98662307D01*
X195190292Y-98550813D01*
X195190288Y-98550810D01*
X195059185Y-98463209D01*
X195059172Y-98463202D01*
X194913501Y-98402864D01*
X194913489Y-98402861D01*
X194758845Y-98372100D01*
X194758842Y-98372100D01*
X194609500Y-98372100D01*
X194542461Y-98352415D01*
X194496706Y-98299611D01*
X194485500Y-98248100D01*
X194485500Y-90631253D01*
X196519500Y-90631253D01*
X196519500Y-90788946D01*
X196550261Y-90943589D01*
X196550264Y-90943601D01*
X196610602Y-91089272D01*
X196610609Y-91089285D01*
X196698602Y-91220974D01*
X196719480Y-91287651D01*
X196719500Y-91289865D01*
X196719500Y-102210234D01*
X196699815Y-102277273D01*
X196698602Y-102279125D01*
X196610609Y-102410814D01*
X196610602Y-102410827D01*
X196550264Y-102556498D01*
X196550261Y-102556510D01*
X196519500Y-102711153D01*
X196519500Y-102868846D01*
X196550261Y-103023489D01*
X196550264Y-103023501D01*
X196610602Y-103169172D01*
X196610609Y-103169185D01*
X196698210Y-103300288D01*
X196698213Y-103300292D01*
X196809707Y-103411786D01*
X196809711Y-103411789D01*
X196940814Y-103499390D01*
X196940827Y-103499397D01*
X197056552Y-103547331D01*
X197086503Y-103559737D01*
X197241153Y-103590499D01*
X197241156Y-103590500D01*
X197241158Y-103590500D01*
X197398844Y-103590500D01*
X197398845Y-103590499D01*
X197553497Y-103559737D01*
X197699179Y-103499394D01*
X197830289Y-103411789D01*
X197941789Y-103300289D01*
X197971385Y-103255996D01*
X199524499Y-103255996D01*
X199551418Y-103391322D01*
X199551421Y-103391332D01*
X199604222Y-103518807D01*
X199680887Y-103633545D01*
X199722928Y-103675586D01*
X199749808Y-103715814D01*
X199809604Y-103860176D01*
X199809609Y-103860185D01*
X199897210Y-103991288D01*
X199897213Y-103991292D01*
X200008707Y-104102786D01*
X200008711Y-104102789D01*
X200139814Y-104190390D01*
X200139827Y-104190397D01*
X200284187Y-104250192D01*
X200324416Y-104277072D01*
X204187927Y-108140583D01*
X204214807Y-108180812D01*
X204274602Y-108325172D01*
X204274609Y-108325185D01*
X204362210Y-108456288D01*
X204362213Y-108456292D01*
X204473707Y-108567786D01*
X204473711Y-108567789D01*
X204604814Y-108655390D01*
X204604827Y-108655397D01*
X204750498Y-108715735D01*
X204750503Y-108715737D01*
X204905153Y-108746499D01*
X204905156Y-108746500D01*
X204905158Y-108746500D01*
X205062844Y-108746500D01*
X205062845Y-108746499D01*
X205217497Y-108715737D01*
X205363179Y-108655394D01*
X205494289Y-108567789D01*
X205605789Y-108456289D01*
X205693394Y-108325179D01*
X205753737Y-108179497D01*
X205784500Y-108024842D01*
X205784500Y-107867158D01*
X205784500Y-107867155D01*
X205784499Y-107867153D01*
X205761825Y-107753165D01*
X205753737Y-107712503D01*
X205752753Y-107710127D01*
X205693397Y-107566827D01*
X205693390Y-107566814D01*
X205605789Y-107435711D01*
X205605786Y-107435707D01*
X205494292Y-107324213D01*
X205494288Y-107324210D01*
X205363185Y-107236609D01*
X205363172Y-107236602D01*
X205218812Y-107176807D01*
X205178583Y-107149927D01*
X201315072Y-103286416D01*
X201288192Y-103246187D01*
X201228397Y-103101827D01*
X201228390Y-103101814D01*
X201140789Y-102970711D01*
X201140786Y-102970707D01*
X201029292Y-102859213D01*
X200980608Y-102826683D01*
X200935804Y-102773070D01*
X200925500Y-102723581D01*
X200925500Y-99616153D01*
X207479500Y-99616153D01*
X207479500Y-99773846D01*
X207510261Y-99928489D01*
X207510264Y-99928501D01*
X207570602Y-100074172D01*
X207570609Y-100074185D01*
X207658210Y-100205288D01*
X207658213Y-100205292D01*
X207769707Y-100316786D01*
X207769711Y-100316789D01*
X207900814Y-100404390D01*
X207900827Y-100404397D01*
X208046498Y-100464735D01*
X208046503Y-100464737D01*
X208201153Y-100495499D01*
X208201156Y-100495500D01*
X208201158Y-100495500D01*
X208358844Y-100495500D01*
X208358845Y-100495499D01*
X208513497Y-100464737D01*
X208659179Y-100404394D01*
X208790289Y-100316789D01*
X208901789Y-100205289D01*
X208989394Y-100074179D01*
X209049737Y-99928497D01*
X209080500Y-99773842D01*
X209080500Y-99616158D01*
X209080500Y-99616155D01*
X209080499Y-99616153D01*
X209049739Y-99461511D01*
X209049736Y-99461501D01*
X209016939Y-99382321D01*
X209007500Y-99334869D01*
X209007500Y-92078916D01*
X209016939Y-92031464D01*
X209076735Y-91887101D01*
X209076737Y-91887097D01*
X209107500Y-91732442D01*
X209107500Y-91574758D01*
X209107500Y-91574755D01*
X209107499Y-91574753D01*
X209091184Y-91492732D01*
X209076737Y-91420103D01*
X209037629Y-91325687D01*
X209016397Y-91274427D01*
X209016390Y-91274414D01*
X208928789Y-91143311D01*
X208928786Y-91143307D01*
X208817292Y-91031813D01*
X208817288Y-91031810D01*
X208686185Y-90944209D01*
X208686172Y-90944202D01*
X208540501Y-90883864D01*
X208540489Y-90883861D01*
X208385845Y-90853100D01*
X208385842Y-90853100D01*
X208228158Y-90853100D01*
X208228155Y-90853100D01*
X208073510Y-90883861D01*
X208073498Y-90883864D01*
X207927827Y-90944202D01*
X207927814Y-90944209D01*
X207796711Y-91031810D01*
X207796707Y-91031813D01*
X207685213Y-91143307D01*
X207685210Y-91143311D01*
X207597609Y-91274414D01*
X207597602Y-91274427D01*
X207537264Y-91420098D01*
X207537261Y-91420110D01*
X207506500Y-91574753D01*
X207506500Y-91732446D01*
X207537261Y-91887089D01*
X207537264Y-91887101D01*
X207597061Y-92031464D01*
X207606500Y-92078916D01*
X207606500Y-99224486D01*
X207586815Y-99291525D01*
X207585603Y-99293375D01*
X207570611Y-99315812D01*
X207570602Y-99315828D01*
X207510264Y-99461498D01*
X207510261Y-99461510D01*
X207479500Y-99616153D01*
X200925500Y-99616153D01*
X200925500Y-91485340D01*
X200945185Y-91418301D01*
X200961814Y-91397663D01*
X201033789Y-91325689D01*
X201121394Y-91194579D01*
X201181737Y-91048897D01*
X201212500Y-90894242D01*
X201212500Y-90736558D01*
X201212500Y-90736555D01*
X201212499Y-90736553D01*
X201202698Y-90687280D01*
X201181737Y-90581903D01*
X201121939Y-90437536D01*
X201112500Y-90390084D01*
X201112500Y-86382816D01*
X201121939Y-86335364D01*
X201181735Y-86191001D01*
X201181737Y-86190997D01*
X201212500Y-86036342D01*
X201212500Y-85878658D01*
X201212500Y-85878655D01*
X201212499Y-85878653D01*
X201181738Y-85724010D01*
X201181737Y-85724003D01*
X201177458Y-85713672D01*
X201121397Y-85578327D01*
X201121390Y-85578314D01*
X201033789Y-85447211D01*
X201033786Y-85447207D01*
X200922292Y-85335713D01*
X200922288Y-85335710D01*
X200802475Y-85255653D01*
X216238500Y-85255653D01*
X216238500Y-85413346D01*
X216269261Y-85567989D01*
X216269264Y-85568001D01*
X216329602Y-85713672D01*
X216329609Y-85713685D01*
X216417602Y-85845374D01*
X216438480Y-85912051D01*
X216438500Y-85914265D01*
X216438500Y-93136434D01*
X216418815Y-93203473D01*
X216417602Y-93205325D01*
X216329609Y-93337014D01*
X216329602Y-93337027D01*
X216269264Y-93482698D01*
X216269261Y-93482710D01*
X216238500Y-93637353D01*
X216238500Y-93795046D01*
X216269261Y-93949689D01*
X216269264Y-93949701D01*
X216329602Y-94095372D01*
X216329609Y-94095385D01*
X216417210Y-94226488D01*
X216417213Y-94226492D01*
X216528707Y-94337986D01*
X216528711Y-94337989D01*
X216659814Y-94425590D01*
X216659827Y-94425597D01*
X216805498Y-94485935D01*
X216805503Y-94485937D01*
X216960153Y-94516699D01*
X216960156Y-94516700D01*
X216960158Y-94516700D01*
X217117844Y-94516700D01*
X217117845Y-94516699D01*
X217272497Y-94485937D01*
X217418179Y-94425594D01*
X217549289Y-94337989D01*
X217660789Y-94226489D01*
X217748394Y-94095379D01*
X217808737Y-93949697D01*
X217839500Y-93795042D01*
X217839500Y-93637358D01*
X217839500Y-93637355D01*
X217839499Y-93637353D01*
X217820825Y-93543473D01*
X217808737Y-93482703D01*
X217799463Y-93460313D01*
X217748397Y-93337027D01*
X217748390Y-93337014D01*
X217660398Y-93205325D01*
X217639520Y-93138647D01*
X217639500Y-93136434D01*
X217639500Y-85914265D01*
X217659185Y-85847226D01*
X217660398Y-85845374D01*
X217748390Y-85713685D01*
X217748390Y-85713684D01*
X217748394Y-85713679D01*
X217808737Y-85567997D01*
X217839500Y-85413342D01*
X217839500Y-85255658D01*
X217839500Y-85255655D01*
X217839499Y-85255653D01*
X217825792Y-85186744D01*
X217808737Y-85101003D01*
X217778937Y-85029058D01*
X217748397Y-84955327D01*
X217748390Y-84955314D01*
X217660789Y-84824211D01*
X217660786Y-84824207D01*
X217549292Y-84712713D01*
X217549288Y-84712710D01*
X217489661Y-84672868D01*
X217418185Y-84625109D01*
X217418172Y-84625102D01*
X217299273Y-84575853D01*
X221884500Y-84575853D01*
X221884500Y-84733546D01*
X221915261Y-84888189D01*
X221915264Y-84888201D01*
X221975602Y-85033872D01*
X221975609Y-85033885D01*
X222063210Y-85164988D01*
X222063213Y-85164992D01*
X222174707Y-85276486D01*
X222174711Y-85276489D01*
X222305814Y-85364090D01*
X222305827Y-85364097D01*
X222450185Y-85423891D01*
X222490414Y-85450771D01*
X225655601Y-88615958D01*
X225689086Y-88677281D01*
X225684102Y-88746973D01*
X225642230Y-88802906D01*
X225606238Y-88821570D01*
X225413185Y-88884296D01*
X225198788Y-88993538D01*
X225198786Y-88993539D01*
X225110347Y-89057792D01*
X225110347Y-89057793D01*
X225657070Y-89604516D01*
X225633042Y-89614470D01*
X225506158Y-89699252D01*
X225398252Y-89807158D01*
X225313470Y-89934042D01*
X225303516Y-89958070D01*
X224756793Y-89411347D01*
X224756792Y-89411347D01*
X224692539Y-89499786D01*
X224692538Y-89499788D01*
X224583296Y-89714185D01*
X224508942Y-89943027D01*
X224471300Y-90180689D01*
X224471300Y-90421310D01*
X224508942Y-90658972D01*
X224583296Y-90887814D01*
X224692541Y-91102216D01*
X224756792Y-91190651D01*
X224756793Y-91190651D01*
X225303516Y-90643928D01*
X225313470Y-90667958D01*
X225398252Y-90794842D01*
X225506158Y-90902748D01*
X225633042Y-90987530D01*
X225657070Y-90997482D01*
X225110346Y-91544205D01*
X225110347Y-91544206D01*
X225198783Y-91608458D01*
X225413185Y-91717703D01*
X225642027Y-91792057D01*
X225879690Y-91829700D01*
X226120310Y-91829700D01*
X226357972Y-91792057D01*
X226586814Y-91717703D01*
X226801213Y-91608460D01*
X226889651Y-91544205D01*
X226889652Y-91544205D01*
X226342929Y-90997482D01*
X226366958Y-90987530D01*
X226493842Y-90902748D01*
X226601748Y-90794842D01*
X226686530Y-90667958D01*
X226696483Y-90643929D01*
X227263181Y-91210627D01*
X227296666Y-91271950D01*
X227299500Y-91298308D01*
X227299500Y-92658480D01*
X227279815Y-92725519D01*
X227263181Y-92746161D01*
X226519599Y-93489742D01*
X226458276Y-93523227D01*
X226393600Y-93519992D01*
X226358090Y-93508454D01*
X226239220Y-93489627D01*
X226120351Y-93470800D01*
X225879649Y-93470800D01*
X225804528Y-93482698D01*
X225641909Y-93508454D01*
X225412993Y-93582832D01*
X225412990Y-93582833D01*
X225198520Y-93692113D01*
X225003799Y-93833585D01*
X225003794Y-93833589D01*
X224833589Y-94003794D01*
X224833585Y-94003799D01*
X224692113Y-94198520D01*
X224582833Y-94412990D01*
X224582832Y-94412993D01*
X224508454Y-94641909D01*
X224493993Y-94733213D01*
X224470800Y-94879649D01*
X224470800Y-95120351D01*
X224470984Y-95121510D01*
X224508454Y-95358090D01*
X224582832Y-95587006D01*
X224582833Y-95587009D01*
X224692113Y-95801479D01*
X224833585Y-95996200D01*
X224833589Y-95996205D01*
X225003794Y-96166410D01*
X225003799Y-96166414D01*
X225107735Y-96241927D01*
X225198524Y-96307889D01*
X225338722Y-96379324D01*
X225412990Y-96417166D01*
X225412993Y-96417167D01*
X225462982Y-96433409D01*
X225641911Y-96491546D01*
X225879649Y-96529200D01*
X225879650Y-96529200D01*
X226120350Y-96529200D01*
X226120351Y-96529200D01*
X226358089Y-96491546D01*
X226587009Y-96417166D01*
X226801476Y-96307889D01*
X226996207Y-96166409D01*
X227166409Y-95996207D01*
X227307889Y-95801476D01*
X227417166Y-95587009D01*
X227491546Y-95358089D01*
X227529200Y-95120351D01*
X227529200Y-94879649D01*
X227491546Y-94641911D01*
X227480007Y-94606397D01*
X227478012Y-94536556D01*
X227510255Y-94480400D01*
X228544114Y-93446543D01*
X228620775Y-93331811D01*
X228673580Y-93204328D01*
X228686428Y-93139735D01*
X228700500Y-93068993D01*
X228700500Y-89900707D01*
X228700500Y-89900704D01*
X228673581Y-89765377D01*
X228673580Y-89765376D01*
X228673580Y-89765372D01*
X228652378Y-89714185D01*
X228620778Y-89637895D01*
X228620776Y-89637891D01*
X228620775Y-89637889D01*
X228560580Y-89547801D01*
X228560578Y-89547798D01*
X228544116Y-89523159D01*
X223481071Y-84460114D01*
X223454191Y-84419885D01*
X223394397Y-84275527D01*
X223394390Y-84275514D01*
X223306789Y-84144411D01*
X223306786Y-84144407D01*
X223195292Y-84032913D01*
X223195288Y-84032910D01*
X223064185Y-83945309D01*
X223064172Y-83945302D01*
X222918501Y-83884964D01*
X222918489Y-83884961D01*
X222763845Y-83854200D01*
X222763842Y-83854200D01*
X222606158Y-83854200D01*
X222606155Y-83854200D01*
X222451510Y-83884961D01*
X222451498Y-83884964D01*
X222305827Y-83945302D01*
X222305814Y-83945309D01*
X222174711Y-84032910D01*
X222174707Y-84032913D01*
X222063213Y-84144407D01*
X222063210Y-84144411D01*
X221975609Y-84275514D01*
X221975602Y-84275527D01*
X221915264Y-84421198D01*
X221915261Y-84421210D01*
X221884500Y-84575853D01*
X217299273Y-84575853D01*
X217272501Y-84564764D01*
X217272489Y-84564761D01*
X217117845Y-84534000D01*
X217117842Y-84534000D01*
X216960158Y-84534000D01*
X216960155Y-84534000D01*
X216805510Y-84564761D01*
X216805498Y-84564764D01*
X216659827Y-84625102D01*
X216659814Y-84625109D01*
X216528711Y-84712710D01*
X216528707Y-84712713D01*
X216417213Y-84824207D01*
X216417210Y-84824211D01*
X216329609Y-84955314D01*
X216329602Y-84955327D01*
X216269264Y-85100998D01*
X216269261Y-85101010D01*
X216238500Y-85255653D01*
X200802475Y-85255653D01*
X200791185Y-85248109D01*
X200791172Y-85248102D01*
X200645501Y-85187764D01*
X200645489Y-85187761D01*
X200490845Y-85157000D01*
X200490842Y-85157000D01*
X200333158Y-85157000D01*
X200333155Y-85157000D01*
X200178510Y-85187761D01*
X200178498Y-85187764D01*
X200032827Y-85248102D01*
X200032814Y-85248109D01*
X199901711Y-85335710D01*
X199901707Y-85335713D01*
X199790213Y-85447207D01*
X199790210Y-85447211D01*
X199702609Y-85578314D01*
X199702602Y-85578327D01*
X199642264Y-85723998D01*
X199642261Y-85724010D01*
X199611500Y-85878653D01*
X199611500Y-86036346D01*
X199642261Y-86190989D01*
X199642264Y-86191001D01*
X199702061Y-86335364D01*
X199711500Y-86382816D01*
X199711500Y-90390084D01*
X199710421Y-90395996D01*
X199711149Y-90399404D01*
X199705401Y-90423518D01*
X199703515Y-90433863D01*
X199702650Y-90436155D01*
X199702606Y-90436221D01*
X199642263Y-90581903D01*
X199636256Y-90612098D01*
X199632647Y-90621664D01*
X199627082Y-90629037D01*
X199619737Y-90646772D01*
X199604228Y-90669984D01*
X199604223Y-90669992D01*
X199551420Y-90797471D01*
X199551418Y-90797477D01*
X199524500Y-90932804D01*
X199524500Y-90932807D01*
X199524500Y-103118006D01*
X199524500Y-103255994D01*
X199524500Y-103255996D01*
X199524499Y-103255996D01*
X197971385Y-103255996D01*
X198029394Y-103169179D01*
X198089737Y-103023497D01*
X198120500Y-102868842D01*
X198120500Y-102711158D01*
X198120500Y-102711155D01*
X198120499Y-102711153D01*
X198119906Y-102708172D01*
X198089737Y-102556503D01*
X198059157Y-102482676D01*
X198029397Y-102410827D01*
X198029390Y-102410814D01*
X197941398Y-102279125D01*
X197920520Y-102212447D01*
X197920500Y-102210234D01*
X197920500Y-91289865D01*
X197940185Y-91222826D01*
X197941398Y-91220974D01*
X198029390Y-91089285D01*
X198029390Y-91089284D01*
X198029394Y-91089279D01*
X198089737Y-90943597D01*
X198091884Y-90932804D01*
X198097908Y-90902522D01*
X198097908Y-90902520D01*
X198120499Y-90788946D01*
X198120500Y-90788944D01*
X198120500Y-90631255D01*
X198120499Y-90631253D01*
X198110684Y-90581910D01*
X198089737Y-90476603D01*
X198073555Y-90437536D01*
X198029397Y-90330927D01*
X198029390Y-90330914D01*
X197941789Y-90199811D01*
X197941786Y-90199807D01*
X197830292Y-90088313D01*
X197830288Y-90088310D01*
X197699185Y-90000709D01*
X197699172Y-90000702D01*
X197553501Y-89940364D01*
X197553489Y-89940361D01*
X197398845Y-89909600D01*
X197398842Y-89909600D01*
X197241158Y-89909600D01*
X197241155Y-89909600D01*
X197086510Y-89940361D01*
X197086498Y-89940364D01*
X196940827Y-90000702D01*
X196940814Y-90000709D01*
X196809711Y-90088310D01*
X196809707Y-90088313D01*
X196698213Y-90199807D01*
X196698210Y-90199811D01*
X196610609Y-90330914D01*
X196610602Y-90330927D01*
X196550264Y-90476598D01*
X196550261Y-90476610D01*
X196519500Y-90631253D01*
X194485500Y-90631253D01*
X194485500Y-89247397D01*
X194505185Y-89180358D01*
X194521819Y-89159716D01*
X194813292Y-88868243D01*
X195117662Y-88563872D01*
X195178983Y-88530389D01*
X195181150Y-88529938D01*
X195239085Y-88518413D01*
X195336497Y-88499037D01*
X195482179Y-88438694D01*
X195613289Y-88351089D01*
X195724789Y-88239589D01*
X195812394Y-88108479D01*
X195872737Y-87962797D01*
X195903500Y-87808142D01*
X195903500Y-87650458D01*
X195903500Y-87650455D01*
X195903499Y-87650453D01*
X195901119Y-87638489D01*
X195872737Y-87495803D01*
X195841174Y-87419603D01*
X195812397Y-87350127D01*
X195812390Y-87350114D01*
X195724789Y-87219011D01*
X195724786Y-87219007D01*
X195613292Y-87107513D01*
X195613288Y-87107510D01*
X195482185Y-87019909D01*
X195482172Y-87019902D01*
X195336501Y-86959564D01*
X195336489Y-86959561D01*
X195181845Y-86928800D01*
X195181842Y-86928800D01*
X195024158Y-86928800D01*
X195024155Y-86928800D01*
X194869510Y-86959561D01*
X194869498Y-86959564D01*
X194723827Y-87019902D01*
X194723814Y-87019909D01*
X194592711Y-87107510D01*
X194592707Y-87107513D01*
X194481213Y-87219007D01*
X194481210Y-87219011D01*
X194393609Y-87350114D01*
X194393602Y-87350127D01*
X194333264Y-87495798D01*
X194333261Y-87495808D01*
X194302361Y-87651150D01*
X194269976Y-87713061D01*
X194268425Y-87714639D01*
X193404481Y-88578582D01*
X193404479Y-88578585D01*
X193354361Y-88665394D01*
X193354359Y-88665396D01*
X193325425Y-88715509D01*
X193325424Y-88715510D01*
X193325423Y-88715515D01*
X193284499Y-88868243D01*
X193284499Y-88868245D01*
X193284499Y-89036346D01*
X193284500Y-89036359D01*
X193284500Y-90027893D01*
X193264815Y-90094932D01*
X193212011Y-90140687D01*
X193142853Y-90150631D01*
X193079297Y-90121606D01*
X193048780Y-90081695D01*
X192974285Y-89927005D01*
X192872724Y-89765372D01*
X192830838Y-89698711D01*
X192662734Y-89487915D01*
X192472085Y-89297266D01*
X192261289Y-89129162D01*
X192097681Y-89026360D01*
X192032994Y-88985714D01*
X191790082Y-88868734D01*
X191535602Y-88779687D01*
X191535594Y-88779684D01*
X191338446Y-88734687D01*
X191272732Y-88719688D01*
X191272728Y-88719687D01*
X191272719Y-88719686D01*
X191004813Y-88689500D01*
X191004809Y-88689500D01*
X190735191Y-88689500D01*
X190735186Y-88689500D01*
X190467280Y-88719686D01*
X190467268Y-88719688D01*
X190204405Y-88779684D01*
X190204397Y-88779687D01*
X189949917Y-88868734D01*
X189707005Y-88985714D01*
X189478712Y-89129161D01*
X189267915Y-89297265D01*
X189077265Y-89487915D01*
X188909161Y-89698712D01*
X188765714Y-89927005D01*
X188648734Y-90169917D01*
X188559687Y-90424397D01*
X188559684Y-90424405D01*
X188499688Y-90687268D01*
X188499686Y-90687280D01*
X188469500Y-90955186D01*
X188469500Y-91224813D01*
X188499686Y-91492719D01*
X188499688Y-91492731D01*
X188559684Y-91755594D01*
X188559687Y-91755602D01*
X188648734Y-92010082D01*
X188765714Y-92252994D01*
X188765716Y-92252997D01*
X188909162Y-92481289D01*
X189077266Y-92692085D01*
X189267915Y-92882734D01*
X189478711Y-93050838D01*
X189707003Y-93194284D01*
X189707005Y-93194285D01*
X189727860Y-93204328D01*
X189949921Y-93311267D01*
X190082785Y-93357758D01*
X190204397Y-93400312D01*
X190204405Y-93400315D01*
X190204408Y-93400315D01*
X190204409Y-93400316D01*
X190467268Y-93460312D01*
X190735187Y-93490499D01*
X190735188Y-93490500D01*
X190735191Y-93490500D01*
X191004812Y-93490500D01*
X191004812Y-93490499D01*
X191272732Y-93460312D01*
X191535591Y-93400316D01*
X191790079Y-93311267D01*
X192032997Y-93194284D01*
X192261289Y-93050838D01*
X192472085Y-92882734D01*
X192662734Y-92692085D01*
X192830838Y-92481289D01*
X192974284Y-92252997D01*
X192979463Y-92242242D01*
X193048780Y-92098305D01*
X193095602Y-92046445D01*
X193163029Y-92028132D01*
X193229653Y-92049180D01*
X193274322Y-92102906D01*
X193284500Y-92152106D01*
X193284500Y-100547234D01*
X193264815Y-100614273D01*
X193263602Y-100616125D01*
X193175609Y-100747814D01*
X193175602Y-100747827D01*
X193115264Y-100893498D01*
X193115261Y-100893510D01*
X193084500Y-101048153D01*
X193084500Y-101205846D01*
X193115261Y-101360489D01*
X193115264Y-101360501D01*
X193175602Y-101506172D01*
X193175609Y-101506185D01*
X193263210Y-101637288D01*
X193263213Y-101637292D01*
X193374707Y-101748786D01*
X193374711Y-101748789D01*
X193505814Y-101836390D01*
X193505827Y-101836397D01*
X193651498Y-101896735D01*
X193651503Y-101896737D01*
X193806153Y-101927499D01*
X193806156Y-101927500D01*
X193955500Y-101927500D01*
X194022539Y-101947185D01*
X194068294Y-101999989D01*
X194079500Y-102051500D01*
X194079500Y-114714281D01*
X194059815Y-114781320D01*
X194011795Y-114824765D01*
X193972185Y-114844947D01*
X193972184Y-114844948D01*
X193800213Y-114969890D01*
X193649890Y-115120213D01*
X193524949Y-115292182D01*
X193520484Y-115300946D01*
X193472509Y-115351742D01*
X193404688Y-115368536D01*
X193338553Y-115345998D01*
X193299516Y-115300946D01*
X193295050Y-115292182D01*
X193170109Y-115120213D01*
X193019786Y-114969890D01*
X192847820Y-114844951D01*
X192658414Y-114748444D01*
X192658413Y-114748443D01*
X192658412Y-114748443D01*
X192456243Y-114682754D01*
X192456241Y-114682753D01*
X192456240Y-114682753D01*
X192294957Y-114657208D01*
X192246287Y-114649500D01*
X192033713Y-114649500D01*
X191985042Y-114657208D01*
X191823760Y-114682753D01*
X191621585Y-114748444D01*
X191432179Y-114844951D01*
X191260213Y-114969890D01*
X191109890Y-115120213D01*
X190984949Y-115292182D01*
X190980484Y-115300946D01*
X190932509Y-115351742D01*
X190864688Y-115368536D01*
X190798553Y-115345998D01*
X190759516Y-115300946D01*
X190755050Y-115292182D01*
X190630109Y-115120213D01*
X190479786Y-114969890D01*
X190307820Y-114844951D01*
X190118414Y-114748444D01*
X190118413Y-114748443D01*
X190118412Y-114748443D01*
X189916243Y-114682754D01*
X189916241Y-114682753D01*
X189916240Y-114682753D01*
X189754957Y-114657208D01*
X189706287Y-114649500D01*
X189493713Y-114649500D01*
X189466188Y-114653859D01*
X189283763Y-114682752D01*
X189204817Y-114708403D01*
X189134975Y-114710397D01*
X189075143Y-114674316D01*
X189044316Y-114611614D01*
X189042500Y-114590471D01*
X189042500Y-95870411D01*
X189062185Y-95803372D01*
X189063364Y-95801570D01*
X189108394Y-95734179D01*
X189168737Y-95588497D01*
X189199500Y-95433842D01*
X189199500Y-95276158D01*
X189199500Y-95276155D01*
X189199499Y-95276153D01*
X189183454Y-95195489D01*
X189168737Y-95121503D01*
X189163809Y-95109606D01*
X189108397Y-94975827D01*
X189108390Y-94975814D01*
X189020789Y-94844711D01*
X189020786Y-94844707D01*
X188909292Y-94733213D01*
X188909288Y-94733210D01*
X188778185Y-94645609D01*
X188778172Y-94645602D01*
X188632501Y-94585264D01*
X188632489Y-94585261D01*
X188477845Y-94554500D01*
X188477842Y-94554500D01*
X188320158Y-94554500D01*
X188320155Y-94554500D01*
X188165510Y-94585261D01*
X188165498Y-94585264D01*
X188019827Y-94645602D01*
X188019814Y-94645609D01*
X187888711Y-94733210D01*
X187888707Y-94733213D01*
X187777213Y-94844707D01*
X187777210Y-94844711D01*
X187689609Y-94975814D01*
X187689602Y-94975827D01*
X187629264Y-95121498D01*
X187629261Y-95121510D01*
X187598500Y-95276153D01*
X187598500Y-95433846D01*
X187629261Y-95588489D01*
X187629264Y-95588501D01*
X187671414Y-95690260D01*
X187678883Y-95759729D01*
X187647608Y-95822208D01*
X187604305Y-95852273D01*
X187460827Y-95911702D01*
X187460814Y-95911709D01*
X187329711Y-95999310D01*
X187329707Y-95999313D01*
X187218213Y-96110807D01*
X187218210Y-96110811D01*
X187130609Y-96241914D01*
X187130602Y-96241927D01*
X187070264Y-96387598D01*
X187070261Y-96387610D01*
X187039500Y-96542253D01*
X187039500Y-96699946D01*
X187070261Y-96854589D01*
X187070264Y-96854601D01*
X187130602Y-97000272D01*
X187130609Y-97000285D01*
X187218602Y-97131974D01*
X187239480Y-97198651D01*
X187239500Y-97200865D01*
X187239500Y-101042955D01*
X187219815Y-101109994D01*
X187203192Y-101130625D01*
X183793223Y-104541440D01*
X183731904Y-104574933D01*
X183729723Y-104575387D01*
X183574508Y-104606261D01*
X183574498Y-104606264D01*
X183428827Y-104666602D01*
X183428814Y-104666609D01*
X183297711Y-104754210D01*
X183297707Y-104754213D01*
X183186213Y-104865707D01*
X183186210Y-104865711D01*
X183095221Y-105001886D01*
X183093267Y-105000580D01*
X183051564Y-105042987D01*
X182983417Y-105058408D01*
X182917751Y-105034537D01*
X182903551Y-105022336D01*
X181133356Y-103252181D01*
X181099870Y-103190858D01*
X181104854Y-103121167D01*
X181117928Y-103095617D01*
X181194394Y-102981179D01*
X181254737Y-102835497D01*
X181285500Y-102680842D01*
X181285500Y-102523158D01*
X181285500Y-102523155D01*
X181285499Y-102523153D01*
X181278955Y-102490253D01*
X181254737Y-102368503D01*
X181229658Y-102307956D01*
X181194939Y-102224136D01*
X181185500Y-102176684D01*
X181185500Y-95520807D01*
X181205185Y-95453768D01*
X181257989Y-95408013D01*
X181327147Y-95398069D01*
X181356948Y-95406244D01*
X181474503Y-95454937D01*
X181629153Y-95485699D01*
X181629156Y-95485700D01*
X181629158Y-95485700D01*
X181786844Y-95485700D01*
X181786845Y-95485699D01*
X181941497Y-95454937D01*
X182087179Y-95394594D01*
X182218289Y-95306989D01*
X182329789Y-95195489D01*
X182417394Y-95064379D01*
X182477737Y-94918697D01*
X182508500Y-94764042D01*
X182508500Y-94764040D01*
X182508596Y-94763558D01*
X182540980Y-94701647D01*
X182542459Y-94700141D01*
X182820661Y-94422051D01*
X182820716Y-94422020D01*
X182877870Y-94364865D01*
X182932445Y-94310313D01*
X182932447Y-94310308D01*
X182932459Y-94310297D01*
X182932508Y-94310233D01*
X182932514Y-94310220D01*
X182932520Y-94310216D01*
X182973348Y-94239500D01*
X183011530Y-94173397D01*
X183011531Y-94173390D01*
X183011547Y-94173364D01*
X183011570Y-94173307D01*
X183011575Y-94173286D01*
X183011577Y-94173284D01*
X183031579Y-94098628D01*
X183031594Y-94098604D01*
X183031587Y-94098603D01*
X183037750Y-94075622D01*
X183052485Y-94020678D01*
X183052485Y-94020664D01*
X183052500Y-94020554D01*
X183052500Y-93946561D01*
X183052506Y-93915461D01*
X183052517Y-93862564D01*
X183052516Y-93862561D01*
X183052518Y-93854669D01*
X183052500Y-93854377D01*
X183052500Y-85687665D01*
X183072185Y-85620626D01*
X183073398Y-85618774D01*
X183161390Y-85487085D01*
X183161390Y-85487084D01*
X183161394Y-85487079D01*
X183221737Y-85341397D01*
X183252500Y-85186742D01*
X183252500Y-85029058D01*
X183252500Y-85029055D01*
X183252499Y-85029053D01*
X183237831Y-84955314D01*
X183221737Y-84874403D01*
X183200947Y-84824211D01*
X183161397Y-84728727D01*
X183161390Y-84728714D01*
X183073789Y-84597611D01*
X183073786Y-84597607D01*
X182962292Y-84486113D01*
X182962288Y-84486110D01*
X182831185Y-84398509D01*
X182831172Y-84398502D01*
X182685501Y-84338164D01*
X182685489Y-84338161D01*
X182530845Y-84307400D01*
X182530842Y-84307400D01*
X182373158Y-84307400D01*
X182373155Y-84307400D01*
X182218510Y-84338161D01*
X182218498Y-84338164D01*
X182072827Y-84398502D01*
X182072814Y-84398509D01*
X181941711Y-84486110D01*
X181941707Y-84486113D01*
X181830213Y-84597607D01*
X181830210Y-84597611D01*
X181742609Y-84728714D01*
X181742602Y-84728727D01*
X181682264Y-84874398D01*
X181682261Y-84874410D01*
X181651500Y-85029053D01*
X181651500Y-85186746D01*
X181682261Y-85341389D01*
X181682264Y-85341401D01*
X181742602Y-85487072D01*
X181742609Y-85487085D01*
X181830602Y-85618774D01*
X181851480Y-85685451D01*
X181851500Y-85687665D01*
X181851500Y-93641315D01*
X181842852Y-93670765D01*
X181836320Y-93700764D01*
X181832575Y-93705764D01*
X181831815Y-93708354D01*
X181815164Y-93729014D01*
X181693526Y-93850603D01*
X181632196Y-93884076D01*
X181630054Y-93884521D01*
X181474508Y-93915461D01*
X181474498Y-93915464D01*
X181356952Y-93964153D01*
X181287483Y-93971622D01*
X181225004Y-93940346D01*
X181189352Y-93880257D01*
X181185500Y-93849592D01*
X181185500Y-88274116D01*
X181194939Y-88226664D01*
X181241444Y-88114390D01*
X181254737Y-88082297D01*
X181285500Y-87927642D01*
X181285500Y-87769958D01*
X181285500Y-87769955D01*
X181285499Y-87769953D01*
X181274182Y-87713061D01*
X181254737Y-87615303D01*
X181205237Y-87495798D01*
X181194397Y-87469627D01*
X181194390Y-87469614D01*
X181106789Y-87338511D01*
X181106786Y-87338507D01*
X180995292Y-87227013D01*
X180995288Y-87227010D01*
X180864185Y-87139409D01*
X180864172Y-87139402D01*
X180718501Y-87079064D01*
X180718489Y-87079061D01*
X180563845Y-87048300D01*
X180563842Y-87048300D01*
X180406158Y-87048300D01*
X180406155Y-87048300D01*
X180251510Y-87079061D01*
X180251498Y-87079064D01*
X180105827Y-87139402D01*
X180105814Y-87139409D01*
X179974711Y-87227010D01*
X179974707Y-87227013D01*
X179863213Y-87338507D01*
X179863210Y-87338511D01*
X179775609Y-87469614D01*
X179775602Y-87469627D01*
X179715264Y-87615298D01*
X179715261Y-87615310D01*
X179684500Y-87769953D01*
X179684500Y-87927646D01*
X179715261Y-88082289D01*
X179715264Y-88082301D01*
X179775061Y-88226664D01*
X179784500Y-88274116D01*
X179784500Y-101603997D01*
X179764815Y-101671036D01*
X179712011Y-101716791D01*
X179642853Y-101726735D01*
X179579297Y-101697710D01*
X179572820Y-101691679D01*
X175168820Y-97287779D01*
X175135334Y-97226456D01*
X175132500Y-97200097D01*
X175132500Y-96398765D01*
X175152185Y-96331726D01*
X175153398Y-96329874D01*
X175241390Y-96198185D01*
X175241390Y-96198184D01*
X175241394Y-96198179D01*
X175301737Y-96052497D01*
X175332500Y-95897842D01*
X175332500Y-95740158D01*
X175332500Y-95740155D01*
X175332499Y-95740153D01*
X175331309Y-95734172D01*
X175301737Y-95585503D01*
X175301735Y-95585498D01*
X175241397Y-95439827D01*
X175241390Y-95439814D01*
X175153789Y-95308711D01*
X175153786Y-95308707D01*
X175042292Y-95197213D01*
X175042288Y-95197210D01*
X174911185Y-95109609D01*
X174911172Y-95109602D01*
X174765501Y-95049264D01*
X174765489Y-95049261D01*
X174610845Y-95018500D01*
X174610842Y-95018500D01*
X174453158Y-95018500D01*
X174453155Y-95018500D01*
X174298510Y-95049261D01*
X174298498Y-95049264D01*
X174152827Y-95109602D01*
X174152814Y-95109609D01*
X174021711Y-95197210D01*
X174021707Y-95197213D01*
X173910213Y-95308707D01*
X173910210Y-95308711D01*
X173822609Y-95439814D01*
X173822602Y-95439827D01*
X173762264Y-95585498D01*
X173762261Y-95585510D01*
X173731500Y-95740153D01*
X173731500Y-95897846D01*
X173762261Y-96052489D01*
X173762264Y-96052501D01*
X173822602Y-96198172D01*
X173822609Y-96198185D01*
X173910602Y-96329874D01*
X173931480Y-96396551D01*
X173931500Y-96398765D01*
X173931500Y-97413537D01*
X173931499Y-97413555D01*
X173931499Y-97579263D01*
X173931500Y-97579265D01*
X173952131Y-97656254D01*
X173952132Y-97656257D01*
X173952132Y-97656258D01*
X173972173Y-97731053D01*
X173972401Y-97731935D01*
X173972832Y-97732887D01*
X173974412Y-97735431D01*
X173998524Y-97777194D01*
X174051475Y-97868909D01*
X174051478Y-97868913D01*
X174051480Y-97868916D01*
X174163284Y-97980720D01*
X174168655Y-97986091D01*
X174168673Y-97986107D01*
X174733389Y-98550810D01*
X182731180Y-106548420D01*
X182764666Y-106609742D01*
X182767500Y-106636101D01*
X182767500Y-114683200D01*
X182747815Y-114750239D01*
X182695011Y-114795994D01*
X182625853Y-114805938D01*
X182587205Y-114793685D01*
X182498414Y-114748444D01*
X182498413Y-114748443D01*
X182498412Y-114748443D01*
X182296243Y-114682754D01*
X182296241Y-114682753D01*
X182296240Y-114682753D01*
X182134957Y-114657208D01*
X182086287Y-114649500D01*
X181873713Y-114649500D01*
X181845006Y-114654046D01*
X181663757Y-114682753D01*
X181621473Y-114696492D01*
X181551632Y-114698486D01*
X181495476Y-114666241D01*
X181136819Y-114307584D01*
X181103334Y-114246261D01*
X181100500Y-114219903D01*
X181100500Y-109079765D01*
X181120185Y-109012726D01*
X181121398Y-109010874D01*
X181132918Y-108993634D01*
X181209394Y-108879179D01*
X181269737Y-108733497D01*
X181300500Y-108578842D01*
X181300500Y-108421158D01*
X181300500Y-108421155D01*
X181300499Y-108421153D01*
X181269737Y-108266503D01*
X181245199Y-108207263D01*
X181209397Y-108120827D01*
X181209390Y-108120814D01*
X181121789Y-107989711D01*
X181121786Y-107989707D01*
X181010292Y-107878213D01*
X181010288Y-107878210D01*
X180879185Y-107790609D01*
X180879172Y-107790602D01*
X180733501Y-107730264D01*
X180733489Y-107730261D01*
X180578845Y-107699500D01*
X180578842Y-107699500D01*
X180421158Y-107699500D01*
X180421155Y-107699500D01*
X180266510Y-107730261D01*
X180266498Y-107730264D01*
X180120827Y-107790602D01*
X180120814Y-107790609D01*
X179989711Y-107878210D01*
X179989707Y-107878213D01*
X179878213Y-107989707D01*
X179878210Y-107989711D01*
X179790609Y-108120814D01*
X179790602Y-108120827D01*
X179730264Y-108266498D01*
X179730261Y-108266510D01*
X179699500Y-108421153D01*
X179699500Y-108578846D01*
X179730261Y-108733489D01*
X179730264Y-108733501D01*
X179790602Y-108879172D01*
X179790609Y-108879185D01*
X179878602Y-109010874D01*
X179899480Y-109077551D01*
X179899500Y-109079765D01*
X179899500Y-114440939D01*
X179899499Y-114440943D01*
X179899499Y-114525500D01*
X179899499Y-114560259D01*
X179879814Y-114627298D01*
X179827010Y-114673053D01*
X179770002Y-114681249D01*
X179757852Y-114682996D01*
X179757851Y-114682995D01*
X179757851Y-114682996D01*
X179757850Y-114682995D01*
X179756101Y-114682731D01*
X179596061Y-114657383D01*
X179546287Y-114649500D01*
X179333713Y-114649500D01*
X179285042Y-114657208D01*
X179123760Y-114682753D01*
X178921585Y-114748444D01*
X178732179Y-114844951D01*
X178560213Y-114969890D01*
X178409890Y-115120213D01*
X178284949Y-115292182D01*
X178280484Y-115300946D01*
X178232509Y-115351742D01*
X178164688Y-115368536D01*
X178098553Y-115345998D01*
X178059516Y-115300946D01*
X178055050Y-115292182D01*
X177930109Y-115120213D01*
X177779786Y-114969890D01*
X177607820Y-114844951D01*
X177418414Y-114748444D01*
X177418413Y-114748443D01*
X177418412Y-114748443D01*
X177216243Y-114682754D01*
X177216241Y-114682753D01*
X177216240Y-114682753D01*
X177054957Y-114657208D01*
X177006287Y-114649500D01*
X176793713Y-114649500D01*
X176745042Y-114657208D01*
X176583760Y-114682753D01*
X176381585Y-114748444D01*
X176192179Y-114844951D01*
X176020213Y-114969890D01*
X175869890Y-115120213D01*
X175744949Y-115292182D01*
X175740484Y-115300946D01*
X175692509Y-115351742D01*
X175624688Y-115368536D01*
X175558553Y-115345998D01*
X175519516Y-115300946D01*
X175515050Y-115292182D01*
X175390109Y-115120213D01*
X175239786Y-114969890D01*
X175067820Y-114844951D01*
X174878414Y-114748444D01*
X174878413Y-114748443D01*
X174878412Y-114748443D01*
X174676243Y-114682754D01*
X174676241Y-114682753D01*
X174676240Y-114682753D01*
X174514957Y-114657208D01*
X174466287Y-114649500D01*
X174253713Y-114649500D01*
X174205042Y-114657208D01*
X174043760Y-114682753D01*
X173841585Y-114748444D01*
X173652179Y-114844951D01*
X173480213Y-114969890D01*
X173329890Y-115120213D01*
X173204949Y-115292182D01*
X173200484Y-115300946D01*
X173152509Y-115351742D01*
X173084688Y-115368536D01*
X173018553Y-115345998D01*
X172979516Y-115300946D01*
X172975050Y-115292182D01*
X172850109Y-115120213D01*
X172699786Y-114969890D01*
X172527820Y-114844951D01*
X172338414Y-114748444D01*
X172338413Y-114748443D01*
X172338412Y-114748443D01*
X172136243Y-114682754D01*
X172136241Y-114682753D01*
X172136240Y-114682753D01*
X171974957Y-114657208D01*
X171926287Y-114649500D01*
X171713713Y-114649500D01*
X171665042Y-114657208D01*
X171503760Y-114682753D01*
X171301585Y-114748444D01*
X171112179Y-114844951D01*
X170940213Y-114969890D01*
X170940209Y-114969894D01*
X170908181Y-115001923D01*
X170846858Y-115035408D01*
X170777166Y-115030424D01*
X170721233Y-114988552D01*
X170696816Y-114923088D01*
X170696500Y-114914242D01*
X170696500Y-112951765D01*
X170716185Y-112884726D01*
X170717398Y-112882874D01*
X170805390Y-112751185D01*
X170805390Y-112751184D01*
X170805394Y-112751179D01*
X170865737Y-112605497D01*
X170896500Y-112450842D01*
X170896500Y-112293158D01*
X170896500Y-112293155D01*
X170896499Y-112293153D01*
X170888361Y-112252243D01*
X170865737Y-112138503D01*
X170836791Y-112068620D01*
X170805397Y-111992827D01*
X170805390Y-111992814D01*
X170717789Y-111861711D01*
X170717786Y-111861707D01*
X170606292Y-111750213D01*
X170606288Y-111750210D01*
X170475185Y-111662609D01*
X170475172Y-111662602D01*
X170329501Y-111602264D01*
X170329489Y-111602261D01*
X170174845Y-111571500D01*
X170174842Y-111571500D01*
X170017158Y-111571500D01*
X170017155Y-111571500D01*
X169862510Y-111602261D01*
X169862498Y-111602264D01*
X169716827Y-111662602D01*
X169716814Y-111662609D01*
X169585711Y-111750210D01*
X169585705Y-111750214D01*
X169570260Y-111765660D01*
X169508936Y-111799144D01*
X169439245Y-111794158D01*
X169383312Y-111752285D01*
X169358897Y-111686820D01*
X169368019Y-111630526D01*
X169417737Y-111510497D01*
X169448500Y-111355842D01*
X169448500Y-111198158D01*
X169448500Y-111198155D01*
X169448499Y-111198153D01*
X169435475Y-111132676D01*
X169417737Y-111043503D01*
X169401712Y-111004815D01*
X169357397Y-110897827D01*
X169357390Y-110897814D01*
X169269789Y-110766711D01*
X169269786Y-110766707D01*
X169158292Y-110655213D01*
X169158288Y-110655210D01*
X169027185Y-110567609D01*
X169027172Y-110567602D01*
X168881501Y-110507264D01*
X168881489Y-110507261D01*
X168726845Y-110476500D01*
X168726842Y-110476500D01*
X168569158Y-110476500D01*
X168569155Y-110476500D01*
X168414510Y-110507261D01*
X168414498Y-110507264D01*
X168268827Y-110567602D01*
X168268814Y-110567609D01*
X168137711Y-110655210D01*
X168137707Y-110655213D01*
X168026213Y-110766707D01*
X168026210Y-110766711D01*
X167938609Y-110897814D01*
X167938602Y-110897827D01*
X167878264Y-111043498D01*
X167878261Y-111043510D01*
X167847500Y-111198153D01*
X167847500Y-111355846D01*
X167878261Y-111510489D01*
X167878264Y-111510501D01*
X167938602Y-111656172D01*
X167938609Y-111656185D01*
X168026602Y-111787874D01*
X168047480Y-111854551D01*
X168047500Y-111856765D01*
X168047500Y-123006330D01*
X168047499Y-123006348D01*
X168047499Y-123172054D01*
X168047498Y-123172054D01*
X168088424Y-123324789D01*
X168088425Y-123324790D01*
X168113470Y-123368168D01*
X168113471Y-123368169D01*
X168151656Y-123434308D01*
X168167479Y-123461714D01*
X168167481Y-123461717D01*
X168286349Y-123580585D01*
X168286355Y-123580590D01*
X169095425Y-124389660D01*
X169128910Y-124450983D01*
X169129361Y-124453149D01*
X169160261Y-124608491D01*
X169160264Y-124608501D01*
X169220602Y-124754172D01*
X169220609Y-124754185D01*
X169308210Y-124885288D01*
X169308213Y-124885292D01*
X169419707Y-124996786D01*
X169419711Y-124996789D01*
X169550814Y-125084390D01*
X169550827Y-125084397D01*
X169696498Y-125144735D01*
X169696503Y-125144737D01*
X169851153Y-125175499D01*
X169851156Y-125175500D01*
X169851158Y-125175500D01*
X170008844Y-125175500D01*
X170008845Y-125175499D01*
X170163497Y-125144737D01*
X170309179Y-125084394D01*
X170440289Y-124996789D01*
X170494098Y-124942980D01*
X170555421Y-124909494D01*
X170625113Y-124914478D01*
X170643778Y-124923272D01*
X170677215Y-124942577D01*
X170829943Y-124983501D01*
X170829946Y-124983501D01*
X170995653Y-124983501D01*
X170995669Y-124983500D01*
X174553234Y-124983500D01*
X174620273Y-125003185D01*
X174622125Y-125004398D01*
X174753814Y-125092390D01*
X174753827Y-125092397D01*
X174899498Y-125152735D01*
X174899503Y-125152737D01*
X175013935Y-125175499D01*
X175054153Y-125183499D01*
X175054156Y-125183500D01*
X175054158Y-125183500D01*
X175211844Y-125183500D01*
X175211845Y-125183499D01*
X175366497Y-125152737D01*
X175512179Y-125092394D01*
X175643289Y-125004789D01*
X175754789Y-124893289D01*
X175842394Y-124762179D01*
X175845854Y-124753827D01*
X175900163Y-124622711D01*
X175902737Y-124616497D01*
X175933500Y-124461842D01*
X175933500Y-124304158D01*
X175933500Y-124304155D01*
X175901581Y-124143692D01*
X175907808Y-124074100D01*
X175950671Y-124018923D01*
X176016560Y-123995678D01*
X176023198Y-123995500D01*
X176069844Y-123995500D01*
X176069845Y-123995499D01*
X176224497Y-123964737D01*
X176370179Y-123904394D01*
X176501289Y-123816789D01*
X176612789Y-123705289D01*
X176700394Y-123574179D01*
X176760737Y-123428497D01*
X176791500Y-123273842D01*
X176791667Y-123273003D01*
X176824052Y-123211092D01*
X176825530Y-123209585D01*
X179861973Y-120172262D01*
X179861974Y-120172263D01*
X179861979Y-120172255D01*
X179920402Y-120113833D01*
X179920541Y-120113697D01*
X179920546Y-120113690D01*
X179920569Y-120113649D01*
X179920573Y-120113646D01*
X179959812Y-120045658D01*
X179999577Y-119976784D01*
X179999577Y-119976783D01*
X179999581Y-119976777D01*
X179999607Y-119976714D01*
X179999609Y-119976706D01*
X179999611Y-119976703D01*
X180022359Y-119891757D01*
X180022366Y-119891745D01*
X180022363Y-119891745D01*
X180025990Y-119878206D01*
X180040500Y-119824057D01*
X180040500Y-119824053D01*
X180040510Y-119823976D01*
X180040512Y-119823970D01*
X180040511Y-119823963D01*
X180041609Y-119815772D01*
X180042701Y-119815918D01*
X180042758Y-119815635D01*
X180042792Y-119815511D01*
X180043032Y-119815576D01*
X180043918Y-119814123D01*
X180060186Y-119758688D01*
X180108215Y-119715228D01*
X180147816Y-119695051D01*
X180319792Y-119570104D01*
X180470104Y-119419792D01*
X180470106Y-119419788D01*
X180470109Y-119419786D01*
X180595048Y-119247820D01*
X180595047Y-119247820D01*
X180595051Y-119247816D01*
X180599514Y-119239054D01*
X180647488Y-119188259D01*
X180715308Y-119171463D01*
X180781444Y-119193999D01*
X180820486Y-119239056D01*
X180824951Y-119247820D01*
X180949890Y-119419786D01*
X181088670Y-119558566D01*
X181122155Y-119619889D01*
X181117171Y-119689581D01*
X181088655Y-119733944D01*
X178774741Y-122047044D01*
X178769331Y-122052451D01*
X178769284Y-122052480D01*
X178708719Y-122113044D01*
X178708716Y-122113045D01*
X178657538Y-122164206D01*
X178657479Y-122164285D01*
X178616432Y-122235379D01*
X178616423Y-122235394D01*
X178578465Y-122301114D01*
X178578424Y-122301211D01*
X178558625Y-122375101D01*
X178558619Y-122375121D01*
X178537511Y-122453842D01*
X178537500Y-122453922D01*
X178537500Y-122453943D01*
X178537500Y-122529966D01*
X178537497Y-122550735D01*
X178537485Y-122619987D01*
X178537500Y-122620214D01*
X178537500Y-124553234D01*
X178517815Y-124620273D01*
X178516602Y-124622125D01*
X178428609Y-124753814D01*
X178428602Y-124753827D01*
X178368264Y-124899498D01*
X178368261Y-124899510D01*
X178337500Y-125054153D01*
X178337500Y-125211846D01*
X178368261Y-125366489D01*
X178368264Y-125366501D01*
X178428602Y-125512172D01*
X178428609Y-125512185D01*
X178516210Y-125643288D01*
X178516213Y-125643292D01*
X178627707Y-125754786D01*
X178627711Y-125754789D01*
X178758814Y-125842390D01*
X178758827Y-125842397D01*
X178899677Y-125900738D01*
X178904503Y-125902737D01*
X179058685Y-125933406D01*
X179059153Y-125933499D01*
X179059156Y-125933500D01*
X179059158Y-125933500D01*
X179216844Y-125933500D01*
X179216845Y-125933499D01*
X179371497Y-125902737D01*
X179517179Y-125842394D01*
X179648289Y-125754789D01*
X179759789Y-125643289D01*
X179847394Y-125512179D01*
X179848223Y-125510179D01*
X179907735Y-125366501D01*
X179907737Y-125366497D01*
X179938500Y-125211842D01*
X179938500Y-125054158D01*
X179938500Y-125054155D01*
X179938499Y-125054153D01*
X179927386Y-124998285D01*
X179907737Y-124899503D01*
X179901851Y-124885292D01*
X179847397Y-124753827D01*
X179847390Y-124753814D01*
X179759398Y-124622125D01*
X179738520Y-124555447D01*
X179738500Y-124553234D01*
X179738500Y-122833171D01*
X179758185Y-122766132D01*
X179774830Y-122745478D01*
X182348667Y-120172547D01*
X182348716Y-120172520D01*
X182407590Y-120113646D01*
X182460455Y-120060800D01*
X182460459Y-120060792D01*
X182460508Y-120060727D01*
X182460520Y-120060716D01*
X182494844Y-120001264D01*
X182500415Y-119991615D01*
X182500416Y-119991610D01*
X182539536Y-119923883D01*
X182539537Y-119923876D01*
X182539542Y-119923869D01*
X182539574Y-119923791D01*
X182539574Y-119923787D01*
X182539577Y-119923784D01*
X182557406Y-119857244D01*
X182559368Y-119849921D01*
X182559374Y-119849900D01*
X182568486Y-119815918D01*
X182572845Y-119799658D01*
X182609220Y-119740006D01*
X182636316Y-119721291D01*
X182687816Y-119695051D01*
X182800800Y-119612964D01*
X182866606Y-119589484D01*
X182934660Y-119605309D01*
X182961366Y-119625601D01*
X184112584Y-120776819D01*
X184146069Y-120838142D01*
X184141085Y-120907834D01*
X184099213Y-120963767D01*
X184033749Y-120988184D01*
X184024903Y-120988500D01*
X182263929Y-120988500D01*
X182138261Y-121013497D01*
X182138255Y-121013499D01*
X182023747Y-121060929D01*
X182023745Y-121060931D01*
X182022612Y-121061400D01*
X182019874Y-121062534D01*
X181913326Y-121133726D01*
X181913325Y-121133727D01*
X180926240Y-122120814D01*
X180598831Y-122448223D01*
X180508223Y-122538831D01*
X180460764Y-122609859D01*
X180437034Y-122645374D01*
X180387999Y-122763755D01*
X180387997Y-122763763D01*
X180363001Y-122889426D01*
X180363001Y-123017573D01*
X180387997Y-123143236D01*
X180387999Y-123143244D01*
X180415453Y-123209525D01*
X180437035Y-123261627D01*
X180508223Y-123368169D01*
X180508224Y-123368170D01*
X180508227Y-123368174D01*
X180725984Y-123585930D01*
X180759469Y-123647253D01*
X180759920Y-123649420D01*
X180773261Y-123716489D01*
X180773264Y-123716501D01*
X180833602Y-123862172D01*
X180833609Y-123862185D01*
X180921210Y-123993288D01*
X180921213Y-123993292D01*
X181032707Y-124104786D01*
X181032711Y-124104789D01*
X181163814Y-124192390D01*
X181163827Y-124192397D01*
X181296203Y-124247228D01*
X181309503Y-124252737D01*
X181453591Y-124281398D01*
X181464153Y-124283499D01*
X181464156Y-124283500D01*
X181464158Y-124283500D01*
X181621844Y-124283500D01*
X181621845Y-124283499D01*
X181776497Y-124252737D01*
X181922179Y-124192394D01*
X182053289Y-124104789D01*
X182164789Y-123993289D01*
X182252394Y-123862179D01*
X182252395Y-123862176D01*
X182252397Y-123862173D01*
X182284427Y-123784844D01*
X182328267Y-123730440D01*
X182394561Y-123708375D01*
X182462261Y-123725654D01*
X182486669Y-123744615D01*
X184581873Y-125839819D01*
X184615358Y-125901142D01*
X184610374Y-125970834D01*
X184568502Y-126026767D01*
X184503038Y-126051184D01*
X184494192Y-126051500D01*
X182876097Y-126051500D01*
X182846656Y-126042855D01*
X182816670Y-126036332D01*
X182811654Y-126032577D01*
X182809058Y-126031815D01*
X182788416Y-126015181D01*
X182758574Y-125985339D01*
X182725089Y-125924016D01*
X182724638Y-125921849D01*
X182701507Y-125805564D01*
X182693737Y-125766503D01*
X182686053Y-125747952D01*
X182633397Y-125620827D01*
X182633390Y-125620814D01*
X182545789Y-125489711D01*
X182545786Y-125489707D01*
X182434292Y-125378213D01*
X182434288Y-125378210D01*
X182303185Y-125290609D01*
X182303172Y-125290602D01*
X182157501Y-125230264D01*
X182157489Y-125230261D01*
X182002845Y-125199500D01*
X182002842Y-125199500D01*
X181845158Y-125199500D01*
X181845155Y-125199500D01*
X181690510Y-125230261D01*
X181690498Y-125230264D01*
X181544827Y-125290602D01*
X181544814Y-125290609D01*
X181413711Y-125378210D01*
X181413707Y-125378213D01*
X181302213Y-125489707D01*
X181302210Y-125489711D01*
X181214609Y-125620814D01*
X181214602Y-125620827D01*
X181154264Y-125766498D01*
X181154261Y-125766510D01*
X181123500Y-125921153D01*
X181123500Y-126078846D01*
X181154261Y-126233489D01*
X181154264Y-126233501D01*
X181214602Y-126379172D01*
X181214609Y-126379185D01*
X181302210Y-126510288D01*
X181302213Y-126510292D01*
X181413707Y-126621786D01*
X181413711Y-126621789D01*
X181544814Y-126709390D01*
X181544827Y-126709397D01*
X181643872Y-126750422D01*
X181690503Y-126769737D01*
X181755147Y-126782595D01*
X181845849Y-126800638D01*
X181907760Y-126833023D01*
X181909339Y-126834574D01*
X182091139Y-127016374D01*
X182091149Y-127016385D01*
X182095479Y-127020715D01*
X182095480Y-127020716D01*
X182207284Y-127132520D01*
X182207286Y-127132521D01*
X182207290Y-127132524D01*
X182257293Y-127161393D01*
X182257298Y-127161395D01*
X182344209Y-127211574D01*
X182344210Y-127211574D01*
X182344215Y-127211577D01*
X182496942Y-127252500D01*
X182496943Y-127252500D01*
X195161964Y-127252500D01*
X195161986Y-127252506D01*
X195248231Y-127252500D01*
X195320057Y-127252500D01*
X195320060Y-127252500D01*
X195320097Y-127252495D01*
X195320101Y-127252495D01*
X195401088Y-127230787D01*
X195401088Y-127230788D01*
X195401094Y-127230785D01*
X195472784Y-127211577D01*
X195472788Y-127211574D01*
X195472804Y-127211570D01*
X195472818Y-127211561D01*
X195472825Y-127211560D01*
X195537878Y-127173994D01*
X195609716Y-127132520D01*
X195609717Y-127132518D01*
X195609732Y-127132510D01*
X195609747Y-127132494D01*
X195609750Y-127132493D01*
X195658510Y-127083724D01*
X195658515Y-127083722D01*
X195658514Y-127083721D01*
X195668449Y-127073786D01*
X195721520Y-127020716D01*
X195721521Y-127020713D01*
X195727755Y-127014480D01*
X195727818Y-127014406D01*
X195803557Y-126938656D01*
X195864876Y-126905169D01*
X195934568Y-126910148D01*
X195990505Y-126952015D01*
X196014926Y-127017478D01*
X196012860Y-127050524D01*
X195982500Y-127203153D01*
X195982500Y-127360846D01*
X196013261Y-127515489D01*
X196013264Y-127515501D01*
X196073602Y-127661172D01*
X196073609Y-127661185D01*
X196161210Y-127792288D01*
X196161213Y-127792292D01*
X196272710Y-127903789D01*
X196355925Y-127959391D01*
X196400730Y-128013003D01*
X196409437Y-128082328D01*
X196408651Y-128086684D01*
X196382500Y-128218153D01*
X196382500Y-128375846D01*
X196413261Y-128530489D01*
X196413264Y-128530501D01*
X196473602Y-128676172D01*
X196473609Y-128676185D01*
X196561210Y-128807288D01*
X196561213Y-128807292D01*
X196672707Y-128918786D01*
X196672711Y-128918789D01*
X196803814Y-129006390D01*
X196803827Y-129006397D01*
X196895967Y-129044562D01*
X196949503Y-129066737D01*
X197104153Y-129097499D01*
X197104156Y-129097500D01*
X197104158Y-129097500D01*
X197261844Y-129097500D01*
X197261845Y-129097499D01*
X197416497Y-129066737D01*
X197562179Y-129006394D01*
X197693289Y-128918789D01*
X197804789Y-128807289D01*
X197892394Y-128676179D01*
X197892395Y-128676176D01*
X197892397Y-128676173D01*
X197939052Y-128563535D01*
X197952192Y-128531810D01*
X197979069Y-128491586D01*
X200330762Y-126139893D01*
X200392083Y-126106410D01*
X200461775Y-126111394D01*
X200517708Y-126153266D01*
X200533002Y-126180123D01*
X200561604Y-126249176D01*
X200561609Y-126249185D01*
X200649210Y-126380288D01*
X200649213Y-126380292D01*
X200760707Y-126491786D01*
X200760711Y-126491789D01*
X200891814Y-126579390D01*
X200891827Y-126579397D01*
X200994165Y-126621786D01*
X201037503Y-126639737D01*
X201192153Y-126670499D01*
X201192156Y-126670500D01*
X201192158Y-126670500D01*
X201349844Y-126670500D01*
X201349845Y-126670499D01*
X201504497Y-126639737D01*
X201650179Y-126579394D01*
X201781289Y-126491789D01*
X201892789Y-126380289D01*
X201980394Y-126249179D01*
X201987620Y-126231735D01*
X202020122Y-126153266D01*
X202040737Y-126103497D01*
X202056994Y-126021770D01*
X202062256Y-125995317D01*
X202094641Y-125933406D01*
X202155357Y-125898832D01*
X202213310Y-125900644D01*
X202213528Y-125899549D01*
X202374153Y-125931499D01*
X202374156Y-125931500D01*
X202374158Y-125931500D01*
X202531844Y-125931500D01*
X202531845Y-125931499D01*
X202686497Y-125900737D01*
X202817928Y-125846297D01*
X202832172Y-125840397D01*
X202832172Y-125840396D01*
X202832179Y-125840394D01*
X202963289Y-125752789D01*
X203074789Y-125641289D01*
X203162394Y-125510179D01*
X203222737Y-125364497D01*
X203222738Y-125364490D01*
X203224378Y-125359086D01*
X203225948Y-125356689D01*
X203226102Y-125353826D01*
X203244989Y-125327633D01*
X203262674Y-125300647D01*
X203265290Y-125299480D01*
X203266968Y-125297154D01*
X203297009Y-125285334D01*
X203326486Y-125272189D01*
X203330131Y-125272302D01*
X203331987Y-125271573D01*
X203367229Y-125273461D01*
X203431691Y-125286284D01*
X203493602Y-125318669D01*
X203528176Y-125379384D01*
X203531500Y-125407901D01*
X203531500Y-128215480D01*
X203511815Y-128282519D01*
X203495181Y-128303161D01*
X202478412Y-129319929D01*
X202438184Y-129346809D01*
X202293823Y-129406604D01*
X202293814Y-129406609D01*
X202162711Y-129494210D01*
X202162707Y-129494213D01*
X202051213Y-129605707D01*
X202051210Y-129605711D01*
X201963609Y-129736814D01*
X201963602Y-129736827D01*
X201903264Y-129882498D01*
X201903261Y-129882510D01*
X201872500Y-130037153D01*
X201872500Y-130194846D01*
X201903261Y-130349489D01*
X201903264Y-130349501D01*
X201963602Y-130495172D01*
X201963609Y-130495185D01*
X202051210Y-130626288D01*
X202051213Y-130626292D01*
X202162707Y-130737786D01*
X202162711Y-130737789D01*
X202293814Y-130825390D01*
X202293827Y-130825397D01*
X202439498Y-130885735D01*
X202439503Y-130885737D01*
X202594153Y-130916499D01*
X202594156Y-130916500D01*
X202594158Y-130916500D01*
X202751844Y-130916500D01*
X202751845Y-130916499D01*
X202906497Y-130885737D01*
X203052179Y-130825394D01*
X203183289Y-130737789D01*
X203294789Y-130626289D01*
X203382394Y-130495179D01*
X203382395Y-130495176D01*
X203382397Y-130495173D01*
X203442192Y-130350812D01*
X203469069Y-130310586D01*
X204381634Y-129398021D01*
X204389536Y-129393706D01*
X204394930Y-129386491D01*
X204419727Y-129377221D01*
X204442955Y-129364538D01*
X204451937Y-129365180D01*
X204460376Y-129362026D01*
X204486246Y-129367633D01*
X204512647Y-129369522D01*
X204521661Y-129375310D01*
X204528660Y-129376828D01*
X204556930Y-129397959D01*
X204689510Y-129530345D01*
X204723040Y-129591643D01*
X204723510Y-129593898D01*
X204754261Y-129748491D01*
X204754264Y-129748501D01*
X204814602Y-129894171D01*
X204814612Y-129894189D01*
X204814914Y-129894641D01*
X204814999Y-129894913D01*
X204817479Y-129899553D01*
X204816598Y-129900023D01*
X204835786Y-129961320D01*
X204817296Y-130028699D01*
X204814911Y-130032409D01*
X204800612Y-130053810D01*
X204800602Y-130053828D01*
X204740264Y-130199498D01*
X204740261Y-130199510D01*
X204709500Y-130354153D01*
X204709500Y-130511846D01*
X204740261Y-130666489D01*
X204740264Y-130666501D01*
X204800602Y-130812172D01*
X204800612Y-130812190D01*
X204808296Y-130823690D01*
X204829174Y-130890367D01*
X204810689Y-130957747D01*
X204758710Y-131004437D01*
X204726254Y-131014779D01*
X203681007Y-131194918D01*
X203678335Y-131195348D01*
X201960631Y-131452914D01*
X201957986Y-131453281D01*
X201945233Y-131454909D01*
X201926481Y-131457304D01*
X201923117Y-131457687D01*
X201499995Y-131500000D01*
X200724497Y-131610785D01*
X200722669Y-131611032D01*
X200235053Y-131673302D01*
X200232364Y-131673616D01*
X198504995Y-131855989D01*
X198502301Y-131856243D01*
X196771451Y-132000869D01*
X196768752Y-132001065D01*
X195035118Y-132107887D01*
X195032415Y-132108024D01*
X194116936Y-132144402D01*
X194112013Y-132144500D01*
X190763072Y-132144500D01*
X190720267Y-132155969D01*
X190691729Y-132163616D01*
X190691728Y-132163617D01*
X190649948Y-132187738D01*
X190587463Y-132204348D01*
X190036363Y-132202180D01*
X190028603Y-132201906D01*
X181385550Y-131625702D01*
X181379809Y-131625185D01*
X181144877Y-131598511D01*
X181142191Y-131598177D01*
X179421021Y-131364600D01*
X179418344Y-131364207D01*
X178337483Y-131193426D01*
X178325278Y-131190862D01*
X170004653Y-129001224D01*
X169995473Y-128998425D01*
X162608163Y-126428926D01*
X158504096Y-125001424D01*
X158495999Y-124998285D01*
X157457546Y-124553234D01*
X153740169Y-122960071D01*
X153731306Y-122955850D01*
X153136780Y-122643243D01*
X153134399Y-122641957D01*
X151844410Y-121927308D01*
X151795307Y-121877602D01*
X151780500Y-121818841D01*
X151780500Y-120463074D01*
X151780500Y-120463072D01*
X151761384Y-120391731D01*
X151747111Y-120367008D01*
X151730500Y-120305011D01*
X151730500Y-111881379D01*
X153619500Y-111881379D01*
X153619500Y-112068620D01*
X153656025Y-112252243D01*
X153656027Y-112252251D01*
X153727676Y-112425228D01*
X153727681Y-112425237D01*
X153831697Y-112580907D01*
X153831700Y-112580911D01*
X153964088Y-112713299D01*
X153964092Y-112713302D01*
X154119762Y-112817318D01*
X154119768Y-112817321D01*
X154119769Y-112817322D01*
X154292749Y-112888973D01*
X154476379Y-112925499D01*
X154476383Y-112925500D01*
X154476384Y-112925500D01*
X155463617Y-112925500D01*
X155463618Y-112925499D01*
X155647251Y-112888973D01*
X155820231Y-112817322D01*
X155975908Y-112713302D01*
X156108302Y-112580908D01*
X156212322Y-112425231D01*
X156283973Y-112252251D01*
X156320500Y-112068616D01*
X156320500Y-111881384D01*
X156283973Y-111697749D01*
X156212322Y-111524769D01*
X156212321Y-111524768D01*
X156212318Y-111524762D01*
X156108302Y-111369092D01*
X156108299Y-111369088D01*
X155975911Y-111236700D01*
X155975907Y-111236697D01*
X155820237Y-111132681D01*
X155820228Y-111132676D01*
X155647251Y-111061027D01*
X155647243Y-111061025D01*
X155463620Y-111024500D01*
X155463616Y-111024500D01*
X154476384Y-111024500D01*
X154476379Y-111024500D01*
X154292756Y-111061025D01*
X154292748Y-111061027D01*
X154119771Y-111132676D01*
X154119762Y-111132681D01*
X153964092Y-111236697D01*
X153964088Y-111236700D01*
X153831700Y-111369088D01*
X153831697Y-111369092D01*
X153727681Y-111524762D01*
X153727676Y-111524771D01*
X153656027Y-111697748D01*
X153656025Y-111697756D01*
X153619500Y-111881379D01*
X151730500Y-111881379D01*
X151730500Y-103231379D01*
X153619500Y-103231379D01*
X153619500Y-103418620D01*
X153656025Y-103602243D01*
X153656027Y-103602251D01*
X153727676Y-103775228D01*
X153727681Y-103775237D01*
X153831697Y-103930907D01*
X153831700Y-103930911D01*
X153964088Y-104063299D01*
X153964092Y-104063302D01*
X154119762Y-104167318D01*
X154119768Y-104167321D01*
X154119769Y-104167322D01*
X154292749Y-104238973D01*
X154476379Y-104275499D01*
X154476383Y-104275500D01*
X154476384Y-104275500D01*
X155463617Y-104275500D01*
X155463618Y-104275499D01*
X155647251Y-104238973D01*
X155820231Y-104167322D01*
X155975908Y-104063302D01*
X156108302Y-103930908D01*
X156212322Y-103775231D01*
X156283973Y-103602251D01*
X156320500Y-103418616D01*
X156320500Y-103231384D01*
X156283973Y-103047749D01*
X156212322Y-102874769D01*
X156212321Y-102874768D01*
X156212318Y-102874762D01*
X156108302Y-102719092D01*
X156108299Y-102719088D01*
X155975911Y-102586700D01*
X155975907Y-102586697D01*
X155820237Y-102482681D01*
X155820228Y-102482676D01*
X155647251Y-102411027D01*
X155647243Y-102411025D01*
X155463620Y-102374500D01*
X155463616Y-102374500D01*
X154476384Y-102374500D01*
X154476379Y-102374500D01*
X154292756Y-102411025D01*
X154292748Y-102411027D01*
X154119771Y-102482676D01*
X154119762Y-102482681D01*
X153964092Y-102586697D01*
X153964088Y-102586700D01*
X153831700Y-102719088D01*
X153831697Y-102719092D01*
X153727681Y-102874762D01*
X153727676Y-102874771D01*
X153656027Y-103047748D01*
X153656025Y-103047756D01*
X153619500Y-103231379D01*
X151730500Y-103231379D01*
X151730500Y-92685646D01*
X154259500Y-92685646D01*
X154259500Y-92914353D01*
X154295278Y-93140246D01*
X154295278Y-93140249D01*
X154365950Y-93357755D01*
X154460578Y-93543473D01*
X154469783Y-93561538D01*
X154604214Y-93746566D01*
X154765934Y-93908286D01*
X154775814Y-93915464D01*
X154850438Y-93969682D01*
X154893103Y-94025013D01*
X154899082Y-94094626D01*
X154866476Y-94156421D01*
X154850438Y-94170318D01*
X154765932Y-94231715D01*
X154604216Y-94393431D01*
X154604216Y-94393432D01*
X154604214Y-94393434D01*
X154580846Y-94425597D01*
X154469783Y-94578461D01*
X154365950Y-94782244D01*
X154295278Y-94999750D01*
X154295278Y-94999753D01*
X154275995Y-95121503D01*
X154259500Y-95225646D01*
X154259500Y-95454354D01*
X154264465Y-95485699D01*
X154295278Y-95680246D01*
X154295278Y-95680249D01*
X154365950Y-95897755D01*
X154435688Y-96034623D01*
X154469783Y-96101538D01*
X154602525Y-96284242D01*
X154626005Y-96350046D01*
X154610180Y-96418100D01*
X154560074Y-96466795D01*
X154545541Y-96473308D01*
X154517670Y-96483703D01*
X154517664Y-96483706D01*
X154402455Y-96569952D01*
X154402452Y-96569955D01*
X154316206Y-96685164D01*
X154316202Y-96685171D01*
X154265908Y-96820017D01*
X154259501Y-96879616D01*
X154259500Y-96879635D01*
X154259500Y-98880370D01*
X154259501Y-98880376D01*
X154265908Y-98939983D01*
X154316202Y-99074828D01*
X154316206Y-99074835D01*
X154402452Y-99190044D01*
X154402455Y-99190047D01*
X154517664Y-99276293D01*
X154517671Y-99276297D01*
X154652517Y-99326591D01*
X154652516Y-99326591D01*
X154659444Y-99327335D01*
X154712127Y-99333000D01*
X156807872Y-99332999D01*
X156867483Y-99326591D01*
X157002331Y-99276296D01*
X157039191Y-99248702D01*
X157104651Y-99224286D01*
X157172925Y-99239137D01*
X157222331Y-99288541D01*
X157237500Y-99347970D01*
X157237500Y-103024902D01*
X157230954Y-103047194D01*
X157228876Y-103070338D01*
X157220331Y-103083372D01*
X157217815Y-103091941D01*
X157211402Y-103101002D01*
X157206654Y-103107109D01*
X157137480Y-103176284D01*
X157097263Y-103245943D01*
X157093009Y-103253310D01*
X157093005Y-103253316D01*
X157058423Y-103313214D01*
X157058423Y-103313215D01*
X157017499Y-103465943D01*
X157017499Y-103465945D01*
X157017499Y-103634046D01*
X157017500Y-103634059D01*
X157017500Y-112147234D01*
X156997815Y-112214273D01*
X156996602Y-112216125D01*
X156908609Y-112347814D01*
X156908602Y-112347827D01*
X156848264Y-112493498D01*
X156848261Y-112493510D01*
X156817500Y-112648153D01*
X156817500Y-112805846D01*
X156848261Y-112960489D01*
X156848264Y-112960501D01*
X156908602Y-113106172D01*
X156908609Y-113106185D01*
X156996210Y-113237288D01*
X156996213Y-113237292D01*
X157107707Y-113348786D01*
X157107711Y-113348789D01*
X157238814Y-113436390D01*
X157238827Y-113436397D01*
X157384498Y-113496735D01*
X157384503Y-113496737D01*
X157449147Y-113509595D01*
X157539849Y-113527638D01*
X157601760Y-113560023D01*
X157603339Y-113561574D01*
X160958181Y-116916416D01*
X160991666Y-116977739D01*
X160994500Y-117004097D01*
X160994500Y-121583146D01*
X160974815Y-121650185D01*
X160922011Y-121695940D01*
X160894692Y-121704763D01*
X160766508Y-121730261D01*
X160766498Y-121730264D01*
X160620827Y-121790602D01*
X160620814Y-121790609D01*
X160489711Y-121878210D01*
X160489707Y-121878213D01*
X160378213Y-121989707D01*
X160378210Y-121989711D01*
X160290609Y-122120814D01*
X160290602Y-122120827D01*
X160230264Y-122266498D01*
X160230261Y-122266510D01*
X160199500Y-122421153D01*
X160199500Y-122578846D01*
X160230261Y-122733489D01*
X160230264Y-122733501D01*
X160290602Y-122879172D01*
X160290609Y-122879185D01*
X160378210Y-123010288D01*
X160378213Y-123010292D01*
X160489707Y-123121786D01*
X160489711Y-123121789D01*
X160620814Y-123209390D01*
X160620827Y-123209397D01*
X160766498Y-123269735D01*
X160766503Y-123269737D01*
X160921153Y-123300499D01*
X160921156Y-123300500D01*
X160921158Y-123300500D01*
X161078844Y-123300500D01*
X161078845Y-123300499D01*
X161233497Y-123269737D01*
X161379179Y-123209394D01*
X161510289Y-123121789D01*
X161621789Y-123010289D01*
X161709394Y-122879179D01*
X161769737Y-122733497D01*
X161800500Y-122578842D01*
X161800500Y-122578839D01*
X161800637Y-122578151D01*
X161809402Y-122561394D01*
X161813422Y-122542915D01*
X161832162Y-122517880D01*
X161833021Y-122516240D01*
X161834527Y-122514707D01*
X161953504Y-122395729D01*
X161953506Y-122395729D01*
X161963714Y-122385520D01*
X161963716Y-122385520D01*
X162075520Y-122273716D01*
X162138749Y-122164200D01*
X162154577Y-122136785D01*
X162195500Y-121984057D01*
X162195500Y-121825943D01*
X162195500Y-118872153D01*
X166169500Y-118872153D01*
X166169500Y-119029846D01*
X166200261Y-119184489D01*
X166200264Y-119184501D01*
X166260602Y-119330172D01*
X166260609Y-119330185D01*
X166348602Y-119461874D01*
X166369480Y-119528551D01*
X166369500Y-119530765D01*
X166369500Y-125872234D01*
X166349815Y-125939273D01*
X166348602Y-125941125D01*
X166260609Y-126072814D01*
X166260602Y-126072827D01*
X166200264Y-126218498D01*
X166200261Y-126218510D01*
X166169500Y-126373153D01*
X166169500Y-126530846D01*
X166200261Y-126685489D01*
X166200264Y-126685501D01*
X166260602Y-126831172D01*
X166260609Y-126831185D01*
X166348210Y-126962288D01*
X166348213Y-126962292D01*
X166459707Y-127073786D01*
X166459711Y-127073789D01*
X166590814Y-127161390D01*
X166590827Y-127161397D01*
X166711974Y-127211577D01*
X166736503Y-127221737D01*
X166891128Y-127252494D01*
X166891153Y-127252499D01*
X166891156Y-127252500D01*
X166891158Y-127252500D01*
X167048844Y-127252500D01*
X167048845Y-127252499D01*
X167203497Y-127221737D01*
X167349179Y-127161394D01*
X167480289Y-127073789D01*
X167591789Y-126962289D01*
X167679394Y-126831179D01*
X167739737Y-126685497D01*
X167770500Y-126530842D01*
X167770500Y-126373158D01*
X167770500Y-126373155D01*
X167770499Y-126373153D01*
X167765721Y-126349134D01*
X167739737Y-126218503D01*
X167707177Y-126139895D01*
X167679397Y-126072827D01*
X167679390Y-126072814D01*
X167591398Y-125941125D01*
X167570520Y-125874447D01*
X167570500Y-125872234D01*
X167570500Y-119530765D01*
X167590185Y-119463726D01*
X167591398Y-119461874D01*
X167679390Y-119330185D01*
X167679390Y-119330184D01*
X167679394Y-119330179D01*
X167739737Y-119184497D01*
X167770500Y-119029842D01*
X167770500Y-118872158D01*
X167770500Y-118872155D01*
X167770499Y-118872153D01*
X167750127Y-118769737D01*
X167739737Y-118717503D01*
X167710238Y-118646286D01*
X167679397Y-118571827D01*
X167679390Y-118571814D01*
X167591789Y-118440711D01*
X167591786Y-118440707D01*
X167480292Y-118329213D01*
X167480288Y-118329210D01*
X167349185Y-118241609D01*
X167349172Y-118241602D01*
X167203501Y-118181264D01*
X167203489Y-118181261D01*
X167048845Y-118150500D01*
X167048842Y-118150500D01*
X166891158Y-118150500D01*
X166891155Y-118150500D01*
X166736510Y-118181261D01*
X166736498Y-118181264D01*
X166590827Y-118241602D01*
X166590814Y-118241609D01*
X166459711Y-118329210D01*
X166459707Y-118329213D01*
X166348213Y-118440707D01*
X166348210Y-118440711D01*
X166260609Y-118571814D01*
X166260602Y-118571827D01*
X166200264Y-118717498D01*
X166200261Y-118717510D01*
X166169500Y-118872153D01*
X162195500Y-118872153D01*
X162195500Y-116624943D01*
X162186822Y-116592558D01*
X162175809Y-116551454D01*
X162154577Y-116472216D01*
X162081420Y-116345503D01*
X162075524Y-116335290D01*
X162075521Y-116335286D01*
X162075520Y-116335284D01*
X161963716Y-116223480D01*
X161963715Y-116223479D01*
X161959385Y-116219149D01*
X161959374Y-116219139D01*
X158877416Y-113137181D01*
X158843931Y-113075858D01*
X158848915Y-113006166D01*
X158890787Y-112950233D01*
X158956251Y-112925816D01*
X158965097Y-112925500D01*
X159783617Y-112925500D01*
X159783618Y-112925499D01*
X159967251Y-112888973D01*
X160140231Y-112817322D01*
X160295908Y-112713302D01*
X160428302Y-112580908D01*
X160532322Y-112425231D01*
X160603973Y-112252251D01*
X160640500Y-112068616D01*
X160640500Y-111881384D01*
X160603973Y-111697749D01*
X160532322Y-111524769D01*
X160532321Y-111524768D01*
X160532318Y-111524762D01*
X160428302Y-111369092D01*
X160428299Y-111369088D01*
X160295911Y-111236700D01*
X160295907Y-111236697D01*
X160140237Y-111132681D01*
X160140228Y-111132676D01*
X159967251Y-111061027D01*
X159967243Y-111061025D01*
X159783620Y-111024500D01*
X159783616Y-111024500D01*
X159162976Y-111024500D01*
X159095937Y-111004815D01*
X159050182Y-110952011D01*
X159040238Y-110882853D01*
X159055589Y-110838500D01*
X159097036Y-110766711D01*
X159116392Y-110733186D01*
X159150500Y-110605892D01*
X159150500Y-110474108D01*
X159116392Y-110346814D01*
X159050500Y-110232686D01*
X158957314Y-110139500D01*
X158895499Y-110103811D01*
X158843187Y-110073608D01*
X158779539Y-110056554D01*
X158715892Y-110039500D01*
X158584108Y-110039500D01*
X158456814Y-110073608D01*
X158456813Y-110073608D01*
X158456811Y-110073609D01*
X158456810Y-110073609D01*
X158404500Y-110103811D01*
X158336600Y-110120284D01*
X158270573Y-110097432D01*
X158227382Y-110042510D01*
X158218500Y-109996424D01*
X158218500Y-108898153D01*
X159991500Y-108898153D01*
X159991500Y-109055846D01*
X160022261Y-109210489D01*
X160022264Y-109210501D01*
X160082602Y-109356172D01*
X160082609Y-109356185D01*
X160170210Y-109487288D01*
X160170213Y-109487292D01*
X160281707Y-109598786D01*
X160281711Y-109598789D01*
X160412814Y-109686390D01*
X160412827Y-109686397D01*
X160503002Y-109723748D01*
X160558503Y-109746737D01*
X160713153Y-109777499D01*
X160713156Y-109777500D01*
X160713158Y-109777500D01*
X160870844Y-109777500D01*
X160870845Y-109777499D01*
X161025497Y-109746737D01*
X161171179Y-109686394D01*
X161302289Y-109598789D01*
X161413789Y-109487289D01*
X161501394Y-109356179D01*
X161561737Y-109210497D01*
X161592500Y-109055842D01*
X161592500Y-109055841D01*
X161592559Y-109055545D01*
X161624944Y-108993634D01*
X161626474Y-108992075D01*
X162464612Y-108154579D01*
X162464716Y-108154520D01*
X162521571Y-108097664D01*
X162576378Y-108042900D01*
X162576381Y-108042895D01*
X162576518Y-108042718D01*
X162576518Y-108042717D01*
X162576520Y-108042716D01*
X162616289Y-107973832D01*
X162616290Y-107973831D01*
X162616292Y-107973832D01*
X162616308Y-107973798D01*
X162655488Y-107905999D01*
X162655489Y-107905994D01*
X162655576Y-107905785D01*
X162655577Y-107905784D01*
X162675583Y-107831118D01*
X162675594Y-107831121D01*
X162675595Y-107831069D01*
X162696471Y-107753287D01*
X162696471Y-107753282D01*
X162696473Y-107753266D01*
X162696473Y-107753157D01*
X162696500Y-107753057D01*
X162696500Y-107676865D01*
X162696531Y-107595173D01*
X162696530Y-107595169D01*
X162696533Y-107587361D01*
X162696500Y-107586841D01*
X162696500Y-105440765D01*
X162716185Y-105373726D01*
X162717398Y-105371874D01*
X162805390Y-105240185D01*
X162805390Y-105240184D01*
X162805394Y-105240179D01*
X162865737Y-105094497D01*
X162896500Y-104939842D01*
X162896500Y-104782158D01*
X162896500Y-104782155D01*
X162896499Y-104782153D01*
X162878986Y-104694110D01*
X162865737Y-104627503D01*
X162840598Y-104566811D01*
X162805397Y-104481827D01*
X162805390Y-104481814D01*
X162717789Y-104350711D01*
X162717786Y-104350707D01*
X162606292Y-104239213D01*
X162606288Y-104239210D01*
X162475185Y-104151609D01*
X162475172Y-104151602D01*
X162371199Y-104108536D01*
X162329501Y-104091264D01*
X162329489Y-104091261D01*
X162174845Y-104060500D01*
X162174842Y-104060500D01*
X162017158Y-104060500D01*
X162017155Y-104060500D01*
X161862510Y-104091261D01*
X161862498Y-104091264D01*
X161716827Y-104151602D01*
X161716814Y-104151609D01*
X161585711Y-104239210D01*
X161585707Y-104239213D01*
X161474213Y-104350707D01*
X161474210Y-104350711D01*
X161386609Y-104481814D01*
X161386602Y-104481827D01*
X161326264Y-104627498D01*
X161326261Y-104627510D01*
X161295500Y-104782153D01*
X161295500Y-104939846D01*
X161326261Y-105094489D01*
X161326264Y-105094501D01*
X161386602Y-105240172D01*
X161386609Y-105240185D01*
X161474602Y-105371874D01*
X161495480Y-105438551D01*
X161495500Y-105440765D01*
X161495500Y-107373739D01*
X161475815Y-107440778D01*
X161459148Y-107461454D01*
X160777697Y-108142382D01*
X160716361Y-108175843D01*
X160714241Y-108176284D01*
X160558508Y-108207261D01*
X160558498Y-108207264D01*
X160412827Y-108267602D01*
X160412814Y-108267609D01*
X160281711Y-108355210D01*
X160281707Y-108355213D01*
X160170213Y-108466707D01*
X160170210Y-108466711D01*
X160082609Y-108597814D01*
X160082602Y-108597827D01*
X160022264Y-108743498D01*
X160022261Y-108743510D01*
X159991500Y-108898153D01*
X158218500Y-108898153D01*
X158218500Y-105303575D01*
X158238185Y-105236536D01*
X158290989Y-105190781D01*
X158360147Y-105180837D01*
X158404499Y-105196188D01*
X158427524Y-105209481D01*
X158456811Y-105226391D01*
X158456813Y-105226391D01*
X158456814Y-105226392D01*
X158584108Y-105260500D01*
X158584110Y-105260500D01*
X158715890Y-105260500D01*
X158715892Y-105260500D01*
X158843186Y-105226392D01*
X158957314Y-105160500D01*
X159050500Y-105067314D01*
X159116392Y-104953186D01*
X159150500Y-104825892D01*
X159150500Y-104694108D01*
X159116392Y-104566814D01*
X159101742Y-104541440D01*
X159055589Y-104461500D01*
X159039116Y-104393600D01*
X159061968Y-104327573D01*
X159116889Y-104284383D01*
X159162976Y-104275500D01*
X159783617Y-104275500D01*
X159783618Y-104275499D01*
X159967251Y-104238973D01*
X160140231Y-104167322D01*
X160295908Y-104063302D01*
X160359148Y-104000062D01*
X174278409Y-104000062D01*
X174278409Y-104157755D01*
X174309170Y-104312398D01*
X174309173Y-104312410D01*
X174369511Y-104458081D01*
X174369518Y-104458094D01*
X174457119Y-104589197D01*
X174457122Y-104589201D01*
X174568616Y-104700695D01*
X174568620Y-104700698D01*
X174699723Y-104788299D01*
X174699736Y-104788306D01*
X174845407Y-104848644D01*
X174845412Y-104848646D01*
X175000062Y-104879408D01*
X175000065Y-104879409D01*
X175000067Y-104879409D01*
X175157753Y-104879409D01*
X175157754Y-104879408D01*
X175312406Y-104848646D01*
X175458088Y-104788303D01*
X175589198Y-104700698D01*
X175700698Y-104589198D01*
X175788303Y-104458088D01*
X175848646Y-104312406D01*
X175879409Y-104157751D01*
X175879409Y-104000067D01*
X175879409Y-104000064D01*
X175879408Y-104000062D01*
X175867094Y-103938155D01*
X175848646Y-103845412D01*
X175819579Y-103775237D01*
X175788306Y-103699736D01*
X175788299Y-103699723D01*
X175700307Y-103568034D01*
X175679429Y-103501356D01*
X175679409Y-103499143D01*
X175679409Y-102374995D01*
X175699094Y-102307956D01*
X175751898Y-102262201D01*
X175755957Y-102260434D01*
X175879172Y-102209397D01*
X175879172Y-102209396D01*
X175879179Y-102209394D01*
X176010289Y-102121789D01*
X176121789Y-102010289D01*
X176209394Y-101879179D01*
X176269737Y-101733497D01*
X176300500Y-101578842D01*
X176300500Y-101421158D01*
X176300500Y-101421155D01*
X176300499Y-101421153D01*
X176285367Y-101345081D01*
X176269737Y-101266503D01*
X176269735Y-101266498D01*
X176209397Y-101120827D01*
X176209390Y-101120814D01*
X176121789Y-100989711D01*
X176121786Y-100989707D01*
X176010292Y-100878213D01*
X176010288Y-100878210D01*
X175879185Y-100790609D01*
X175879172Y-100790602D01*
X175733501Y-100730264D01*
X175733489Y-100730261D01*
X175578845Y-100699500D01*
X175578842Y-100699500D01*
X175421158Y-100699500D01*
X175421155Y-100699500D01*
X175266510Y-100730261D01*
X175266498Y-100730264D01*
X175120827Y-100790602D01*
X175120814Y-100790609D01*
X174989711Y-100878210D01*
X174989707Y-100878213D01*
X174878213Y-100989707D01*
X174878210Y-100989711D01*
X174790609Y-101120814D01*
X174790602Y-101120827D01*
X174730264Y-101266498D01*
X174730261Y-101266508D01*
X174699362Y-101421848D01*
X174693825Y-101433890D01*
X174692903Y-101443641D01*
X174681125Y-101461513D01*
X174675283Y-101474222D01*
X174670686Y-101480077D01*
X174598389Y-101552375D01*
X174559574Y-101619606D01*
X174555172Y-101627230D01*
X174555166Y-101627238D01*
X174529880Y-101671036D01*
X174519332Y-101689306D01*
X174478408Y-101842034D01*
X174478408Y-101842036D01*
X174478408Y-102010137D01*
X174478409Y-102010150D01*
X174478409Y-103499143D01*
X174458724Y-103566182D01*
X174457511Y-103568034D01*
X174369518Y-103699723D01*
X174369511Y-103699736D01*
X174309173Y-103845407D01*
X174309170Y-103845419D01*
X174278409Y-104000062D01*
X160359148Y-104000062D01*
X160428302Y-103930908D01*
X160532322Y-103775231D01*
X160603973Y-103602251D01*
X160640500Y-103418616D01*
X160640500Y-103231384D01*
X160603973Y-103047749D01*
X160532322Y-102874769D01*
X160532321Y-102874768D01*
X160532318Y-102874762D01*
X160428302Y-102719092D01*
X160428299Y-102719088D01*
X160295911Y-102586700D01*
X160295907Y-102586697D01*
X160140237Y-102482681D01*
X160140228Y-102482676D01*
X159967251Y-102411027D01*
X159967243Y-102411025D01*
X159783620Y-102374500D01*
X159783616Y-102374500D01*
X158562500Y-102374500D01*
X158553814Y-102371949D01*
X158544853Y-102373238D01*
X158520812Y-102362259D01*
X158495461Y-102354815D01*
X158489533Y-102347974D01*
X158481297Y-102344213D01*
X158467007Y-102321978D01*
X158449706Y-102302011D01*
X158447418Y-102291496D01*
X158443523Y-102285435D01*
X158438500Y-102250500D01*
X158438500Y-102250153D01*
X168966500Y-102250153D01*
X168966500Y-102407846D01*
X168997261Y-102562489D01*
X168997264Y-102562501D01*
X169057602Y-102708172D01*
X169057609Y-102708185D01*
X169145210Y-102839288D01*
X169145213Y-102839292D01*
X169256707Y-102950786D01*
X169256711Y-102950789D01*
X169387814Y-103038390D01*
X169387827Y-103038397D01*
X169496408Y-103083372D01*
X169533503Y-103098737D01*
X169687575Y-103129384D01*
X169688153Y-103129499D01*
X169688156Y-103129500D01*
X169688158Y-103129500D01*
X169845844Y-103129500D01*
X169845845Y-103129499D01*
X170000497Y-103098737D01*
X170146179Y-103038394D01*
X170277289Y-102950789D01*
X170388789Y-102839289D01*
X170476394Y-102708179D01*
X170536737Y-102562497D01*
X170551910Y-102486212D01*
X170567502Y-102407835D01*
X170599887Y-102345924D01*
X170601496Y-102344286D01*
X170623834Y-102321978D01*
X170884538Y-102061622D01*
X170884716Y-102061520D01*
X170940960Y-102005276D01*
X170996273Y-101950037D01*
X170996279Y-101950025D01*
X170996416Y-101949849D01*
X170996510Y-101949725D01*
X170996520Y-101949716D01*
X171036284Y-101880842D01*
X171075422Y-101813158D01*
X171075475Y-101812960D01*
X171075577Y-101812784D01*
X171095740Y-101737529D01*
X171095785Y-101737456D01*
X171095762Y-101737450D01*
X171103886Y-101707211D01*
X171116448Y-101660459D01*
X171116448Y-101660250D01*
X171116500Y-101660057D01*
X171116500Y-101582154D01*
X171116553Y-101502344D01*
X171116552Y-101502340D01*
X171116557Y-101494768D01*
X171116500Y-101493880D01*
X171116500Y-96160965D01*
X171136185Y-96093926D01*
X171137398Y-96092074D01*
X171170998Y-96041789D01*
X171225394Y-95960379D01*
X171285737Y-95814697D01*
X171316500Y-95660042D01*
X171316500Y-95502358D01*
X171316500Y-95502355D01*
X171316499Y-95502353D01*
X171313186Y-95485699D01*
X171285737Y-95347703D01*
X171269586Y-95308711D01*
X171225397Y-95202027D01*
X171225390Y-95202014D01*
X171137789Y-95070911D01*
X171137786Y-95070907D01*
X171026292Y-94959413D01*
X171026288Y-94959410D01*
X170895185Y-94871809D01*
X170895172Y-94871802D01*
X170749501Y-94811464D01*
X170749489Y-94811461D01*
X170594845Y-94780700D01*
X170594842Y-94780700D01*
X170437158Y-94780700D01*
X170437155Y-94780700D01*
X170282510Y-94811461D01*
X170282498Y-94811464D01*
X170136827Y-94871802D01*
X170136814Y-94871809D01*
X170005711Y-94959410D01*
X170005707Y-94959413D01*
X169894213Y-95070907D01*
X169894210Y-95070911D01*
X169806609Y-95202014D01*
X169806602Y-95202027D01*
X169746264Y-95347698D01*
X169746261Y-95347710D01*
X169715500Y-95502353D01*
X169715500Y-95660046D01*
X169746261Y-95814689D01*
X169746264Y-95814701D01*
X169806602Y-95960372D01*
X169806609Y-95960385D01*
X169894602Y-96092074D01*
X169915480Y-96158751D01*
X169915500Y-96160965D01*
X169915500Y-101280617D01*
X169906845Y-101310091D01*
X169900293Y-101340116D01*
X169896571Y-101345081D01*
X169895815Y-101347656D01*
X169879123Y-101368357D01*
X169752963Y-101494349D01*
X169691617Y-101527793D01*
X169689532Y-101528226D01*
X169533508Y-101559261D01*
X169533498Y-101559264D01*
X169387827Y-101619602D01*
X169387814Y-101619609D01*
X169256711Y-101707210D01*
X169256707Y-101707213D01*
X169145213Y-101818707D01*
X169145210Y-101818711D01*
X169057609Y-101949814D01*
X169057602Y-101949827D01*
X168997264Y-102095498D01*
X168997261Y-102095510D01*
X168966500Y-102250153D01*
X158438500Y-102250153D01*
X158438500Y-97666259D01*
X158438501Y-97666246D01*
X158438501Y-97498145D01*
X158438501Y-97498143D01*
X158397577Y-97345415D01*
X158368639Y-97295295D01*
X158318520Y-97208484D01*
X158206716Y-97096680D01*
X158206715Y-97096679D01*
X158202385Y-97092349D01*
X158202374Y-97092339D01*
X157345362Y-96235327D01*
X157335521Y-96225486D01*
X157335520Y-96225484D01*
X157223716Y-96113680D01*
X157176078Y-96086176D01*
X157166806Y-96078007D01*
X157154489Y-96058490D01*
X157138565Y-96041789D01*
X157136196Y-96029502D01*
X157129518Y-96018919D01*
X157129708Y-95995841D01*
X157125341Y-95973182D01*
X157130028Y-95957075D01*
X157130095Y-95949052D01*
X157134181Y-95942807D01*
X157138295Y-95928674D01*
X157154048Y-95897758D01*
X157224722Y-95680245D01*
X157260500Y-95454354D01*
X157260500Y-95225646D01*
X157224722Y-94999755D01*
X157224721Y-94999751D01*
X157224721Y-94999750D01*
X157154049Y-94782244D01*
X157084430Y-94645609D01*
X157050217Y-94578462D01*
X156915786Y-94393434D01*
X156754066Y-94231714D01*
X156669559Y-94170316D01*
X156626896Y-94114988D01*
X156620917Y-94045375D01*
X156653523Y-93983580D01*
X156669556Y-93969685D01*
X156754066Y-93908286D01*
X156915786Y-93746566D01*
X157050217Y-93561538D01*
X157154048Y-93357758D01*
X157169154Y-93311267D01*
X157224721Y-93140249D01*
X157224721Y-93140248D01*
X157224722Y-93140245D01*
X157260500Y-92914354D01*
X157260500Y-92685646D01*
X157224722Y-92459755D01*
X157224721Y-92459751D01*
X157224721Y-92459750D01*
X157154049Y-92242244D01*
X157108121Y-92152106D01*
X157050217Y-92038462D01*
X156915786Y-91853434D01*
X156754066Y-91691714D01*
X156569038Y-91557283D01*
X156543371Y-91544205D01*
X156365255Y-91453450D01*
X156147748Y-91382778D01*
X155978326Y-91355944D01*
X155921854Y-91347000D01*
X155598146Y-91347000D01*
X155522849Y-91358926D01*
X155372253Y-91382778D01*
X155372250Y-91382778D01*
X155154744Y-91453450D01*
X154950961Y-91557283D01*
X154880523Y-91608460D01*
X154765934Y-91691714D01*
X154765932Y-91691716D01*
X154765931Y-91691716D01*
X154604216Y-91853431D01*
X154604216Y-91853432D01*
X154604214Y-91853434D01*
X154546480Y-91932896D01*
X154469783Y-92038461D01*
X154365950Y-92242244D01*
X154295278Y-92459750D01*
X154295278Y-92459753D01*
X154259500Y-92685646D01*
X151730500Y-92685646D01*
X151730500Y-77854500D01*
X151750185Y-77787461D01*
X151802989Y-77741706D01*
X151854500Y-77730500D01*
X175258635Y-77730500D01*
X175325674Y-77750185D01*
G37*
%TD.AperFunction*%
%TA.AperFunction,Conductor*%
G36*
X193481719Y-119193445D02*
G01*
X193520763Y-119238500D01*
X193525377Y-119247555D01*
X193650272Y-119419459D01*
X193650276Y-119419464D01*
X193800535Y-119569723D01*
X193800540Y-119569727D01*
X193972442Y-119694620D01*
X194161782Y-119791095D01*
X194363867Y-119856756D01*
X194368471Y-119857861D01*
X194429068Y-119892643D01*
X194461241Y-119954664D01*
X194454776Y-120024234D01*
X194411724Y-120079264D01*
X194408433Y-120081541D01*
X194284711Y-120164210D01*
X194284707Y-120164213D01*
X194173213Y-120275707D01*
X194173210Y-120275711D01*
X194085609Y-120406814D01*
X194085602Y-120406827D01*
X194025264Y-120552498D01*
X194025261Y-120552510D01*
X193994500Y-120707153D01*
X193994500Y-120864846D01*
X194025261Y-121019489D01*
X194025264Y-121019501D01*
X194044605Y-121066194D01*
X194052074Y-121135663D01*
X194020798Y-121198142D01*
X194017725Y-121201327D01*
X190864873Y-124354181D01*
X190803550Y-124387666D01*
X190777192Y-124390500D01*
X188447808Y-124390500D01*
X188380769Y-124370815D01*
X188360127Y-124354181D01*
X185520193Y-121514247D01*
X185486708Y-121452924D01*
X185491692Y-121383232D01*
X185520191Y-121338886D01*
X185577789Y-121281289D01*
X185665394Y-121150179D01*
X185725737Y-121004497D01*
X185756500Y-120849842D01*
X185756500Y-120692158D01*
X185756500Y-120692155D01*
X185756499Y-120692153D01*
X185735497Y-120586572D01*
X185725737Y-120537503D01*
X185711533Y-120503211D01*
X185665397Y-120391827D01*
X185665390Y-120391814D01*
X185577789Y-120260711D01*
X185577786Y-120260707D01*
X185466292Y-120149213D01*
X185466288Y-120149210D01*
X185335185Y-120061609D01*
X185335172Y-120061602D01*
X185189501Y-120001264D01*
X185189491Y-120001261D01*
X185135536Y-119990529D01*
X185073625Y-119958144D01*
X185039051Y-119897428D01*
X185042791Y-119827659D01*
X185083658Y-119770987D01*
X185103433Y-119758427D01*
X185139125Y-119740241D01*
X185227816Y-119695051D01*
X185311568Y-119634202D01*
X185399786Y-119570109D01*
X185399788Y-119570106D01*
X185399792Y-119570104D01*
X185550104Y-119419792D01*
X185550106Y-119419788D01*
X185550109Y-119419786D01*
X185675048Y-119247820D01*
X185675047Y-119247820D01*
X185675051Y-119247816D01*
X185679514Y-119239054D01*
X185727488Y-119188259D01*
X185795308Y-119171463D01*
X185861444Y-119193999D01*
X185900486Y-119239056D01*
X185904951Y-119247820D01*
X186029890Y-119419786D01*
X186180213Y-119570109D01*
X186352179Y-119695048D01*
X186352181Y-119695049D01*
X186352184Y-119695051D01*
X186541588Y-119791557D01*
X186743757Y-119857246D01*
X186953713Y-119890500D01*
X186953714Y-119890500D01*
X187166286Y-119890500D01*
X187166287Y-119890500D01*
X187376243Y-119857246D01*
X187578412Y-119791557D01*
X187767816Y-119695051D01*
X187851568Y-119634202D01*
X187939786Y-119570109D01*
X187939788Y-119570106D01*
X187939792Y-119570104D01*
X188090104Y-119419792D01*
X188090106Y-119419788D01*
X188090109Y-119419786D01*
X188215048Y-119247820D01*
X188215047Y-119247820D01*
X188215051Y-119247816D01*
X188219514Y-119239054D01*
X188267488Y-119188259D01*
X188335308Y-119171463D01*
X188401444Y-119193999D01*
X188440486Y-119239056D01*
X188444951Y-119247820D01*
X188569890Y-119419786D01*
X188720213Y-119570109D01*
X188892179Y-119695048D01*
X188892181Y-119695049D01*
X188892184Y-119695051D01*
X189081588Y-119791557D01*
X189283757Y-119857246D01*
X189493713Y-119890500D01*
X189493714Y-119890500D01*
X189706286Y-119890500D01*
X189706287Y-119890500D01*
X189916243Y-119857246D01*
X190118412Y-119791557D01*
X190307816Y-119695051D01*
X190391568Y-119634202D01*
X190479786Y-119570109D01*
X190479788Y-119570106D01*
X190479792Y-119570104D01*
X190630104Y-119419792D01*
X190630106Y-119419788D01*
X190630109Y-119419786D01*
X190755048Y-119247820D01*
X190755047Y-119247820D01*
X190755051Y-119247816D01*
X190759514Y-119239054D01*
X190807488Y-119188259D01*
X190875308Y-119171463D01*
X190941444Y-119193999D01*
X190980486Y-119239056D01*
X190984951Y-119247820D01*
X191109890Y-119419786D01*
X191260213Y-119570109D01*
X191432179Y-119695048D01*
X191432181Y-119695049D01*
X191432184Y-119695051D01*
X191621588Y-119791557D01*
X191823757Y-119857246D01*
X192033713Y-119890500D01*
X192033714Y-119890500D01*
X192246286Y-119890500D01*
X192246287Y-119890500D01*
X192456243Y-119857246D01*
X192658412Y-119791557D01*
X192847816Y-119695051D01*
X192931568Y-119634202D01*
X193019786Y-119570109D01*
X193019788Y-119570106D01*
X193019792Y-119570104D01*
X193170104Y-119419792D01*
X193170106Y-119419788D01*
X193170109Y-119419786D01*
X193295048Y-119247820D01*
X193295051Y-119247816D01*
X193299793Y-119238508D01*
X193347763Y-119187711D01*
X193415583Y-119170911D01*
X193481719Y-119193445D01*
G37*
%TD.AperFunction*%
%TA.AperFunction,Conductor*%
G36*
X193604755Y-117500185D02*
G01*
X193650510Y-117552989D01*
X193660454Y-117622147D01*
X193638034Y-117677385D01*
X193525378Y-117832443D01*
X193520762Y-117841502D01*
X193472784Y-117892295D01*
X193404963Y-117909087D01*
X193338829Y-117886546D01*
X193308929Y-117856644D01*
X193303823Y-117849401D01*
X193295051Y-117832184D01*
X193182071Y-117676679D01*
X193181552Y-117675943D01*
X193170564Y-117643696D01*
X193159105Y-117611578D01*
X193159314Y-117610678D01*
X193159017Y-117609807D01*
X193167206Y-117576739D01*
X193174931Y-117543525D01*
X193175592Y-117542882D01*
X193175814Y-117541987D01*
X193200596Y-117518582D01*
X193225037Y-117494830D01*
X193225999Y-117494591D01*
X193226611Y-117494014D01*
X193233731Y-117492676D01*
X193282903Y-117480500D01*
X193537716Y-117480500D01*
X193604755Y-117500185D01*
G37*
%TD.AperFunction*%
%TA.AperFunction,Conductor*%
G36*
X190941444Y-116653999D02*
G01*
X190980486Y-116699056D01*
X190984951Y-116707820D01*
X191109890Y-116879786D01*
X191119378Y-116889274D01*
X191152863Y-116950597D01*
X191147879Y-117020289D01*
X191139086Y-117038952D01*
X191108617Y-117091728D01*
X191108616Y-117091729D01*
X191108216Y-117093223D01*
X191089500Y-117163072D01*
X191089500Y-117236928D01*
X191108616Y-117308269D01*
X191131980Y-117348738D01*
X191145543Y-117372229D01*
X191145545Y-117372232D01*
X191184027Y-117410714D01*
X191217512Y-117472037D01*
X191212528Y-117541729D01*
X191184028Y-117586076D01*
X191109889Y-117660215D01*
X190984949Y-117832182D01*
X190980484Y-117840946D01*
X190932509Y-117891742D01*
X190864688Y-117908536D01*
X190798553Y-117885998D01*
X190759516Y-117840946D01*
X190755050Y-117832182D01*
X190630109Y-117660213D01*
X190479786Y-117509890D01*
X190307815Y-117384948D01*
X190307812Y-117384946D01*
X190299050Y-117380481D01*
X190248256Y-117332505D01*
X190231463Y-117264683D01*
X190254003Y-117198549D01*
X190299056Y-117159514D01*
X190307816Y-117155051D01*
X190404810Y-117084581D01*
X190479786Y-117030109D01*
X190479788Y-117030106D01*
X190479792Y-117030104D01*
X190630104Y-116879792D01*
X190630106Y-116879788D01*
X190630109Y-116879786D01*
X190755048Y-116707820D01*
X190755047Y-116707820D01*
X190755051Y-116707816D01*
X190759514Y-116699054D01*
X190807488Y-116648259D01*
X190875308Y-116631463D01*
X190941444Y-116653999D01*
G37*
%TD.AperFunction*%
%TD*%
M02*
