%TF.GenerationSoftware,KiCad,Pcbnew,9.0.0*%
%TF.CreationDate,2025-04-08T12:05:04+02:00*%
%TF.ProjectId,EEE3088F Project PCB,45454533-3038-4384-9620-50726f6a6563,rev?*%
%TF.SameCoordinates,Original*%
%TF.FileFunction,Legend,Top*%
%TF.FilePolarity,Positive*%
%FSLAX46Y46*%
G04 Gerber Fmt 4.6, Leading zero omitted, Abs format (unit mm)*
G04 Created by KiCad (PCBNEW 9.0.0) date 2025-04-08 12:05:04*
%MOMM*%
%LPD*%
G01*
G04 APERTURE LIST*
G04 Aperture macros list*
%AMRoundRect*
0 Rectangle with rounded corners*
0 $1 Rounding radius*
0 $2 $3 $4 $5 $6 $7 $8 $9 X,Y pos of 4 corners*
0 Add a 4 corners polygon primitive as box body*
4,1,4,$2,$3,$4,$5,$6,$7,$8,$9,$2,$3,0*
0 Add four circle primitives for the rounded corners*
1,1,$1+$1,$2,$3*
1,1,$1+$1,$4,$5*
1,1,$1+$1,$6,$7*
1,1,$1+$1,$8,$9*
0 Add four rect primitives between the rounded corners*
20,1,$1+$1,$2,$3,$4,$5,0*
20,1,$1+$1,$4,$5,$6,$7,0*
20,1,$1+$1,$6,$7,$8,$9,0*
20,1,$1+$1,$8,$9,$2,$3,0*%
%AMFreePoly0*
4,1,23,0.000000,0.745722,0.065263,0.745722,0.191342,0.711940,0.304381,0.646677,0.396677,0.554381,0.461940,0.441342,0.495722,0.315263,0.495722,0.250000,0.500000,0.250000,0.500000,-0.250000,0.495722,-0.250000,0.495722,-0.315263,0.461940,-0.441342,0.396677,-0.554381,0.304381,-0.646677,0.191342,-0.711940,0.065263,-0.745722,0.000000,-0.745722,0.000000,-0.750000,-0.500000,-0.750000,
-0.500000,0.750000,0.000000,0.750000,0.000000,0.745722,0.000000,0.745722,$1*%
%AMFreePoly1*
4,1,23,0.500000,-0.750000,0.000000,-0.750000,0.000000,-0.745722,-0.065263,-0.745722,-0.191342,-0.711940,-0.304381,-0.646677,-0.396677,-0.554381,-0.461940,-0.441342,-0.495722,-0.315263,-0.495722,-0.250000,-0.500000,-0.250000,-0.500000,0.250000,-0.495722,0.250000,-0.495722,0.315263,-0.461940,0.441342,-0.396677,0.554381,-0.304381,0.646677,-0.191342,0.711940,-0.065263,0.745722,0.000000,0.745722,
0.000000,0.750000,0.500000,0.750000,0.500000,-0.750000,0.500000,-0.750000,$1*%
%AMFreePoly2*
4,1,23,0.550000,-0.750000,0.000000,-0.750000,0.000000,-0.745722,-0.065263,-0.745722,-0.191342,-0.711940,-0.304381,-0.646677,-0.396677,-0.554381,-0.461940,-0.441342,-0.495722,-0.315263,-0.495722,-0.250000,-0.500000,-0.250000,-0.500000,0.250000,-0.495722,0.250000,-0.495722,0.315263,-0.461940,0.441342,-0.396677,0.554381,-0.304381,0.646677,-0.191342,0.711940,-0.065263,0.745722,0.000000,0.745722,
0.000000,0.750000,0.550000,0.750000,0.550000,-0.750000,0.550000,-0.750000,$1*%
%AMFreePoly3*
4,1,23,0.000000,0.745722,0.065263,0.745722,0.191342,0.711940,0.304381,0.646677,0.396677,0.554381,0.461940,0.441342,0.495722,0.315263,0.495722,0.250000,0.500000,0.250000,0.500000,-0.250000,0.495722,-0.250000,0.495722,-0.315263,0.461940,-0.441342,0.396677,-0.554381,0.304381,-0.646677,0.191342,-0.711940,0.065263,-0.745722,0.000000,-0.745722,0.000000,-0.750000,-0.550000,-0.750000,
-0.550000,0.750000,0.000000,0.750000,0.000000,0.745722,0.000000,0.745722,$1*%
G04 Aperture macros list end*
%ADD10C,0.100000*%
%ADD11C,0.150000*%
%ADD12C,0.254000*%
%ADD13C,0.098425*%
%ADD14C,0.120000*%
%ADD15C,0.200000*%
%ADD16C,0.127000*%
%ADD17C,0.152400*%
%ADD18C,0.508000*%
%ADD19C,0.010000*%
%ADD20R,1.000000X1.000000*%
%ADD21RoundRect,0.249999X-0.450001X-1.425001X0.450001X-1.425001X0.450001X1.425001X-0.450001X1.425001X0*%
%ADD22RoundRect,0.249999X0.450001X1.425001X-0.450001X1.425001X-0.450001X-1.425001X0.450001X-1.425001X0*%
%ADD23FreePoly0,0.000000*%
%ADD24FreePoly1,0.000000*%
%ADD25R,3.000000X3.000000*%
%ADD26RoundRect,0.100000X-0.675000X-0.100000X0.675000X-0.100000X0.675000X0.100000X-0.675000X0.100000X0*%
%ADD27RoundRect,0.250000X-0.337500X-0.475000X0.337500X-0.475000X0.337500X0.475000X-0.337500X0.475000X0*%
%ADD28RoundRect,0.237500X0.237500X-0.300000X0.237500X0.300000X-0.237500X0.300000X-0.237500X-0.300000X0*%
%ADD29RoundRect,0.250000X-0.475000X0.337500X-0.475000X-0.337500X0.475000X-0.337500X0.475000X0.337500X0*%
%ADD30O,1.904000X1.104000*%
%ADD31O,2.204000X1.104000*%
%ADD32C,0.600000*%
%ADD33R,2.100000X3.300000*%
%ADD34RoundRect,0.150000X-0.687500X-0.150000X0.687500X-0.150000X0.687500X0.150000X-0.687500X0.150000X0*%
%ADD35R,0.900000X1.600000*%
%ADD36RoundRect,0.062500X0.300000X0.062500X-0.300000X0.062500X-0.300000X-0.062500X0.300000X-0.062500X0*%
%ADD37RoundRect,0.062500X-0.300000X-0.062500X0.300000X-0.062500X0.300000X0.062500X-0.300000X0.062500X0*%
%ADD38R,2.513000X3.402000*%
%ADD39R,1.525000X0.700000*%
%ADD40RoundRect,0.160000X-0.160000X0.197500X-0.160000X-0.197500X0.160000X-0.197500X0.160000X0.197500X0*%
%ADD41RoundRect,0.249999X1.425001X-0.450001X1.425001X0.450001X-1.425001X0.450001X-1.425001X-0.450001X0*%
%ADD42RoundRect,0.160000X0.160000X-0.197500X0.160000X0.197500X-0.160000X0.197500X-0.160000X-0.197500X0*%
%ADD43RoundRect,0.250000X0.475000X-0.337500X0.475000X0.337500X-0.475000X0.337500X-0.475000X-0.337500X0*%
%ADD44RoundRect,0.150000X-0.512500X-0.150000X0.512500X-0.150000X0.512500X0.150000X-0.512500X0.150000X0*%
%ADD45FreePoly1,270.000000*%
%ADD46FreePoly0,270.000000*%
%ADD47FreePoly2,0.000000*%
%ADD48R,1.000000X1.500000*%
%ADD49FreePoly3,0.000000*%
%ADD50RoundRect,0.250000X0.400000X0.625000X-0.400000X0.625000X-0.400000X-0.625000X0.400000X-0.625000X0*%
%ADD51RoundRect,0.200000X0.275000X-0.200000X0.275000X0.200000X-0.275000X0.200000X-0.275000X-0.200000X0*%
%ADD52RoundRect,0.250000X0.337500X0.475000X-0.337500X0.475000X-0.337500X-0.475000X0.337500X-0.475000X0*%
%ADD53RoundRect,0.160000X0.197500X0.160000X-0.197500X0.160000X-0.197500X-0.160000X0.197500X-0.160000X0*%
%ADD54RoundRect,0.237500X0.300000X0.237500X-0.300000X0.237500X-0.300000X-0.237500X0.300000X-0.237500X0*%
%ADD55RoundRect,0.100000X-0.650000X-0.100000X0.650000X-0.100000X0.650000X0.100000X-0.650000X0.100000X0*%
%ADD56RoundRect,0.249999X1.975001X-0.640001X1.975001X0.640001X-1.975001X0.640001X-1.975001X-0.640001X0*%
%ADD57RoundRect,0.102000X0.860000X-0.525000X0.860000X0.525000X-0.860000X0.525000X-0.860000X-0.525000X0*%
%ADD58RoundRect,0.155000X-0.212500X-0.155000X0.212500X-0.155000X0.212500X0.155000X-0.212500X0.155000X0*%
%ADD59RoundRect,0.200000X-0.200000X-0.275000X0.200000X-0.275000X0.200000X0.275000X-0.200000X0.275000X0*%
%ADD60R,0.950000X0.450000*%
%ADD61R,1.700000X1.700000*%
%ADD62O,1.700000X1.700000*%
%ADD63RoundRect,0.250000X0.300000X-0.300000X0.300000X0.300000X-0.300000X0.300000X-0.300000X-0.300000X0*%
%ADD64RoundRect,0.155000X0.155000X-0.212500X0.155000X0.212500X-0.155000X0.212500X-0.155000X-0.212500X0*%
%ADD65RoundRect,0.102000X0.525000X0.860000X-0.525000X0.860000X-0.525000X-0.860000X0.525000X-0.860000X0*%
%ADD66R,2.000000X2.000000*%
%ADD67C,2.057400*%
%ADD68RoundRect,0.125000X-0.537500X-0.125000X0.537500X-0.125000X0.537500X0.125000X-0.537500X0.125000X0*%
%ADD69R,2.000000X1.905000*%
%ADD70O,2.000000X1.905000*%
%ADD71FreePoly1,180.000000*%
%ADD72FreePoly0,180.000000*%
%ADD73RoundRect,0.250000X0.625000X-0.400000X0.625000X0.400000X-0.625000X0.400000X-0.625000X-0.400000X0*%
%ADD74RoundRect,0.102000X-0.910000X0.600000X-0.910000X-0.600000X0.910000X-0.600000X0.910000X0.600000X0*%
%ADD75RoundRect,0.250000X0.625000X-0.350000X0.625000X0.350000X-0.625000X0.350000X-0.625000X-0.350000X0*%
%ADD76O,1.750000X1.200000*%
G04 APERTURE END LIST*
D10*
X210661027Y-78872419D02*
X211232455Y-78872419D01*
X210946741Y-79872419D02*
X210946741Y-78872419D01*
X212137217Y-79872419D02*
X211803884Y-79396228D01*
X211565789Y-79872419D02*
X211565789Y-78872419D01*
X211565789Y-78872419D02*
X211946741Y-78872419D01*
X211946741Y-78872419D02*
X212041979Y-78920038D01*
X212041979Y-78920038D02*
X212089598Y-78967657D01*
X212089598Y-78967657D02*
X212137217Y-79062895D01*
X212137217Y-79062895D02*
X212137217Y-79205752D01*
X212137217Y-79205752D02*
X212089598Y-79300990D01*
X212089598Y-79300990D02*
X212041979Y-79348609D01*
X212041979Y-79348609D02*
X211946741Y-79396228D01*
X211946741Y-79396228D02*
X211565789Y-79396228D01*
X212565789Y-79872419D02*
X212565789Y-78872419D01*
X213137217Y-79872419D02*
X212708646Y-79300990D01*
X213137217Y-78872419D02*
X212565789Y-79443847D01*
X213851503Y-78872419D02*
X213851503Y-79586704D01*
X213851503Y-79586704D02*
X213803884Y-79729561D01*
X213803884Y-79729561D02*
X213708646Y-79824800D01*
X213708646Y-79824800D02*
X213565789Y-79872419D01*
X213565789Y-79872419D02*
X213470551Y-79872419D01*
X214518170Y-78872419D02*
X214708646Y-78872419D01*
X214708646Y-78872419D02*
X214803884Y-78920038D01*
X214803884Y-78920038D02*
X214899122Y-79015276D01*
X214899122Y-79015276D02*
X214946741Y-79205752D01*
X214946741Y-79205752D02*
X214946741Y-79539085D01*
X214946741Y-79539085D02*
X214899122Y-79729561D01*
X214899122Y-79729561D02*
X214803884Y-79824800D01*
X214803884Y-79824800D02*
X214708646Y-79872419D01*
X214708646Y-79872419D02*
X214518170Y-79872419D01*
X214518170Y-79872419D02*
X214422932Y-79824800D01*
X214422932Y-79824800D02*
X214327694Y-79729561D01*
X214327694Y-79729561D02*
X214280075Y-79539085D01*
X214280075Y-79539085D02*
X214280075Y-79205752D01*
X214280075Y-79205752D02*
X214327694Y-79015276D01*
X214327694Y-79015276D02*
X214422932Y-78920038D01*
X214422932Y-78920038D02*
X214518170Y-78872419D01*
X215375313Y-79872419D02*
X215375313Y-78872419D01*
X215375313Y-78872419D02*
X215946741Y-79872419D01*
X215946741Y-79872419D02*
X215946741Y-78872419D01*
X216613408Y-78872419D02*
X216708646Y-78872419D01*
X216708646Y-78872419D02*
X216803884Y-78920038D01*
X216803884Y-78920038D02*
X216851503Y-78967657D01*
X216851503Y-78967657D02*
X216899122Y-79062895D01*
X216899122Y-79062895D02*
X216946741Y-79253371D01*
X216946741Y-79253371D02*
X216946741Y-79491466D01*
X216946741Y-79491466D02*
X216899122Y-79681942D01*
X216899122Y-79681942D02*
X216851503Y-79777180D01*
X216851503Y-79777180D02*
X216803884Y-79824800D01*
X216803884Y-79824800D02*
X216708646Y-79872419D01*
X216708646Y-79872419D02*
X216613408Y-79872419D01*
X216613408Y-79872419D02*
X216518170Y-79824800D01*
X216518170Y-79824800D02*
X216470551Y-79777180D01*
X216470551Y-79777180D02*
X216422932Y-79681942D01*
X216422932Y-79681942D02*
X216375313Y-79491466D01*
X216375313Y-79491466D02*
X216375313Y-79253371D01*
X216375313Y-79253371D02*
X216422932Y-79062895D01*
X216422932Y-79062895D02*
X216470551Y-78967657D01*
X216470551Y-78967657D02*
X216518170Y-78920038D01*
X216518170Y-78920038D02*
X216613408Y-78872419D01*
X217565789Y-78872419D02*
X217661027Y-78872419D01*
X217661027Y-78872419D02*
X217756265Y-78920038D01*
X217756265Y-78920038D02*
X217803884Y-78967657D01*
X217803884Y-78967657D02*
X217851503Y-79062895D01*
X217851503Y-79062895D02*
X217899122Y-79253371D01*
X217899122Y-79253371D02*
X217899122Y-79491466D01*
X217899122Y-79491466D02*
X217851503Y-79681942D01*
X217851503Y-79681942D02*
X217803884Y-79777180D01*
X217803884Y-79777180D02*
X217756265Y-79824800D01*
X217756265Y-79824800D02*
X217661027Y-79872419D01*
X217661027Y-79872419D02*
X217565789Y-79872419D01*
X217565789Y-79872419D02*
X217470551Y-79824800D01*
X217470551Y-79824800D02*
X217422932Y-79777180D01*
X217422932Y-79777180D02*
X217375313Y-79681942D01*
X217375313Y-79681942D02*
X217327694Y-79491466D01*
X217327694Y-79491466D02*
X217327694Y-79253371D01*
X217327694Y-79253371D02*
X217375313Y-79062895D01*
X217375313Y-79062895D02*
X217422932Y-78967657D01*
X217422932Y-78967657D02*
X217470551Y-78920038D01*
X217470551Y-78920038D02*
X217565789Y-78872419D01*
X218280075Y-78967657D02*
X218327694Y-78920038D01*
X218327694Y-78920038D02*
X218422932Y-78872419D01*
X218422932Y-78872419D02*
X218661027Y-78872419D01*
X218661027Y-78872419D02*
X218756265Y-78920038D01*
X218756265Y-78920038D02*
X218803884Y-78967657D01*
X218803884Y-78967657D02*
X218851503Y-79062895D01*
X218851503Y-79062895D02*
X218851503Y-79158133D01*
X218851503Y-79158133D02*
X218803884Y-79300990D01*
X218803884Y-79300990D02*
X218232456Y-79872419D01*
X218232456Y-79872419D02*
X218851503Y-79872419D01*
X220851504Y-79872419D02*
X220803885Y-79872419D01*
X220803885Y-79872419D02*
X220708646Y-79824800D01*
X220708646Y-79824800D02*
X220565789Y-79681942D01*
X220565789Y-79681942D02*
X220327694Y-79396228D01*
X220327694Y-79396228D02*
X220232456Y-79253371D01*
X220232456Y-79253371D02*
X220184837Y-79110514D01*
X220184837Y-79110514D02*
X220184837Y-79015276D01*
X220184837Y-79015276D02*
X220232456Y-78920038D01*
X220232456Y-78920038D02*
X220327694Y-78872419D01*
X220327694Y-78872419D02*
X220375313Y-78872419D01*
X220375313Y-78872419D02*
X220470551Y-78920038D01*
X220470551Y-78920038D02*
X220518170Y-79015276D01*
X220518170Y-79015276D02*
X220518170Y-79062895D01*
X220518170Y-79062895D02*
X220470551Y-79158133D01*
X220470551Y-79158133D02*
X220422932Y-79205752D01*
X220422932Y-79205752D02*
X220137218Y-79396228D01*
X220137218Y-79396228D02*
X220089599Y-79443847D01*
X220089599Y-79443847D02*
X220041980Y-79539085D01*
X220041980Y-79539085D02*
X220041980Y-79681942D01*
X220041980Y-79681942D02*
X220089599Y-79777180D01*
X220089599Y-79777180D02*
X220137218Y-79824800D01*
X220137218Y-79824800D02*
X220232456Y-79872419D01*
X220232456Y-79872419D02*
X220375313Y-79872419D01*
X220375313Y-79872419D02*
X220470551Y-79824800D01*
X220470551Y-79824800D02*
X220518170Y-79777180D01*
X220518170Y-79777180D02*
X220661027Y-79586704D01*
X220661027Y-79586704D02*
X220708646Y-79443847D01*
X220708646Y-79443847D02*
X220708646Y-79348609D01*
X222041980Y-79872419D02*
X222041980Y-78872419D01*
X222041980Y-78872419D02*
X222375313Y-79586704D01*
X222375313Y-79586704D02*
X222708646Y-78872419D01*
X222708646Y-78872419D02*
X222708646Y-79872419D01*
X223041980Y-78872419D02*
X223613408Y-78872419D01*
X223327694Y-79872419D02*
X223327694Y-78872419D01*
X223946742Y-79872419D02*
X223946742Y-78872419D01*
X223946742Y-78872419D02*
X224280075Y-79586704D01*
X224280075Y-79586704D02*
X224613408Y-78872419D01*
X224613408Y-78872419D02*
X224613408Y-79872419D01*
X224946742Y-78872419D02*
X225518170Y-78872419D01*
X225232456Y-79872419D02*
X225232456Y-78872419D01*
X225803885Y-79586704D02*
X226280075Y-79586704D01*
X225708647Y-79872419D02*
X226041980Y-78872419D01*
X226041980Y-78872419D02*
X226375313Y-79872419D01*
X226708647Y-79872419D02*
X226708647Y-78872419D01*
X226708647Y-78872419D02*
X226946742Y-78872419D01*
X226946742Y-78872419D02*
X227089599Y-78920038D01*
X227089599Y-78920038D02*
X227184837Y-79015276D01*
X227184837Y-79015276D02*
X227232456Y-79110514D01*
X227232456Y-79110514D02*
X227280075Y-79300990D01*
X227280075Y-79300990D02*
X227280075Y-79443847D01*
X227280075Y-79443847D02*
X227232456Y-79634323D01*
X227232456Y-79634323D02*
X227184837Y-79729561D01*
X227184837Y-79729561D02*
X227089599Y-79824800D01*
X227089599Y-79824800D02*
X226946742Y-79872419D01*
X226946742Y-79872419D02*
X226708647Y-79872419D01*
X227899123Y-78872419D02*
X227994361Y-78872419D01*
X227994361Y-78872419D02*
X228089599Y-78920038D01*
X228089599Y-78920038D02*
X228137218Y-78967657D01*
X228137218Y-78967657D02*
X228184837Y-79062895D01*
X228184837Y-79062895D02*
X228232456Y-79253371D01*
X228232456Y-79253371D02*
X228232456Y-79491466D01*
X228232456Y-79491466D02*
X228184837Y-79681942D01*
X228184837Y-79681942D02*
X228137218Y-79777180D01*
X228137218Y-79777180D02*
X228089599Y-79824800D01*
X228089599Y-79824800D02*
X227994361Y-79872419D01*
X227994361Y-79872419D02*
X227899123Y-79872419D01*
X227899123Y-79872419D02*
X227803885Y-79824800D01*
X227803885Y-79824800D02*
X227756266Y-79777180D01*
X227756266Y-79777180D02*
X227708647Y-79681942D01*
X227708647Y-79681942D02*
X227661028Y-79491466D01*
X227661028Y-79491466D02*
X227661028Y-79253371D01*
X227661028Y-79253371D02*
X227708647Y-79062895D01*
X227708647Y-79062895D02*
X227756266Y-78967657D01*
X227756266Y-78967657D02*
X227803885Y-78920038D01*
X227803885Y-78920038D02*
X227899123Y-78872419D01*
X228851504Y-78872419D02*
X228946742Y-78872419D01*
X228946742Y-78872419D02*
X229041980Y-78920038D01*
X229041980Y-78920038D02*
X229089599Y-78967657D01*
X229089599Y-78967657D02*
X229137218Y-79062895D01*
X229137218Y-79062895D02*
X229184837Y-79253371D01*
X229184837Y-79253371D02*
X229184837Y-79491466D01*
X229184837Y-79491466D02*
X229137218Y-79681942D01*
X229137218Y-79681942D02*
X229089599Y-79777180D01*
X229089599Y-79777180D02*
X229041980Y-79824800D01*
X229041980Y-79824800D02*
X228946742Y-79872419D01*
X228946742Y-79872419D02*
X228851504Y-79872419D01*
X228851504Y-79872419D02*
X228756266Y-79824800D01*
X228756266Y-79824800D02*
X228708647Y-79777180D01*
X228708647Y-79777180D02*
X228661028Y-79681942D01*
X228661028Y-79681942D02*
X228613409Y-79491466D01*
X228613409Y-79491466D02*
X228613409Y-79253371D01*
X228613409Y-79253371D02*
X228661028Y-79062895D01*
X228661028Y-79062895D02*
X228708647Y-78967657D01*
X228708647Y-78967657D02*
X228756266Y-78920038D01*
X228756266Y-78920038D02*
X228851504Y-78872419D01*
X230041980Y-78872419D02*
X229851504Y-78872419D01*
X229851504Y-78872419D02*
X229756266Y-78920038D01*
X229756266Y-78920038D02*
X229708647Y-78967657D01*
X229708647Y-78967657D02*
X229613409Y-79110514D01*
X229613409Y-79110514D02*
X229565790Y-79300990D01*
X229565790Y-79300990D02*
X229565790Y-79681942D01*
X229565790Y-79681942D02*
X229613409Y-79777180D01*
X229613409Y-79777180D02*
X229661028Y-79824800D01*
X229661028Y-79824800D02*
X229756266Y-79872419D01*
X229756266Y-79872419D02*
X229946742Y-79872419D01*
X229946742Y-79872419D02*
X230041980Y-79824800D01*
X230041980Y-79824800D02*
X230089599Y-79777180D01*
X230089599Y-79777180D02*
X230137218Y-79681942D01*
X230137218Y-79681942D02*
X230137218Y-79443847D01*
X230137218Y-79443847D02*
X230089599Y-79348609D01*
X230089599Y-79348609D02*
X230041980Y-79300990D01*
X230041980Y-79300990D02*
X229946742Y-79253371D01*
X229946742Y-79253371D02*
X229756266Y-79253371D01*
X229756266Y-79253371D02*
X229661028Y-79300990D01*
X229661028Y-79300990D02*
X229613409Y-79348609D01*
X229613409Y-79348609D02*
X229565790Y-79443847D01*
D11*
X183261905Y-123006819D02*
X183833333Y-123006819D01*
X183547619Y-124006819D02*
X183547619Y-123006819D01*
X184166667Y-124006819D02*
X184166667Y-123006819D01*
X184166667Y-123006819D02*
X184547619Y-123006819D01*
X184547619Y-123006819D02*
X184642857Y-123054438D01*
X184642857Y-123054438D02*
X184690476Y-123102057D01*
X184690476Y-123102057D02*
X184738095Y-123197295D01*
X184738095Y-123197295D02*
X184738095Y-123340152D01*
X184738095Y-123340152D02*
X184690476Y-123435390D01*
X184690476Y-123435390D02*
X184642857Y-123483009D01*
X184642857Y-123483009D02*
X184547619Y-123530628D01*
X184547619Y-123530628D02*
X184166667Y-123530628D01*
X185690476Y-124006819D02*
X185119048Y-124006819D01*
X185404762Y-124006819D02*
X185404762Y-123006819D01*
X185404762Y-123006819D02*
X185309524Y-123149676D01*
X185309524Y-123149676D02*
X185214286Y-123244914D01*
X185214286Y-123244914D02*
X185119048Y-123292533D01*
X186166667Y-124006819D02*
X186357143Y-124006819D01*
X186357143Y-124006819D02*
X186452381Y-123959200D01*
X186452381Y-123959200D02*
X186500000Y-123911580D01*
X186500000Y-123911580D02*
X186595238Y-123768723D01*
X186595238Y-123768723D02*
X186642857Y-123578247D01*
X186642857Y-123578247D02*
X186642857Y-123197295D01*
X186642857Y-123197295D02*
X186595238Y-123102057D01*
X186595238Y-123102057D02*
X186547619Y-123054438D01*
X186547619Y-123054438D02*
X186452381Y-123006819D01*
X186452381Y-123006819D02*
X186261905Y-123006819D01*
X186261905Y-123006819D02*
X186166667Y-123054438D01*
X186166667Y-123054438D02*
X186119048Y-123102057D01*
X186119048Y-123102057D02*
X186071429Y-123197295D01*
X186071429Y-123197295D02*
X186071429Y-123435390D01*
X186071429Y-123435390D02*
X186119048Y-123530628D01*
X186119048Y-123530628D02*
X186166667Y-123578247D01*
X186166667Y-123578247D02*
X186261905Y-123625866D01*
X186261905Y-123625866D02*
X186452381Y-123625866D01*
X186452381Y-123625866D02*
X186547619Y-123578247D01*
X186547619Y-123578247D02*
X186595238Y-123530628D01*
X186595238Y-123530628D02*
X186642857Y-123435390D01*
X190857142Y-125834819D02*
X190523809Y-125358628D01*
X190285714Y-125834819D02*
X190285714Y-124834819D01*
X190285714Y-124834819D02*
X190666666Y-124834819D01*
X190666666Y-124834819D02*
X190761904Y-124882438D01*
X190761904Y-124882438D02*
X190809523Y-124930057D01*
X190809523Y-124930057D02*
X190857142Y-125025295D01*
X190857142Y-125025295D02*
X190857142Y-125168152D01*
X190857142Y-125168152D02*
X190809523Y-125263390D01*
X190809523Y-125263390D02*
X190761904Y-125311009D01*
X190761904Y-125311009D02*
X190666666Y-125358628D01*
X190666666Y-125358628D02*
X190285714Y-125358628D01*
X191809523Y-125834819D02*
X191238095Y-125834819D01*
X191523809Y-125834819D02*
X191523809Y-124834819D01*
X191523809Y-124834819D02*
X191428571Y-124977676D01*
X191428571Y-124977676D02*
X191333333Y-125072914D01*
X191333333Y-125072914D02*
X191238095Y-125120533D01*
X192666666Y-125168152D02*
X192666666Y-125834819D01*
X192428571Y-124787200D02*
X192190476Y-125501485D01*
X192190476Y-125501485D02*
X192809523Y-125501485D01*
X209761905Y-119506819D02*
X210333333Y-119506819D01*
X210047619Y-120506819D02*
X210047619Y-119506819D01*
X210666667Y-120506819D02*
X210666667Y-119506819D01*
X210666667Y-119506819D02*
X211047619Y-119506819D01*
X211047619Y-119506819D02*
X211142857Y-119554438D01*
X211142857Y-119554438D02*
X211190476Y-119602057D01*
X211190476Y-119602057D02*
X211238095Y-119697295D01*
X211238095Y-119697295D02*
X211238095Y-119840152D01*
X211238095Y-119840152D02*
X211190476Y-119935390D01*
X211190476Y-119935390D02*
X211142857Y-119983009D01*
X211142857Y-119983009D02*
X211047619Y-120030628D01*
X211047619Y-120030628D02*
X210666667Y-120030628D01*
X212190476Y-120506819D02*
X211619048Y-120506819D01*
X211904762Y-120506819D02*
X211904762Y-119506819D01*
X211904762Y-119506819D02*
X211809524Y-119649676D01*
X211809524Y-119649676D02*
X211714286Y-119744914D01*
X211714286Y-119744914D02*
X211619048Y-119792533D01*
X212809524Y-119506819D02*
X212904762Y-119506819D01*
X212904762Y-119506819D02*
X213000000Y-119554438D01*
X213000000Y-119554438D02*
X213047619Y-119602057D01*
X213047619Y-119602057D02*
X213095238Y-119697295D01*
X213095238Y-119697295D02*
X213142857Y-119887771D01*
X213142857Y-119887771D02*
X213142857Y-120125866D01*
X213142857Y-120125866D02*
X213095238Y-120316342D01*
X213095238Y-120316342D02*
X213047619Y-120411580D01*
X213047619Y-120411580D02*
X213000000Y-120459200D01*
X213000000Y-120459200D02*
X212904762Y-120506819D01*
X212904762Y-120506819D02*
X212809524Y-120506819D01*
X212809524Y-120506819D02*
X212714286Y-120459200D01*
X212714286Y-120459200D02*
X212666667Y-120411580D01*
X212666667Y-120411580D02*
X212619048Y-120316342D01*
X212619048Y-120316342D02*
X212571429Y-120125866D01*
X212571429Y-120125866D02*
X212571429Y-119887771D01*
X212571429Y-119887771D02*
X212619048Y-119697295D01*
X212619048Y-119697295D02*
X212666667Y-119602057D01*
X212666667Y-119602057D02*
X212714286Y-119554438D01*
X212714286Y-119554438D02*
X212809524Y-119506819D01*
X163857142Y-121074819D02*
X163523809Y-120598628D01*
X163285714Y-121074819D02*
X163285714Y-120074819D01*
X163285714Y-120074819D02*
X163666666Y-120074819D01*
X163666666Y-120074819D02*
X163761904Y-120122438D01*
X163761904Y-120122438D02*
X163809523Y-120170057D01*
X163809523Y-120170057D02*
X163857142Y-120265295D01*
X163857142Y-120265295D02*
X163857142Y-120408152D01*
X163857142Y-120408152D02*
X163809523Y-120503390D01*
X163809523Y-120503390D02*
X163761904Y-120551009D01*
X163761904Y-120551009D02*
X163666666Y-120598628D01*
X163666666Y-120598628D02*
X163285714Y-120598628D01*
X164809523Y-121074819D02*
X164238095Y-121074819D01*
X164523809Y-121074819D02*
X164523809Y-120074819D01*
X164523809Y-120074819D02*
X164428571Y-120217676D01*
X164428571Y-120217676D02*
X164333333Y-120312914D01*
X164333333Y-120312914D02*
X164238095Y-120360533D01*
X165190476Y-120170057D02*
X165238095Y-120122438D01*
X165238095Y-120122438D02*
X165333333Y-120074819D01*
X165333333Y-120074819D02*
X165571428Y-120074819D01*
X165571428Y-120074819D02*
X165666666Y-120122438D01*
X165666666Y-120122438D02*
X165714285Y-120170057D01*
X165714285Y-120170057D02*
X165761904Y-120265295D01*
X165761904Y-120265295D02*
X165761904Y-120360533D01*
X165761904Y-120360533D02*
X165714285Y-120503390D01*
X165714285Y-120503390D02*
X165142857Y-121074819D01*
X165142857Y-121074819D02*
X165761904Y-121074819D01*
X159966666Y-121954819D02*
X159966666Y-122669104D01*
X159966666Y-122669104D02*
X159919047Y-122811961D01*
X159919047Y-122811961D02*
X159823809Y-122907200D01*
X159823809Y-122907200D02*
X159680952Y-122954819D01*
X159680952Y-122954819D02*
X159585714Y-122954819D01*
X160442857Y-122954819D02*
X160442857Y-121954819D01*
X160442857Y-121954819D02*
X160823809Y-121954819D01*
X160823809Y-121954819D02*
X160919047Y-122002438D01*
X160919047Y-122002438D02*
X160966666Y-122050057D01*
X160966666Y-122050057D02*
X161014285Y-122145295D01*
X161014285Y-122145295D02*
X161014285Y-122288152D01*
X161014285Y-122288152D02*
X160966666Y-122383390D01*
X160966666Y-122383390D02*
X160919047Y-122431009D01*
X160919047Y-122431009D02*
X160823809Y-122478628D01*
X160823809Y-122478628D02*
X160442857Y-122478628D01*
X161919047Y-121954819D02*
X161442857Y-121954819D01*
X161442857Y-121954819D02*
X161395238Y-122431009D01*
X161395238Y-122431009D02*
X161442857Y-122383390D01*
X161442857Y-122383390D02*
X161538095Y-122335771D01*
X161538095Y-122335771D02*
X161776190Y-122335771D01*
X161776190Y-122335771D02*
X161871428Y-122383390D01*
X161871428Y-122383390D02*
X161919047Y-122431009D01*
X161919047Y-122431009D02*
X161966666Y-122526247D01*
X161966666Y-122526247D02*
X161966666Y-122764342D01*
X161966666Y-122764342D02*
X161919047Y-122859580D01*
X161919047Y-122859580D02*
X161871428Y-122907200D01*
X161871428Y-122907200D02*
X161776190Y-122954819D01*
X161776190Y-122954819D02*
X161538095Y-122954819D01*
X161538095Y-122954819D02*
X161442857Y-122907200D01*
X161442857Y-122907200D02*
X161395238Y-122859580D01*
X173988095Y-122754819D02*
X173988095Y-123564342D01*
X173988095Y-123564342D02*
X174035714Y-123659580D01*
X174035714Y-123659580D02*
X174083333Y-123707200D01*
X174083333Y-123707200D02*
X174178571Y-123754819D01*
X174178571Y-123754819D02*
X174369047Y-123754819D01*
X174369047Y-123754819D02*
X174464285Y-123707200D01*
X174464285Y-123707200D02*
X174511904Y-123659580D01*
X174511904Y-123659580D02*
X174559523Y-123564342D01*
X174559523Y-123564342D02*
X174559523Y-122754819D01*
X174988095Y-122850057D02*
X175035714Y-122802438D01*
X175035714Y-122802438D02*
X175130952Y-122754819D01*
X175130952Y-122754819D02*
X175369047Y-122754819D01*
X175369047Y-122754819D02*
X175464285Y-122802438D01*
X175464285Y-122802438D02*
X175511904Y-122850057D01*
X175511904Y-122850057D02*
X175559523Y-122945295D01*
X175559523Y-122945295D02*
X175559523Y-123040533D01*
X175559523Y-123040533D02*
X175511904Y-123183390D01*
X175511904Y-123183390D02*
X174940476Y-123754819D01*
X174940476Y-123754819D02*
X175559523Y-123754819D01*
X175795833Y-120179580D02*
X175748214Y-120227200D01*
X175748214Y-120227200D02*
X175605357Y-120274819D01*
X175605357Y-120274819D02*
X175510119Y-120274819D01*
X175510119Y-120274819D02*
X175367262Y-120227200D01*
X175367262Y-120227200D02*
X175272024Y-120131961D01*
X175272024Y-120131961D02*
X175224405Y-120036723D01*
X175224405Y-120036723D02*
X175176786Y-119846247D01*
X175176786Y-119846247D02*
X175176786Y-119703390D01*
X175176786Y-119703390D02*
X175224405Y-119512914D01*
X175224405Y-119512914D02*
X175272024Y-119417676D01*
X175272024Y-119417676D02*
X175367262Y-119322438D01*
X175367262Y-119322438D02*
X175510119Y-119274819D01*
X175510119Y-119274819D02*
X175605357Y-119274819D01*
X175605357Y-119274819D02*
X175748214Y-119322438D01*
X175748214Y-119322438D02*
X175795833Y-119370057D01*
X176700595Y-119274819D02*
X176224405Y-119274819D01*
X176224405Y-119274819D02*
X176176786Y-119751009D01*
X176176786Y-119751009D02*
X176224405Y-119703390D01*
X176224405Y-119703390D02*
X176319643Y-119655771D01*
X176319643Y-119655771D02*
X176557738Y-119655771D01*
X176557738Y-119655771D02*
X176652976Y-119703390D01*
X176652976Y-119703390D02*
X176700595Y-119751009D01*
X176700595Y-119751009D02*
X176748214Y-119846247D01*
X176748214Y-119846247D02*
X176748214Y-120084342D01*
X176748214Y-120084342D02*
X176700595Y-120179580D01*
X176700595Y-120179580D02*
X176652976Y-120227200D01*
X176652976Y-120227200D02*
X176557738Y-120274819D01*
X176557738Y-120274819D02*
X176319643Y-120274819D01*
X176319643Y-120274819D02*
X176224405Y-120227200D01*
X176224405Y-120227200D02*
X176176786Y-120179580D01*
X179929580Y-122666666D02*
X179977200Y-122714285D01*
X179977200Y-122714285D02*
X180024819Y-122857142D01*
X180024819Y-122857142D02*
X180024819Y-122952380D01*
X180024819Y-122952380D02*
X179977200Y-123095237D01*
X179977200Y-123095237D02*
X179881961Y-123190475D01*
X179881961Y-123190475D02*
X179786723Y-123238094D01*
X179786723Y-123238094D02*
X179596247Y-123285713D01*
X179596247Y-123285713D02*
X179453390Y-123285713D01*
X179453390Y-123285713D02*
X179262914Y-123238094D01*
X179262914Y-123238094D02*
X179167676Y-123190475D01*
X179167676Y-123190475D02*
X179072438Y-123095237D01*
X179072438Y-123095237D02*
X179024819Y-122952380D01*
X179024819Y-122952380D02*
X179024819Y-122857142D01*
X179024819Y-122857142D02*
X179072438Y-122714285D01*
X179072438Y-122714285D02*
X179120057Y-122666666D01*
X179358152Y-121809523D02*
X180024819Y-121809523D01*
X178977200Y-122047618D02*
X179691485Y-122285713D01*
X179691485Y-122285713D02*
X179691485Y-121666666D01*
X183039580Y-126666666D02*
X183087200Y-126714285D01*
X183087200Y-126714285D02*
X183134819Y-126857142D01*
X183134819Y-126857142D02*
X183134819Y-126952380D01*
X183134819Y-126952380D02*
X183087200Y-127095237D01*
X183087200Y-127095237D02*
X182991961Y-127190475D01*
X182991961Y-127190475D02*
X182896723Y-127238094D01*
X182896723Y-127238094D02*
X182706247Y-127285713D01*
X182706247Y-127285713D02*
X182563390Y-127285713D01*
X182563390Y-127285713D02*
X182372914Y-127238094D01*
X182372914Y-127238094D02*
X182277676Y-127190475D01*
X182277676Y-127190475D02*
X182182438Y-127095237D01*
X182182438Y-127095237D02*
X182134819Y-126952380D01*
X182134819Y-126952380D02*
X182134819Y-126857142D01*
X182134819Y-126857142D02*
X182182438Y-126714285D01*
X182182438Y-126714285D02*
X182230057Y-126666666D01*
X182134819Y-125809523D02*
X182134819Y-125999999D01*
X182134819Y-125999999D02*
X182182438Y-126095237D01*
X182182438Y-126095237D02*
X182230057Y-126142856D01*
X182230057Y-126142856D02*
X182372914Y-126238094D01*
X182372914Y-126238094D02*
X182563390Y-126285713D01*
X182563390Y-126285713D02*
X182944342Y-126285713D01*
X182944342Y-126285713D02*
X183039580Y-126238094D01*
X183039580Y-126238094D02*
X183087200Y-126190475D01*
X183087200Y-126190475D02*
X183134819Y-126095237D01*
X183134819Y-126095237D02*
X183134819Y-125904761D01*
X183134819Y-125904761D02*
X183087200Y-125809523D01*
X183087200Y-125809523D02*
X183039580Y-125761904D01*
X183039580Y-125761904D02*
X182944342Y-125714285D01*
X182944342Y-125714285D02*
X182706247Y-125714285D01*
X182706247Y-125714285D02*
X182611009Y-125761904D01*
X182611009Y-125761904D02*
X182563390Y-125809523D01*
X182563390Y-125809523D02*
X182515771Y-125904761D01*
X182515771Y-125904761D02*
X182515771Y-126095237D01*
X182515771Y-126095237D02*
X182563390Y-126190475D01*
X182563390Y-126190475D02*
X182611009Y-126238094D01*
X182611009Y-126238094D02*
X182706247Y-126285713D01*
X161159819Y-109833333D02*
X161874104Y-109833333D01*
X161874104Y-109833333D02*
X162016961Y-109880952D01*
X162016961Y-109880952D02*
X162112200Y-109976190D01*
X162112200Y-109976190D02*
X162159819Y-110119047D01*
X162159819Y-110119047D02*
X162159819Y-110214285D01*
X161255057Y-109404761D02*
X161207438Y-109357142D01*
X161207438Y-109357142D02*
X161159819Y-109261904D01*
X161159819Y-109261904D02*
X161159819Y-109023809D01*
X161159819Y-109023809D02*
X161207438Y-108928571D01*
X161207438Y-108928571D02*
X161255057Y-108880952D01*
X161255057Y-108880952D02*
X161350295Y-108833333D01*
X161350295Y-108833333D02*
X161445533Y-108833333D01*
X161445533Y-108833333D02*
X161588390Y-108880952D01*
X161588390Y-108880952D02*
X162159819Y-109452380D01*
X162159819Y-109452380D02*
X162159819Y-108833333D01*
X200988095Y-122754819D02*
X200988095Y-123564342D01*
X200988095Y-123564342D02*
X201035714Y-123659580D01*
X201035714Y-123659580D02*
X201083333Y-123707200D01*
X201083333Y-123707200D02*
X201178571Y-123754819D01*
X201178571Y-123754819D02*
X201369047Y-123754819D01*
X201369047Y-123754819D02*
X201464285Y-123707200D01*
X201464285Y-123707200D02*
X201511904Y-123659580D01*
X201511904Y-123659580D02*
X201559523Y-123564342D01*
X201559523Y-123564342D02*
X201559523Y-122754819D01*
X202559523Y-123754819D02*
X201988095Y-123754819D01*
X202273809Y-123754819D02*
X202273809Y-122754819D01*
X202273809Y-122754819D02*
X202178571Y-122897676D01*
X202178571Y-122897676D02*
X202083333Y-122992914D01*
X202083333Y-122992914D02*
X201988095Y-123040533D01*
X169738095Y-93054819D02*
X169738095Y-93864342D01*
X169738095Y-93864342D02*
X169785714Y-93959580D01*
X169785714Y-93959580D02*
X169833333Y-94007200D01*
X169833333Y-94007200D02*
X169928571Y-94054819D01*
X169928571Y-94054819D02*
X170119047Y-94054819D01*
X170119047Y-94054819D02*
X170214285Y-94007200D01*
X170214285Y-94007200D02*
X170261904Y-93959580D01*
X170261904Y-93959580D02*
X170309523Y-93864342D01*
X170309523Y-93864342D02*
X170309523Y-93054819D01*
X171214285Y-93388152D02*
X171214285Y-94054819D01*
X170976190Y-93007200D02*
X170738095Y-93721485D01*
X170738095Y-93721485D02*
X171357142Y-93721485D01*
X221745595Y-117494819D02*
X221745595Y-118304342D01*
X221745595Y-118304342D02*
X221793214Y-118399580D01*
X221793214Y-118399580D02*
X221840833Y-118447200D01*
X221840833Y-118447200D02*
X221936071Y-118494819D01*
X221936071Y-118494819D02*
X222126547Y-118494819D01*
X222126547Y-118494819D02*
X222221785Y-118447200D01*
X222221785Y-118447200D02*
X222269404Y-118399580D01*
X222269404Y-118399580D02*
X222317023Y-118304342D01*
X222317023Y-118304342D02*
X222317023Y-117494819D01*
X222936071Y-117923390D02*
X222840833Y-117875771D01*
X222840833Y-117875771D02*
X222793214Y-117828152D01*
X222793214Y-117828152D02*
X222745595Y-117732914D01*
X222745595Y-117732914D02*
X222745595Y-117685295D01*
X222745595Y-117685295D02*
X222793214Y-117590057D01*
X222793214Y-117590057D02*
X222840833Y-117542438D01*
X222840833Y-117542438D02*
X222936071Y-117494819D01*
X222936071Y-117494819D02*
X223126547Y-117494819D01*
X223126547Y-117494819D02*
X223221785Y-117542438D01*
X223221785Y-117542438D02*
X223269404Y-117590057D01*
X223269404Y-117590057D02*
X223317023Y-117685295D01*
X223317023Y-117685295D02*
X223317023Y-117732914D01*
X223317023Y-117732914D02*
X223269404Y-117828152D01*
X223269404Y-117828152D02*
X223221785Y-117875771D01*
X223221785Y-117875771D02*
X223126547Y-117923390D01*
X223126547Y-117923390D02*
X222936071Y-117923390D01*
X222936071Y-117923390D02*
X222840833Y-117971009D01*
X222840833Y-117971009D02*
X222793214Y-118018628D01*
X222793214Y-118018628D02*
X222745595Y-118113866D01*
X222745595Y-118113866D02*
X222745595Y-118304342D01*
X222745595Y-118304342D02*
X222793214Y-118399580D01*
X222793214Y-118399580D02*
X222840833Y-118447200D01*
X222840833Y-118447200D02*
X222936071Y-118494819D01*
X222936071Y-118494819D02*
X223126547Y-118494819D01*
X223126547Y-118494819D02*
X223221785Y-118447200D01*
X223221785Y-118447200D02*
X223269404Y-118399580D01*
X223269404Y-118399580D02*
X223317023Y-118304342D01*
X223317023Y-118304342D02*
X223317023Y-118113866D01*
X223317023Y-118113866D02*
X223269404Y-118018628D01*
X223269404Y-118018628D02*
X223221785Y-117971009D01*
X223221785Y-117971009D02*
X223126547Y-117923390D01*
X213610595Y-109514819D02*
X213610595Y-110324342D01*
X213610595Y-110324342D02*
X213658214Y-110419580D01*
X213658214Y-110419580D02*
X213705833Y-110467200D01*
X213705833Y-110467200D02*
X213801071Y-110514819D01*
X213801071Y-110514819D02*
X213991547Y-110514819D01*
X213991547Y-110514819D02*
X214086785Y-110467200D01*
X214086785Y-110467200D02*
X214134404Y-110419580D01*
X214134404Y-110419580D02*
X214182023Y-110324342D01*
X214182023Y-110324342D02*
X214182023Y-109514819D01*
X214705833Y-110514819D02*
X214896309Y-110514819D01*
X214896309Y-110514819D02*
X214991547Y-110467200D01*
X214991547Y-110467200D02*
X215039166Y-110419580D01*
X215039166Y-110419580D02*
X215134404Y-110276723D01*
X215134404Y-110276723D02*
X215182023Y-110086247D01*
X215182023Y-110086247D02*
X215182023Y-109705295D01*
X215182023Y-109705295D02*
X215134404Y-109610057D01*
X215134404Y-109610057D02*
X215086785Y-109562438D01*
X215086785Y-109562438D02*
X214991547Y-109514819D01*
X214991547Y-109514819D02*
X214801071Y-109514819D01*
X214801071Y-109514819D02*
X214705833Y-109562438D01*
X214705833Y-109562438D02*
X214658214Y-109610057D01*
X214658214Y-109610057D02*
X214610595Y-109705295D01*
X214610595Y-109705295D02*
X214610595Y-109943390D01*
X214610595Y-109943390D02*
X214658214Y-110038628D01*
X214658214Y-110038628D02*
X214705833Y-110086247D01*
X214705833Y-110086247D02*
X214801071Y-110133866D01*
X214801071Y-110133866D02*
X214991547Y-110133866D01*
X214991547Y-110133866D02*
X215086785Y-110086247D01*
X215086785Y-110086247D02*
X215134404Y-110038628D01*
X215134404Y-110038628D02*
X215182023Y-109943390D01*
D12*
X168927618Y-88304318D02*
X168927618Y-89332413D01*
X168927618Y-89332413D02*
X168988095Y-89453365D01*
X168988095Y-89453365D02*
X169048571Y-89513842D01*
X169048571Y-89513842D02*
X169169523Y-89574318D01*
X169169523Y-89574318D02*
X169411428Y-89574318D01*
X169411428Y-89574318D02*
X169532380Y-89513842D01*
X169532380Y-89513842D02*
X169592857Y-89453365D01*
X169592857Y-89453365D02*
X169653333Y-89332413D01*
X169653333Y-89332413D02*
X169653333Y-88304318D01*
X170923333Y-89574318D02*
X170197618Y-89574318D01*
X170560475Y-89574318D02*
X170560475Y-88304318D01*
X170560475Y-88304318D02*
X170439523Y-88485746D01*
X170439523Y-88485746D02*
X170318571Y-88606699D01*
X170318571Y-88606699D02*
X170197618Y-88667175D01*
X172132857Y-89574318D02*
X171407142Y-89574318D01*
X171769999Y-89574318D02*
X171769999Y-88304318D01*
X171769999Y-88304318D02*
X171649047Y-88485746D01*
X171649047Y-88485746D02*
X171528095Y-88606699D01*
X171528095Y-88606699D02*
X171407142Y-88667175D01*
D11*
X179261905Y-128506819D02*
X179833333Y-128506819D01*
X179547619Y-129506819D02*
X179547619Y-128506819D01*
X180166667Y-129506819D02*
X180166667Y-128506819D01*
X180166667Y-128506819D02*
X180547619Y-128506819D01*
X180547619Y-128506819D02*
X180642857Y-128554438D01*
X180642857Y-128554438D02*
X180690476Y-128602057D01*
X180690476Y-128602057D02*
X180738095Y-128697295D01*
X180738095Y-128697295D02*
X180738095Y-128840152D01*
X180738095Y-128840152D02*
X180690476Y-128935390D01*
X180690476Y-128935390D02*
X180642857Y-128983009D01*
X180642857Y-128983009D02*
X180547619Y-129030628D01*
X180547619Y-129030628D02*
X180166667Y-129030628D01*
X181119048Y-128602057D02*
X181166667Y-128554438D01*
X181166667Y-128554438D02*
X181261905Y-128506819D01*
X181261905Y-128506819D02*
X181500000Y-128506819D01*
X181500000Y-128506819D02*
X181595238Y-128554438D01*
X181595238Y-128554438D02*
X181642857Y-128602057D01*
X181642857Y-128602057D02*
X181690476Y-128697295D01*
X181690476Y-128697295D02*
X181690476Y-128792533D01*
X181690476Y-128792533D02*
X181642857Y-128935390D01*
X181642857Y-128935390D02*
X181071429Y-129506819D01*
X181071429Y-129506819D02*
X181690476Y-129506819D01*
X182642857Y-129506819D02*
X182071429Y-129506819D01*
X182357143Y-129506819D02*
X182357143Y-128506819D01*
X182357143Y-128506819D02*
X182261905Y-128649676D01*
X182261905Y-128649676D02*
X182166667Y-128744914D01*
X182166667Y-128744914D02*
X182071429Y-128792533D01*
X183261905Y-126006819D02*
X183833333Y-126006819D01*
X183547619Y-127006819D02*
X183547619Y-126006819D01*
X184166667Y-127006819D02*
X184166667Y-126006819D01*
X184166667Y-126006819D02*
X184547619Y-126006819D01*
X184547619Y-126006819D02*
X184642857Y-126054438D01*
X184642857Y-126054438D02*
X184690476Y-126102057D01*
X184690476Y-126102057D02*
X184738095Y-126197295D01*
X184738095Y-126197295D02*
X184738095Y-126340152D01*
X184738095Y-126340152D02*
X184690476Y-126435390D01*
X184690476Y-126435390D02*
X184642857Y-126483009D01*
X184642857Y-126483009D02*
X184547619Y-126530628D01*
X184547619Y-126530628D02*
X184166667Y-126530628D01*
X185119048Y-126102057D02*
X185166667Y-126054438D01*
X185166667Y-126054438D02*
X185261905Y-126006819D01*
X185261905Y-126006819D02*
X185500000Y-126006819D01*
X185500000Y-126006819D02*
X185595238Y-126054438D01*
X185595238Y-126054438D02*
X185642857Y-126102057D01*
X185642857Y-126102057D02*
X185690476Y-126197295D01*
X185690476Y-126197295D02*
X185690476Y-126292533D01*
X185690476Y-126292533D02*
X185642857Y-126435390D01*
X185642857Y-126435390D02*
X185071429Y-127006819D01*
X185071429Y-127006819D02*
X185690476Y-127006819D01*
X186309524Y-126006819D02*
X186404762Y-126006819D01*
X186404762Y-126006819D02*
X186500000Y-126054438D01*
X186500000Y-126054438D02*
X186547619Y-126102057D01*
X186547619Y-126102057D02*
X186595238Y-126197295D01*
X186595238Y-126197295D02*
X186642857Y-126387771D01*
X186642857Y-126387771D02*
X186642857Y-126625866D01*
X186642857Y-126625866D02*
X186595238Y-126816342D01*
X186595238Y-126816342D02*
X186547619Y-126911580D01*
X186547619Y-126911580D02*
X186500000Y-126959200D01*
X186500000Y-126959200D02*
X186404762Y-127006819D01*
X186404762Y-127006819D02*
X186309524Y-127006819D01*
X186309524Y-127006819D02*
X186214286Y-126959200D01*
X186214286Y-126959200D02*
X186166667Y-126911580D01*
X186166667Y-126911580D02*
X186119048Y-126816342D01*
X186119048Y-126816342D02*
X186071429Y-126625866D01*
X186071429Y-126625866D02*
X186071429Y-126387771D01*
X186071429Y-126387771D02*
X186119048Y-126197295D01*
X186119048Y-126197295D02*
X186166667Y-126102057D01*
X186166667Y-126102057D02*
X186214286Y-126054438D01*
X186214286Y-126054438D02*
X186309524Y-126006819D01*
X183261905Y-119506819D02*
X183833333Y-119506819D01*
X183547619Y-120506819D02*
X183547619Y-119506819D01*
X184166667Y-120506819D02*
X184166667Y-119506819D01*
X184166667Y-119506819D02*
X184547619Y-119506819D01*
X184547619Y-119506819D02*
X184642857Y-119554438D01*
X184642857Y-119554438D02*
X184690476Y-119602057D01*
X184690476Y-119602057D02*
X184738095Y-119697295D01*
X184738095Y-119697295D02*
X184738095Y-119840152D01*
X184738095Y-119840152D02*
X184690476Y-119935390D01*
X184690476Y-119935390D02*
X184642857Y-119983009D01*
X184642857Y-119983009D02*
X184547619Y-120030628D01*
X184547619Y-120030628D02*
X184166667Y-120030628D01*
X185690476Y-120506819D02*
X185119048Y-120506819D01*
X185404762Y-120506819D02*
X185404762Y-119506819D01*
X185404762Y-119506819D02*
X185309524Y-119649676D01*
X185309524Y-119649676D02*
X185214286Y-119744914D01*
X185214286Y-119744914D02*
X185119048Y-119792533D01*
X186261905Y-119935390D02*
X186166667Y-119887771D01*
X186166667Y-119887771D02*
X186119048Y-119840152D01*
X186119048Y-119840152D02*
X186071429Y-119744914D01*
X186071429Y-119744914D02*
X186071429Y-119697295D01*
X186071429Y-119697295D02*
X186119048Y-119602057D01*
X186119048Y-119602057D02*
X186166667Y-119554438D01*
X186166667Y-119554438D02*
X186261905Y-119506819D01*
X186261905Y-119506819D02*
X186452381Y-119506819D01*
X186452381Y-119506819D02*
X186547619Y-119554438D01*
X186547619Y-119554438D02*
X186595238Y-119602057D01*
X186595238Y-119602057D02*
X186642857Y-119697295D01*
X186642857Y-119697295D02*
X186642857Y-119744914D01*
X186642857Y-119744914D02*
X186595238Y-119840152D01*
X186595238Y-119840152D02*
X186547619Y-119887771D01*
X186547619Y-119887771D02*
X186452381Y-119935390D01*
X186452381Y-119935390D02*
X186261905Y-119935390D01*
X186261905Y-119935390D02*
X186166667Y-119983009D01*
X186166667Y-119983009D02*
X186119048Y-120030628D01*
X186119048Y-120030628D02*
X186071429Y-120125866D01*
X186071429Y-120125866D02*
X186071429Y-120316342D01*
X186071429Y-120316342D02*
X186119048Y-120411580D01*
X186119048Y-120411580D02*
X186166667Y-120459200D01*
X186166667Y-120459200D02*
X186261905Y-120506819D01*
X186261905Y-120506819D02*
X186452381Y-120506819D01*
X186452381Y-120506819D02*
X186547619Y-120459200D01*
X186547619Y-120459200D02*
X186595238Y-120411580D01*
X186595238Y-120411580D02*
X186642857Y-120316342D01*
X186642857Y-120316342D02*
X186642857Y-120125866D01*
X186642857Y-120125866D02*
X186595238Y-120030628D01*
X186595238Y-120030628D02*
X186547619Y-119983009D01*
X186547619Y-119983009D02*
X186452381Y-119935390D01*
X206261905Y-126506819D02*
X206833333Y-126506819D01*
X206547619Y-127506819D02*
X206547619Y-126506819D01*
X207166667Y-127506819D02*
X207166667Y-126506819D01*
X207166667Y-126506819D02*
X207547619Y-126506819D01*
X207547619Y-126506819D02*
X207642857Y-126554438D01*
X207642857Y-126554438D02*
X207690476Y-126602057D01*
X207690476Y-126602057D02*
X207738095Y-126697295D01*
X207738095Y-126697295D02*
X207738095Y-126840152D01*
X207738095Y-126840152D02*
X207690476Y-126935390D01*
X207690476Y-126935390D02*
X207642857Y-126983009D01*
X207642857Y-126983009D02*
X207547619Y-127030628D01*
X207547619Y-127030628D02*
X207166667Y-127030628D01*
X208690476Y-127506819D02*
X208119048Y-127506819D01*
X208404762Y-127506819D02*
X208404762Y-126506819D01*
X208404762Y-126506819D02*
X208309524Y-126649676D01*
X208309524Y-126649676D02*
X208214286Y-126744914D01*
X208214286Y-126744914D02*
X208119048Y-126792533D01*
X209023810Y-126506819D02*
X209642857Y-126506819D01*
X209642857Y-126506819D02*
X209309524Y-126887771D01*
X209309524Y-126887771D02*
X209452381Y-126887771D01*
X209452381Y-126887771D02*
X209547619Y-126935390D01*
X209547619Y-126935390D02*
X209595238Y-126983009D01*
X209595238Y-126983009D02*
X209642857Y-127078247D01*
X209642857Y-127078247D02*
X209642857Y-127316342D01*
X209642857Y-127316342D02*
X209595238Y-127411580D01*
X209595238Y-127411580D02*
X209547619Y-127459200D01*
X209547619Y-127459200D02*
X209452381Y-127506819D01*
X209452381Y-127506819D02*
X209166667Y-127506819D01*
X209166667Y-127506819D02*
X209071429Y-127459200D01*
X209071429Y-127459200D02*
X209023810Y-127411580D01*
X210261905Y-126006819D02*
X210833333Y-126006819D01*
X210547619Y-127006819D02*
X210547619Y-126006819D01*
X211166667Y-127006819D02*
X211166667Y-126006819D01*
X211166667Y-126006819D02*
X211547619Y-126006819D01*
X211547619Y-126006819D02*
X211642857Y-126054438D01*
X211642857Y-126054438D02*
X211690476Y-126102057D01*
X211690476Y-126102057D02*
X211738095Y-126197295D01*
X211738095Y-126197295D02*
X211738095Y-126340152D01*
X211738095Y-126340152D02*
X211690476Y-126435390D01*
X211690476Y-126435390D02*
X211642857Y-126483009D01*
X211642857Y-126483009D02*
X211547619Y-126530628D01*
X211547619Y-126530628D02*
X211166667Y-126530628D01*
X212690476Y-127006819D02*
X212119048Y-127006819D01*
X212404762Y-127006819D02*
X212404762Y-126006819D01*
X212404762Y-126006819D02*
X212309524Y-126149676D01*
X212309524Y-126149676D02*
X212214286Y-126244914D01*
X212214286Y-126244914D02*
X212119048Y-126292533D01*
X213071429Y-126102057D02*
X213119048Y-126054438D01*
X213119048Y-126054438D02*
X213214286Y-126006819D01*
X213214286Y-126006819D02*
X213452381Y-126006819D01*
X213452381Y-126006819D02*
X213547619Y-126054438D01*
X213547619Y-126054438D02*
X213595238Y-126102057D01*
X213595238Y-126102057D02*
X213642857Y-126197295D01*
X213642857Y-126197295D02*
X213642857Y-126292533D01*
X213642857Y-126292533D02*
X213595238Y-126435390D01*
X213595238Y-126435390D02*
X213023810Y-127006819D01*
X213023810Y-127006819D02*
X213642857Y-127006819D01*
X209761905Y-122506819D02*
X210333333Y-122506819D01*
X210047619Y-123506819D02*
X210047619Y-122506819D01*
X210666667Y-123506819D02*
X210666667Y-122506819D01*
X210666667Y-122506819D02*
X211047619Y-122506819D01*
X211047619Y-122506819D02*
X211142857Y-122554438D01*
X211142857Y-122554438D02*
X211190476Y-122602057D01*
X211190476Y-122602057D02*
X211238095Y-122697295D01*
X211238095Y-122697295D02*
X211238095Y-122840152D01*
X211238095Y-122840152D02*
X211190476Y-122935390D01*
X211190476Y-122935390D02*
X211142857Y-122983009D01*
X211142857Y-122983009D02*
X211047619Y-123030628D01*
X211047619Y-123030628D02*
X210666667Y-123030628D01*
X212190476Y-123506819D02*
X211619048Y-123506819D01*
X211904762Y-123506819D02*
X211904762Y-122506819D01*
X211904762Y-122506819D02*
X211809524Y-122649676D01*
X211809524Y-122649676D02*
X211714286Y-122744914D01*
X211714286Y-122744914D02*
X211619048Y-122792533D01*
X213142857Y-123506819D02*
X212571429Y-123506819D01*
X212857143Y-123506819D02*
X212857143Y-122506819D01*
X212857143Y-122506819D02*
X212761905Y-122649676D01*
X212761905Y-122649676D02*
X212666667Y-122744914D01*
X212666667Y-122744914D02*
X212571429Y-122792533D01*
X194238095Y-119506819D02*
X194809523Y-119506819D01*
X194523809Y-120506819D02*
X194523809Y-119506819D01*
X195142857Y-120506819D02*
X195142857Y-119506819D01*
X195142857Y-119506819D02*
X195523809Y-119506819D01*
X195523809Y-119506819D02*
X195619047Y-119554438D01*
X195619047Y-119554438D02*
X195666666Y-119602057D01*
X195666666Y-119602057D02*
X195714285Y-119697295D01*
X195714285Y-119697295D02*
X195714285Y-119840152D01*
X195714285Y-119840152D02*
X195666666Y-119935390D01*
X195666666Y-119935390D02*
X195619047Y-119983009D01*
X195619047Y-119983009D02*
X195523809Y-120030628D01*
X195523809Y-120030628D02*
X195142857Y-120030628D01*
X196285714Y-119935390D02*
X196190476Y-119887771D01*
X196190476Y-119887771D02*
X196142857Y-119840152D01*
X196142857Y-119840152D02*
X196095238Y-119744914D01*
X196095238Y-119744914D02*
X196095238Y-119697295D01*
X196095238Y-119697295D02*
X196142857Y-119602057D01*
X196142857Y-119602057D02*
X196190476Y-119554438D01*
X196190476Y-119554438D02*
X196285714Y-119506819D01*
X196285714Y-119506819D02*
X196476190Y-119506819D01*
X196476190Y-119506819D02*
X196571428Y-119554438D01*
X196571428Y-119554438D02*
X196619047Y-119602057D01*
X196619047Y-119602057D02*
X196666666Y-119697295D01*
X196666666Y-119697295D02*
X196666666Y-119744914D01*
X196666666Y-119744914D02*
X196619047Y-119840152D01*
X196619047Y-119840152D02*
X196571428Y-119887771D01*
X196571428Y-119887771D02*
X196476190Y-119935390D01*
X196476190Y-119935390D02*
X196285714Y-119935390D01*
X196285714Y-119935390D02*
X196190476Y-119983009D01*
X196190476Y-119983009D02*
X196142857Y-120030628D01*
X196142857Y-120030628D02*
X196095238Y-120125866D01*
X196095238Y-120125866D02*
X196095238Y-120316342D01*
X196095238Y-120316342D02*
X196142857Y-120411580D01*
X196142857Y-120411580D02*
X196190476Y-120459200D01*
X196190476Y-120459200D02*
X196285714Y-120506819D01*
X196285714Y-120506819D02*
X196476190Y-120506819D01*
X196476190Y-120506819D02*
X196571428Y-120459200D01*
X196571428Y-120459200D02*
X196619047Y-120411580D01*
X196619047Y-120411580D02*
X196666666Y-120316342D01*
X196666666Y-120316342D02*
X196666666Y-120125866D01*
X196666666Y-120125866D02*
X196619047Y-120030628D01*
X196619047Y-120030628D02*
X196571428Y-119983009D01*
X196571428Y-119983009D02*
X196476190Y-119935390D01*
X209904819Y-111926666D02*
X209428628Y-112259999D01*
X209904819Y-112498094D02*
X208904819Y-112498094D01*
X208904819Y-112498094D02*
X208904819Y-112117142D01*
X208904819Y-112117142D02*
X208952438Y-112021904D01*
X208952438Y-112021904D02*
X209000057Y-111974285D01*
X209000057Y-111974285D02*
X209095295Y-111926666D01*
X209095295Y-111926666D02*
X209238152Y-111926666D01*
X209238152Y-111926666D02*
X209333390Y-111974285D01*
X209333390Y-111974285D02*
X209381009Y-112021904D01*
X209381009Y-112021904D02*
X209428628Y-112117142D01*
X209428628Y-112117142D02*
X209428628Y-112498094D01*
X208904819Y-111593332D02*
X208904819Y-110926666D01*
X208904819Y-110926666D02*
X209904819Y-111355237D01*
X201034819Y-107322857D02*
X200558628Y-107656190D01*
X201034819Y-107894285D02*
X200034819Y-107894285D01*
X200034819Y-107894285D02*
X200034819Y-107513333D01*
X200034819Y-107513333D02*
X200082438Y-107418095D01*
X200082438Y-107418095D02*
X200130057Y-107370476D01*
X200130057Y-107370476D02*
X200225295Y-107322857D01*
X200225295Y-107322857D02*
X200368152Y-107322857D01*
X200368152Y-107322857D02*
X200463390Y-107370476D01*
X200463390Y-107370476D02*
X200511009Y-107418095D01*
X200511009Y-107418095D02*
X200558628Y-107513333D01*
X200558628Y-107513333D02*
X200558628Y-107894285D01*
X201034819Y-106370476D02*
X201034819Y-106941904D01*
X201034819Y-106656190D02*
X200034819Y-106656190D01*
X200034819Y-106656190D02*
X200177676Y-106751428D01*
X200177676Y-106751428D02*
X200272914Y-106846666D01*
X200272914Y-106846666D02*
X200320533Y-106941904D01*
X201034819Y-105418095D02*
X201034819Y-105989523D01*
X201034819Y-105703809D02*
X200034819Y-105703809D01*
X200034819Y-105703809D02*
X200177676Y-105799047D01*
X200177676Y-105799047D02*
X200272914Y-105894285D01*
X200272914Y-105894285D02*
X200320533Y-105989523D01*
X205024819Y-98629166D02*
X204548628Y-98962499D01*
X205024819Y-99200594D02*
X204024819Y-99200594D01*
X204024819Y-99200594D02*
X204024819Y-98819642D01*
X204024819Y-98819642D02*
X204072438Y-98724404D01*
X204072438Y-98724404D02*
X204120057Y-98676785D01*
X204120057Y-98676785D02*
X204215295Y-98629166D01*
X204215295Y-98629166D02*
X204358152Y-98629166D01*
X204358152Y-98629166D02*
X204453390Y-98676785D01*
X204453390Y-98676785D02*
X204501009Y-98724404D01*
X204501009Y-98724404D02*
X204548628Y-98819642D01*
X204548628Y-98819642D02*
X204548628Y-99200594D01*
X204453390Y-98057737D02*
X204405771Y-98152975D01*
X204405771Y-98152975D02*
X204358152Y-98200594D01*
X204358152Y-98200594D02*
X204262914Y-98248213D01*
X204262914Y-98248213D02*
X204215295Y-98248213D01*
X204215295Y-98248213D02*
X204120057Y-98200594D01*
X204120057Y-98200594D02*
X204072438Y-98152975D01*
X204072438Y-98152975D02*
X204024819Y-98057737D01*
X204024819Y-98057737D02*
X204024819Y-97867261D01*
X204024819Y-97867261D02*
X204072438Y-97772023D01*
X204072438Y-97772023D02*
X204120057Y-97724404D01*
X204120057Y-97724404D02*
X204215295Y-97676785D01*
X204215295Y-97676785D02*
X204262914Y-97676785D01*
X204262914Y-97676785D02*
X204358152Y-97724404D01*
X204358152Y-97724404D02*
X204405771Y-97772023D01*
X204405771Y-97772023D02*
X204453390Y-97867261D01*
X204453390Y-97867261D02*
X204453390Y-98057737D01*
X204453390Y-98057737D02*
X204501009Y-98152975D01*
X204501009Y-98152975D02*
X204548628Y-98200594D01*
X204548628Y-98200594D02*
X204643866Y-98248213D01*
X204643866Y-98248213D02*
X204834342Y-98248213D01*
X204834342Y-98248213D02*
X204929580Y-98200594D01*
X204929580Y-98200594D02*
X204977200Y-98152975D01*
X204977200Y-98152975D02*
X205024819Y-98057737D01*
X205024819Y-98057737D02*
X205024819Y-97867261D01*
X205024819Y-97867261D02*
X204977200Y-97772023D01*
X204977200Y-97772023D02*
X204929580Y-97724404D01*
X204929580Y-97724404D02*
X204834342Y-97676785D01*
X204834342Y-97676785D02*
X204643866Y-97676785D01*
X204643866Y-97676785D02*
X204548628Y-97724404D01*
X204548628Y-97724404D02*
X204501009Y-97772023D01*
X204501009Y-97772023D02*
X204453390Y-97867261D01*
X224739580Y-118985357D02*
X224787200Y-119032976D01*
X224787200Y-119032976D02*
X224834819Y-119175833D01*
X224834819Y-119175833D02*
X224834819Y-119271071D01*
X224834819Y-119271071D02*
X224787200Y-119413928D01*
X224787200Y-119413928D02*
X224691961Y-119509166D01*
X224691961Y-119509166D02*
X224596723Y-119556785D01*
X224596723Y-119556785D02*
X224406247Y-119604404D01*
X224406247Y-119604404D02*
X224263390Y-119604404D01*
X224263390Y-119604404D02*
X224072914Y-119556785D01*
X224072914Y-119556785D02*
X223977676Y-119509166D01*
X223977676Y-119509166D02*
X223882438Y-119413928D01*
X223882438Y-119413928D02*
X223834819Y-119271071D01*
X223834819Y-119271071D02*
X223834819Y-119175833D01*
X223834819Y-119175833D02*
X223882438Y-119032976D01*
X223882438Y-119032976D02*
X223930057Y-118985357D01*
X224834819Y-118032976D02*
X224834819Y-118604404D01*
X224834819Y-118318690D02*
X223834819Y-118318690D01*
X223834819Y-118318690D02*
X223977676Y-118413928D01*
X223977676Y-118413928D02*
X224072914Y-118509166D01*
X224072914Y-118509166D02*
X224120533Y-118604404D01*
X223834819Y-117128214D02*
X223834819Y-117604404D01*
X223834819Y-117604404D02*
X224311009Y-117652023D01*
X224311009Y-117652023D02*
X224263390Y-117604404D01*
X224263390Y-117604404D02*
X224215771Y-117509166D01*
X224215771Y-117509166D02*
X224215771Y-117271071D01*
X224215771Y-117271071D02*
X224263390Y-117175833D01*
X224263390Y-117175833D02*
X224311009Y-117128214D01*
X224311009Y-117128214D02*
X224406247Y-117080595D01*
X224406247Y-117080595D02*
X224644342Y-117080595D01*
X224644342Y-117080595D02*
X224739580Y-117128214D01*
X224739580Y-117128214D02*
X224787200Y-117175833D01*
X224787200Y-117175833D02*
X224834819Y-117271071D01*
X224834819Y-117271071D02*
X224834819Y-117509166D01*
X224834819Y-117509166D02*
X224787200Y-117604404D01*
X224787200Y-117604404D02*
X224739580Y-117652023D01*
X184738095Y-99506819D02*
X185309523Y-99506819D01*
X185023809Y-100506819D02*
X185023809Y-99506819D01*
X185642857Y-100506819D02*
X185642857Y-99506819D01*
X185642857Y-99506819D02*
X186023809Y-99506819D01*
X186023809Y-99506819D02*
X186119047Y-99554438D01*
X186119047Y-99554438D02*
X186166666Y-99602057D01*
X186166666Y-99602057D02*
X186214285Y-99697295D01*
X186214285Y-99697295D02*
X186214285Y-99840152D01*
X186214285Y-99840152D02*
X186166666Y-99935390D01*
X186166666Y-99935390D02*
X186119047Y-99983009D01*
X186119047Y-99983009D02*
X186023809Y-100030628D01*
X186023809Y-100030628D02*
X185642857Y-100030628D01*
X187071428Y-99840152D02*
X187071428Y-100506819D01*
X186833333Y-99459200D02*
X186595238Y-100173485D01*
X186595238Y-100173485D02*
X187214285Y-100173485D01*
X169238095Y-91006819D02*
X169809523Y-91006819D01*
X169523809Y-92006819D02*
X169523809Y-91006819D01*
X170142857Y-92006819D02*
X170142857Y-91006819D01*
X170142857Y-91006819D02*
X170523809Y-91006819D01*
X170523809Y-91006819D02*
X170619047Y-91054438D01*
X170619047Y-91054438D02*
X170666666Y-91102057D01*
X170666666Y-91102057D02*
X170714285Y-91197295D01*
X170714285Y-91197295D02*
X170714285Y-91340152D01*
X170714285Y-91340152D02*
X170666666Y-91435390D01*
X170666666Y-91435390D02*
X170619047Y-91483009D01*
X170619047Y-91483009D02*
X170523809Y-91530628D01*
X170523809Y-91530628D02*
X170142857Y-91530628D01*
X171666666Y-92006819D02*
X171095238Y-92006819D01*
X171380952Y-92006819D02*
X171380952Y-91006819D01*
X171380952Y-91006819D02*
X171285714Y-91149676D01*
X171285714Y-91149676D02*
X171190476Y-91244914D01*
X171190476Y-91244914D02*
X171095238Y-91292533D01*
X207518095Y-91034819D02*
X207518095Y-91844342D01*
X207518095Y-91844342D02*
X207565714Y-91939580D01*
X207565714Y-91939580D02*
X207613333Y-91987200D01*
X207613333Y-91987200D02*
X207708571Y-92034819D01*
X207708571Y-92034819D02*
X207899047Y-92034819D01*
X207899047Y-92034819D02*
X207994285Y-91987200D01*
X207994285Y-91987200D02*
X208041904Y-91939580D01*
X208041904Y-91939580D02*
X208089523Y-91844342D01*
X208089523Y-91844342D02*
X208089523Y-91034819D01*
X208994285Y-91034819D02*
X208803809Y-91034819D01*
X208803809Y-91034819D02*
X208708571Y-91082438D01*
X208708571Y-91082438D02*
X208660952Y-91130057D01*
X208660952Y-91130057D02*
X208565714Y-91272914D01*
X208565714Y-91272914D02*
X208518095Y-91463390D01*
X208518095Y-91463390D02*
X208518095Y-91844342D01*
X208518095Y-91844342D02*
X208565714Y-91939580D01*
X208565714Y-91939580D02*
X208613333Y-91987200D01*
X208613333Y-91987200D02*
X208708571Y-92034819D01*
X208708571Y-92034819D02*
X208899047Y-92034819D01*
X208899047Y-92034819D02*
X208994285Y-91987200D01*
X208994285Y-91987200D02*
X209041904Y-91939580D01*
X209041904Y-91939580D02*
X209089523Y-91844342D01*
X209089523Y-91844342D02*
X209089523Y-91606247D01*
X209089523Y-91606247D02*
X209041904Y-91511009D01*
X209041904Y-91511009D02*
X208994285Y-91463390D01*
X208994285Y-91463390D02*
X208899047Y-91415771D01*
X208899047Y-91415771D02*
X208708571Y-91415771D01*
X208708571Y-91415771D02*
X208613333Y-91463390D01*
X208613333Y-91463390D02*
X208565714Y-91511009D01*
X208565714Y-91511009D02*
X208518095Y-91606247D01*
X193680595Y-91034819D02*
X193680595Y-91844342D01*
X193680595Y-91844342D02*
X193728214Y-91939580D01*
X193728214Y-91939580D02*
X193775833Y-91987200D01*
X193775833Y-91987200D02*
X193871071Y-92034819D01*
X193871071Y-92034819D02*
X194061547Y-92034819D01*
X194061547Y-92034819D02*
X194156785Y-91987200D01*
X194156785Y-91987200D02*
X194204404Y-91939580D01*
X194204404Y-91939580D02*
X194252023Y-91844342D01*
X194252023Y-91844342D02*
X194252023Y-91034819D01*
X194632976Y-91034819D02*
X195299642Y-91034819D01*
X195299642Y-91034819D02*
X194871071Y-92034819D01*
X217754819Y-92683333D02*
X218469104Y-92683333D01*
X218469104Y-92683333D02*
X218611961Y-92730952D01*
X218611961Y-92730952D02*
X218707200Y-92826190D01*
X218707200Y-92826190D02*
X218754819Y-92969047D01*
X218754819Y-92969047D02*
X218754819Y-93064285D01*
X218754819Y-92207142D02*
X217754819Y-92207142D01*
X217754819Y-92207142D02*
X217754819Y-91826190D01*
X217754819Y-91826190D02*
X217802438Y-91730952D01*
X217802438Y-91730952D02*
X217850057Y-91683333D01*
X217850057Y-91683333D02*
X217945295Y-91635714D01*
X217945295Y-91635714D02*
X218088152Y-91635714D01*
X218088152Y-91635714D02*
X218183390Y-91683333D01*
X218183390Y-91683333D02*
X218231009Y-91730952D01*
X218231009Y-91730952D02*
X218278628Y-91826190D01*
X218278628Y-91826190D02*
X218278628Y-92207142D01*
X218183390Y-91064285D02*
X218135771Y-91159523D01*
X218135771Y-91159523D02*
X218088152Y-91207142D01*
X218088152Y-91207142D02*
X217992914Y-91254761D01*
X217992914Y-91254761D02*
X217945295Y-91254761D01*
X217945295Y-91254761D02*
X217850057Y-91207142D01*
X217850057Y-91207142D02*
X217802438Y-91159523D01*
X217802438Y-91159523D02*
X217754819Y-91064285D01*
X217754819Y-91064285D02*
X217754819Y-90873809D01*
X217754819Y-90873809D02*
X217802438Y-90778571D01*
X217802438Y-90778571D02*
X217850057Y-90730952D01*
X217850057Y-90730952D02*
X217945295Y-90683333D01*
X217945295Y-90683333D02*
X217992914Y-90683333D01*
X217992914Y-90683333D02*
X218088152Y-90730952D01*
X218088152Y-90730952D02*
X218135771Y-90778571D01*
X218135771Y-90778571D02*
X218183390Y-90873809D01*
X218183390Y-90873809D02*
X218183390Y-91064285D01*
X218183390Y-91064285D02*
X218231009Y-91159523D01*
X218231009Y-91159523D02*
X218278628Y-91207142D01*
X218278628Y-91207142D02*
X218373866Y-91254761D01*
X218373866Y-91254761D02*
X218564342Y-91254761D01*
X218564342Y-91254761D02*
X218659580Y-91207142D01*
X218659580Y-91207142D02*
X218707200Y-91159523D01*
X218707200Y-91159523D02*
X218754819Y-91064285D01*
X218754819Y-91064285D02*
X218754819Y-90873809D01*
X218754819Y-90873809D02*
X218707200Y-90778571D01*
X218707200Y-90778571D02*
X218659580Y-90730952D01*
X218659580Y-90730952D02*
X218564342Y-90683333D01*
X218564342Y-90683333D02*
X218373866Y-90683333D01*
X218373866Y-90683333D02*
X218278628Y-90730952D01*
X218278628Y-90730952D02*
X218231009Y-90778571D01*
X218231009Y-90778571D02*
X218183390Y-90873809D01*
X183966666Y-88654819D02*
X183966666Y-89369104D01*
X183966666Y-89369104D02*
X183919047Y-89511961D01*
X183919047Y-89511961D02*
X183823809Y-89607200D01*
X183823809Y-89607200D02*
X183680952Y-89654819D01*
X183680952Y-89654819D02*
X183585714Y-89654819D01*
X184442857Y-89654819D02*
X184442857Y-88654819D01*
X184442857Y-88654819D02*
X184823809Y-88654819D01*
X184823809Y-88654819D02*
X184919047Y-88702438D01*
X184919047Y-88702438D02*
X184966666Y-88750057D01*
X184966666Y-88750057D02*
X185014285Y-88845295D01*
X185014285Y-88845295D02*
X185014285Y-88988152D01*
X185014285Y-88988152D02*
X184966666Y-89083390D01*
X184966666Y-89083390D02*
X184919047Y-89131009D01*
X184919047Y-89131009D02*
X184823809Y-89178628D01*
X184823809Y-89178628D02*
X184442857Y-89178628D01*
X185347619Y-88654819D02*
X185966666Y-88654819D01*
X185966666Y-88654819D02*
X185633333Y-89035771D01*
X185633333Y-89035771D02*
X185776190Y-89035771D01*
X185776190Y-89035771D02*
X185871428Y-89083390D01*
X185871428Y-89083390D02*
X185919047Y-89131009D01*
X185919047Y-89131009D02*
X185966666Y-89226247D01*
X185966666Y-89226247D02*
X185966666Y-89464342D01*
X185966666Y-89464342D02*
X185919047Y-89559580D01*
X185919047Y-89559580D02*
X185871428Y-89607200D01*
X185871428Y-89607200D02*
X185776190Y-89654819D01*
X185776190Y-89654819D02*
X185490476Y-89654819D01*
X185490476Y-89654819D02*
X185395238Y-89607200D01*
X185395238Y-89607200D02*
X185347619Y-89559580D01*
X187066667Y-90454819D02*
X187685714Y-90454819D01*
X187685714Y-90454819D02*
X187352381Y-90835771D01*
X187352381Y-90835771D02*
X187495238Y-90835771D01*
X187495238Y-90835771D02*
X187590476Y-90883390D01*
X187590476Y-90883390D02*
X187638095Y-90931009D01*
X187638095Y-90931009D02*
X187685714Y-91026247D01*
X187685714Y-91026247D02*
X187685714Y-91264342D01*
X187685714Y-91264342D02*
X187638095Y-91359580D01*
X187638095Y-91359580D02*
X187590476Y-91407200D01*
X187590476Y-91407200D02*
X187495238Y-91454819D01*
X187495238Y-91454819D02*
X187209524Y-91454819D01*
X187209524Y-91454819D02*
X187114286Y-91407200D01*
X187114286Y-91407200D02*
X187066667Y-91359580D01*
X182485714Y-91454819D02*
X181914286Y-91454819D01*
X182200000Y-91454819D02*
X182200000Y-90454819D01*
X182200000Y-90454819D02*
X182104762Y-90597676D01*
X182104762Y-90597676D02*
X182009524Y-90692914D01*
X182009524Y-90692914D02*
X181914286Y-90740533D01*
X216247142Y-121654819D02*
X215913809Y-121178628D01*
X215675714Y-121654819D02*
X215675714Y-120654819D01*
X215675714Y-120654819D02*
X216056666Y-120654819D01*
X216056666Y-120654819D02*
X216151904Y-120702438D01*
X216151904Y-120702438D02*
X216199523Y-120750057D01*
X216199523Y-120750057D02*
X216247142Y-120845295D01*
X216247142Y-120845295D02*
X216247142Y-120988152D01*
X216247142Y-120988152D02*
X216199523Y-121083390D01*
X216199523Y-121083390D02*
X216151904Y-121131009D01*
X216151904Y-121131009D02*
X216056666Y-121178628D01*
X216056666Y-121178628D02*
X215675714Y-121178628D01*
X217199523Y-121654819D02*
X216628095Y-121654819D01*
X216913809Y-121654819D02*
X216913809Y-120654819D01*
X216913809Y-120654819D02*
X216818571Y-120797676D01*
X216818571Y-120797676D02*
X216723333Y-120892914D01*
X216723333Y-120892914D02*
X216628095Y-120940533D01*
X217818571Y-120654819D02*
X217913809Y-120654819D01*
X217913809Y-120654819D02*
X218009047Y-120702438D01*
X218009047Y-120702438D02*
X218056666Y-120750057D01*
X218056666Y-120750057D02*
X218104285Y-120845295D01*
X218104285Y-120845295D02*
X218151904Y-121035771D01*
X218151904Y-121035771D02*
X218151904Y-121273866D01*
X218151904Y-121273866D02*
X218104285Y-121464342D01*
X218104285Y-121464342D02*
X218056666Y-121559580D01*
X218056666Y-121559580D02*
X218009047Y-121607200D01*
X218009047Y-121607200D02*
X217913809Y-121654819D01*
X217913809Y-121654819D02*
X217818571Y-121654819D01*
X217818571Y-121654819D02*
X217723333Y-121607200D01*
X217723333Y-121607200D02*
X217675714Y-121559580D01*
X217675714Y-121559580D02*
X217628095Y-121464342D01*
X217628095Y-121464342D02*
X217580476Y-121273866D01*
X217580476Y-121273866D02*
X217580476Y-121035771D01*
X217580476Y-121035771D02*
X217628095Y-120845295D01*
X217628095Y-120845295D02*
X217675714Y-120750057D01*
X217675714Y-120750057D02*
X217723333Y-120702438D01*
X217723333Y-120702438D02*
X217818571Y-120654819D01*
X170333333Y-80834819D02*
X170000000Y-80358628D01*
X169761905Y-80834819D02*
X169761905Y-79834819D01*
X169761905Y-79834819D02*
X170142857Y-79834819D01*
X170142857Y-79834819D02*
X170238095Y-79882438D01*
X170238095Y-79882438D02*
X170285714Y-79930057D01*
X170285714Y-79930057D02*
X170333333Y-80025295D01*
X170333333Y-80025295D02*
X170333333Y-80168152D01*
X170333333Y-80168152D02*
X170285714Y-80263390D01*
X170285714Y-80263390D02*
X170238095Y-80311009D01*
X170238095Y-80311009D02*
X170142857Y-80358628D01*
X170142857Y-80358628D02*
X169761905Y-80358628D01*
X171190476Y-79834819D02*
X171000000Y-79834819D01*
X171000000Y-79834819D02*
X170904762Y-79882438D01*
X170904762Y-79882438D02*
X170857143Y-79930057D01*
X170857143Y-79930057D02*
X170761905Y-80072914D01*
X170761905Y-80072914D02*
X170714286Y-80263390D01*
X170714286Y-80263390D02*
X170714286Y-80644342D01*
X170714286Y-80644342D02*
X170761905Y-80739580D01*
X170761905Y-80739580D02*
X170809524Y-80787200D01*
X170809524Y-80787200D02*
X170904762Y-80834819D01*
X170904762Y-80834819D02*
X171095238Y-80834819D01*
X171095238Y-80834819D02*
X171190476Y-80787200D01*
X171190476Y-80787200D02*
X171238095Y-80739580D01*
X171238095Y-80739580D02*
X171285714Y-80644342D01*
X171285714Y-80644342D02*
X171285714Y-80406247D01*
X171285714Y-80406247D02*
X171238095Y-80311009D01*
X171238095Y-80311009D02*
X171190476Y-80263390D01*
X171190476Y-80263390D02*
X171095238Y-80215771D01*
X171095238Y-80215771D02*
X170904762Y-80215771D01*
X170904762Y-80215771D02*
X170809524Y-80263390D01*
X170809524Y-80263390D02*
X170761905Y-80311009D01*
X170761905Y-80311009D02*
X170714286Y-80406247D01*
X183966666Y-84654819D02*
X183966666Y-85369104D01*
X183966666Y-85369104D02*
X183919047Y-85511961D01*
X183919047Y-85511961D02*
X183823809Y-85607200D01*
X183823809Y-85607200D02*
X183680952Y-85654819D01*
X183680952Y-85654819D02*
X183585714Y-85654819D01*
X184442857Y-85654819D02*
X184442857Y-84654819D01*
X184442857Y-84654819D02*
X184823809Y-84654819D01*
X184823809Y-84654819D02*
X184919047Y-84702438D01*
X184919047Y-84702438D02*
X184966666Y-84750057D01*
X184966666Y-84750057D02*
X185014285Y-84845295D01*
X185014285Y-84845295D02*
X185014285Y-84988152D01*
X185014285Y-84988152D02*
X184966666Y-85083390D01*
X184966666Y-85083390D02*
X184919047Y-85131009D01*
X184919047Y-85131009D02*
X184823809Y-85178628D01*
X184823809Y-85178628D02*
X184442857Y-85178628D01*
X185395238Y-84750057D02*
X185442857Y-84702438D01*
X185442857Y-84702438D02*
X185538095Y-84654819D01*
X185538095Y-84654819D02*
X185776190Y-84654819D01*
X185776190Y-84654819D02*
X185871428Y-84702438D01*
X185871428Y-84702438D02*
X185919047Y-84750057D01*
X185919047Y-84750057D02*
X185966666Y-84845295D01*
X185966666Y-84845295D02*
X185966666Y-84940533D01*
X185966666Y-84940533D02*
X185919047Y-85083390D01*
X185919047Y-85083390D02*
X185347619Y-85654819D01*
X185347619Y-85654819D02*
X185966666Y-85654819D01*
X182485714Y-87454819D02*
X181914286Y-87454819D01*
X182200000Y-87454819D02*
X182200000Y-86454819D01*
X182200000Y-86454819D02*
X182104762Y-86597676D01*
X182104762Y-86597676D02*
X182009524Y-86692914D01*
X182009524Y-86692914D02*
X181914286Y-86740533D01*
X187066667Y-86454819D02*
X187685714Y-86454819D01*
X187685714Y-86454819D02*
X187352381Y-86835771D01*
X187352381Y-86835771D02*
X187495238Y-86835771D01*
X187495238Y-86835771D02*
X187590476Y-86883390D01*
X187590476Y-86883390D02*
X187638095Y-86931009D01*
X187638095Y-86931009D02*
X187685714Y-87026247D01*
X187685714Y-87026247D02*
X187685714Y-87264342D01*
X187685714Y-87264342D02*
X187638095Y-87359580D01*
X187638095Y-87359580D02*
X187590476Y-87407200D01*
X187590476Y-87407200D02*
X187495238Y-87454819D01*
X187495238Y-87454819D02*
X187209524Y-87454819D01*
X187209524Y-87454819D02*
X187114286Y-87407200D01*
X187114286Y-87407200D02*
X187066667Y-87359580D01*
X192064819Y-106021666D02*
X191588628Y-106354999D01*
X192064819Y-106593094D02*
X191064819Y-106593094D01*
X191064819Y-106593094D02*
X191064819Y-106212142D01*
X191064819Y-106212142D02*
X191112438Y-106116904D01*
X191112438Y-106116904D02*
X191160057Y-106069285D01*
X191160057Y-106069285D02*
X191255295Y-106021666D01*
X191255295Y-106021666D02*
X191398152Y-106021666D01*
X191398152Y-106021666D02*
X191493390Y-106069285D01*
X191493390Y-106069285D02*
X191541009Y-106116904D01*
X191541009Y-106116904D02*
X191588628Y-106212142D01*
X191588628Y-106212142D02*
X191588628Y-106593094D01*
X192064819Y-105069285D02*
X192064819Y-105640713D01*
X192064819Y-105354999D02*
X191064819Y-105354999D01*
X191064819Y-105354999D02*
X191207676Y-105450237D01*
X191207676Y-105450237D02*
X191302914Y-105545475D01*
X191302914Y-105545475D02*
X191350533Y-105640713D01*
X190316666Y-120654819D02*
X190316666Y-121369104D01*
X190316666Y-121369104D02*
X190269047Y-121511961D01*
X190269047Y-121511961D02*
X190173809Y-121607200D01*
X190173809Y-121607200D02*
X190030952Y-121654819D01*
X190030952Y-121654819D02*
X189935714Y-121654819D01*
X190792857Y-121654819D02*
X190792857Y-120654819D01*
X190792857Y-120654819D02*
X191173809Y-120654819D01*
X191173809Y-120654819D02*
X191269047Y-120702438D01*
X191269047Y-120702438D02*
X191316666Y-120750057D01*
X191316666Y-120750057D02*
X191364285Y-120845295D01*
X191364285Y-120845295D02*
X191364285Y-120988152D01*
X191364285Y-120988152D02*
X191316666Y-121083390D01*
X191316666Y-121083390D02*
X191269047Y-121131009D01*
X191269047Y-121131009D02*
X191173809Y-121178628D01*
X191173809Y-121178628D02*
X190792857Y-121178628D01*
X192221428Y-120654819D02*
X192030952Y-120654819D01*
X192030952Y-120654819D02*
X191935714Y-120702438D01*
X191935714Y-120702438D02*
X191888095Y-120750057D01*
X191888095Y-120750057D02*
X191792857Y-120892914D01*
X191792857Y-120892914D02*
X191745238Y-121083390D01*
X191745238Y-121083390D02*
X191745238Y-121464342D01*
X191745238Y-121464342D02*
X191792857Y-121559580D01*
X191792857Y-121559580D02*
X191840476Y-121607200D01*
X191840476Y-121607200D02*
X191935714Y-121654819D01*
X191935714Y-121654819D02*
X192126190Y-121654819D01*
X192126190Y-121654819D02*
X192221428Y-121607200D01*
X192221428Y-121607200D02*
X192269047Y-121559580D01*
X192269047Y-121559580D02*
X192316666Y-121464342D01*
X192316666Y-121464342D02*
X192316666Y-121226247D01*
X192316666Y-121226247D02*
X192269047Y-121131009D01*
X192269047Y-121131009D02*
X192221428Y-121083390D01*
X192221428Y-121083390D02*
X192126190Y-121035771D01*
X192126190Y-121035771D02*
X191935714Y-121035771D01*
X191935714Y-121035771D02*
X191840476Y-121083390D01*
X191840476Y-121083390D02*
X191792857Y-121131009D01*
X191792857Y-121131009D02*
X191745238Y-121226247D01*
X196915833Y-103639580D02*
X196868214Y-103687200D01*
X196868214Y-103687200D02*
X196725357Y-103734819D01*
X196725357Y-103734819D02*
X196630119Y-103734819D01*
X196630119Y-103734819D02*
X196487262Y-103687200D01*
X196487262Y-103687200D02*
X196392024Y-103591961D01*
X196392024Y-103591961D02*
X196344405Y-103496723D01*
X196344405Y-103496723D02*
X196296786Y-103306247D01*
X196296786Y-103306247D02*
X196296786Y-103163390D01*
X196296786Y-103163390D02*
X196344405Y-102972914D01*
X196344405Y-102972914D02*
X196392024Y-102877676D01*
X196392024Y-102877676D02*
X196487262Y-102782438D01*
X196487262Y-102782438D02*
X196630119Y-102734819D01*
X196630119Y-102734819D02*
X196725357Y-102734819D01*
X196725357Y-102734819D02*
X196868214Y-102782438D01*
X196868214Y-102782438D02*
X196915833Y-102830057D01*
X197249167Y-102734819D02*
X197915833Y-102734819D01*
X197915833Y-102734819D02*
X197487262Y-103734819D01*
X175547618Y-86454819D02*
X175214285Y-85978628D01*
X174976190Y-86454819D02*
X174976190Y-85454819D01*
X174976190Y-85454819D02*
X175357142Y-85454819D01*
X175357142Y-85454819D02*
X175452380Y-85502438D01*
X175452380Y-85502438D02*
X175499999Y-85550057D01*
X175499999Y-85550057D02*
X175547618Y-85645295D01*
X175547618Y-85645295D02*
X175547618Y-85788152D01*
X175547618Y-85788152D02*
X175499999Y-85883390D01*
X175499999Y-85883390D02*
X175452380Y-85931009D01*
X175452380Y-85931009D02*
X175357142Y-85978628D01*
X175357142Y-85978628D02*
X174976190Y-85978628D01*
X175738095Y-86550057D02*
X176499999Y-86550057D01*
X176738095Y-86454819D02*
X176738095Y-85454819D01*
X176738095Y-85454819D02*
X177119047Y-85454819D01*
X177119047Y-85454819D02*
X177214285Y-85502438D01*
X177214285Y-85502438D02*
X177261904Y-85550057D01*
X177261904Y-85550057D02*
X177309523Y-85645295D01*
X177309523Y-85645295D02*
X177309523Y-85788152D01*
X177309523Y-85788152D02*
X177261904Y-85883390D01*
X177261904Y-85883390D02*
X177214285Y-85931009D01*
X177214285Y-85931009D02*
X177119047Y-85978628D01*
X177119047Y-85978628D02*
X176738095Y-85978628D01*
X178309523Y-86454819D02*
X177976190Y-85978628D01*
X177738095Y-86454819D02*
X177738095Y-85454819D01*
X177738095Y-85454819D02*
X178119047Y-85454819D01*
X178119047Y-85454819D02*
X178214285Y-85502438D01*
X178214285Y-85502438D02*
X178261904Y-85550057D01*
X178261904Y-85550057D02*
X178309523Y-85645295D01*
X178309523Y-85645295D02*
X178309523Y-85788152D01*
X178309523Y-85788152D02*
X178261904Y-85883390D01*
X178261904Y-85883390D02*
X178214285Y-85931009D01*
X178214285Y-85931009D02*
X178119047Y-85978628D01*
X178119047Y-85978628D02*
X177738095Y-85978628D01*
X178928571Y-85454819D02*
X179119047Y-85454819D01*
X179119047Y-85454819D02*
X179214285Y-85502438D01*
X179214285Y-85502438D02*
X179309523Y-85597676D01*
X179309523Y-85597676D02*
X179357142Y-85788152D01*
X179357142Y-85788152D02*
X179357142Y-86121485D01*
X179357142Y-86121485D02*
X179309523Y-86311961D01*
X179309523Y-86311961D02*
X179214285Y-86407200D01*
X179214285Y-86407200D02*
X179119047Y-86454819D01*
X179119047Y-86454819D02*
X178928571Y-86454819D01*
X178928571Y-86454819D02*
X178833333Y-86407200D01*
X178833333Y-86407200D02*
X178738095Y-86311961D01*
X178738095Y-86311961D02*
X178690476Y-86121485D01*
X178690476Y-86121485D02*
X178690476Y-85788152D01*
X178690476Y-85788152D02*
X178738095Y-85597676D01*
X178738095Y-85597676D02*
X178833333Y-85502438D01*
X178833333Y-85502438D02*
X178928571Y-85454819D01*
X180309523Y-85502438D02*
X180214285Y-85454819D01*
X180214285Y-85454819D02*
X180071428Y-85454819D01*
X180071428Y-85454819D02*
X179928571Y-85502438D01*
X179928571Y-85502438D02*
X179833333Y-85597676D01*
X179833333Y-85597676D02*
X179785714Y-85692914D01*
X179785714Y-85692914D02*
X179738095Y-85883390D01*
X179738095Y-85883390D02*
X179738095Y-86026247D01*
X179738095Y-86026247D02*
X179785714Y-86216723D01*
X179785714Y-86216723D02*
X179833333Y-86311961D01*
X179833333Y-86311961D02*
X179928571Y-86407200D01*
X179928571Y-86407200D02*
X180071428Y-86454819D01*
X180071428Y-86454819D02*
X180166666Y-86454819D01*
X180166666Y-86454819D02*
X180309523Y-86407200D01*
X180309523Y-86407200D02*
X180357142Y-86359580D01*
X180357142Y-86359580D02*
X180357142Y-86026247D01*
X180357142Y-86026247D02*
X180166666Y-86026247D01*
X180547619Y-86550057D02*
X181309523Y-86550057D01*
X182071428Y-86454819D02*
X181500000Y-86454819D01*
X181785714Y-86454819D02*
X181785714Y-85454819D01*
X181785714Y-85454819D02*
X181690476Y-85597676D01*
X181690476Y-85597676D02*
X181595238Y-85692914D01*
X181595238Y-85692914D02*
X181500000Y-85740533D01*
X205470833Y-123289580D02*
X205423214Y-123337200D01*
X205423214Y-123337200D02*
X205280357Y-123384819D01*
X205280357Y-123384819D02*
X205185119Y-123384819D01*
X205185119Y-123384819D02*
X205042262Y-123337200D01*
X205042262Y-123337200D02*
X204947024Y-123241961D01*
X204947024Y-123241961D02*
X204899405Y-123146723D01*
X204899405Y-123146723D02*
X204851786Y-122956247D01*
X204851786Y-122956247D02*
X204851786Y-122813390D01*
X204851786Y-122813390D02*
X204899405Y-122622914D01*
X204899405Y-122622914D02*
X204947024Y-122527676D01*
X204947024Y-122527676D02*
X205042262Y-122432438D01*
X205042262Y-122432438D02*
X205185119Y-122384819D01*
X205185119Y-122384819D02*
X205280357Y-122384819D01*
X205280357Y-122384819D02*
X205423214Y-122432438D01*
X205423214Y-122432438D02*
X205470833Y-122480057D01*
X205851786Y-122480057D02*
X205899405Y-122432438D01*
X205899405Y-122432438D02*
X205994643Y-122384819D01*
X205994643Y-122384819D02*
X206232738Y-122384819D01*
X206232738Y-122384819D02*
X206327976Y-122432438D01*
X206327976Y-122432438D02*
X206375595Y-122480057D01*
X206375595Y-122480057D02*
X206423214Y-122575295D01*
X206423214Y-122575295D02*
X206423214Y-122670533D01*
X206423214Y-122670533D02*
X206375595Y-122813390D01*
X206375595Y-122813390D02*
X205804167Y-123384819D01*
X205804167Y-123384819D02*
X206423214Y-123384819D01*
X167023810Y-106704819D02*
X167023810Y-105704819D01*
X168071428Y-106609580D02*
X168023809Y-106657200D01*
X168023809Y-106657200D02*
X167880952Y-106704819D01*
X167880952Y-106704819D02*
X167785714Y-106704819D01*
X167785714Y-106704819D02*
X167642857Y-106657200D01*
X167642857Y-106657200D02*
X167547619Y-106561961D01*
X167547619Y-106561961D02*
X167500000Y-106466723D01*
X167500000Y-106466723D02*
X167452381Y-106276247D01*
X167452381Y-106276247D02*
X167452381Y-106133390D01*
X167452381Y-106133390D02*
X167500000Y-105942914D01*
X167500000Y-105942914D02*
X167547619Y-105847676D01*
X167547619Y-105847676D02*
X167642857Y-105752438D01*
X167642857Y-105752438D02*
X167785714Y-105704819D01*
X167785714Y-105704819D02*
X167880952Y-105704819D01*
X167880952Y-105704819D02*
X168023809Y-105752438D01*
X168023809Y-105752438D02*
X168071428Y-105800057D01*
X169023809Y-106704819D02*
X168452381Y-106704819D01*
X168738095Y-106704819D02*
X168738095Y-105704819D01*
X168738095Y-105704819D02*
X168642857Y-105847676D01*
X168642857Y-105847676D02*
X168547619Y-105942914D01*
X168547619Y-105942914D02*
X168452381Y-105990533D01*
X204454819Y-92666666D02*
X204454819Y-93142856D01*
X204454819Y-93142856D02*
X203454819Y-93142856D01*
X204454819Y-91809523D02*
X204454819Y-92380951D01*
X204454819Y-92095237D02*
X203454819Y-92095237D01*
X203454819Y-92095237D02*
X203597676Y-92190475D01*
X203597676Y-92190475D02*
X203692914Y-92285713D01*
X203692914Y-92285713D02*
X203740533Y-92380951D01*
X174238095Y-106006819D02*
X174809523Y-106006819D01*
X174523809Y-107006819D02*
X174523809Y-106006819D01*
X175142857Y-107006819D02*
X175142857Y-106006819D01*
X175142857Y-106006819D02*
X175523809Y-106006819D01*
X175523809Y-106006819D02*
X175619047Y-106054438D01*
X175619047Y-106054438D02*
X175666666Y-106102057D01*
X175666666Y-106102057D02*
X175714285Y-106197295D01*
X175714285Y-106197295D02*
X175714285Y-106340152D01*
X175714285Y-106340152D02*
X175666666Y-106435390D01*
X175666666Y-106435390D02*
X175619047Y-106483009D01*
X175619047Y-106483009D02*
X175523809Y-106530628D01*
X175523809Y-106530628D02*
X175142857Y-106530628D01*
X176571428Y-106006819D02*
X176380952Y-106006819D01*
X176380952Y-106006819D02*
X176285714Y-106054438D01*
X176285714Y-106054438D02*
X176238095Y-106102057D01*
X176238095Y-106102057D02*
X176142857Y-106244914D01*
X176142857Y-106244914D02*
X176095238Y-106435390D01*
X176095238Y-106435390D02*
X176095238Y-106816342D01*
X176095238Y-106816342D02*
X176142857Y-106911580D01*
X176142857Y-106911580D02*
X176190476Y-106959200D01*
X176190476Y-106959200D02*
X176285714Y-107006819D01*
X176285714Y-107006819D02*
X176476190Y-107006819D01*
X176476190Y-107006819D02*
X176571428Y-106959200D01*
X176571428Y-106959200D02*
X176619047Y-106911580D01*
X176619047Y-106911580D02*
X176666666Y-106816342D01*
X176666666Y-106816342D02*
X176666666Y-106578247D01*
X176666666Y-106578247D02*
X176619047Y-106483009D01*
X176619047Y-106483009D02*
X176571428Y-106435390D01*
X176571428Y-106435390D02*
X176476190Y-106387771D01*
X176476190Y-106387771D02*
X176285714Y-106387771D01*
X176285714Y-106387771D02*
X176190476Y-106435390D01*
X176190476Y-106435390D02*
X176142857Y-106483009D01*
X176142857Y-106483009D02*
X176095238Y-106578247D01*
X212859580Y-99702857D02*
X212907200Y-99750476D01*
X212907200Y-99750476D02*
X212954819Y-99893333D01*
X212954819Y-99893333D02*
X212954819Y-99988571D01*
X212954819Y-99988571D02*
X212907200Y-100131428D01*
X212907200Y-100131428D02*
X212811961Y-100226666D01*
X212811961Y-100226666D02*
X212716723Y-100274285D01*
X212716723Y-100274285D02*
X212526247Y-100321904D01*
X212526247Y-100321904D02*
X212383390Y-100321904D01*
X212383390Y-100321904D02*
X212192914Y-100274285D01*
X212192914Y-100274285D02*
X212097676Y-100226666D01*
X212097676Y-100226666D02*
X212002438Y-100131428D01*
X212002438Y-100131428D02*
X211954819Y-99988571D01*
X211954819Y-99988571D02*
X211954819Y-99893333D01*
X211954819Y-99893333D02*
X212002438Y-99750476D01*
X212002438Y-99750476D02*
X212050057Y-99702857D01*
X212954819Y-98750476D02*
X212954819Y-99321904D01*
X212954819Y-99036190D02*
X211954819Y-99036190D01*
X211954819Y-99036190D02*
X212097676Y-99131428D01*
X212097676Y-99131428D02*
X212192914Y-99226666D01*
X212192914Y-99226666D02*
X212240533Y-99321904D01*
X212050057Y-98369523D02*
X212002438Y-98321904D01*
X212002438Y-98321904D02*
X211954819Y-98226666D01*
X211954819Y-98226666D02*
X211954819Y-97988571D01*
X211954819Y-97988571D02*
X212002438Y-97893333D01*
X212002438Y-97893333D02*
X212050057Y-97845714D01*
X212050057Y-97845714D02*
X212145295Y-97798095D01*
X212145295Y-97798095D02*
X212240533Y-97798095D01*
X212240533Y-97798095D02*
X212383390Y-97845714D01*
X212383390Y-97845714D02*
X212954819Y-98417142D01*
X212954819Y-98417142D02*
X212954819Y-97798095D01*
X180454819Y-97666666D02*
X179978628Y-97999999D01*
X180454819Y-98238094D02*
X179454819Y-98238094D01*
X179454819Y-98238094D02*
X179454819Y-97857142D01*
X179454819Y-97857142D02*
X179502438Y-97761904D01*
X179502438Y-97761904D02*
X179550057Y-97714285D01*
X179550057Y-97714285D02*
X179645295Y-97666666D01*
X179645295Y-97666666D02*
X179788152Y-97666666D01*
X179788152Y-97666666D02*
X179883390Y-97714285D01*
X179883390Y-97714285D02*
X179931009Y-97761904D01*
X179931009Y-97761904D02*
X179978628Y-97857142D01*
X179978628Y-97857142D02*
X179978628Y-98238094D01*
X179788152Y-96809523D02*
X180454819Y-96809523D01*
X179407200Y-97047618D02*
X180121485Y-97285713D01*
X180121485Y-97285713D02*
X180121485Y-96666666D01*
X154857142Y-86199580D02*
X154809523Y-86247200D01*
X154809523Y-86247200D02*
X154666666Y-86294819D01*
X154666666Y-86294819D02*
X154571428Y-86294819D01*
X154571428Y-86294819D02*
X154428571Y-86247200D01*
X154428571Y-86247200D02*
X154333333Y-86151961D01*
X154333333Y-86151961D02*
X154285714Y-86056723D01*
X154285714Y-86056723D02*
X154238095Y-85866247D01*
X154238095Y-85866247D02*
X154238095Y-85723390D01*
X154238095Y-85723390D02*
X154285714Y-85532914D01*
X154285714Y-85532914D02*
X154333333Y-85437676D01*
X154333333Y-85437676D02*
X154428571Y-85342438D01*
X154428571Y-85342438D02*
X154571428Y-85294819D01*
X154571428Y-85294819D02*
X154666666Y-85294819D01*
X154666666Y-85294819D02*
X154809523Y-85342438D01*
X154809523Y-85342438D02*
X154857142Y-85390057D01*
X155238095Y-85390057D02*
X155285714Y-85342438D01*
X155285714Y-85342438D02*
X155380952Y-85294819D01*
X155380952Y-85294819D02*
X155619047Y-85294819D01*
X155619047Y-85294819D02*
X155714285Y-85342438D01*
X155714285Y-85342438D02*
X155761904Y-85390057D01*
X155761904Y-85390057D02*
X155809523Y-85485295D01*
X155809523Y-85485295D02*
X155809523Y-85580533D01*
X155809523Y-85580533D02*
X155761904Y-85723390D01*
X155761904Y-85723390D02*
X155190476Y-86294819D01*
X155190476Y-86294819D02*
X155809523Y-86294819D01*
X156428571Y-85294819D02*
X156523809Y-85294819D01*
X156523809Y-85294819D02*
X156619047Y-85342438D01*
X156619047Y-85342438D02*
X156666666Y-85390057D01*
X156666666Y-85390057D02*
X156714285Y-85485295D01*
X156714285Y-85485295D02*
X156761904Y-85675771D01*
X156761904Y-85675771D02*
X156761904Y-85913866D01*
X156761904Y-85913866D02*
X156714285Y-86104342D01*
X156714285Y-86104342D02*
X156666666Y-86199580D01*
X156666666Y-86199580D02*
X156619047Y-86247200D01*
X156619047Y-86247200D02*
X156523809Y-86294819D01*
X156523809Y-86294819D02*
X156428571Y-86294819D01*
X156428571Y-86294819D02*
X156333333Y-86247200D01*
X156333333Y-86247200D02*
X156285714Y-86199580D01*
X156285714Y-86199580D02*
X156238095Y-86104342D01*
X156238095Y-86104342D02*
X156190476Y-85913866D01*
X156190476Y-85913866D02*
X156190476Y-85675771D01*
X156190476Y-85675771D02*
X156238095Y-85485295D01*
X156238095Y-85485295D02*
X156285714Y-85390057D01*
X156285714Y-85390057D02*
X156333333Y-85342438D01*
X156333333Y-85342438D02*
X156428571Y-85294819D01*
X175547618Y-89524819D02*
X175214285Y-89048628D01*
X174976190Y-89524819D02*
X174976190Y-88524819D01*
X174976190Y-88524819D02*
X175357142Y-88524819D01*
X175357142Y-88524819D02*
X175452380Y-88572438D01*
X175452380Y-88572438D02*
X175499999Y-88620057D01*
X175499999Y-88620057D02*
X175547618Y-88715295D01*
X175547618Y-88715295D02*
X175547618Y-88858152D01*
X175547618Y-88858152D02*
X175499999Y-88953390D01*
X175499999Y-88953390D02*
X175452380Y-89001009D01*
X175452380Y-89001009D02*
X175357142Y-89048628D01*
X175357142Y-89048628D02*
X174976190Y-89048628D01*
X175738095Y-89620057D02*
X176499999Y-89620057D01*
X176738095Y-89524819D02*
X176738095Y-88524819D01*
X176738095Y-88524819D02*
X177119047Y-88524819D01*
X177119047Y-88524819D02*
X177214285Y-88572438D01*
X177214285Y-88572438D02*
X177261904Y-88620057D01*
X177261904Y-88620057D02*
X177309523Y-88715295D01*
X177309523Y-88715295D02*
X177309523Y-88858152D01*
X177309523Y-88858152D02*
X177261904Y-88953390D01*
X177261904Y-88953390D02*
X177214285Y-89001009D01*
X177214285Y-89001009D02*
X177119047Y-89048628D01*
X177119047Y-89048628D02*
X176738095Y-89048628D01*
X178309523Y-89524819D02*
X177976190Y-89048628D01*
X177738095Y-89524819D02*
X177738095Y-88524819D01*
X177738095Y-88524819D02*
X178119047Y-88524819D01*
X178119047Y-88524819D02*
X178214285Y-88572438D01*
X178214285Y-88572438D02*
X178261904Y-88620057D01*
X178261904Y-88620057D02*
X178309523Y-88715295D01*
X178309523Y-88715295D02*
X178309523Y-88858152D01*
X178309523Y-88858152D02*
X178261904Y-88953390D01*
X178261904Y-88953390D02*
X178214285Y-89001009D01*
X178214285Y-89001009D02*
X178119047Y-89048628D01*
X178119047Y-89048628D02*
X177738095Y-89048628D01*
X178928571Y-88524819D02*
X179119047Y-88524819D01*
X179119047Y-88524819D02*
X179214285Y-88572438D01*
X179214285Y-88572438D02*
X179309523Y-88667676D01*
X179309523Y-88667676D02*
X179357142Y-88858152D01*
X179357142Y-88858152D02*
X179357142Y-89191485D01*
X179357142Y-89191485D02*
X179309523Y-89381961D01*
X179309523Y-89381961D02*
X179214285Y-89477200D01*
X179214285Y-89477200D02*
X179119047Y-89524819D01*
X179119047Y-89524819D02*
X178928571Y-89524819D01*
X178928571Y-89524819D02*
X178833333Y-89477200D01*
X178833333Y-89477200D02*
X178738095Y-89381961D01*
X178738095Y-89381961D02*
X178690476Y-89191485D01*
X178690476Y-89191485D02*
X178690476Y-88858152D01*
X178690476Y-88858152D02*
X178738095Y-88667676D01*
X178738095Y-88667676D02*
X178833333Y-88572438D01*
X178833333Y-88572438D02*
X178928571Y-88524819D01*
X180309523Y-88572438D02*
X180214285Y-88524819D01*
X180214285Y-88524819D02*
X180071428Y-88524819D01*
X180071428Y-88524819D02*
X179928571Y-88572438D01*
X179928571Y-88572438D02*
X179833333Y-88667676D01*
X179833333Y-88667676D02*
X179785714Y-88762914D01*
X179785714Y-88762914D02*
X179738095Y-88953390D01*
X179738095Y-88953390D02*
X179738095Y-89096247D01*
X179738095Y-89096247D02*
X179785714Y-89286723D01*
X179785714Y-89286723D02*
X179833333Y-89381961D01*
X179833333Y-89381961D02*
X179928571Y-89477200D01*
X179928571Y-89477200D02*
X180071428Y-89524819D01*
X180071428Y-89524819D02*
X180166666Y-89524819D01*
X180166666Y-89524819D02*
X180309523Y-89477200D01*
X180309523Y-89477200D02*
X180357142Y-89429580D01*
X180357142Y-89429580D02*
X180357142Y-89096247D01*
X180357142Y-89096247D02*
X180166666Y-89096247D01*
X180547619Y-89620057D02*
X181309523Y-89620057D01*
X181500000Y-88620057D02*
X181547619Y-88572438D01*
X181547619Y-88572438D02*
X181642857Y-88524819D01*
X181642857Y-88524819D02*
X181880952Y-88524819D01*
X181880952Y-88524819D02*
X181976190Y-88572438D01*
X181976190Y-88572438D02*
X182023809Y-88620057D01*
X182023809Y-88620057D02*
X182071428Y-88715295D01*
X182071428Y-88715295D02*
X182071428Y-88810533D01*
X182071428Y-88810533D02*
X182023809Y-88953390D01*
X182023809Y-88953390D02*
X181452381Y-89524819D01*
X181452381Y-89524819D02*
X182071428Y-89524819D01*
X218857142Y-123699580D02*
X218809523Y-123747200D01*
X218809523Y-123747200D02*
X218666666Y-123794819D01*
X218666666Y-123794819D02*
X218571428Y-123794819D01*
X218571428Y-123794819D02*
X218428571Y-123747200D01*
X218428571Y-123747200D02*
X218333333Y-123651961D01*
X218333333Y-123651961D02*
X218285714Y-123556723D01*
X218285714Y-123556723D02*
X218238095Y-123366247D01*
X218238095Y-123366247D02*
X218238095Y-123223390D01*
X218238095Y-123223390D02*
X218285714Y-123032914D01*
X218285714Y-123032914D02*
X218333333Y-122937676D01*
X218333333Y-122937676D02*
X218428571Y-122842438D01*
X218428571Y-122842438D02*
X218571428Y-122794819D01*
X218571428Y-122794819D02*
X218666666Y-122794819D01*
X218666666Y-122794819D02*
X218809523Y-122842438D01*
X218809523Y-122842438D02*
X218857142Y-122890057D01*
X219809523Y-123794819D02*
X219238095Y-123794819D01*
X219523809Y-123794819D02*
X219523809Y-122794819D01*
X219523809Y-122794819D02*
X219428571Y-122937676D01*
X219428571Y-122937676D02*
X219333333Y-123032914D01*
X219333333Y-123032914D02*
X219238095Y-123080533D01*
X220666666Y-122794819D02*
X220476190Y-122794819D01*
X220476190Y-122794819D02*
X220380952Y-122842438D01*
X220380952Y-122842438D02*
X220333333Y-122890057D01*
X220333333Y-122890057D02*
X220238095Y-123032914D01*
X220238095Y-123032914D02*
X220190476Y-123223390D01*
X220190476Y-123223390D02*
X220190476Y-123604342D01*
X220190476Y-123604342D02*
X220238095Y-123699580D01*
X220238095Y-123699580D02*
X220285714Y-123747200D01*
X220285714Y-123747200D02*
X220380952Y-123794819D01*
X220380952Y-123794819D02*
X220571428Y-123794819D01*
X220571428Y-123794819D02*
X220666666Y-123747200D01*
X220666666Y-123747200D02*
X220714285Y-123699580D01*
X220714285Y-123699580D02*
X220761904Y-123604342D01*
X220761904Y-123604342D02*
X220761904Y-123366247D01*
X220761904Y-123366247D02*
X220714285Y-123271009D01*
X220714285Y-123271009D02*
X220666666Y-123223390D01*
X220666666Y-123223390D02*
X220571428Y-123175771D01*
X220571428Y-123175771D02*
X220380952Y-123175771D01*
X220380952Y-123175771D02*
X220285714Y-123223390D01*
X220285714Y-123223390D02*
X220238095Y-123271009D01*
X220238095Y-123271009D02*
X220190476Y-123366247D01*
D12*
X179532380Y-102513842D02*
X179713809Y-102574318D01*
X179713809Y-102574318D02*
X180016190Y-102574318D01*
X180016190Y-102574318D02*
X180137142Y-102513842D01*
X180137142Y-102513842D02*
X180197618Y-102453365D01*
X180197618Y-102453365D02*
X180258095Y-102332413D01*
X180258095Y-102332413D02*
X180258095Y-102211461D01*
X180258095Y-102211461D02*
X180197618Y-102090508D01*
X180197618Y-102090508D02*
X180137142Y-102030032D01*
X180137142Y-102030032D02*
X180016190Y-101969556D01*
X180016190Y-101969556D02*
X179774285Y-101909080D01*
X179774285Y-101909080D02*
X179653333Y-101848603D01*
X179653333Y-101848603D02*
X179592856Y-101788127D01*
X179592856Y-101788127D02*
X179532380Y-101667175D01*
X179532380Y-101667175D02*
X179532380Y-101546222D01*
X179532380Y-101546222D02*
X179592856Y-101425270D01*
X179592856Y-101425270D02*
X179653333Y-101364794D01*
X179653333Y-101364794D02*
X179774285Y-101304318D01*
X179774285Y-101304318D02*
X180076666Y-101304318D01*
X180076666Y-101304318D02*
X180258095Y-101364794D01*
X181467619Y-102574318D02*
X180741904Y-102574318D01*
X181104761Y-102574318D02*
X181104761Y-101304318D01*
X181104761Y-101304318D02*
X180983809Y-101485746D01*
X180983809Y-101485746D02*
X180862857Y-101606699D01*
X180862857Y-101606699D02*
X180741904Y-101667175D01*
D11*
X213604819Y-117158571D02*
X213081009Y-117158571D01*
X213081009Y-117158571D02*
X212985771Y-117206190D01*
X212985771Y-117206190D02*
X212938152Y-117301428D01*
X212938152Y-117301428D02*
X212938152Y-117491904D01*
X212938152Y-117491904D02*
X212985771Y-117587142D01*
X213557200Y-117158571D02*
X213604819Y-117253809D01*
X213604819Y-117253809D02*
X213604819Y-117491904D01*
X213604819Y-117491904D02*
X213557200Y-117587142D01*
X213557200Y-117587142D02*
X213461961Y-117634761D01*
X213461961Y-117634761D02*
X213366723Y-117634761D01*
X213366723Y-117634761D02*
X213271485Y-117587142D01*
X213271485Y-117587142D02*
X213223866Y-117491904D01*
X213223866Y-117491904D02*
X213223866Y-117253809D01*
X213223866Y-117253809D02*
X213176247Y-117158571D01*
X213604819Y-116682380D02*
X212938152Y-116682380D01*
X213033390Y-116682380D02*
X212985771Y-116634761D01*
X212985771Y-116634761D02*
X212938152Y-116539523D01*
X212938152Y-116539523D02*
X212938152Y-116396666D01*
X212938152Y-116396666D02*
X212985771Y-116301428D01*
X212985771Y-116301428D02*
X213081009Y-116253809D01*
X213081009Y-116253809D02*
X213604819Y-116253809D01*
X213081009Y-116253809D02*
X212985771Y-116206190D01*
X212985771Y-116206190D02*
X212938152Y-116110952D01*
X212938152Y-116110952D02*
X212938152Y-115968095D01*
X212938152Y-115968095D02*
X212985771Y-115872856D01*
X212985771Y-115872856D02*
X213081009Y-115825237D01*
X213081009Y-115825237D02*
X213604819Y-115825237D01*
X213604819Y-114825238D02*
X213604819Y-115396666D01*
X213604819Y-115110952D02*
X212604819Y-115110952D01*
X212604819Y-115110952D02*
X212747676Y-115206190D01*
X212747676Y-115206190D02*
X212842914Y-115301428D01*
X212842914Y-115301428D02*
X212890533Y-115396666D01*
X199209819Y-99925094D02*
X198209819Y-99925094D01*
X198209819Y-99925094D02*
X198209819Y-99686999D01*
X198209819Y-99686999D02*
X198257438Y-99544142D01*
X198257438Y-99544142D02*
X198352676Y-99448904D01*
X198352676Y-99448904D02*
X198447914Y-99401285D01*
X198447914Y-99401285D02*
X198638390Y-99353666D01*
X198638390Y-99353666D02*
X198781247Y-99353666D01*
X198781247Y-99353666D02*
X198971723Y-99401285D01*
X198971723Y-99401285D02*
X199066961Y-99448904D01*
X199066961Y-99448904D02*
X199162200Y-99544142D01*
X199162200Y-99544142D02*
X199209819Y-99686999D01*
X199209819Y-99686999D02*
X199209819Y-99925094D01*
X199209819Y-98401285D02*
X199209819Y-98972713D01*
X199209819Y-98686999D02*
X198209819Y-98686999D01*
X198209819Y-98686999D02*
X198352676Y-98782237D01*
X198352676Y-98782237D02*
X198447914Y-98877475D01*
X198447914Y-98877475D02*
X198495533Y-98972713D01*
X217639580Y-114375357D02*
X217687200Y-114422976D01*
X217687200Y-114422976D02*
X217734819Y-114565833D01*
X217734819Y-114565833D02*
X217734819Y-114661071D01*
X217734819Y-114661071D02*
X217687200Y-114803928D01*
X217687200Y-114803928D02*
X217591961Y-114899166D01*
X217591961Y-114899166D02*
X217496723Y-114946785D01*
X217496723Y-114946785D02*
X217306247Y-114994404D01*
X217306247Y-114994404D02*
X217163390Y-114994404D01*
X217163390Y-114994404D02*
X216972914Y-114946785D01*
X216972914Y-114946785D02*
X216877676Y-114899166D01*
X216877676Y-114899166D02*
X216782438Y-114803928D01*
X216782438Y-114803928D02*
X216734819Y-114661071D01*
X216734819Y-114661071D02*
X216734819Y-114565833D01*
X216734819Y-114565833D02*
X216782438Y-114422976D01*
X216782438Y-114422976D02*
X216830057Y-114375357D01*
X217734819Y-113422976D02*
X217734819Y-113994404D01*
X217734819Y-113708690D02*
X216734819Y-113708690D01*
X216734819Y-113708690D02*
X216877676Y-113803928D01*
X216877676Y-113803928D02*
X216972914Y-113899166D01*
X216972914Y-113899166D02*
X217020533Y-113994404D01*
X217163390Y-112851547D02*
X217115771Y-112946785D01*
X217115771Y-112946785D02*
X217068152Y-112994404D01*
X217068152Y-112994404D02*
X216972914Y-113042023D01*
X216972914Y-113042023D02*
X216925295Y-113042023D01*
X216925295Y-113042023D02*
X216830057Y-112994404D01*
X216830057Y-112994404D02*
X216782438Y-112946785D01*
X216782438Y-112946785D02*
X216734819Y-112851547D01*
X216734819Y-112851547D02*
X216734819Y-112661071D01*
X216734819Y-112661071D02*
X216782438Y-112565833D01*
X216782438Y-112565833D02*
X216830057Y-112518214D01*
X216830057Y-112518214D02*
X216925295Y-112470595D01*
X216925295Y-112470595D02*
X216972914Y-112470595D01*
X216972914Y-112470595D02*
X217068152Y-112518214D01*
X217068152Y-112518214D02*
X217115771Y-112565833D01*
X217115771Y-112565833D02*
X217163390Y-112661071D01*
X217163390Y-112661071D02*
X217163390Y-112851547D01*
X217163390Y-112851547D02*
X217211009Y-112946785D01*
X217211009Y-112946785D02*
X217258628Y-112994404D01*
X217258628Y-112994404D02*
X217353866Y-113042023D01*
X217353866Y-113042023D02*
X217544342Y-113042023D01*
X217544342Y-113042023D02*
X217639580Y-112994404D01*
X217639580Y-112994404D02*
X217687200Y-112946785D01*
X217687200Y-112946785D02*
X217734819Y-112851547D01*
X217734819Y-112851547D02*
X217734819Y-112661071D01*
X217734819Y-112661071D02*
X217687200Y-112565833D01*
X217687200Y-112565833D02*
X217639580Y-112518214D01*
X217639580Y-112518214D02*
X217544342Y-112470595D01*
X217544342Y-112470595D02*
X217353866Y-112470595D01*
X217353866Y-112470595D02*
X217258628Y-112518214D01*
X217258628Y-112518214D02*
X217211009Y-112565833D01*
X217211009Y-112565833D02*
X217163390Y-112661071D01*
X170333333Y-104954819D02*
X170000000Y-104478628D01*
X169761905Y-104954819D02*
X169761905Y-103954819D01*
X169761905Y-103954819D02*
X170142857Y-103954819D01*
X170142857Y-103954819D02*
X170238095Y-104002438D01*
X170238095Y-104002438D02*
X170285714Y-104050057D01*
X170285714Y-104050057D02*
X170333333Y-104145295D01*
X170333333Y-104145295D02*
X170333333Y-104288152D01*
X170333333Y-104288152D02*
X170285714Y-104383390D01*
X170285714Y-104383390D02*
X170238095Y-104431009D01*
X170238095Y-104431009D02*
X170142857Y-104478628D01*
X170142857Y-104478628D02*
X169761905Y-104478628D01*
X170666667Y-103954819D02*
X171285714Y-103954819D01*
X171285714Y-103954819D02*
X170952381Y-104335771D01*
X170952381Y-104335771D02*
X171095238Y-104335771D01*
X171095238Y-104335771D02*
X171190476Y-104383390D01*
X171190476Y-104383390D02*
X171238095Y-104431009D01*
X171238095Y-104431009D02*
X171285714Y-104526247D01*
X171285714Y-104526247D02*
X171285714Y-104764342D01*
X171285714Y-104764342D02*
X171238095Y-104859580D01*
X171238095Y-104859580D02*
X171190476Y-104907200D01*
X171190476Y-104907200D02*
X171095238Y-104954819D01*
X171095238Y-104954819D02*
X170809524Y-104954819D01*
X170809524Y-104954819D02*
X170714286Y-104907200D01*
X170714286Y-104907200D02*
X170666667Y-104859580D01*
X212039580Y-107322857D02*
X212087200Y-107370476D01*
X212087200Y-107370476D02*
X212134819Y-107513333D01*
X212134819Y-107513333D02*
X212134819Y-107608571D01*
X212134819Y-107608571D02*
X212087200Y-107751428D01*
X212087200Y-107751428D02*
X211991961Y-107846666D01*
X211991961Y-107846666D02*
X211896723Y-107894285D01*
X211896723Y-107894285D02*
X211706247Y-107941904D01*
X211706247Y-107941904D02*
X211563390Y-107941904D01*
X211563390Y-107941904D02*
X211372914Y-107894285D01*
X211372914Y-107894285D02*
X211277676Y-107846666D01*
X211277676Y-107846666D02*
X211182438Y-107751428D01*
X211182438Y-107751428D02*
X211134819Y-107608571D01*
X211134819Y-107608571D02*
X211134819Y-107513333D01*
X211134819Y-107513333D02*
X211182438Y-107370476D01*
X211182438Y-107370476D02*
X211230057Y-107322857D01*
X212134819Y-106370476D02*
X212134819Y-106941904D01*
X212134819Y-106656190D02*
X211134819Y-106656190D01*
X211134819Y-106656190D02*
X211277676Y-106751428D01*
X211277676Y-106751428D02*
X211372914Y-106846666D01*
X211372914Y-106846666D02*
X211420533Y-106941904D01*
X212134819Y-105418095D02*
X212134819Y-105989523D01*
X212134819Y-105703809D02*
X211134819Y-105703809D01*
X211134819Y-105703809D02*
X211277676Y-105799047D01*
X211277676Y-105799047D02*
X211372914Y-105894285D01*
X211372914Y-105894285D02*
X211420533Y-105989523D01*
X154238095Y-117956819D02*
X154809523Y-117956819D01*
X154523809Y-118956819D02*
X154523809Y-117956819D01*
X155142857Y-118956819D02*
X155142857Y-117956819D01*
X155142857Y-117956819D02*
X155523809Y-117956819D01*
X155523809Y-117956819D02*
X155619047Y-118004438D01*
X155619047Y-118004438D02*
X155666666Y-118052057D01*
X155666666Y-118052057D02*
X155714285Y-118147295D01*
X155714285Y-118147295D02*
X155714285Y-118290152D01*
X155714285Y-118290152D02*
X155666666Y-118385390D01*
X155666666Y-118385390D02*
X155619047Y-118433009D01*
X155619047Y-118433009D02*
X155523809Y-118480628D01*
X155523809Y-118480628D02*
X155142857Y-118480628D01*
X156047619Y-117956819D02*
X156666666Y-117956819D01*
X156666666Y-117956819D02*
X156333333Y-118337771D01*
X156333333Y-118337771D02*
X156476190Y-118337771D01*
X156476190Y-118337771D02*
X156571428Y-118385390D01*
X156571428Y-118385390D02*
X156619047Y-118433009D01*
X156619047Y-118433009D02*
X156666666Y-118528247D01*
X156666666Y-118528247D02*
X156666666Y-118766342D01*
X156666666Y-118766342D02*
X156619047Y-118861580D01*
X156619047Y-118861580D02*
X156571428Y-118909200D01*
X156571428Y-118909200D02*
X156476190Y-118956819D01*
X156476190Y-118956819D02*
X156190476Y-118956819D01*
X156190476Y-118956819D02*
X156095238Y-118909200D01*
X156095238Y-118909200D02*
X156047619Y-118861580D01*
X160679580Y-92572857D02*
X160727200Y-92620476D01*
X160727200Y-92620476D02*
X160774819Y-92763333D01*
X160774819Y-92763333D02*
X160774819Y-92858571D01*
X160774819Y-92858571D02*
X160727200Y-93001428D01*
X160727200Y-93001428D02*
X160631961Y-93096666D01*
X160631961Y-93096666D02*
X160536723Y-93144285D01*
X160536723Y-93144285D02*
X160346247Y-93191904D01*
X160346247Y-93191904D02*
X160203390Y-93191904D01*
X160203390Y-93191904D02*
X160012914Y-93144285D01*
X160012914Y-93144285D02*
X159917676Y-93096666D01*
X159917676Y-93096666D02*
X159822438Y-93001428D01*
X159822438Y-93001428D02*
X159774819Y-92858571D01*
X159774819Y-92858571D02*
X159774819Y-92763333D01*
X159774819Y-92763333D02*
X159822438Y-92620476D01*
X159822438Y-92620476D02*
X159870057Y-92572857D01*
X159870057Y-92191904D02*
X159822438Y-92144285D01*
X159822438Y-92144285D02*
X159774819Y-92049047D01*
X159774819Y-92049047D02*
X159774819Y-91810952D01*
X159774819Y-91810952D02*
X159822438Y-91715714D01*
X159822438Y-91715714D02*
X159870057Y-91668095D01*
X159870057Y-91668095D02*
X159965295Y-91620476D01*
X159965295Y-91620476D02*
X160060533Y-91620476D01*
X160060533Y-91620476D02*
X160203390Y-91668095D01*
X160203390Y-91668095D02*
X160774819Y-92239523D01*
X160774819Y-92239523D02*
X160774819Y-91620476D01*
X160774819Y-90668095D02*
X160774819Y-91239523D01*
X160774819Y-90953809D02*
X159774819Y-90953809D01*
X159774819Y-90953809D02*
X159917676Y-91049047D01*
X159917676Y-91049047D02*
X160012914Y-91144285D01*
X160012914Y-91144285D02*
X160060533Y-91239523D01*
X214638095Y-96516819D02*
X215209523Y-96516819D01*
X214923809Y-97516819D02*
X214923809Y-96516819D01*
X215542857Y-97516819D02*
X215542857Y-96516819D01*
X215542857Y-96516819D02*
X215923809Y-96516819D01*
X215923809Y-96516819D02*
X216019047Y-96564438D01*
X216019047Y-96564438D02*
X216066666Y-96612057D01*
X216066666Y-96612057D02*
X216114285Y-96707295D01*
X216114285Y-96707295D02*
X216114285Y-96850152D01*
X216114285Y-96850152D02*
X216066666Y-96945390D01*
X216066666Y-96945390D02*
X216019047Y-96993009D01*
X216019047Y-96993009D02*
X215923809Y-97040628D01*
X215923809Y-97040628D02*
X215542857Y-97040628D01*
X216447619Y-96516819D02*
X217114285Y-96516819D01*
X217114285Y-96516819D02*
X216685714Y-97516819D01*
X226407200Y-96333332D02*
X226454819Y-96190475D01*
X226454819Y-96190475D02*
X226454819Y-95952380D01*
X226454819Y-95952380D02*
X226407200Y-95857142D01*
X226407200Y-95857142D02*
X226359580Y-95809523D01*
X226359580Y-95809523D02*
X226264342Y-95761904D01*
X226264342Y-95761904D02*
X226169104Y-95761904D01*
X226169104Y-95761904D02*
X226073866Y-95809523D01*
X226073866Y-95809523D02*
X226026247Y-95857142D01*
X226026247Y-95857142D02*
X225978628Y-95952380D01*
X225978628Y-95952380D02*
X225931009Y-96142856D01*
X225931009Y-96142856D02*
X225883390Y-96238094D01*
X225883390Y-96238094D02*
X225835771Y-96285713D01*
X225835771Y-96285713D02*
X225740533Y-96333332D01*
X225740533Y-96333332D02*
X225645295Y-96333332D01*
X225645295Y-96333332D02*
X225550057Y-96285713D01*
X225550057Y-96285713D02*
X225502438Y-96238094D01*
X225502438Y-96238094D02*
X225454819Y-96142856D01*
X225454819Y-96142856D02*
X225454819Y-95904761D01*
X225454819Y-95904761D02*
X225502438Y-95761904D01*
X225454819Y-95428570D02*
X226454819Y-95190475D01*
X226454819Y-95190475D02*
X225740533Y-94999999D01*
X225740533Y-94999999D02*
X226454819Y-94809523D01*
X226454819Y-94809523D02*
X225454819Y-94571428D01*
X226454819Y-93666666D02*
X226454819Y-94238094D01*
X226454819Y-93952380D02*
X225454819Y-93952380D01*
X225454819Y-93952380D02*
X225597676Y-94047618D01*
X225597676Y-94047618D02*
X225692914Y-94142856D01*
X225692914Y-94142856D02*
X225740533Y-94238094D01*
X214416666Y-122114819D02*
X214416666Y-122829104D01*
X214416666Y-122829104D02*
X214369047Y-122971961D01*
X214369047Y-122971961D02*
X214273809Y-123067200D01*
X214273809Y-123067200D02*
X214130952Y-123114819D01*
X214130952Y-123114819D02*
X214035714Y-123114819D01*
X214892857Y-123114819D02*
X214892857Y-122114819D01*
X214892857Y-122114819D02*
X215273809Y-122114819D01*
X215273809Y-122114819D02*
X215369047Y-122162438D01*
X215369047Y-122162438D02*
X215416666Y-122210057D01*
X215416666Y-122210057D02*
X215464285Y-122305295D01*
X215464285Y-122305295D02*
X215464285Y-122448152D01*
X215464285Y-122448152D02*
X215416666Y-122543390D01*
X215416666Y-122543390D02*
X215369047Y-122591009D01*
X215369047Y-122591009D02*
X215273809Y-122638628D01*
X215273809Y-122638628D02*
X214892857Y-122638628D01*
X215940476Y-123114819D02*
X216130952Y-123114819D01*
X216130952Y-123114819D02*
X216226190Y-123067200D01*
X216226190Y-123067200D02*
X216273809Y-123019580D01*
X216273809Y-123019580D02*
X216369047Y-122876723D01*
X216369047Y-122876723D02*
X216416666Y-122686247D01*
X216416666Y-122686247D02*
X216416666Y-122305295D01*
X216416666Y-122305295D02*
X216369047Y-122210057D01*
X216369047Y-122210057D02*
X216321428Y-122162438D01*
X216321428Y-122162438D02*
X216226190Y-122114819D01*
X216226190Y-122114819D02*
X216035714Y-122114819D01*
X216035714Y-122114819D02*
X215940476Y-122162438D01*
X215940476Y-122162438D02*
X215892857Y-122210057D01*
X215892857Y-122210057D02*
X215845238Y-122305295D01*
X215845238Y-122305295D02*
X215845238Y-122543390D01*
X215845238Y-122543390D02*
X215892857Y-122638628D01*
X215892857Y-122638628D02*
X215940476Y-122686247D01*
X215940476Y-122686247D02*
X216035714Y-122733866D01*
X216035714Y-122733866D02*
X216226190Y-122733866D01*
X216226190Y-122733866D02*
X216321428Y-122686247D01*
X216321428Y-122686247D02*
X216369047Y-122638628D01*
X216369047Y-122638628D02*
X216416666Y-122543390D01*
X196220595Y-104709819D02*
X196220595Y-105519342D01*
X196220595Y-105519342D02*
X196268214Y-105614580D01*
X196268214Y-105614580D02*
X196315833Y-105662200D01*
X196315833Y-105662200D02*
X196411071Y-105709819D01*
X196411071Y-105709819D02*
X196601547Y-105709819D01*
X196601547Y-105709819D02*
X196696785Y-105662200D01*
X196696785Y-105662200D02*
X196744404Y-105614580D01*
X196744404Y-105614580D02*
X196792023Y-105519342D01*
X196792023Y-105519342D02*
X196792023Y-104709819D01*
X197172976Y-104709819D02*
X197792023Y-104709819D01*
X197792023Y-104709819D02*
X197458690Y-105090771D01*
X197458690Y-105090771D02*
X197601547Y-105090771D01*
X197601547Y-105090771D02*
X197696785Y-105138390D01*
X197696785Y-105138390D02*
X197744404Y-105186009D01*
X197744404Y-105186009D02*
X197792023Y-105281247D01*
X197792023Y-105281247D02*
X197792023Y-105519342D01*
X197792023Y-105519342D02*
X197744404Y-105614580D01*
X197744404Y-105614580D02*
X197696785Y-105662200D01*
X197696785Y-105662200D02*
X197601547Y-105709819D01*
X197601547Y-105709819D02*
X197315833Y-105709819D01*
X197315833Y-105709819D02*
X197220595Y-105662200D01*
X197220595Y-105662200D02*
X197172976Y-105614580D01*
X200333333Y-120179580D02*
X200285714Y-120227200D01*
X200285714Y-120227200D02*
X200142857Y-120274819D01*
X200142857Y-120274819D02*
X200047619Y-120274819D01*
X200047619Y-120274819D02*
X199904762Y-120227200D01*
X199904762Y-120227200D02*
X199809524Y-120131961D01*
X199809524Y-120131961D02*
X199761905Y-120036723D01*
X199761905Y-120036723D02*
X199714286Y-119846247D01*
X199714286Y-119846247D02*
X199714286Y-119703390D01*
X199714286Y-119703390D02*
X199761905Y-119512914D01*
X199761905Y-119512914D02*
X199809524Y-119417676D01*
X199809524Y-119417676D02*
X199904762Y-119322438D01*
X199904762Y-119322438D02*
X200047619Y-119274819D01*
X200047619Y-119274819D02*
X200142857Y-119274819D01*
X200142857Y-119274819D02*
X200285714Y-119322438D01*
X200285714Y-119322438D02*
X200333333Y-119370057D01*
X200666667Y-119274819D02*
X201285714Y-119274819D01*
X201285714Y-119274819D02*
X200952381Y-119655771D01*
X200952381Y-119655771D02*
X201095238Y-119655771D01*
X201095238Y-119655771D02*
X201190476Y-119703390D01*
X201190476Y-119703390D02*
X201238095Y-119751009D01*
X201238095Y-119751009D02*
X201285714Y-119846247D01*
X201285714Y-119846247D02*
X201285714Y-120084342D01*
X201285714Y-120084342D02*
X201238095Y-120179580D01*
X201238095Y-120179580D02*
X201190476Y-120227200D01*
X201190476Y-120227200D02*
X201095238Y-120274819D01*
X201095238Y-120274819D02*
X200809524Y-120274819D01*
X200809524Y-120274819D02*
X200714286Y-120227200D01*
X200714286Y-120227200D02*
X200666667Y-120179580D01*
X227338095Y-114296819D02*
X227909523Y-114296819D01*
X227623809Y-115296819D02*
X227623809Y-114296819D01*
X228242857Y-115296819D02*
X228242857Y-114296819D01*
X228242857Y-114296819D02*
X228623809Y-114296819D01*
X228623809Y-114296819D02*
X228719047Y-114344438D01*
X228719047Y-114344438D02*
X228766666Y-114392057D01*
X228766666Y-114392057D02*
X228814285Y-114487295D01*
X228814285Y-114487295D02*
X228814285Y-114630152D01*
X228814285Y-114630152D02*
X228766666Y-114725390D01*
X228766666Y-114725390D02*
X228719047Y-114773009D01*
X228719047Y-114773009D02*
X228623809Y-114820628D01*
X228623809Y-114820628D02*
X228242857Y-114820628D01*
X229290476Y-115296819D02*
X229480952Y-115296819D01*
X229480952Y-115296819D02*
X229576190Y-115249200D01*
X229576190Y-115249200D02*
X229623809Y-115201580D01*
X229623809Y-115201580D02*
X229719047Y-115058723D01*
X229719047Y-115058723D02*
X229766666Y-114868247D01*
X229766666Y-114868247D02*
X229766666Y-114487295D01*
X229766666Y-114487295D02*
X229719047Y-114392057D01*
X229719047Y-114392057D02*
X229671428Y-114344438D01*
X229671428Y-114344438D02*
X229576190Y-114296819D01*
X229576190Y-114296819D02*
X229385714Y-114296819D01*
X229385714Y-114296819D02*
X229290476Y-114344438D01*
X229290476Y-114344438D02*
X229242857Y-114392057D01*
X229242857Y-114392057D02*
X229195238Y-114487295D01*
X229195238Y-114487295D02*
X229195238Y-114725390D01*
X229195238Y-114725390D02*
X229242857Y-114820628D01*
X229242857Y-114820628D02*
X229290476Y-114868247D01*
X229290476Y-114868247D02*
X229385714Y-114915866D01*
X229385714Y-114915866D02*
X229576190Y-114915866D01*
X229576190Y-114915866D02*
X229671428Y-114868247D01*
X229671428Y-114868247D02*
X229719047Y-114820628D01*
X229719047Y-114820628D02*
X229766666Y-114725390D01*
X151787319Y-96738094D02*
X152596842Y-96738094D01*
X152596842Y-96738094D02*
X152692080Y-96690475D01*
X152692080Y-96690475D02*
X152739700Y-96642856D01*
X152739700Y-96642856D02*
X152787319Y-96547618D01*
X152787319Y-96547618D02*
X152787319Y-96357142D01*
X152787319Y-96357142D02*
X152739700Y-96261904D01*
X152739700Y-96261904D02*
X152692080Y-96214285D01*
X152692080Y-96214285D02*
X152596842Y-96166666D01*
X152596842Y-96166666D02*
X151787319Y-96166666D01*
X152787319Y-95166666D02*
X152787319Y-95738094D01*
X152787319Y-95452380D02*
X151787319Y-95452380D01*
X151787319Y-95452380D02*
X151930176Y-95547618D01*
X151930176Y-95547618D02*
X152025414Y-95642856D01*
X152025414Y-95642856D02*
X152073033Y-95738094D01*
X151787319Y-94547618D02*
X151787319Y-94452380D01*
X151787319Y-94452380D02*
X151834938Y-94357142D01*
X151834938Y-94357142D02*
X151882557Y-94309523D01*
X151882557Y-94309523D02*
X151977795Y-94261904D01*
X151977795Y-94261904D02*
X152168271Y-94214285D01*
X152168271Y-94214285D02*
X152406366Y-94214285D01*
X152406366Y-94214285D02*
X152596842Y-94261904D01*
X152596842Y-94261904D02*
X152692080Y-94309523D01*
X152692080Y-94309523D02*
X152739700Y-94357142D01*
X152739700Y-94357142D02*
X152787319Y-94452380D01*
X152787319Y-94452380D02*
X152787319Y-94547618D01*
X152787319Y-94547618D02*
X152739700Y-94642856D01*
X152739700Y-94642856D02*
X152692080Y-94690475D01*
X152692080Y-94690475D02*
X152596842Y-94738094D01*
X152596842Y-94738094D02*
X152406366Y-94785713D01*
X152406366Y-94785713D02*
X152168271Y-94785713D01*
X152168271Y-94785713D02*
X151977795Y-94738094D01*
X151977795Y-94738094D02*
X151882557Y-94690475D01*
X151882557Y-94690475D02*
X151834938Y-94642856D01*
X151834938Y-94642856D02*
X151787319Y-94547618D01*
X195599166Y-105394819D02*
X195599166Y-106109104D01*
X195599166Y-106109104D02*
X195551547Y-106251961D01*
X195551547Y-106251961D02*
X195456309Y-106347200D01*
X195456309Y-106347200D02*
X195313452Y-106394819D01*
X195313452Y-106394819D02*
X195218214Y-106394819D01*
X196075357Y-106394819D02*
X196075357Y-105394819D01*
X196075357Y-105394819D02*
X196456309Y-105394819D01*
X196456309Y-105394819D02*
X196551547Y-105442438D01*
X196551547Y-105442438D02*
X196599166Y-105490057D01*
X196599166Y-105490057D02*
X196646785Y-105585295D01*
X196646785Y-105585295D02*
X196646785Y-105728152D01*
X196646785Y-105728152D02*
X196599166Y-105823390D01*
X196599166Y-105823390D02*
X196551547Y-105871009D01*
X196551547Y-105871009D02*
X196456309Y-105918628D01*
X196456309Y-105918628D02*
X196075357Y-105918628D01*
X196980119Y-105394819D02*
X197646785Y-105394819D01*
X197646785Y-105394819D02*
X197218214Y-106394819D01*
X164039580Y-96642857D02*
X164087200Y-96690476D01*
X164087200Y-96690476D02*
X164134819Y-96833333D01*
X164134819Y-96833333D02*
X164134819Y-96928571D01*
X164134819Y-96928571D02*
X164087200Y-97071428D01*
X164087200Y-97071428D02*
X163991961Y-97166666D01*
X163991961Y-97166666D02*
X163896723Y-97214285D01*
X163896723Y-97214285D02*
X163706247Y-97261904D01*
X163706247Y-97261904D02*
X163563390Y-97261904D01*
X163563390Y-97261904D02*
X163372914Y-97214285D01*
X163372914Y-97214285D02*
X163277676Y-97166666D01*
X163277676Y-97166666D02*
X163182438Y-97071428D01*
X163182438Y-97071428D02*
X163134819Y-96928571D01*
X163134819Y-96928571D02*
X163134819Y-96833333D01*
X163134819Y-96833333D02*
X163182438Y-96690476D01*
X163182438Y-96690476D02*
X163230057Y-96642857D01*
X164134819Y-95690476D02*
X164134819Y-96261904D01*
X164134819Y-95976190D02*
X163134819Y-95976190D01*
X163134819Y-95976190D02*
X163277676Y-96071428D01*
X163277676Y-96071428D02*
X163372914Y-96166666D01*
X163372914Y-96166666D02*
X163420533Y-96261904D01*
X164134819Y-95214285D02*
X164134819Y-95023809D01*
X164134819Y-95023809D02*
X164087200Y-94928571D01*
X164087200Y-94928571D02*
X164039580Y-94880952D01*
X164039580Y-94880952D02*
X163896723Y-94785714D01*
X163896723Y-94785714D02*
X163706247Y-94738095D01*
X163706247Y-94738095D02*
X163325295Y-94738095D01*
X163325295Y-94738095D02*
X163230057Y-94785714D01*
X163230057Y-94785714D02*
X163182438Y-94833333D01*
X163182438Y-94833333D02*
X163134819Y-94928571D01*
X163134819Y-94928571D02*
X163134819Y-95119047D01*
X163134819Y-95119047D02*
X163182438Y-95214285D01*
X163182438Y-95214285D02*
X163230057Y-95261904D01*
X163230057Y-95261904D02*
X163325295Y-95309523D01*
X163325295Y-95309523D02*
X163563390Y-95309523D01*
X163563390Y-95309523D02*
X163658628Y-95261904D01*
X163658628Y-95261904D02*
X163706247Y-95214285D01*
X163706247Y-95214285D02*
X163753866Y-95119047D01*
X163753866Y-95119047D02*
X163753866Y-94928571D01*
X163753866Y-94928571D02*
X163706247Y-94833333D01*
X163706247Y-94833333D02*
X163658628Y-94785714D01*
X163658628Y-94785714D02*
X163563390Y-94738095D01*
X222154819Y-122086666D02*
X221678628Y-122419999D01*
X222154819Y-122658094D02*
X221154819Y-122658094D01*
X221154819Y-122658094D02*
X221154819Y-122277142D01*
X221154819Y-122277142D02*
X221202438Y-122181904D01*
X221202438Y-122181904D02*
X221250057Y-122134285D01*
X221250057Y-122134285D02*
X221345295Y-122086666D01*
X221345295Y-122086666D02*
X221488152Y-122086666D01*
X221488152Y-122086666D02*
X221583390Y-122134285D01*
X221583390Y-122134285D02*
X221631009Y-122181904D01*
X221631009Y-122181904D02*
X221678628Y-122277142D01*
X221678628Y-122277142D02*
X221678628Y-122658094D01*
X222154819Y-121610475D02*
X222154819Y-121419999D01*
X222154819Y-121419999D02*
X222107200Y-121324761D01*
X222107200Y-121324761D02*
X222059580Y-121277142D01*
X222059580Y-121277142D02*
X221916723Y-121181904D01*
X221916723Y-121181904D02*
X221726247Y-121134285D01*
X221726247Y-121134285D02*
X221345295Y-121134285D01*
X221345295Y-121134285D02*
X221250057Y-121181904D01*
X221250057Y-121181904D02*
X221202438Y-121229523D01*
X221202438Y-121229523D02*
X221154819Y-121324761D01*
X221154819Y-121324761D02*
X221154819Y-121515237D01*
X221154819Y-121515237D02*
X221202438Y-121610475D01*
X221202438Y-121610475D02*
X221250057Y-121658094D01*
X221250057Y-121658094D02*
X221345295Y-121705713D01*
X221345295Y-121705713D02*
X221583390Y-121705713D01*
X221583390Y-121705713D02*
X221678628Y-121658094D01*
X221678628Y-121658094D02*
X221726247Y-121610475D01*
X221726247Y-121610475D02*
X221773866Y-121515237D01*
X221773866Y-121515237D02*
X221773866Y-121324761D01*
X221773866Y-121324761D02*
X221726247Y-121229523D01*
X221726247Y-121229523D02*
X221678628Y-121181904D01*
X221678628Y-121181904D02*
X221583390Y-121134285D01*
D13*
X163639519Y-100505616D02*
X163658267Y-100524364D01*
X163658267Y-100524364D02*
X163677014Y-100580607D01*
X163677014Y-100580607D02*
X163677014Y-100618102D01*
X163677014Y-100618102D02*
X163658267Y-100674345D01*
X163658267Y-100674345D02*
X163620771Y-100711841D01*
X163620771Y-100711841D02*
X163583276Y-100730588D01*
X163583276Y-100730588D02*
X163508285Y-100749336D01*
X163508285Y-100749336D02*
X163452042Y-100749336D01*
X163452042Y-100749336D02*
X163377052Y-100730588D01*
X163377052Y-100730588D02*
X163339556Y-100711841D01*
X163339556Y-100711841D02*
X163302061Y-100674345D01*
X163302061Y-100674345D02*
X163283313Y-100618102D01*
X163283313Y-100618102D02*
X163283313Y-100580607D01*
X163283313Y-100580607D02*
X163302061Y-100524364D01*
X163302061Y-100524364D02*
X163320809Y-100505616D01*
X163452042Y-100280644D02*
X163433295Y-100318140D01*
X163433295Y-100318140D02*
X163414547Y-100336887D01*
X163414547Y-100336887D02*
X163377052Y-100355635D01*
X163377052Y-100355635D02*
X163358304Y-100355635D01*
X163358304Y-100355635D02*
X163320809Y-100336887D01*
X163320809Y-100336887D02*
X163302061Y-100318140D01*
X163302061Y-100318140D02*
X163283313Y-100280644D01*
X163283313Y-100280644D02*
X163283313Y-100205654D01*
X163283313Y-100205654D02*
X163302061Y-100168158D01*
X163302061Y-100168158D02*
X163320809Y-100149411D01*
X163320809Y-100149411D02*
X163358304Y-100130663D01*
X163358304Y-100130663D02*
X163377052Y-100130663D01*
X163377052Y-100130663D02*
X163414547Y-100149411D01*
X163414547Y-100149411D02*
X163433295Y-100168158D01*
X163433295Y-100168158D02*
X163452042Y-100205654D01*
X163452042Y-100205654D02*
X163452042Y-100280644D01*
X163452042Y-100280644D02*
X163470790Y-100318140D01*
X163470790Y-100318140D02*
X163489538Y-100336887D01*
X163489538Y-100336887D02*
X163527033Y-100355635D01*
X163527033Y-100355635D02*
X163602024Y-100355635D01*
X163602024Y-100355635D02*
X163639519Y-100336887D01*
X163639519Y-100336887D02*
X163658267Y-100318140D01*
X163658267Y-100318140D02*
X163677014Y-100280644D01*
X163677014Y-100280644D02*
X163677014Y-100205654D01*
X163677014Y-100205654D02*
X163658267Y-100168158D01*
X163658267Y-100168158D02*
X163639519Y-100149411D01*
X163639519Y-100149411D02*
X163602024Y-100130663D01*
X163602024Y-100130663D02*
X163527033Y-100130663D01*
X163527033Y-100130663D02*
X163489538Y-100149411D01*
X163489538Y-100149411D02*
X163470790Y-100168158D01*
X163470790Y-100168158D02*
X163452042Y-100205654D01*
D11*
X221954819Y-110333333D02*
X222669104Y-110333333D01*
X222669104Y-110333333D02*
X222811961Y-110380952D01*
X222811961Y-110380952D02*
X222907200Y-110476190D01*
X222907200Y-110476190D02*
X222954819Y-110619047D01*
X222954819Y-110619047D02*
X222954819Y-110714285D01*
X222954819Y-109333333D02*
X222954819Y-109904761D01*
X222954819Y-109619047D02*
X221954819Y-109619047D01*
X221954819Y-109619047D02*
X222097676Y-109714285D01*
X222097676Y-109714285D02*
X222192914Y-109809523D01*
X222192914Y-109809523D02*
X222240533Y-109904761D01*
X206679580Y-125666666D02*
X206727200Y-125714285D01*
X206727200Y-125714285D02*
X206774819Y-125857142D01*
X206774819Y-125857142D02*
X206774819Y-125952380D01*
X206774819Y-125952380D02*
X206727200Y-126095237D01*
X206727200Y-126095237D02*
X206631961Y-126190475D01*
X206631961Y-126190475D02*
X206536723Y-126238094D01*
X206536723Y-126238094D02*
X206346247Y-126285713D01*
X206346247Y-126285713D02*
X206203390Y-126285713D01*
X206203390Y-126285713D02*
X206012914Y-126238094D01*
X206012914Y-126238094D02*
X205917676Y-126190475D01*
X205917676Y-126190475D02*
X205822438Y-126095237D01*
X205822438Y-126095237D02*
X205774819Y-125952380D01*
X205774819Y-125952380D02*
X205774819Y-125857142D01*
X205774819Y-125857142D02*
X205822438Y-125714285D01*
X205822438Y-125714285D02*
X205870057Y-125666666D01*
X206774819Y-124714285D02*
X206774819Y-125285713D01*
X206774819Y-124999999D02*
X205774819Y-124999999D01*
X205774819Y-124999999D02*
X205917676Y-125095237D01*
X205917676Y-125095237D02*
X206012914Y-125190475D01*
X206012914Y-125190475D02*
X206060533Y-125285713D01*
X169816666Y-80254819D02*
X169816666Y-80969104D01*
X169816666Y-80969104D02*
X169769047Y-81111961D01*
X169769047Y-81111961D02*
X169673809Y-81207200D01*
X169673809Y-81207200D02*
X169530952Y-81254819D01*
X169530952Y-81254819D02*
X169435714Y-81254819D01*
X170292857Y-81254819D02*
X170292857Y-80254819D01*
X170292857Y-80254819D02*
X170673809Y-80254819D01*
X170673809Y-80254819D02*
X170769047Y-80302438D01*
X170769047Y-80302438D02*
X170816666Y-80350057D01*
X170816666Y-80350057D02*
X170864285Y-80445295D01*
X170864285Y-80445295D02*
X170864285Y-80588152D01*
X170864285Y-80588152D02*
X170816666Y-80683390D01*
X170816666Y-80683390D02*
X170769047Y-80731009D01*
X170769047Y-80731009D02*
X170673809Y-80778628D01*
X170673809Y-80778628D02*
X170292857Y-80778628D01*
X171721428Y-80588152D02*
X171721428Y-81254819D01*
X171483333Y-80207200D02*
X171245238Y-80921485D01*
X171245238Y-80921485D02*
X171864285Y-80921485D01*
X161316666Y-84154819D02*
X161316666Y-84869104D01*
X161316666Y-84869104D02*
X161269047Y-85011961D01*
X161269047Y-85011961D02*
X161173809Y-85107200D01*
X161173809Y-85107200D02*
X161030952Y-85154819D01*
X161030952Y-85154819D02*
X160935714Y-85154819D01*
X161792857Y-85154819D02*
X161792857Y-84154819D01*
X161792857Y-84154819D02*
X162173809Y-84154819D01*
X162173809Y-84154819D02*
X162269047Y-84202438D01*
X162269047Y-84202438D02*
X162316666Y-84250057D01*
X162316666Y-84250057D02*
X162364285Y-84345295D01*
X162364285Y-84345295D02*
X162364285Y-84488152D01*
X162364285Y-84488152D02*
X162316666Y-84583390D01*
X162316666Y-84583390D02*
X162269047Y-84631009D01*
X162269047Y-84631009D02*
X162173809Y-84678628D01*
X162173809Y-84678628D02*
X161792857Y-84678628D01*
X163316666Y-85154819D02*
X162745238Y-85154819D01*
X163030952Y-85154819D02*
X163030952Y-84154819D01*
X163030952Y-84154819D02*
X162935714Y-84297676D01*
X162935714Y-84297676D02*
X162840476Y-84392914D01*
X162840476Y-84392914D02*
X162745238Y-84440533D01*
X217119580Y-109862857D02*
X217167200Y-109910476D01*
X217167200Y-109910476D02*
X217214819Y-110053333D01*
X217214819Y-110053333D02*
X217214819Y-110148571D01*
X217214819Y-110148571D02*
X217167200Y-110291428D01*
X217167200Y-110291428D02*
X217071961Y-110386666D01*
X217071961Y-110386666D02*
X216976723Y-110434285D01*
X216976723Y-110434285D02*
X216786247Y-110481904D01*
X216786247Y-110481904D02*
X216643390Y-110481904D01*
X216643390Y-110481904D02*
X216452914Y-110434285D01*
X216452914Y-110434285D02*
X216357676Y-110386666D01*
X216357676Y-110386666D02*
X216262438Y-110291428D01*
X216262438Y-110291428D02*
X216214819Y-110148571D01*
X216214819Y-110148571D02*
X216214819Y-110053333D01*
X216214819Y-110053333D02*
X216262438Y-109910476D01*
X216262438Y-109910476D02*
X216310057Y-109862857D01*
X217214819Y-108910476D02*
X217214819Y-109481904D01*
X217214819Y-109196190D02*
X216214819Y-109196190D01*
X216214819Y-109196190D02*
X216357676Y-109291428D01*
X216357676Y-109291428D02*
X216452914Y-109386666D01*
X216452914Y-109386666D02*
X216500533Y-109481904D01*
X216214819Y-108577142D02*
X216214819Y-107910476D01*
X216214819Y-107910476D02*
X217214819Y-108339047D01*
X206959580Y-103745357D02*
X207007200Y-103792976D01*
X207007200Y-103792976D02*
X207054819Y-103935833D01*
X207054819Y-103935833D02*
X207054819Y-104031071D01*
X207054819Y-104031071D02*
X207007200Y-104173928D01*
X207007200Y-104173928D02*
X206911961Y-104269166D01*
X206911961Y-104269166D02*
X206816723Y-104316785D01*
X206816723Y-104316785D02*
X206626247Y-104364404D01*
X206626247Y-104364404D02*
X206483390Y-104364404D01*
X206483390Y-104364404D02*
X206292914Y-104316785D01*
X206292914Y-104316785D02*
X206197676Y-104269166D01*
X206197676Y-104269166D02*
X206102438Y-104173928D01*
X206102438Y-104173928D02*
X206054819Y-104031071D01*
X206054819Y-104031071D02*
X206054819Y-103935833D01*
X206054819Y-103935833D02*
X206102438Y-103792976D01*
X206102438Y-103792976D02*
X206150057Y-103745357D01*
X207054819Y-102792976D02*
X207054819Y-103364404D01*
X207054819Y-103078690D02*
X206054819Y-103078690D01*
X206054819Y-103078690D02*
X206197676Y-103173928D01*
X206197676Y-103173928D02*
X206292914Y-103269166D01*
X206292914Y-103269166D02*
X206340533Y-103364404D01*
X206054819Y-102459642D02*
X206054819Y-101840595D01*
X206054819Y-101840595D02*
X206435771Y-102173928D01*
X206435771Y-102173928D02*
X206435771Y-102031071D01*
X206435771Y-102031071D02*
X206483390Y-101935833D01*
X206483390Y-101935833D02*
X206531009Y-101888214D01*
X206531009Y-101888214D02*
X206626247Y-101840595D01*
X206626247Y-101840595D02*
X206864342Y-101840595D01*
X206864342Y-101840595D02*
X206959580Y-101888214D01*
X206959580Y-101888214D02*
X207007200Y-101935833D01*
X207007200Y-101935833D02*
X207054819Y-102031071D01*
X207054819Y-102031071D02*
X207054819Y-102316785D01*
X207054819Y-102316785D02*
X207007200Y-102412023D01*
X207007200Y-102412023D02*
X206959580Y-102459642D01*
X215240476Y-105394819D02*
X215240476Y-106109104D01*
X215240476Y-106109104D02*
X215192857Y-106251961D01*
X215192857Y-106251961D02*
X215097619Y-106347200D01*
X215097619Y-106347200D02*
X214954762Y-106394819D01*
X214954762Y-106394819D02*
X214859524Y-106394819D01*
X215716667Y-106394819D02*
X215716667Y-105394819D01*
X215716667Y-105394819D02*
X216097619Y-105394819D01*
X216097619Y-105394819D02*
X216192857Y-105442438D01*
X216192857Y-105442438D02*
X216240476Y-105490057D01*
X216240476Y-105490057D02*
X216288095Y-105585295D01*
X216288095Y-105585295D02*
X216288095Y-105728152D01*
X216288095Y-105728152D02*
X216240476Y-105823390D01*
X216240476Y-105823390D02*
X216192857Y-105871009D01*
X216192857Y-105871009D02*
X216097619Y-105918628D01*
X216097619Y-105918628D02*
X215716667Y-105918628D01*
X217240476Y-106394819D02*
X216669048Y-106394819D01*
X216954762Y-106394819D02*
X216954762Y-105394819D01*
X216954762Y-105394819D02*
X216859524Y-105537676D01*
X216859524Y-105537676D02*
X216764286Y-105632914D01*
X216764286Y-105632914D02*
X216669048Y-105680533D01*
X217859524Y-105394819D02*
X217954762Y-105394819D01*
X217954762Y-105394819D02*
X218050000Y-105442438D01*
X218050000Y-105442438D02*
X218097619Y-105490057D01*
X218097619Y-105490057D02*
X218145238Y-105585295D01*
X218145238Y-105585295D02*
X218192857Y-105775771D01*
X218192857Y-105775771D02*
X218192857Y-106013866D01*
X218192857Y-106013866D02*
X218145238Y-106204342D01*
X218145238Y-106204342D02*
X218097619Y-106299580D01*
X218097619Y-106299580D02*
X218050000Y-106347200D01*
X218050000Y-106347200D02*
X217954762Y-106394819D01*
X217954762Y-106394819D02*
X217859524Y-106394819D01*
X217859524Y-106394819D02*
X217764286Y-106347200D01*
X217764286Y-106347200D02*
X217716667Y-106299580D01*
X217716667Y-106299580D02*
X217669048Y-106204342D01*
X217669048Y-106204342D02*
X217621429Y-106013866D01*
X217621429Y-106013866D02*
X217621429Y-105775771D01*
X217621429Y-105775771D02*
X217669048Y-105585295D01*
X217669048Y-105585295D02*
X217716667Y-105490057D01*
X217716667Y-105490057D02*
X217764286Y-105442438D01*
X217764286Y-105442438D02*
X217859524Y-105394819D01*
X194937142Y-87359580D02*
X194889523Y-87407200D01*
X194889523Y-87407200D02*
X194746666Y-87454819D01*
X194746666Y-87454819D02*
X194651428Y-87454819D01*
X194651428Y-87454819D02*
X194508571Y-87407200D01*
X194508571Y-87407200D02*
X194413333Y-87311961D01*
X194413333Y-87311961D02*
X194365714Y-87216723D01*
X194365714Y-87216723D02*
X194318095Y-87026247D01*
X194318095Y-87026247D02*
X194318095Y-86883390D01*
X194318095Y-86883390D02*
X194365714Y-86692914D01*
X194365714Y-86692914D02*
X194413333Y-86597676D01*
X194413333Y-86597676D02*
X194508571Y-86502438D01*
X194508571Y-86502438D02*
X194651428Y-86454819D01*
X194651428Y-86454819D02*
X194746666Y-86454819D01*
X194746666Y-86454819D02*
X194889523Y-86502438D01*
X194889523Y-86502438D02*
X194937142Y-86550057D01*
X195889523Y-87454819D02*
X195318095Y-87454819D01*
X195603809Y-87454819D02*
X195603809Y-86454819D01*
X195603809Y-86454819D02*
X195508571Y-86597676D01*
X195508571Y-86597676D02*
X195413333Y-86692914D01*
X195413333Y-86692914D02*
X195318095Y-86740533D01*
X196746666Y-86788152D02*
X196746666Y-87454819D01*
X196508571Y-86407200D02*
X196270476Y-87121485D01*
X196270476Y-87121485D02*
X196889523Y-87121485D01*
X197144819Y-111101666D02*
X196668628Y-111434999D01*
X197144819Y-111673094D02*
X196144819Y-111673094D01*
X196144819Y-111673094D02*
X196144819Y-111292142D01*
X196144819Y-111292142D02*
X196192438Y-111196904D01*
X196192438Y-111196904D02*
X196240057Y-111149285D01*
X196240057Y-111149285D02*
X196335295Y-111101666D01*
X196335295Y-111101666D02*
X196478152Y-111101666D01*
X196478152Y-111101666D02*
X196573390Y-111149285D01*
X196573390Y-111149285D02*
X196621009Y-111196904D01*
X196621009Y-111196904D02*
X196668628Y-111292142D01*
X196668628Y-111292142D02*
X196668628Y-111673094D01*
X196240057Y-110720713D02*
X196192438Y-110673094D01*
X196192438Y-110673094D02*
X196144819Y-110577856D01*
X196144819Y-110577856D02*
X196144819Y-110339761D01*
X196144819Y-110339761D02*
X196192438Y-110244523D01*
X196192438Y-110244523D02*
X196240057Y-110196904D01*
X196240057Y-110196904D02*
X196335295Y-110149285D01*
X196335295Y-110149285D02*
X196430533Y-110149285D01*
X196430533Y-110149285D02*
X196573390Y-110196904D01*
X196573390Y-110196904D02*
X197144819Y-110768332D01*
X197144819Y-110768332D02*
X197144819Y-110149285D01*
D14*
%TO.C,TP19*%
X185700000Y-125700000D02*
X184300000Y-125700000D01*
X185700000Y-124300000D02*
X185700000Y-125700000D01*
X184300000Y-125700000D02*
X184300000Y-124300000D01*
X184300000Y-124300000D02*
X185700000Y-124300000D01*
%TO.C,R14*%
X189322936Y-129710000D02*
X193677064Y-129710000D01*
X189322936Y-126290000D02*
X193677064Y-126290000D01*
%TO.C,TP10*%
X210800000Y-120800000D02*
X212200000Y-120800000D01*
X210800000Y-122200000D02*
X210800000Y-120800000D01*
X212200000Y-120800000D02*
X212200000Y-122200000D01*
X212200000Y-122200000D02*
X210800000Y-122200000D01*
%TO.C,R12*%
X166677064Y-119710000D02*
X162322936Y-119710000D01*
X166677064Y-116290000D02*
X162322936Y-116290000D01*
%TO.C,JP5*%
X166050000Y-123800000D02*
G75*
G02*
X165350000Y-124500000I-700000J0D01*
G01*
X165350000Y-122500000D02*
G75*
G02*
X166050000Y-123200000I0J-700000D01*
G01*
X163950000Y-124500000D02*
G75*
G02*
X163250000Y-123800000I-1J699999D01*
G01*
X163250000Y-123200000D02*
G75*
G02*
X163950000Y-122500000I699999J1D01*
G01*
X166050000Y-123200000D02*
X166050000Y-123800000D01*
X165350000Y-124500000D02*
X163950000Y-124500000D01*
X163950000Y-122500000D02*
X165350000Y-122500000D01*
X163250000Y-123800000D02*
X163250000Y-123200000D01*
%TO.C,U2*%
X170840000Y-124475000D02*
X170510000Y-124715000D01*
X170510000Y-124235000D01*
X170840000Y-124475000D01*
G36*
X170840000Y-124475000D02*
G01*
X170510000Y-124715000D01*
X170510000Y-124235000D01*
X170840000Y-124475000D01*
G37*
X174750000Y-129485000D02*
X176950000Y-129485000D01*
X174750000Y-129485000D02*
X172550000Y-129485000D01*
X174750000Y-124015000D02*
X176950000Y-124015000D01*
X174750000Y-124015000D02*
X172550000Y-124015000D01*
%TO.C,C5*%
X175701248Y-122235000D02*
X176223752Y-122235000D01*
X175701248Y-120765000D02*
X176223752Y-120765000D01*
%TO.C,C4*%
X180490000Y-122646267D02*
X180490000Y-122353733D01*
X181510000Y-122646267D02*
X181510000Y-122353733D01*
%TO.C,C6*%
X181735000Y-126238748D02*
X181735000Y-126761252D01*
X180265000Y-126238748D02*
X180265000Y-126761252D01*
D15*
%TO.C,J2*%
X160600000Y-106190000D02*
G75*
G02*
X160400000Y-106190000I-100000J0D01*
G01*
X160400000Y-106190000D02*
G75*
G02*
X160600000Y-106190000I100000J0D01*
G01*
D16*
X157350000Y-113860000D02*
X155670000Y-113860000D01*
X157350000Y-104920000D02*
X155670000Y-104920000D01*
X151900000Y-113860000D02*
X153330000Y-113860000D01*
X151900000Y-104920000D02*
X153330000Y-104920000D01*
X151900000Y-104920000D02*
X151900000Y-113860000D01*
D14*
%TO.C,U1*%
X197840000Y-124475000D02*
X197510000Y-124715000D01*
X197510000Y-124235000D01*
X197840000Y-124475000D01*
G36*
X197840000Y-124475000D02*
G01*
X197510000Y-124715000D01*
X197510000Y-124235000D01*
X197840000Y-124475000D01*
G37*
X201750000Y-129485000D02*
X203950000Y-129485000D01*
X201750000Y-129485000D02*
X199550000Y-129485000D01*
X201750000Y-124015000D02*
X203950000Y-124015000D01*
X201750000Y-124015000D02*
X199550000Y-124015000D01*
%TO.C,U4*%
X167787500Y-94440000D02*
X167547500Y-94110000D01*
X168027500Y-94110000D01*
X167787500Y-94440000D01*
G36*
X167787500Y-94440000D02*
G01*
X167547500Y-94110000D01*
X168027500Y-94110000D01*
X167787500Y-94440000D01*
G37*
X170500000Y-99560000D02*
X172450000Y-99560000D01*
X170500000Y-99560000D02*
X168550000Y-99560000D01*
X170500000Y-94440000D02*
X172450000Y-94440000D01*
X170500000Y-94440000D02*
X168550000Y-94440000D01*
%TO.C,U8*%
X224057500Y-117420000D02*
X224057500Y-117140000D01*
X224337500Y-117140000D01*
X224057500Y-117420000D01*
G36*
X224057500Y-117420000D02*
G01*
X224057500Y-117140000D01*
X224337500Y-117140000D01*
X224057500Y-117420000D01*
G37*
X223507500Y-117225000D02*
X221507500Y-117225000D01*
X223507500Y-114955000D02*
X221507500Y-114955000D01*
%TO.C,U9*%
X212822500Y-110960000D02*
X212542500Y-110960000D01*
X212822500Y-110680000D01*
X212822500Y-110960000D01*
G36*
X212822500Y-110960000D02*
G01*
X212542500Y-110960000D01*
X212822500Y-110680000D01*
X212822500Y-110960000D01*
G37*
X213372500Y-113145000D02*
X215372500Y-113145000D01*
X213372500Y-110875000D02*
X215372500Y-110875000D01*
D15*
%TO.C,U11*%
X173975000Y-91605000D02*
X172450000Y-91605000D01*
D14*
%TO.C,TP21*%
X180300000Y-129800000D02*
X181700000Y-129800000D01*
X180300000Y-131200000D02*
X180300000Y-129800000D01*
X181700000Y-129800000D02*
X181700000Y-131200000D01*
X181700000Y-131200000D02*
X180300000Y-131200000D01*
%TO.C,TP20*%
X184300000Y-127300000D02*
X185700000Y-127300000D01*
X184300000Y-128700000D02*
X184300000Y-127300000D01*
X185700000Y-127300000D02*
X185700000Y-128700000D01*
X185700000Y-128700000D02*
X184300000Y-128700000D01*
%TO.C,TP18*%
X184300000Y-120800000D02*
X185700000Y-120800000D01*
X184300000Y-122200000D02*
X184300000Y-120800000D01*
X185700000Y-120800000D02*
X185700000Y-122200000D01*
X185700000Y-122200000D02*
X184300000Y-122200000D01*
%TO.C,TP13*%
X207300000Y-127800000D02*
X208700000Y-127800000D01*
X207300000Y-129200000D02*
X207300000Y-127800000D01*
X208700000Y-127800000D02*
X208700000Y-129200000D01*
X208700000Y-129200000D02*
X207300000Y-129200000D01*
%TO.C,TP12*%
X211300000Y-127300000D02*
X212700000Y-127300000D01*
X211300000Y-128700000D02*
X211300000Y-127300000D01*
X212700000Y-127300000D02*
X212700000Y-128700000D01*
X212700000Y-128700000D02*
X211300000Y-128700000D01*
%TO.C,TP11*%
X210800000Y-123800000D02*
X212200000Y-123800000D01*
X210800000Y-125200000D02*
X210800000Y-123800000D01*
X212200000Y-123800000D02*
X212200000Y-125200000D01*
X212200000Y-125200000D02*
X210800000Y-125200000D01*
%TO.C,TP8*%
X194800000Y-120800000D02*
X196200000Y-120800000D01*
X194800000Y-122200000D02*
X194800000Y-120800000D01*
X196200000Y-120800000D02*
X196200000Y-122200000D01*
X196200000Y-122200000D02*
X194800000Y-122200000D01*
%TO.C,R7*%
X207900000Y-111592379D02*
X207900000Y-111927621D01*
X208660000Y-111592379D02*
X208660000Y-111927621D01*
%TO.C,R11*%
X201490000Y-108857064D02*
X201490000Y-104502936D01*
X204910000Y-108857064D02*
X204910000Y-104502936D01*
%TO.C,R8*%
X205360000Y-98630121D02*
X205360000Y-98294879D01*
X206120000Y-98630121D02*
X206120000Y-98294879D01*
%TO.C,C15*%
X225325000Y-118603752D02*
X225325000Y-118081248D01*
X226795000Y-118603752D02*
X226795000Y-118081248D01*
%TO.C,TP4*%
X185300000Y-100800000D02*
X186700000Y-100800000D01*
X185300000Y-102200000D02*
X185300000Y-100800000D01*
X186700000Y-100800000D02*
X186700000Y-102200000D01*
X186700000Y-102200000D02*
X185300000Y-102200000D01*
%TO.C,TP1*%
X169800000Y-92300000D02*
X171200000Y-92300000D01*
X169800000Y-93700000D02*
X169800000Y-92300000D01*
X171200000Y-92300000D02*
X171200000Y-93700000D01*
X171200000Y-93700000D02*
X169800000Y-93700000D01*
%TO.C,U6*%
X208280000Y-92420000D02*
X207480000Y-92420000D01*
X208280000Y-92420000D02*
X209080000Y-92420000D01*
X208280000Y-95540000D02*
X207480000Y-95540000D01*
X208280000Y-95540000D02*
X209080000Y-95540000D01*
X206980000Y-92470000D02*
X206740000Y-92140000D01*
X207220000Y-92140000D01*
X206980000Y-92470000D01*
G36*
X206980000Y-92470000D02*
G01*
X206740000Y-92140000D01*
X207220000Y-92140000D01*
X206980000Y-92470000D01*
G37*
%TO.C,U7*%
X194442500Y-92420000D02*
X193642500Y-92420000D01*
X194442500Y-92420000D02*
X195242500Y-92420000D01*
X194442500Y-95540000D02*
X193642500Y-95540000D01*
X194442500Y-95540000D02*
X195242500Y-95540000D01*
X193142500Y-92470000D02*
X192902500Y-92140000D01*
X193382500Y-92140000D01*
X193142500Y-92470000D01*
G36*
X193142500Y-92470000D02*
G01*
X192902500Y-92140000D01*
X193382500Y-92140000D01*
X193142500Y-92470000D01*
G37*
%TO.C,JP8*%
X217500000Y-91150000D02*
X217500000Y-92550000D01*
X216800000Y-93250000D02*
X216200000Y-93250000D01*
X216200000Y-90450000D02*
X216800000Y-90450000D01*
X215500000Y-92550000D02*
X215500000Y-91150000D01*
X217500000Y-92550000D02*
G75*
G02*
X216800000Y-93250000I-700000J0D01*
G01*
X216800000Y-90450000D02*
G75*
G02*
X217500000Y-91150000I1J-699999D01*
G01*
X216200000Y-93250000D02*
G75*
G02*
X215500000Y-92550000I0J700000D01*
G01*
X215500000Y-91150000D02*
G75*
G02*
X216200000Y-90450000I699999J1D01*
G01*
%TO.C,JP3*%
X182750000Y-91300000D02*
X182750000Y-90700000D01*
X183400000Y-90000000D02*
X186200000Y-90000000D01*
X186200000Y-92000000D02*
X183400000Y-92000000D01*
X186850000Y-90700000D02*
X186850000Y-91300000D01*
X182750000Y-90700000D02*
G75*
G02*
X183450000Y-90000000I699999J1D01*
G01*
X183450000Y-92000000D02*
G75*
G02*
X182750000Y-91300000I-1J699999D01*
G01*
X186150000Y-90000000D02*
G75*
G02*
X186850000Y-90700000I0J-700000D01*
G01*
X186850000Y-91300000D02*
G75*
G02*
X186150000Y-92000000I-700000J0D01*
G01*
%TO.C,R10*%
X217617064Y-118470000D02*
X216162936Y-118470000D01*
X217617064Y-120290000D02*
X216162936Y-120290000D01*
%TO.C,R6*%
X168322936Y-81290000D02*
X172677064Y-81290000D01*
X168322936Y-84710000D02*
X172677064Y-84710000D01*
%TO.C,JP2*%
X182750000Y-87300000D02*
X182750000Y-86700000D01*
X183400000Y-86000000D02*
X186200000Y-86000000D01*
X186200000Y-88000000D02*
X183400000Y-88000000D01*
X186850000Y-86700000D02*
X186850000Y-87300000D01*
X182750000Y-86700000D02*
G75*
G02*
X183450000Y-86000000I699999J1D01*
G01*
X183450000Y-88000000D02*
G75*
G02*
X182750000Y-87300000I-1J699999D01*
G01*
X186150000Y-86000000D02*
G75*
G02*
X186850000Y-86700000I0J-700000D01*
G01*
X186850000Y-87300000D02*
G75*
G02*
X186150000Y-88000000I-700000J0D01*
G01*
%TO.C,R1*%
X192517500Y-106092258D02*
X192517500Y-105617742D01*
X193562500Y-106092258D02*
X193562500Y-105617742D01*
%TO.C,JP6*%
X189750000Y-123300000D02*
X189750000Y-122700000D01*
X190450000Y-122000000D02*
X191850000Y-122000000D01*
X191850000Y-124000000D02*
X190450000Y-124000000D01*
X192550000Y-122700000D02*
X192550000Y-123300000D01*
X189750000Y-122700000D02*
G75*
G02*
X190450000Y-122000000I699999J1D01*
G01*
X190450000Y-124000000D02*
G75*
G02*
X189750000Y-123300000I-1J699999D01*
G01*
X191850000Y-122000000D02*
G75*
G02*
X192550000Y-122700000I0J-700000D01*
G01*
X192550000Y-123300000D02*
G75*
G02*
X191850000Y-124000000I-700000J0D01*
G01*
%TO.C,C7*%
X197343752Y-100865000D02*
X196821248Y-100865000D01*
X197343752Y-102335000D02*
X196821248Y-102335000D01*
%TO.C,R_PROG_1*%
X178667621Y-87120000D02*
X178332379Y-87120000D01*
X178667621Y-87880000D02*
X178332379Y-87880000D01*
%TO.C,C2*%
X205783767Y-120990000D02*
X205491233Y-120990000D01*
X205783767Y-122010000D02*
X205491233Y-122010000D01*
%TO.C,IC1*%
X167290000Y-107340000D02*
X168700000Y-107340000D01*
X167300000Y-109660000D02*
X168700000Y-109660000D01*
X166920000Y-107390000D02*
X166680000Y-107060000D01*
X167160000Y-107060000D01*
X166920000Y-107390000D01*
G36*
X166920000Y-107390000D02*
G01*
X166680000Y-107060000D01*
X167160000Y-107060000D01*
X166920000Y-107390000D01*
G37*
%TO.C,L1*%
X198175000Y-94490000D02*
X198175000Y-89910000D01*
X203145000Y-94490000D02*
X203145000Y-89910000D01*
%TO.C,TP6*%
X174800000Y-107300000D02*
X176200000Y-107300000D01*
X174800000Y-108700000D02*
X174800000Y-107300000D01*
X176200000Y-107300000D02*
X176200000Y-108700000D01*
X176200000Y-108700000D02*
X174800000Y-108700000D01*
%TO.C,C12*%
X210085000Y-98798748D02*
X210085000Y-99321252D01*
X211555000Y-98798748D02*
X211555000Y-99321252D01*
D16*
%TO.C,R4*%
X175725000Y-98115000D02*
X175725000Y-96885000D01*
X177275000Y-98115000D02*
X177275000Y-96885000D01*
D14*
%TO.C,C20*%
X155384165Y-86640000D02*
X155615835Y-86640000D01*
X155384165Y-87360000D02*
X155615835Y-87360000D01*
%TO.C,R_PROG_2*%
X178262742Y-89977500D02*
X178737258Y-89977500D01*
X178262742Y-91022500D02*
X178737258Y-91022500D01*
%TO.C,C16*%
X219384165Y-124140000D02*
X219615835Y-124140000D01*
X219384165Y-124860000D02*
X219615835Y-124860000D01*
D15*
%TO.C,S1*%
X178050000Y-100450000D02*
X179000000Y-100450000D01*
X179350000Y-100500000D02*
X181650000Y-100500000D01*
X179350000Y-103500000D02*
X179350000Y-100500000D01*
X181650000Y-100500000D02*
X181650000Y-103500000D01*
X181650000Y-103500000D02*
X179350000Y-103500000D01*
D14*
%TO.C,am1*%
X171390000Y-113630000D02*
X171390000Y-118830000D01*
X209550000Y-113630000D02*
X171390000Y-113630000D01*
X209550000Y-113630000D02*
X209550000Y-116230000D01*
X209550000Y-116230000D02*
X212150000Y-116230000D01*
X210820000Y-113630000D02*
X212150000Y-113630000D01*
X212150000Y-113630000D02*
X212150000Y-114960000D01*
X212150000Y-116230000D02*
X212150000Y-118830000D01*
X212150000Y-118830000D02*
X171390000Y-118830000D01*
%TO.C,D1*%
X199660000Y-101270000D02*
X199660000Y-97410000D01*
X199660000Y-101270000D02*
X201660000Y-101270000D01*
X201660000Y-101270000D02*
X201660000Y-97410000D01*
%TO.C,C18*%
X218080000Y-113848335D02*
X218080000Y-113616665D01*
X218800000Y-113848335D02*
X218800000Y-113616665D01*
D16*
%TO.C,R3*%
X171115000Y-101725000D02*
X169885000Y-101725000D01*
X171115000Y-103275000D02*
X169885000Y-103275000D01*
D14*
%TO.C,C11*%
X212625000Y-106941252D02*
X212625000Y-106418748D01*
X214095000Y-106941252D02*
X214095000Y-106418748D01*
%TO.C,TP3*%
X154300000Y-119300000D02*
X156700000Y-119300000D01*
X154300000Y-121700000D02*
X154300000Y-119300000D01*
X156700000Y-119300000D02*
X156700000Y-121700000D01*
X156700000Y-121700000D02*
X154300000Y-121700000D01*
%TO.C,C21*%
X161265000Y-92191252D02*
X161265000Y-91668748D01*
X162735000Y-92191252D02*
X162735000Y-91668748D01*
%TO.C,TP7*%
X214700000Y-97860000D02*
X217100000Y-97860000D01*
X214700000Y-100260000D02*
X214700000Y-97860000D01*
X217100000Y-97860000D02*
X217100000Y-100260000D01*
X217100000Y-100260000D02*
X214700000Y-100260000D01*
D17*
%TO.C,SW1*%
X222469400Y-101629400D02*
X229530600Y-101629400D01*
X229530600Y-101629400D02*
X229530600Y-88370600D01*
X222469400Y-88370600D02*
X222469400Y-101629400D01*
X229530600Y-88370600D02*
X222469400Y-88370600D01*
D18*
X226381000Y-103407400D02*
G75*
G02*
X225619000Y-103407400I-381000J0D01*
G01*
X225619000Y-103407400D02*
G75*
G02*
X226381000Y-103407400I381000J0D01*
G01*
D14*
%TO.C,JP9*%
X213850000Y-124760000D02*
X213850000Y-124160000D01*
X214550000Y-123460000D02*
X215950000Y-123460000D01*
X215950000Y-125460000D02*
X214550000Y-125460000D01*
X216650000Y-124160000D02*
X216650000Y-124760000D01*
X213850000Y-124160000D02*
G75*
G02*
X214550000Y-123460000I699999J1D01*
G01*
X214550000Y-125460000D02*
G75*
G02*
X213850000Y-124760000I-1J699999D01*
G01*
X215950000Y-123460000D02*
G75*
G02*
X216650000Y-124160000I0J-700000D01*
G01*
X216650000Y-124760000D02*
G75*
G02*
X215950000Y-125460000I-700000J0D01*
G01*
%TO.C,U3*%
X196982500Y-106095000D02*
X196182500Y-106095000D01*
X196982500Y-106095000D02*
X197782500Y-106095000D01*
X196982500Y-109215000D02*
X196182500Y-109215000D01*
X196982500Y-109215000D02*
X197782500Y-109215000D01*
X195682500Y-106170000D02*
X195442500Y-105840000D01*
X195922500Y-105840000D01*
X195682500Y-106170000D01*
G36*
X195682500Y-106170000D02*
G01*
X195442500Y-105840000D01*
X195922500Y-105840000D01*
X195682500Y-106170000D01*
G37*
%TO.C,C3*%
X200238748Y-120765000D02*
X200761252Y-120765000D01*
X200238748Y-122235000D02*
X200761252Y-122235000D01*
%TO.C,TP9*%
X227400000Y-115640000D02*
X229800000Y-115640000D01*
X227400000Y-118040000D02*
X227400000Y-115640000D01*
X229800000Y-115640000D02*
X229800000Y-118040000D01*
X229800000Y-118040000D02*
X227400000Y-118040000D01*
%TO.C,U10*%
X153332000Y-90250000D02*
X158273000Y-90250000D01*
X153332000Y-93649000D02*
X155350000Y-93649000D01*
X153332000Y-97350000D02*
X155350000Y-97350000D01*
X153332000Y-100750000D02*
X153332000Y-90250000D01*
X153332000Y-100750000D02*
X158273000Y-100750000D01*
X156092000Y-91857000D02*
X156092000Y-90250000D01*
X156092000Y-94397000D02*
X156092000Y-94062000D01*
X156092000Y-96937000D02*
X156092000Y-96602000D01*
X156092000Y-100750000D02*
X156092000Y-99143000D01*
X158273000Y-100750000D02*
X158273000Y-90250000D01*
%TO.C,JP7*%
X195032500Y-104440000D02*
X195032500Y-103840000D01*
X195732500Y-103140000D02*
X197132500Y-103140000D01*
X197132500Y-105140000D02*
X195732500Y-105140000D01*
X197832500Y-103840000D02*
X197832500Y-104440000D01*
X195032500Y-103840000D02*
G75*
G02*
X195732500Y-103140000I700000J0D01*
G01*
X195732500Y-105140000D02*
G75*
G02*
X195032500Y-104440000I0J700000D01*
G01*
X197132500Y-103140000D02*
G75*
G02*
X197832500Y-103840000I1J-699999D01*
G01*
X197832500Y-104440000D02*
G75*
G02*
X197132500Y-105140000I-699999J-1D01*
G01*
%TO.C,C19*%
X161265000Y-95738748D02*
X161265000Y-96261252D01*
X162735000Y-95738748D02*
X162735000Y-96261252D01*
%TO.C,R9*%
X222610000Y-122647064D02*
X222610000Y-121192936D01*
X224430000Y-122647064D02*
X224430000Y-121192936D01*
D16*
%TO.C,C8*%
X161100000Y-100960000D02*
X161100000Y-102040000D01*
X162900000Y-100960000D02*
X162900000Y-102040000D01*
D14*
%TO.C,J1*%
X223590000Y-106940000D02*
X223590000Y-107860000D01*
X223590000Y-107860000D02*
X225190000Y-107860000D01*
X223590000Y-112140000D02*
X223590000Y-113060000D01*
X223590000Y-113060000D02*
X231410000Y-113060000D01*
X225190000Y-106940000D02*
X225190000Y-107860000D01*
X225190000Y-107860000D02*
X225190000Y-108140000D01*
X225190000Y-111860000D02*
X223975000Y-111860000D01*
X225190000Y-111860000D02*
X225190000Y-112140000D01*
X225190000Y-112140000D02*
X223590000Y-112140000D01*
X225190000Y-113060000D02*
X225190000Y-112140000D01*
X227050000Y-109500000D02*
X231410000Y-109500000D01*
X227050000Y-110500000D02*
X227050000Y-109500000D01*
X227550000Y-107700000D02*
X229150000Y-107700000D01*
X227550000Y-108700000D02*
X227550000Y-107700000D01*
X227550000Y-111300000D02*
X227550000Y-112300000D01*
X227550000Y-112300000D02*
X229150000Y-112300000D01*
X229150000Y-107700000D02*
X229150000Y-108700000D01*
X229150000Y-108700000D02*
X227550000Y-108700000D01*
X229150000Y-111300000D02*
X227550000Y-111300000D01*
X229150000Y-111300000D02*
X231410000Y-111300000D01*
X229150000Y-111800000D02*
X231410000Y-111800000D01*
X229150000Y-112300000D02*
X229150000Y-111300000D01*
X231410000Y-106940000D02*
X223590000Y-106940000D01*
X231410000Y-110500000D02*
X227050000Y-110500000D01*
X231410000Y-113060000D02*
X231410000Y-106940000D01*
%TO.C,C1*%
X207265000Y-125761252D02*
X207265000Y-125238748D01*
X208735000Y-125761252D02*
X208735000Y-125238748D01*
%TO.C,JP4*%
X169250000Y-79300000D02*
X169250000Y-78700000D01*
X169950000Y-78000000D02*
X171350000Y-78000000D01*
X171350000Y-80000000D02*
X169950000Y-80000000D01*
X172050000Y-78700000D02*
X172050000Y-79300000D01*
X169250000Y-78700000D02*
G75*
G02*
X169950000Y-78000000I700000J0D01*
G01*
X169950000Y-80000000D02*
G75*
G02*
X169250000Y-79300000I0J700000D01*
G01*
X171350000Y-78000000D02*
G75*
G02*
X172050000Y-78700000I1J-699999D01*
G01*
X172050000Y-79300000D02*
G75*
G02*
X171350000Y-80000000I-699999J-1D01*
G01*
%TO.C,JP1*%
X160750000Y-85500000D02*
X163550000Y-85500000D01*
X160750000Y-87500000D02*
X160750000Y-85500000D01*
X163550000Y-85500000D02*
X163550000Y-87500000D01*
X163550000Y-87500000D02*
X160750000Y-87500000D01*
%TO.C,C17*%
X217705000Y-109481252D02*
X217705000Y-108958748D01*
X219175000Y-109481252D02*
X219175000Y-108958748D01*
%TO.C,C13*%
X207545000Y-103363752D02*
X207545000Y-102841248D01*
X209015000Y-103363752D02*
X209015000Y-102841248D01*
%TO.C,JP10*%
X215150000Y-104440000D02*
X215150000Y-103840000D01*
X215850000Y-103140000D02*
X217250000Y-103140000D01*
X217250000Y-105140000D02*
X215850000Y-105140000D01*
X217950000Y-103840000D02*
X217950000Y-104440000D01*
X215150000Y-103840000D02*
G75*
G02*
X215850000Y-103140000I700000J0D01*
G01*
X215850000Y-105140000D02*
G75*
G02*
X215150000Y-104440000I0J700000D01*
G01*
X217250000Y-103140000D02*
G75*
G02*
X217950000Y-103840000I1J-699999D01*
G01*
X217950000Y-104440000D02*
G75*
G02*
X217250000Y-105140000I-699999J-1D01*
G01*
%TO.C,C14*%
X195841252Y-88165000D02*
X195318748Y-88165000D01*
X195841252Y-89635000D02*
X195318748Y-89635000D01*
%TO.C,R2*%
X197597500Y-111172258D02*
X197597500Y-110697742D01*
X198642500Y-111172258D02*
X198642500Y-110697742D01*
%TD*%
%LPC*%
%TO.C,JP5*%
G36*
X164500000Y-122750000D02*
G01*
X164800000Y-122750000D01*
X164800000Y-124250000D01*
X164500000Y-124250000D01*
X164500000Y-122750000D01*
G37*
D19*
%TO.C,J2*%
X159870000Y-112940000D02*
X158630000Y-112940000D01*
X158630000Y-112240000D01*
X159870000Y-112240000D01*
X159870000Y-112940000D01*
G36*
X159870000Y-112940000D02*
G01*
X158630000Y-112940000D01*
X158630000Y-112240000D01*
X159870000Y-112240000D01*
X159870000Y-112940000D01*
G37*
X159870000Y-112140000D02*
X158630000Y-112140000D01*
X158630000Y-111440000D01*
X159870000Y-111440000D01*
X159870000Y-112140000D01*
G36*
X159870000Y-112140000D02*
G01*
X158630000Y-112140000D01*
X158630000Y-111440000D01*
X159870000Y-111440000D01*
X159870000Y-112140000D01*
G37*
X159870000Y-111340000D02*
X158630000Y-111340000D01*
X158630000Y-110940000D01*
X159870000Y-110940000D01*
X159870000Y-111340000D01*
G36*
X159870000Y-111340000D02*
G01*
X158630000Y-111340000D01*
X158630000Y-110940000D01*
X159870000Y-110940000D01*
X159870000Y-111340000D01*
G37*
X159870000Y-110840000D02*
X158630000Y-110840000D01*
X158630000Y-110440000D01*
X159870000Y-110440000D01*
X159870000Y-110840000D01*
G36*
X159870000Y-110840000D02*
G01*
X158630000Y-110840000D01*
X158630000Y-110440000D01*
X159870000Y-110440000D01*
X159870000Y-110840000D01*
G37*
X159870000Y-110340000D02*
X158630000Y-110340000D01*
X158630000Y-109940000D01*
X159870000Y-109940000D01*
X159870000Y-110340000D01*
G36*
X159870000Y-110340000D02*
G01*
X158630000Y-110340000D01*
X158630000Y-109940000D01*
X159870000Y-109940000D01*
X159870000Y-110340000D01*
G37*
X159870000Y-109840000D02*
X158630000Y-109840000D01*
X158630000Y-109440000D01*
X159870000Y-109440000D01*
X159870000Y-109840000D01*
G36*
X159870000Y-109840000D02*
G01*
X158630000Y-109840000D01*
X158630000Y-109440000D01*
X159870000Y-109440000D01*
X159870000Y-109840000D01*
G37*
X159870000Y-109340000D02*
X158630000Y-109340000D01*
X158630000Y-108940000D01*
X159870000Y-108940000D01*
X159870000Y-109340000D01*
G36*
X159870000Y-109340000D02*
G01*
X158630000Y-109340000D01*
X158630000Y-108940000D01*
X159870000Y-108940000D01*
X159870000Y-109340000D01*
G37*
X159870000Y-108840000D02*
X158630000Y-108840000D01*
X158630000Y-108440000D01*
X159870000Y-108440000D01*
X159870000Y-108840000D01*
G36*
X159870000Y-108840000D02*
G01*
X158630000Y-108840000D01*
X158630000Y-108440000D01*
X159870000Y-108440000D01*
X159870000Y-108840000D01*
G37*
X159870000Y-108340000D02*
X158630000Y-108340000D01*
X158630000Y-107940000D01*
X159870000Y-107940000D01*
X159870000Y-108340000D01*
G36*
X159870000Y-108340000D02*
G01*
X158630000Y-108340000D01*
X158630000Y-107940000D01*
X159870000Y-107940000D01*
X159870000Y-108340000D01*
G37*
X159870000Y-107840000D02*
X158630000Y-107840000D01*
X158630000Y-107440000D01*
X159870000Y-107440000D01*
X159870000Y-107840000D01*
G36*
X159870000Y-107840000D02*
G01*
X158630000Y-107840000D01*
X158630000Y-107440000D01*
X159870000Y-107440000D01*
X159870000Y-107840000D01*
G37*
X159870000Y-107340000D02*
X158630000Y-107340000D01*
X158630000Y-106640000D01*
X159870000Y-106640000D01*
X159870000Y-107340000D01*
G36*
X159870000Y-107340000D02*
G01*
X158630000Y-107340000D01*
X158630000Y-106640000D01*
X159870000Y-106640000D01*
X159870000Y-107340000D01*
G37*
X159870000Y-106540000D02*
X158630000Y-106540000D01*
X158630000Y-105840000D01*
X159870000Y-105840000D01*
X159870000Y-106540000D01*
G36*
X159870000Y-106540000D02*
G01*
X158630000Y-106540000D01*
X158630000Y-105840000D01*
X159870000Y-105840000D01*
X159870000Y-106540000D01*
G37*
%TO.C,JP8*%
G36*
X217250000Y-91700000D02*
G01*
X215750000Y-91700000D01*
X215750000Y-92000000D01*
X217250000Y-92000000D01*
X217250000Y-91700000D01*
G37*
%TO.C,JP3*%
G36*
X184050000Y-90250000D02*
G01*
X185550000Y-90250000D01*
X185550000Y-91750000D01*
X184050000Y-91750000D01*
X184050000Y-90250000D01*
G37*
%TO.C,JP2*%
G36*
X184050000Y-86250000D02*
G01*
X185550000Y-86250000D01*
X185550000Y-87750000D01*
X184050000Y-87750000D01*
X184050000Y-86250000D01*
G37*
%TO.C,JP6*%
G36*
X191000000Y-122250000D02*
G01*
X191300000Y-122250000D01*
X191300000Y-123750000D01*
X191000000Y-123750000D01*
X191000000Y-122250000D01*
G37*
%TO.C,JP9*%
G36*
X215100000Y-123710000D02*
G01*
X215400000Y-123710000D01*
X215400000Y-125210000D01*
X215100000Y-125210000D01*
X215100000Y-123710000D01*
G37*
%TO.C,JP7*%
G36*
X196582500Y-104890000D02*
G01*
X196282500Y-104890000D01*
X196282500Y-103390000D01*
X196582500Y-103390000D01*
X196582500Y-104890000D01*
G37*
%TO.C,JP4*%
G36*
X170800000Y-79750000D02*
G01*
X170500000Y-79750000D01*
X170500000Y-78250000D01*
X170800000Y-78250000D01*
X170800000Y-79750000D01*
G37*
%TO.C,JP1*%
G36*
X162000000Y-85750000D02*
G01*
X162300000Y-85750000D01*
X162300000Y-87250000D01*
X162000000Y-87250000D01*
X162000000Y-85750000D01*
G37*
%TO.C,JP10*%
G36*
X216700000Y-104890000D02*
G01*
X216400000Y-104890000D01*
X216400000Y-103390000D01*
X216700000Y-103390000D01*
X216700000Y-104890000D01*
G37*
%TD*%
D20*
%TO.C,TP19*%
X185000000Y-125000000D03*
%TD*%
D21*
%TO.C,R14*%
X194550000Y-128000000D03*
X188450000Y-128000000D03*
%TD*%
D20*
%TO.C,TP10*%
X211500000Y-121500000D03*
%TD*%
D22*
%TO.C,R12*%
X161450000Y-118000000D03*
X167550000Y-118000000D03*
%TD*%
D23*
%TO.C,JP5*%
X165300000Y-123500000D03*
D24*
X164000000Y-123500000D03*
%TD*%
D25*
%TO.C,U2*%
X174750000Y-126750000D03*
D26*
X177625000Y-124475000D03*
X177625000Y-125125000D03*
X177625000Y-125775000D03*
X177625000Y-126425000D03*
X177625000Y-127075000D03*
X177625000Y-127725000D03*
X177625000Y-128375000D03*
X177625000Y-129025000D03*
X171875000Y-129025000D03*
X171875000Y-128375000D03*
X171875000Y-127725000D03*
X171875000Y-127075000D03*
X171875000Y-126425000D03*
X171875000Y-125775000D03*
X171875000Y-125125000D03*
X171875000Y-124475000D03*
%TD*%
D27*
%TO.C,C5*%
X177000000Y-121500000D03*
X174925000Y-121500000D03*
%TD*%
D28*
%TO.C,C4*%
X181000000Y-121637500D03*
X181000000Y-123362500D03*
%TD*%
D29*
%TO.C,C6*%
X181000000Y-127537500D03*
X181000000Y-125462500D03*
%TD*%
D30*
%TO.C,J2*%
X154500000Y-113715000D03*
X154500000Y-105065000D03*
D31*
X158670000Y-113715000D03*
X158670000Y-105065000D03*
D32*
X158180000Y-112280000D03*
X158180000Y-106500000D03*
%TD*%
D25*
%TO.C,U1*%
X201750000Y-126750000D03*
D26*
X204625000Y-124475000D03*
X204625000Y-125125000D03*
X204625000Y-125775000D03*
X204625000Y-126425000D03*
X204625000Y-127075000D03*
X204625000Y-127725000D03*
X204625000Y-128375000D03*
X204625000Y-129025000D03*
X198875000Y-129025000D03*
X198875000Y-128375000D03*
X198875000Y-127725000D03*
X198875000Y-127075000D03*
X198875000Y-126425000D03*
X198875000Y-125775000D03*
X198875000Y-125125000D03*
X198875000Y-124475000D03*
%TD*%
D33*
%TO.C,U4*%
X170500000Y-97000000D03*
D34*
X173137500Y-95000000D03*
X173137500Y-96000000D03*
X173137500Y-97000000D03*
X173137500Y-98000000D03*
X173137500Y-99000000D03*
X167862500Y-99000000D03*
X167862500Y-98000000D03*
X167862500Y-97000000D03*
X167862500Y-96000000D03*
X167862500Y-95000000D03*
%TD*%
D35*
%TO.C,U8*%
X222507500Y-116090000D03*
D36*
X221495000Y-116840000D03*
X221495000Y-116340000D03*
X221495000Y-115840000D03*
X221495000Y-115340000D03*
X223520000Y-115340000D03*
X223520000Y-115840000D03*
X223520000Y-116340000D03*
X223520000Y-116840000D03*
%TD*%
D35*
%TO.C,U9*%
X214372500Y-112010000D03*
D37*
X215385000Y-111260000D03*
X215385000Y-111760000D03*
X215385000Y-112260000D03*
X215385000Y-112760000D03*
X213360000Y-112760000D03*
X213360000Y-112260000D03*
X213360000Y-111760000D03*
X213360000Y-111260000D03*
%TD*%
D38*
%TO.C,U11*%
X170500000Y-89000000D03*
D39*
X167788000Y-90905000D03*
X167788000Y-89635000D03*
X167788000Y-88365000D03*
X167788000Y-87095000D03*
X173212000Y-87095000D03*
X173212000Y-88365000D03*
X173212000Y-89635000D03*
X173212000Y-90905000D03*
%TD*%
D20*
%TO.C,TP21*%
X181000000Y-130500000D03*
%TD*%
%TO.C,TP20*%
X185000000Y-128000000D03*
%TD*%
%TO.C,TP18*%
X185000000Y-121500000D03*
%TD*%
%TO.C,TP13*%
X208000000Y-128500000D03*
%TD*%
%TO.C,TP12*%
X212000000Y-128000000D03*
%TD*%
%TO.C,TP11*%
X211500000Y-124500000D03*
%TD*%
%TO.C,TP8*%
X195500000Y-121500000D03*
%TD*%
D40*
%TO.C,R7*%
X208280000Y-111162500D03*
X208280000Y-112357500D03*
%TD*%
D41*
%TO.C,R11*%
X203200000Y-109730000D03*
X203200000Y-103630000D03*
%TD*%
D42*
%TO.C,R8*%
X205740000Y-99060000D03*
X205740000Y-97865000D03*
%TD*%
D43*
%TO.C,C15*%
X226060000Y-119380000D03*
X226060000Y-117305000D03*
%TD*%
D20*
%TO.C,TP4*%
X186000000Y-101500000D03*
%TD*%
%TO.C,TP1*%
X170500000Y-93000000D03*
%TD*%
D44*
%TO.C,U6*%
X207142500Y-93030000D03*
X207142500Y-93980000D03*
X207142500Y-94930000D03*
X209417500Y-94930000D03*
X209417500Y-93030000D03*
%TD*%
%TO.C,U7*%
X193305000Y-93030000D03*
X193305000Y-93980000D03*
X193305000Y-94930000D03*
X195580000Y-94930000D03*
X195580000Y-93980000D03*
X195580000Y-93030000D03*
%TD*%
D45*
%TO.C,JP8*%
X216500000Y-91200000D03*
D46*
X216500000Y-92500000D03*
%TD*%
D47*
%TO.C,JP3*%
X183500000Y-91000000D03*
D48*
X184800000Y-91000000D03*
D49*
X186100000Y-91000000D03*
%TD*%
D50*
%TO.C,R10*%
X218440000Y-119380000D03*
X215340000Y-119380000D03*
%TD*%
D21*
%TO.C,R6*%
X167450000Y-83000000D03*
X173550000Y-83000000D03*
%TD*%
D47*
%TO.C,JP2*%
X183500000Y-87000000D03*
D48*
X184800000Y-87000000D03*
D49*
X186100000Y-87000000D03*
%TD*%
D51*
%TO.C,R1*%
X193040000Y-106680000D03*
X193040000Y-105030000D03*
%TD*%
D24*
%TO.C,JP6*%
X190500000Y-123000000D03*
D23*
X191800000Y-123000000D03*
%TD*%
D52*
%TO.C,C7*%
X198120000Y-101600000D03*
X196045000Y-101600000D03*
%TD*%
D53*
%TO.C,R_PROG_1*%
X179097500Y-87500000D03*
X177902500Y-87500000D03*
%TD*%
D54*
%TO.C,C2*%
X206500000Y-121500000D03*
X204775000Y-121500000D03*
%TD*%
D55*
%TO.C,IC1*%
X166670000Y-107850000D03*
X166670000Y-108500000D03*
X166670000Y-109150000D03*
X169330000Y-109150000D03*
X169330000Y-107850000D03*
%TD*%
D56*
%TO.C,L1*%
X200660000Y-93980000D03*
X200660000Y-90420000D03*
%TD*%
D20*
%TO.C,TP6*%
X175500000Y-108000000D03*
%TD*%
D29*
%TO.C,C12*%
X210820000Y-98022500D03*
X210820000Y-100097500D03*
%TD*%
D57*
%TO.C,R4*%
X176500000Y-98960000D03*
X176500000Y-96040000D03*
%TD*%
D58*
%TO.C,C20*%
X154932500Y-87000000D03*
X156067500Y-87000000D03*
%TD*%
D59*
%TO.C,R_PROG_2*%
X177675000Y-90500000D03*
X179325000Y-90500000D03*
%TD*%
D58*
%TO.C,C16*%
X218932500Y-124500000D03*
X220067500Y-124500000D03*
%TD*%
D60*
%TO.C,S1*%
X178525000Y-101025000D03*
X178525000Y-101675000D03*
X178525000Y-102325000D03*
X178525000Y-102975000D03*
X182475000Y-102975000D03*
X182475000Y-102325000D03*
X182475000Y-101675000D03*
X182475000Y-101025000D03*
%TD*%
D61*
%TO.C,am1*%
X210820000Y-114960000D03*
D62*
X210820000Y-117500000D03*
X208280000Y-114960000D03*
X208280000Y-117500000D03*
X205740000Y-114960000D03*
X205740000Y-117500000D03*
X203200000Y-114960000D03*
X203200000Y-117500000D03*
X200660000Y-114960000D03*
X200660000Y-117500000D03*
X198120000Y-114960000D03*
X198120000Y-117500000D03*
X195580000Y-114960000D03*
X195580000Y-117500000D03*
X193040000Y-114960000D03*
X193040000Y-117500000D03*
X190500000Y-114960000D03*
X190500000Y-117500000D03*
X187960000Y-114960000D03*
X187960000Y-117500000D03*
X185420000Y-114960000D03*
X185420000Y-117500000D03*
X182880000Y-114960000D03*
X182880000Y-117500000D03*
X180340000Y-114960000D03*
X180340000Y-117500000D03*
X177800000Y-114960000D03*
X177800000Y-117500000D03*
X175260000Y-114960000D03*
X175260000Y-117500000D03*
X172720000Y-114960000D03*
X172720000Y-117500000D03*
%TD*%
D63*
%TO.C,D1*%
X200660000Y-100460000D03*
X200660000Y-97660000D03*
%TD*%
D64*
%TO.C,C18*%
X218440000Y-114300000D03*
X218440000Y-113165000D03*
%TD*%
D65*
%TO.C,R3*%
X171960000Y-102500000D03*
X169040000Y-102500000D03*
%TD*%
D43*
%TO.C,C11*%
X213360000Y-107717500D03*
X213360000Y-105642500D03*
%TD*%
D66*
%TO.C,TP3*%
X155500000Y-120500000D03*
%TD*%
D43*
%TO.C,C21*%
X162000000Y-92967500D03*
X162000000Y-90892500D03*
%TD*%
D66*
%TO.C,TP7*%
X215900000Y-99060000D03*
%TD*%
D67*
%TO.C,SW1*%
X226000000Y-99699000D03*
X226000000Y-95000000D03*
X226000000Y-90301000D03*
%TD*%
D24*
%TO.C,JP9*%
X214600000Y-124460000D03*
D23*
X215900000Y-124460000D03*
%TD*%
D68*
%TO.C,U3*%
X195845000Y-106680000D03*
X195845000Y-107330000D03*
X195845000Y-107980000D03*
X195845000Y-108630000D03*
X198120000Y-108630000D03*
X198120000Y-107980000D03*
X198120000Y-107330000D03*
X198120000Y-106680000D03*
%TD*%
D27*
%TO.C,C3*%
X199462500Y-121500000D03*
X201537500Y-121500000D03*
%TD*%
D66*
%TO.C,TP9*%
X228600000Y-116840000D03*
%TD*%
D69*
%TO.C,U10*%
X156500000Y-98040000D03*
D70*
X156500000Y-95500000D03*
X156500000Y-92960000D03*
%TD*%
D71*
%TO.C,JP7*%
X197082500Y-104140000D03*
D72*
X195782500Y-104140000D03*
%TD*%
D29*
%TO.C,C19*%
X162000000Y-94962500D03*
X162000000Y-97037500D03*
%TD*%
D73*
%TO.C,R9*%
X223520000Y-123470000D03*
X223520000Y-120370000D03*
%TD*%
D74*
%TO.C,C8*%
X162000000Y-100040000D03*
X162000000Y-102960000D03*
%TD*%
D75*
%TO.C,J1*%
X225050000Y-111000000D03*
D76*
X225050000Y-109000000D03*
%TD*%
D43*
%TO.C,C1*%
X208000000Y-126537500D03*
X208000000Y-124462500D03*
%TD*%
D71*
%TO.C,JP4*%
X171300000Y-79000000D03*
D72*
X170000000Y-79000000D03*
%TD*%
D48*
%TO.C,JP1*%
X161500000Y-86500000D03*
X162800000Y-86500000D03*
%TD*%
D43*
%TO.C,C17*%
X218440000Y-110257500D03*
X218440000Y-108182500D03*
%TD*%
%TO.C,C13*%
X208280000Y-104140000D03*
X208280000Y-102065000D03*
%TD*%
D71*
%TO.C,JP10*%
X217200000Y-104140000D03*
D72*
X215900000Y-104140000D03*
%TD*%
D52*
%TO.C,C14*%
X196617500Y-88900000D03*
X194542500Y-88900000D03*
%TD*%
D51*
%TO.C,R2*%
X198120000Y-111760000D03*
X198120000Y-110110000D03*
%TD*%
%LPD*%
M02*
