M48
; DRILL file {KiCad 9.0.0} date 2025-04-09T21:56:34+0200
; FORMAT={-:-/ absolute / inch / decimal}
; #@! TF.CreationDate,2025-04-09T21:56:34+02:00
; #@! TF.GenerationSoftware,Kicad,Pcbnew,9.0.0
; #@! TF.FileFunction,Plated,1,2,PTH
FMAT,2
INCH
; #@! TA.AperFunction,Plated,PTH,ViaDrill
T1C0.0118
; #@! TA.AperFunction,Plated,PTH,ComponentDrill
T2C0.0236
; #@! TA.AperFunction,Plated,PTH,ComponentDrill
T3C0.0295
; #@! TA.AperFunction,Plated,PTH,ComponentDrill
T4C0.0394
; #@! TA.AperFunction,Plated,PTH,ComponentDrill
T5C0.0472
; #@! TA.AperFunction,Plated,PTH,ComponentDrill
T6C0.0610
; #@! TA.AperFunction,Plated,PTH,ComponentDrill
T7C0.0866
%
G90
G05
T1
X6.2054Y-4.4381
X6.3304Y-4.2904
X6.3386Y-4.8228
X6.3817Y-4.1284
X6.5736Y-4.6831
X6.5736Y-4.9784
X6.6397Y-4.381
X6.6837Y-4.0287
X6.6898Y-4.7687
X6.6902Y-4.8967
X6.6967Y-4.4241
X6.6967Y-4.5897
X6.7118Y-4.8455
X6.7132Y-3.763
X6.8713Y-3.7724
X6.8929Y-4.0976
X6.895Y-4.897
X6.904Y-3.4411
X6.9094Y-3.9961
X6.9288Y-4.8502
X6.9357Y-3.0721
X7.0527Y-4.9265
X7.1057Y-3.4586
X7.1057Y-4.0394
X7.1063Y-4.2717
X7.1474Y-4.8615
X7.1539Y-3.7278
X7.1624Y-4.9606
X7.1831Y-3.3507
X7.1885Y-4.8138
X7.2365Y-4.1487
X7.2817Y-4.7548
X7.3049Y-4.9203
X7.3202Y-4.962
X7.3953Y-3.804
X7.4173Y-3.7541
X7.4822Y-3.126
X7.5146Y-4.8975
X7.5816Y-4.1463
X7.602Y-3.6756
X7.6333Y-3.9814
X7.6646Y-3.9044
X7.6691Y-4.7554
X7.6812Y-3.4539
X7.7474Y-5.0111
X7.7631Y-5.0511
X7.7685Y-3.5713
X7.7685Y-4.0469
X7.8655Y-4.7304
X7.8902Y-3.3842
X7.8902Y-3.5754
X7.8944Y-4.0741
X7.9Y-4.8469
X7.9241Y-4.8171
X7.9241Y-4.9555
X7.9657Y-4.763
X7.9706Y-4.9264
X7.9793Y-5.1227
X7.991Y-4.791
X8.0146Y-4.6928
X8.015Y-4.9016
X8.0406Y-4.7296
X8.0702Y-4.2498
X8.0909Y-5.1352
X8.0915Y-5.099
X8.1644Y-4.0803
X8.1891Y-4.8351
X8.2Y-3.925
X8.2011Y-3.6084
X8.2874Y-4.252
X8.2874Y-4.7363
X8.3127Y-4.008
X8.3405Y-4.0252
X8.3405Y-4.2302
X8.3405Y-4.775
X8.3644Y-4.7127
X8.3644Y-4.8157
X8.3661Y-4.6457
X8.4361Y-4.0952
X8.5448Y-3.3596
X8.5448Y-3.6896
X8.7671Y-3.3329
X8.9173Y-4.7835
T3
X8.8327Y-4.2807
X8.8327Y-4.3594
T4
X6.7646Y-4.5669
X6.7646Y-4.6669
X6.8646Y-4.5669
X6.8646Y-4.6669
X6.9646Y-4.5669
X6.9646Y-4.6669
X7.0646Y-4.5669
X7.0646Y-4.6669
X7.1646Y-4.5669
X7.1646Y-4.6669
X7.2646Y-4.5669
X7.2646Y-4.6669
X7.3646Y-4.5669
X7.3646Y-4.6669
X7.4646Y-4.5669
X7.4646Y-4.6669
X7.5646Y-4.5669
X7.5646Y-4.6669
X7.6646Y-4.5669
X7.6646Y-4.6669
X7.7646Y-4.5669
X7.7646Y-4.6669
X7.8646Y-4.5669
X7.8646Y-4.6669
X7.9646Y-4.5669
X7.9646Y-4.6669
X8.0646Y-4.5669
X8.0646Y-4.6669
X8.1646Y-4.5669
X8.1646Y-4.6669
X8.2646Y-4.5669
X8.2646Y-4.6669
T5
X6.1323Y-3.6535
X6.1323Y-3.7535
X6.1323Y-3.8535
T6
X8.8976Y-3.5552
X8.8976Y-3.7402
X8.8976Y-3.9252
T7
X7.5146Y-3.5862
T2
G00X6.1169Y-4.0679
M15
G01X6.0854Y-4.0679
M16
G05
G00X6.1169Y-4.4085
M15
G01X6.0854Y-4.4085
M16
G05
G00X6.287Y-4.0679
M15
G01X6.2437Y-4.0679
M16
G05
G00X6.287Y-4.4085
M15
G01X6.2437Y-4.4085
M16
G05
M30
