%TF.GenerationSoftware,KiCad,Pcbnew,9.0.0*%
%TF.CreationDate,2025-04-08T12:05:04+02:00*%
%TF.ProjectId,EEE3088F Project PCB,45454533-3038-4384-9620-50726f6a6563,rev?*%
%TF.SameCoordinates,Original*%
%TF.FileFunction,Soldermask,Top*%
%TF.FilePolarity,Negative*%
%FSLAX46Y46*%
G04 Gerber Fmt 4.6, Leading zero omitted, Abs format (unit mm)*
G04 Created by KiCad (PCBNEW 9.0.0) date 2025-04-08 12:05:04*
%MOMM*%
%LPD*%
G01*
G04 APERTURE LIST*
G04 Aperture macros list*
%AMRoundRect*
0 Rectangle with rounded corners*
0 $1 Rounding radius*
0 $2 $3 $4 $5 $6 $7 $8 $9 X,Y pos of 4 corners*
0 Add a 4 corners polygon primitive as box body*
4,1,4,$2,$3,$4,$5,$6,$7,$8,$9,$2,$3,0*
0 Add four circle primitives for the rounded corners*
1,1,$1+$1,$2,$3*
1,1,$1+$1,$4,$5*
1,1,$1+$1,$6,$7*
1,1,$1+$1,$8,$9*
0 Add four rect primitives between the rounded corners*
20,1,$1+$1,$2,$3,$4,$5,0*
20,1,$1+$1,$4,$5,$6,$7,0*
20,1,$1+$1,$6,$7,$8,$9,0*
20,1,$1+$1,$8,$9,$2,$3,0*%
%AMFreePoly0*
4,1,23,0.000000,0.745722,0.065263,0.745722,0.191342,0.711940,0.304381,0.646677,0.396677,0.554381,0.461940,0.441342,0.495722,0.315263,0.495722,0.250000,0.500000,0.250000,0.500000,-0.250000,0.495722,-0.250000,0.495722,-0.315263,0.461940,-0.441342,0.396677,-0.554381,0.304381,-0.646677,0.191342,-0.711940,0.065263,-0.745722,0.000000,-0.745722,0.000000,-0.750000,-0.500000,-0.750000,
-0.500000,0.750000,0.000000,0.750000,0.000000,0.745722,0.000000,0.745722,$1*%
%AMFreePoly1*
4,1,23,0.500000,-0.750000,0.000000,-0.750000,0.000000,-0.745722,-0.065263,-0.745722,-0.191342,-0.711940,-0.304381,-0.646677,-0.396677,-0.554381,-0.461940,-0.441342,-0.495722,-0.315263,-0.495722,-0.250000,-0.500000,-0.250000,-0.500000,0.250000,-0.495722,0.250000,-0.495722,0.315263,-0.461940,0.441342,-0.396677,0.554381,-0.304381,0.646677,-0.191342,0.711940,-0.065263,0.745722,0.000000,0.745722,
0.000000,0.750000,0.500000,0.750000,0.500000,-0.750000,0.500000,-0.750000,$1*%
%AMFreePoly2*
4,1,23,0.550000,-0.750000,0.000000,-0.750000,0.000000,-0.745722,-0.065263,-0.745722,-0.191342,-0.711940,-0.304381,-0.646677,-0.396677,-0.554381,-0.461940,-0.441342,-0.495722,-0.315263,-0.495722,-0.250000,-0.500000,-0.250000,-0.500000,0.250000,-0.495722,0.250000,-0.495722,0.315263,-0.461940,0.441342,-0.396677,0.554381,-0.304381,0.646677,-0.191342,0.711940,-0.065263,0.745722,0.000000,0.745722,
0.000000,0.750000,0.550000,0.750000,0.550000,-0.750000,0.550000,-0.750000,$1*%
%AMFreePoly3*
4,1,23,0.000000,0.745722,0.065263,0.745722,0.191342,0.711940,0.304381,0.646677,0.396677,0.554381,0.461940,0.441342,0.495722,0.315263,0.495722,0.250000,0.500000,0.250000,0.500000,-0.250000,0.495722,-0.250000,0.495722,-0.315263,0.461940,-0.441342,0.396677,-0.554381,0.304381,-0.646677,0.191342,-0.711940,0.065263,-0.745722,0.000000,-0.745722,0.000000,-0.750000,-0.550000,-0.750000,
-0.550000,0.750000,0.000000,0.750000,0.000000,0.745722,0.000000,0.745722,$1*%
G04 Aperture macros list end*
%ADD10C,0.010000*%
%ADD11R,1.000000X1.000000*%
%ADD12RoundRect,0.249999X-0.450001X-1.425001X0.450001X-1.425001X0.450001X1.425001X-0.450001X1.425001X0*%
%ADD13RoundRect,0.249999X0.450001X1.425001X-0.450001X1.425001X-0.450001X-1.425001X0.450001X-1.425001X0*%
%ADD14FreePoly0,0.000000*%
%ADD15FreePoly1,0.000000*%
%ADD16R,3.000000X3.000000*%
%ADD17RoundRect,0.100000X-0.675000X-0.100000X0.675000X-0.100000X0.675000X0.100000X-0.675000X0.100000X0*%
%ADD18RoundRect,0.250000X-0.337500X-0.475000X0.337500X-0.475000X0.337500X0.475000X-0.337500X0.475000X0*%
%ADD19RoundRect,0.237500X0.237500X-0.300000X0.237500X0.300000X-0.237500X0.300000X-0.237500X-0.300000X0*%
%ADD20RoundRect,0.250000X-0.475000X0.337500X-0.475000X-0.337500X0.475000X-0.337500X0.475000X0.337500X0*%
%ADD21O,1.904000X1.104000*%
%ADD22O,2.204000X1.104000*%
%ADD23R,2.100000X3.300000*%
%ADD24RoundRect,0.150000X-0.687500X-0.150000X0.687500X-0.150000X0.687500X0.150000X-0.687500X0.150000X0*%
%ADD25R,0.900000X1.600000*%
%ADD26RoundRect,0.062500X0.300000X0.062500X-0.300000X0.062500X-0.300000X-0.062500X0.300000X-0.062500X0*%
%ADD27RoundRect,0.062500X-0.300000X-0.062500X0.300000X-0.062500X0.300000X0.062500X-0.300000X0.062500X0*%
%ADD28R,2.513000X3.402000*%
%ADD29R,1.525000X0.700000*%
%ADD30RoundRect,0.160000X-0.160000X0.197500X-0.160000X-0.197500X0.160000X-0.197500X0.160000X0.197500X0*%
%ADD31RoundRect,0.249999X1.425001X-0.450001X1.425001X0.450001X-1.425001X0.450001X-1.425001X-0.450001X0*%
%ADD32RoundRect,0.160000X0.160000X-0.197500X0.160000X0.197500X-0.160000X0.197500X-0.160000X-0.197500X0*%
%ADD33RoundRect,0.250000X0.475000X-0.337500X0.475000X0.337500X-0.475000X0.337500X-0.475000X-0.337500X0*%
%ADD34RoundRect,0.150000X-0.512500X-0.150000X0.512500X-0.150000X0.512500X0.150000X-0.512500X0.150000X0*%
%ADD35FreePoly1,270.000000*%
%ADD36FreePoly0,270.000000*%
%ADD37FreePoly2,0.000000*%
%ADD38R,1.000000X1.500000*%
%ADD39FreePoly3,0.000000*%
%ADD40RoundRect,0.250000X0.400000X0.625000X-0.400000X0.625000X-0.400000X-0.625000X0.400000X-0.625000X0*%
%ADD41RoundRect,0.200000X0.275000X-0.200000X0.275000X0.200000X-0.275000X0.200000X-0.275000X-0.200000X0*%
%ADD42RoundRect,0.250000X0.337500X0.475000X-0.337500X0.475000X-0.337500X-0.475000X0.337500X-0.475000X0*%
%ADD43RoundRect,0.160000X0.197500X0.160000X-0.197500X0.160000X-0.197500X-0.160000X0.197500X-0.160000X0*%
%ADD44RoundRect,0.237500X0.300000X0.237500X-0.300000X0.237500X-0.300000X-0.237500X0.300000X-0.237500X0*%
%ADD45RoundRect,0.100000X-0.650000X-0.100000X0.650000X-0.100000X0.650000X0.100000X-0.650000X0.100000X0*%
%ADD46RoundRect,0.249999X1.975001X-0.640001X1.975001X0.640001X-1.975001X0.640001X-1.975001X-0.640001X0*%
%ADD47RoundRect,0.102000X0.860000X-0.525000X0.860000X0.525000X-0.860000X0.525000X-0.860000X-0.525000X0*%
%ADD48RoundRect,0.155000X-0.212500X-0.155000X0.212500X-0.155000X0.212500X0.155000X-0.212500X0.155000X0*%
%ADD49RoundRect,0.200000X-0.200000X-0.275000X0.200000X-0.275000X0.200000X0.275000X-0.200000X0.275000X0*%
%ADD50R,0.950000X0.450000*%
%ADD51R,1.700000X1.700000*%
%ADD52O,1.700000X1.700000*%
%ADD53RoundRect,0.250000X0.300000X-0.300000X0.300000X0.300000X-0.300000X0.300000X-0.300000X-0.300000X0*%
%ADD54RoundRect,0.155000X0.155000X-0.212500X0.155000X0.212500X-0.155000X0.212500X-0.155000X-0.212500X0*%
%ADD55RoundRect,0.102000X0.525000X0.860000X-0.525000X0.860000X-0.525000X-0.860000X0.525000X-0.860000X0*%
%ADD56R,2.000000X2.000000*%
%ADD57C,2.057400*%
%ADD58RoundRect,0.125000X-0.537500X-0.125000X0.537500X-0.125000X0.537500X0.125000X-0.537500X0.125000X0*%
%ADD59R,2.000000X1.905000*%
%ADD60O,2.000000X1.905000*%
%ADD61FreePoly1,180.000000*%
%ADD62FreePoly0,180.000000*%
%ADD63RoundRect,0.250000X0.625000X-0.400000X0.625000X0.400000X-0.625000X0.400000X-0.625000X-0.400000X0*%
%ADD64RoundRect,0.102000X-0.910000X0.600000X-0.910000X-0.600000X0.910000X-0.600000X0.910000X0.600000X0*%
%ADD65RoundRect,0.250000X0.625000X-0.350000X0.625000X0.350000X-0.625000X0.350000X-0.625000X-0.350000X0*%
%ADD66O,1.750000X1.200000*%
G04 APERTURE END LIST*
%TO.C,JP5*%
G36*
X164500000Y-122750000D02*
G01*
X164800000Y-122750000D01*
X164800000Y-124250000D01*
X164500000Y-124250000D01*
X164500000Y-122750000D01*
G37*
D10*
%TO.C,J2*%
X159870000Y-112940000D02*
X158630000Y-112940000D01*
X158630000Y-112240000D01*
X159870000Y-112240000D01*
X159870000Y-112940000D01*
G36*
X159870000Y-112940000D02*
G01*
X158630000Y-112940000D01*
X158630000Y-112240000D01*
X159870000Y-112240000D01*
X159870000Y-112940000D01*
G37*
X159870000Y-112140000D02*
X158630000Y-112140000D01*
X158630000Y-111440000D01*
X159870000Y-111440000D01*
X159870000Y-112140000D01*
G36*
X159870000Y-112140000D02*
G01*
X158630000Y-112140000D01*
X158630000Y-111440000D01*
X159870000Y-111440000D01*
X159870000Y-112140000D01*
G37*
X159870000Y-111340000D02*
X158630000Y-111340000D01*
X158630000Y-110940000D01*
X159870000Y-110940000D01*
X159870000Y-111340000D01*
G36*
X159870000Y-111340000D02*
G01*
X158630000Y-111340000D01*
X158630000Y-110940000D01*
X159870000Y-110940000D01*
X159870000Y-111340000D01*
G37*
X159870000Y-110840000D02*
X158630000Y-110840000D01*
X158630000Y-110440000D01*
X159870000Y-110440000D01*
X159870000Y-110840000D01*
G36*
X159870000Y-110840000D02*
G01*
X158630000Y-110840000D01*
X158630000Y-110440000D01*
X159870000Y-110440000D01*
X159870000Y-110840000D01*
G37*
X159870000Y-110340000D02*
X158630000Y-110340000D01*
X158630000Y-109940000D01*
X159870000Y-109940000D01*
X159870000Y-110340000D01*
G36*
X159870000Y-110340000D02*
G01*
X158630000Y-110340000D01*
X158630000Y-109940000D01*
X159870000Y-109940000D01*
X159870000Y-110340000D01*
G37*
X159870000Y-109840000D02*
X158630000Y-109840000D01*
X158630000Y-109440000D01*
X159870000Y-109440000D01*
X159870000Y-109840000D01*
G36*
X159870000Y-109840000D02*
G01*
X158630000Y-109840000D01*
X158630000Y-109440000D01*
X159870000Y-109440000D01*
X159870000Y-109840000D01*
G37*
X159870000Y-109340000D02*
X158630000Y-109340000D01*
X158630000Y-108940000D01*
X159870000Y-108940000D01*
X159870000Y-109340000D01*
G36*
X159870000Y-109340000D02*
G01*
X158630000Y-109340000D01*
X158630000Y-108940000D01*
X159870000Y-108940000D01*
X159870000Y-109340000D01*
G37*
X159870000Y-108840000D02*
X158630000Y-108840000D01*
X158630000Y-108440000D01*
X159870000Y-108440000D01*
X159870000Y-108840000D01*
G36*
X159870000Y-108840000D02*
G01*
X158630000Y-108840000D01*
X158630000Y-108440000D01*
X159870000Y-108440000D01*
X159870000Y-108840000D01*
G37*
X159870000Y-108340000D02*
X158630000Y-108340000D01*
X158630000Y-107940000D01*
X159870000Y-107940000D01*
X159870000Y-108340000D01*
G36*
X159870000Y-108340000D02*
G01*
X158630000Y-108340000D01*
X158630000Y-107940000D01*
X159870000Y-107940000D01*
X159870000Y-108340000D01*
G37*
X159870000Y-107840000D02*
X158630000Y-107840000D01*
X158630000Y-107440000D01*
X159870000Y-107440000D01*
X159870000Y-107840000D01*
G36*
X159870000Y-107840000D02*
G01*
X158630000Y-107840000D01*
X158630000Y-107440000D01*
X159870000Y-107440000D01*
X159870000Y-107840000D01*
G37*
X159870000Y-107340000D02*
X158630000Y-107340000D01*
X158630000Y-106640000D01*
X159870000Y-106640000D01*
X159870000Y-107340000D01*
G36*
X159870000Y-107340000D02*
G01*
X158630000Y-107340000D01*
X158630000Y-106640000D01*
X159870000Y-106640000D01*
X159870000Y-107340000D01*
G37*
X159870000Y-106540000D02*
X158630000Y-106540000D01*
X158630000Y-105840000D01*
X159870000Y-105840000D01*
X159870000Y-106540000D01*
G36*
X159870000Y-106540000D02*
G01*
X158630000Y-106540000D01*
X158630000Y-105840000D01*
X159870000Y-105840000D01*
X159870000Y-106540000D01*
G37*
%TO.C,JP8*%
G36*
X217250000Y-91700000D02*
G01*
X215750000Y-91700000D01*
X215750000Y-92000000D01*
X217250000Y-92000000D01*
X217250000Y-91700000D01*
G37*
%TO.C,JP3*%
G36*
X184050000Y-90250000D02*
G01*
X185550000Y-90250000D01*
X185550000Y-91750000D01*
X184050000Y-91750000D01*
X184050000Y-90250000D01*
G37*
%TO.C,JP2*%
G36*
X184050000Y-86250000D02*
G01*
X185550000Y-86250000D01*
X185550000Y-87750000D01*
X184050000Y-87750000D01*
X184050000Y-86250000D01*
G37*
%TO.C,JP6*%
G36*
X191000000Y-122250000D02*
G01*
X191300000Y-122250000D01*
X191300000Y-123750000D01*
X191000000Y-123750000D01*
X191000000Y-122250000D01*
G37*
%TO.C,JP9*%
G36*
X215100000Y-123710000D02*
G01*
X215400000Y-123710000D01*
X215400000Y-125210000D01*
X215100000Y-125210000D01*
X215100000Y-123710000D01*
G37*
%TO.C,JP7*%
G36*
X196582500Y-104890000D02*
G01*
X196282500Y-104890000D01*
X196282500Y-103390000D01*
X196582500Y-103390000D01*
X196582500Y-104890000D01*
G37*
%TO.C,JP4*%
G36*
X170800000Y-79750000D02*
G01*
X170500000Y-79750000D01*
X170500000Y-78250000D01*
X170800000Y-78250000D01*
X170800000Y-79750000D01*
G37*
%TO.C,JP1*%
G36*
X162000000Y-85750000D02*
G01*
X162300000Y-85750000D01*
X162300000Y-87250000D01*
X162000000Y-87250000D01*
X162000000Y-85750000D01*
G37*
%TO.C,JP10*%
G36*
X216700000Y-104890000D02*
G01*
X216400000Y-104890000D01*
X216400000Y-103390000D01*
X216700000Y-103390000D01*
X216700000Y-104890000D01*
G37*
%TD*%
D11*
%TO.C,TP19*%
X185000000Y-125000000D03*
%TD*%
D12*
%TO.C,R14*%
X194550000Y-128000000D03*
X188450000Y-128000000D03*
%TD*%
D11*
%TO.C,TP10*%
X211500000Y-121500000D03*
%TD*%
D13*
%TO.C,R12*%
X161450000Y-118000000D03*
X167550000Y-118000000D03*
%TD*%
D14*
%TO.C,JP5*%
X165300000Y-123500000D03*
D15*
X164000000Y-123500000D03*
%TD*%
D16*
%TO.C,U2*%
X174750000Y-126750000D03*
D17*
X177625000Y-124475000D03*
X177625000Y-125125000D03*
X177625000Y-125775000D03*
X177625000Y-126425000D03*
X177625000Y-127075000D03*
X177625000Y-127725000D03*
X177625000Y-128375000D03*
X177625000Y-129025000D03*
X171875000Y-129025000D03*
X171875000Y-128375000D03*
X171875000Y-127725000D03*
X171875000Y-127075000D03*
X171875000Y-126425000D03*
X171875000Y-125775000D03*
X171875000Y-125125000D03*
X171875000Y-124475000D03*
%TD*%
D18*
%TO.C,C5*%
X177000000Y-121500000D03*
X174925000Y-121500000D03*
%TD*%
D19*
%TO.C,C4*%
X181000000Y-121637500D03*
X181000000Y-123362500D03*
%TD*%
D20*
%TO.C,C6*%
X181000000Y-127537500D03*
X181000000Y-125462500D03*
%TD*%
D21*
%TO.C,J2*%
X154500000Y-113715000D03*
X154500000Y-105065000D03*
D22*
X158670000Y-113715000D03*
X158670000Y-105065000D03*
%TD*%
D16*
%TO.C,U1*%
X201750000Y-126750000D03*
D17*
X204625000Y-124475000D03*
X204625000Y-125125000D03*
X204625000Y-125775000D03*
X204625000Y-126425000D03*
X204625000Y-127075000D03*
X204625000Y-127725000D03*
X204625000Y-128375000D03*
X204625000Y-129025000D03*
X198875000Y-129025000D03*
X198875000Y-128375000D03*
X198875000Y-127725000D03*
X198875000Y-127075000D03*
X198875000Y-126425000D03*
X198875000Y-125775000D03*
X198875000Y-125125000D03*
X198875000Y-124475000D03*
%TD*%
D23*
%TO.C,U4*%
X170500000Y-97000000D03*
D24*
X173137500Y-95000000D03*
X173137500Y-96000000D03*
X173137500Y-97000000D03*
X173137500Y-98000000D03*
X173137500Y-99000000D03*
X167862500Y-99000000D03*
X167862500Y-98000000D03*
X167862500Y-97000000D03*
X167862500Y-96000000D03*
X167862500Y-95000000D03*
%TD*%
D25*
%TO.C,U8*%
X222507500Y-116090000D03*
D26*
X221495000Y-116840000D03*
X221495000Y-116340000D03*
X221495000Y-115840000D03*
X221495000Y-115340000D03*
X223520000Y-115340000D03*
X223520000Y-115840000D03*
X223520000Y-116340000D03*
X223520000Y-116840000D03*
%TD*%
D25*
%TO.C,U9*%
X214372500Y-112010000D03*
D27*
X215385000Y-111260000D03*
X215385000Y-111760000D03*
X215385000Y-112260000D03*
X215385000Y-112760000D03*
X213360000Y-112760000D03*
X213360000Y-112260000D03*
X213360000Y-111760000D03*
X213360000Y-111260000D03*
%TD*%
D28*
%TO.C,U11*%
X170500000Y-89000000D03*
D29*
X167788000Y-90905000D03*
X167788000Y-89635000D03*
X167788000Y-88365000D03*
X167788000Y-87095000D03*
X173212000Y-87095000D03*
X173212000Y-88365000D03*
X173212000Y-89635000D03*
X173212000Y-90905000D03*
%TD*%
D11*
%TO.C,TP21*%
X181000000Y-130500000D03*
%TD*%
%TO.C,TP20*%
X185000000Y-128000000D03*
%TD*%
%TO.C,TP18*%
X185000000Y-121500000D03*
%TD*%
%TO.C,TP13*%
X208000000Y-128500000D03*
%TD*%
%TO.C,TP12*%
X212000000Y-128000000D03*
%TD*%
%TO.C,TP11*%
X211500000Y-124500000D03*
%TD*%
%TO.C,TP8*%
X195500000Y-121500000D03*
%TD*%
D30*
%TO.C,R7*%
X208280000Y-111162500D03*
X208280000Y-112357500D03*
%TD*%
D31*
%TO.C,R11*%
X203200000Y-109730000D03*
X203200000Y-103630000D03*
%TD*%
D32*
%TO.C,R8*%
X205740000Y-99060000D03*
X205740000Y-97865000D03*
%TD*%
D33*
%TO.C,C15*%
X226060000Y-119380000D03*
X226060000Y-117305000D03*
%TD*%
D11*
%TO.C,TP4*%
X186000000Y-101500000D03*
%TD*%
%TO.C,TP1*%
X170500000Y-93000000D03*
%TD*%
D34*
%TO.C,U6*%
X207142500Y-93030000D03*
X207142500Y-93980000D03*
X207142500Y-94930000D03*
X209417500Y-94930000D03*
X209417500Y-93030000D03*
%TD*%
%TO.C,U7*%
X193305000Y-93030000D03*
X193305000Y-93980000D03*
X193305000Y-94930000D03*
X195580000Y-94930000D03*
X195580000Y-93980000D03*
X195580000Y-93030000D03*
%TD*%
D35*
%TO.C,JP8*%
X216500000Y-91200000D03*
D36*
X216500000Y-92500000D03*
%TD*%
D37*
%TO.C,JP3*%
X183500000Y-91000000D03*
D38*
X184800000Y-91000000D03*
D39*
X186100000Y-91000000D03*
%TD*%
D40*
%TO.C,R10*%
X218440000Y-119380000D03*
X215340000Y-119380000D03*
%TD*%
D12*
%TO.C,R6*%
X167450000Y-83000000D03*
X173550000Y-83000000D03*
%TD*%
D37*
%TO.C,JP2*%
X183500000Y-87000000D03*
D38*
X184800000Y-87000000D03*
D39*
X186100000Y-87000000D03*
%TD*%
D41*
%TO.C,R1*%
X193040000Y-106680000D03*
X193040000Y-105030000D03*
%TD*%
D15*
%TO.C,JP6*%
X190500000Y-123000000D03*
D14*
X191800000Y-123000000D03*
%TD*%
D42*
%TO.C,C7*%
X198120000Y-101600000D03*
X196045000Y-101600000D03*
%TD*%
D43*
%TO.C,R_PROG_1*%
X179097500Y-87500000D03*
X177902500Y-87500000D03*
%TD*%
D44*
%TO.C,C2*%
X206500000Y-121500000D03*
X204775000Y-121500000D03*
%TD*%
D45*
%TO.C,IC1*%
X166670000Y-107850000D03*
X166670000Y-108500000D03*
X166670000Y-109150000D03*
X169330000Y-109150000D03*
X169330000Y-107850000D03*
%TD*%
D46*
%TO.C,L1*%
X200660000Y-93980000D03*
X200660000Y-90420000D03*
%TD*%
D11*
%TO.C,TP6*%
X175500000Y-108000000D03*
%TD*%
D20*
%TO.C,C12*%
X210820000Y-98022500D03*
X210820000Y-100097500D03*
%TD*%
D47*
%TO.C,R4*%
X176500000Y-98960000D03*
X176500000Y-96040000D03*
%TD*%
D48*
%TO.C,C20*%
X154932500Y-87000000D03*
X156067500Y-87000000D03*
%TD*%
D49*
%TO.C,R_PROG_2*%
X177675000Y-90500000D03*
X179325000Y-90500000D03*
%TD*%
D48*
%TO.C,C16*%
X218932500Y-124500000D03*
X220067500Y-124500000D03*
%TD*%
D50*
%TO.C,S1*%
X178525000Y-101025000D03*
X178525000Y-101675000D03*
X178525000Y-102325000D03*
X178525000Y-102975000D03*
X182475000Y-102975000D03*
X182475000Y-102325000D03*
X182475000Y-101675000D03*
X182475000Y-101025000D03*
%TD*%
D51*
%TO.C,am1*%
X210820000Y-114960000D03*
D52*
X210820000Y-117500000D03*
X208280000Y-114960000D03*
X208280000Y-117500000D03*
X205740000Y-114960000D03*
X205740000Y-117500000D03*
X203200000Y-114960000D03*
X203200000Y-117500000D03*
X200660000Y-114960000D03*
X200660000Y-117500000D03*
X198120000Y-114960000D03*
X198120000Y-117500000D03*
X195580000Y-114960000D03*
X195580000Y-117500000D03*
X193040000Y-114960000D03*
X193040000Y-117500000D03*
X190500000Y-114960000D03*
X190500000Y-117500000D03*
X187960000Y-114960000D03*
X187960000Y-117500000D03*
X185420000Y-114960000D03*
X185420000Y-117500000D03*
X182880000Y-114960000D03*
X182880000Y-117500000D03*
X180340000Y-114960000D03*
X180340000Y-117500000D03*
X177800000Y-114960000D03*
X177800000Y-117500000D03*
X175260000Y-114960000D03*
X175260000Y-117500000D03*
X172720000Y-114960000D03*
X172720000Y-117500000D03*
%TD*%
D53*
%TO.C,D1*%
X200660000Y-100460000D03*
X200660000Y-97660000D03*
%TD*%
D54*
%TO.C,C18*%
X218440000Y-114300000D03*
X218440000Y-113165000D03*
%TD*%
D55*
%TO.C,R3*%
X171960000Y-102500000D03*
X169040000Y-102500000D03*
%TD*%
D33*
%TO.C,C11*%
X213360000Y-107717500D03*
X213360000Y-105642500D03*
%TD*%
D56*
%TO.C,TP3*%
X155500000Y-120500000D03*
%TD*%
D33*
%TO.C,C21*%
X162000000Y-92967500D03*
X162000000Y-90892500D03*
%TD*%
D56*
%TO.C,TP7*%
X215900000Y-99060000D03*
%TD*%
D57*
%TO.C,SW1*%
X226000000Y-99699000D03*
X226000000Y-95000000D03*
X226000000Y-90301000D03*
%TD*%
D15*
%TO.C,JP9*%
X214600000Y-124460000D03*
D14*
X215900000Y-124460000D03*
%TD*%
D58*
%TO.C,U3*%
X195845000Y-106680000D03*
X195845000Y-107330000D03*
X195845000Y-107980000D03*
X195845000Y-108630000D03*
X198120000Y-108630000D03*
X198120000Y-107980000D03*
X198120000Y-107330000D03*
X198120000Y-106680000D03*
%TD*%
D18*
%TO.C,C3*%
X199462500Y-121500000D03*
X201537500Y-121500000D03*
%TD*%
D56*
%TO.C,TP9*%
X228600000Y-116840000D03*
%TD*%
D59*
%TO.C,U10*%
X156500000Y-98040000D03*
D60*
X156500000Y-95500000D03*
X156500000Y-92960000D03*
%TD*%
D61*
%TO.C,JP7*%
X197082500Y-104140000D03*
D62*
X195782500Y-104140000D03*
%TD*%
D20*
%TO.C,C19*%
X162000000Y-94962500D03*
X162000000Y-97037500D03*
%TD*%
D63*
%TO.C,R9*%
X223520000Y-123470000D03*
X223520000Y-120370000D03*
%TD*%
D64*
%TO.C,C8*%
X162000000Y-100040000D03*
X162000000Y-102960000D03*
%TD*%
D65*
%TO.C,J1*%
X225050000Y-111000000D03*
D66*
X225050000Y-109000000D03*
%TD*%
D33*
%TO.C,C1*%
X208000000Y-126537500D03*
X208000000Y-124462500D03*
%TD*%
D61*
%TO.C,JP4*%
X171300000Y-79000000D03*
D62*
X170000000Y-79000000D03*
%TD*%
D38*
%TO.C,JP1*%
X161500000Y-86500000D03*
X162800000Y-86500000D03*
%TD*%
D33*
%TO.C,C17*%
X218440000Y-110257500D03*
X218440000Y-108182500D03*
%TD*%
%TO.C,C13*%
X208280000Y-104140000D03*
X208280000Y-102065000D03*
%TD*%
D61*
%TO.C,JP10*%
X217200000Y-104140000D03*
D62*
X215900000Y-104140000D03*
%TD*%
D42*
%TO.C,C14*%
X196617500Y-88900000D03*
X194542500Y-88900000D03*
%TD*%
D41*
%TO.C,R2*%
X198120000Y-111760000D03*
X198120000Y-110110000D03*
%TD*%
M02*
