%TF.GenerationSoftware,KiCad,Pcbnew,9.0.0*%
%TF.CreationDate,2025-03-28T15:53:13+02:00*%
%TF.ProjectId,EEE3088F Project PCB,45454533-3038-4384-9620-50726f6a6563,rev?*%
%TF.SameCoordinates,Original*%
%TF.FileFunction,Copper,L2,Bot*%
%TF.FilePolarity,Positive*%
%FSLAX46Y46*%
G04 Gerber Fmt 4.6, Leading zero omitted, Abs format (unit mm)*
G04 Created by KiCad (PCBNEW 9.0.0) date 2025-03-28 15:53:13*
%MOMM*%
%LPD*%
G01*
G04 APERTURE LIST*
G04 Aperture macros list*
%AMRoundRect*
0 Rectangle with rounded corners*
0 $1 Rounding radius*
0 $2 $3 $4 $5 $6 $7 $8 $9 X,Y pos of 4 corners*
0 Add a 4 corners polygon primitive as box body*
4,1,4,$2,$3,$4,$5,$6,$7,$8,$9,$2,$3,0*
0 Add four circle primitives for the rounded corners*
1,1,$1+$1,$2,$3*
1,1,$1+$1,$4,$5*
1,1,$1+$1,$6,$7*
1,1,$1+$1,$8,$9*
0 Add four rect primitives between the rounded corners*
20,1,$1+$1,$2,$3,$4,$5,0*
20,1,$1+$1,$4,$5,$6,$7,0*
20,1,$1+$1,$6,$7,$8,$9,0*
20,1,$1+$1,$8,$9,$2,$3,0*%
G04 Aperture macros list end*
%TA.AperFunction,ComponentPad*%
%ADD10R,1.700000X1.700000*%
%TD*%
%TA.AperFunction,ComponentPad*%
%ADD11O,1.700000X1.700000*%
%TD*%
%TA.AperFunction,ComponentPad*%
%ADD12C,2.057400*%
%TD*%
%TA.AperFunction,ComponentPad*%
%ADD13O,0.900000X2.000000*%
%TD*%
%TA.AperFunction,ComponentPad*%
%ADD14O,0.900000X1.700000*%
%TD*%
%TA.AperFunction,ComponentPad*%
%ADD15R,1.905000X2.000000*%
%TD*%
%TA.AperFunction,ComponentPad*%
%ADD16O,1.905000X2.000000*%
%TD*%
%TA.AperFunction,ComponentPad*%
%ADD17RoundRect,0.250000X-0.350000X-0.625000X0.350000X-0.625000X0.350000X0.625000X-0.350000X0.625000X0*%
%TD*%
%TA.AperFunction,ComponentPad*%
%ADD18O,1.200000X1.750000*%
%TD*%
G04 APERTURE END LIST*
D10*
%TO.P,am1,1,Pin_1*%
%TO.N,/Motor2_B_OUT*%
X137640000Y-127000000D03*
D11*
%TO.P,am1,2,Pin_2*%
%TO.N,/Motor2_A_OUT*%
X137640000Y-124460000D03*
%TO.P,am1,3,Pin_3*%
%TO.N,/Motor4_A_OUT*%
X140180000Y-127000000D03*
%TO.P,am1,4,Pin_4*%
%TO.N,/MOTOR2_CTRL1*%
X140180000Y-124460000D03*
%TO.P,am1,5,Pin_5*%
%TO.N,/Motor4_B_OUT*%
X142720000Y-127000000D03*
%TO.P,am1,6,Pin_6*%
%TO.N,/MOTOR2_CTRL2*%
X142720000Y-124460000D03*
%TO.P,am1,7,Pin_7*%
%TO.N,/CTRL_EXT_LOAD2*%
X145260000Y-127000000D03*
%TO.P,am1,8,Pin_8*%
%TO.N,/MOTOR4_CTRL1*%
X145260000Y-124460000D03*
%TO.P,am1,9,Pin_9*%
%TO.N,/USART2_RX*%
X147800000Y-127000000D03*
%TO.P,am1,10,Pin_10*%
%TO.N,/MOTOR4_CTRL2*%
X147800000Y-124460000D03*
%TO.P,am1,11,Pin_11*%
%TO.N,/EXT_LOAD2_OUT*%
X150340000Y-127000000D03*
%TO.P,am1,12,Pin_12*%
%TO.N,/USART2_TX*%
X150340000Y-124460000D03*
%TO.P,am1,13,Pin_13*%
%TO.N,/FAST_CHARGE_CTRL*%
X152880000Y-127000000D03*
%TO.P,am1,14,Pin_14*%
%TO.N,/Battery*%
X152880000Y-124460000D03*
%TO.P,am1,15,Pin_15*%
%TO.N,unconnected-(am1-Pin_15-Pad15)*%
X155420000Y-127000000D03*
%TO.P,am1,16,Pin_16*%
%TO.N,/I2C1_SCL*%
X155420000Y-124460000D03*
%TO.P,am1,17,Pin_17*%
X157960000Y-127000000D03*
%TO.P,am1,18,Pin_18*%
%TO.N,/3V3 Out*%
X157960000Y-124460000D03*
%TO.P,am1,19,Pin_19*%
%TO.N,GND*%
X160500000Y-127000000D03*
%TO.P,am1,20,Pin_20*%
%TO.N,/5V Out*%
X160500000Y-124460000D03*
%TO.P,am1,21,Pin_21*%
%TO.N,/EXT_LOAD1_OUT*%
X163040000Y-127000000D03*
%TO.P,am1,22,Pin_22*%
%TO.N,/HV*%
X163040000Y-124460000D03*
%TO.P,am1,23,Pin_23*%
%TO.N,GND*%
X165580000Y-127000000D03*
%TO.P,am1,24,Pin_24*%
%TO.N,/MOTOR3_CTRL1*%
X165580000Y-124460000D03*
%TO.P,am1,25,Pin_25*%
%TO.N,/CTRL_EXT_LOAD1*%
X168120000Y-127000000D03*
%TO.P,am1,26,Pin_26*%
%TO.N,/MOTOR3_CTRL2*%
X168120000Y-124460000D03*
%TO.P,am1,27,Pin_27*%
%TO.N,/MOTOR3_A_OUT*%
X170660000Y-127000000D03*
%TO.P,am1,28,Pin_28*%
%TO.N,/MOTOR1_CTRL1*%
X170660000Y-124460000D03*
%TO.P,am1,29,Pin_29*%
%TO.N,/MOTOR3_B_OUT*%
X173200000Y-127000000D03*
%TO.P,am1,30,Pin_30*%
%TO.N,/MOTOR1_CTRL2*%
X173200000Y-124460000D03*
%TO.P,am1,31,Pin_31*%
%TO.N,/MOTOR1_B_OUT*%
X175740000Y-127000000D03*
%TO.P,am1,32,Pin_32*%
%TO.N,/MOTOR1_A_OUT*%
X175740000Y-124460000D03*
%TD*%
D12*
%TO.P,SW1,1,1*%
%TO.N,/V_sensing*%
X119000000Y-116699000D03*
%TO.P,SW1,2,2*%
%TO.N,GND*%
X119000000Y-112000000D03*
%TO.P,SW1,3,3*%
%TO.N,/ON*%
X119000000Y-107301000D03*
%TD*%
D13*
%TO.P,J2,S1,SHIELD*%
%TO.N,GND*%
X121425000Y-122580000D03*
%TO.P,J2,S2*%
%TO.N,N/C*%
X130075000Y-122580000D03*
D14*
%TO.P,J2,S3*%
X121425000Y-126750000D03*
%TO.P,J2,S4*%
X130075000Y-126750000D03*
%TD*%
D15*
%TO.P,U10,1,VI*%
%TO.N,/HV*%
X142460000Y-105445000D03*
D16*
%TO.P,U10,2,GND*%
%TO.N,GND*%
X145000000Y-105445000D03*
%TO.P,U10,3,VO*%
%TO.N,/V_BATT_CHARGE*%
X147540000Y-105445000D03*
%TD*%
D17*
%TO.P,J1,1,Pin_1*%
%TO.N,/Battery*%
X183500000Y-122500000D03*
D18*
%TO.P,J1,2,Pin_2*%
%TO.N,GND*%
X185500000Y-122500000D03*
%TD*%
M02*
