%TF.GenerationSoftware,KiCad,Pcbnew,9.0.0*%
%TF.CreationDate,2025-04-09T03:55:41+02:00*%
%TF.ProjectId,EEE3088F Project PCB,45454533-3038-4384-9620-50726f6a6563,rev?*%
%TF.SameCoordinates,Original*%
%TF.FileFunction,Copper,L2,Bot*%
%TF.FilePolarity,Positive*%
%FSLAX46Y46*%
G04 Gerber Fmt 4.6, Leading zero omitted, Abs format (unit mm)*
G04 Created by KiCad (PCBNEW 9.0.0) date 2025-04-09 03:55:41*
%MOMM*%
%LPD*%
G01*
G04 APERTURE LIST*
G04 Aperture macros list*
%AMRoundRect*
0 Rectangle with rounded corners*
0 $1 Rounding radius*
0 $2 $3 $4 $5 $6 $7 $8 $9 X,Y pos of 4 corners*
0 Add a 4 corners polygon primitive as box body*
4,1,4,$2,$3,$4,$5,$6,$7,$8,$9,$2,$3,0*
0 Add four circle primitives for the rounded corners*
1,1,$1+$1,$2,$3*
1,1,$1+$1,$4,$5*
1,1,$1+$1,$6,$7*
1,1,$1+$1,$8,$9*
0 Add four rect primitives between the rounded corners*
20,1,$1+$1,$2,$3,$4,$5,0*
20,1,$1+$1,$4,$5,$6,$7,0*
20,1,$1+$1,$6,$7,$8,$9,0*
20,1,$1+$1,$8,$9,$2,$3,0*%
G04 Aperture macros list end*
%TA.AperFunction,ComponentPad*%
%ADD10C,3.800000*%
%TD*%
%TA.AperFunction,ComponentPad*%
%ADD11O,1.700000X1.700000*%
%TD*%
%TA.AperFunction,ComponentPad*%
%ADD12R,1.700000X1.700000*%
%TD*%
%TA.AperFunction,ComponentPad*%
%ADD13C,2.057400*%
%TD*%
%TA.AperFunction,ComponentPad*%
%ADD14R,2.000000X1.905000*%
%TD*%
%TA.AperFunction,ComponentPad*%
%ADD15O,2.000000X1.905000*%
%TD*%
%TA.AperFunction,ComponentPad*%
%ADD16RoundRect,0.250000X0.625000X-0.350000X0.625000X0.350000X-0.625000X0.350000X-0.625000X-0.350000X0*%
%TD*%
%TA.AperFunction,ComponentPad*%
%ADD17O,1.750000X1.200000*%
%TD*%
%TA.AperFunction,ComponentPad*%
%ADD18O,2.000000X0.900000*%
%TD*%
%TA.AperFunction,ComponentPad*%
%ADD19O,1.700000X0.900000*%
%TD*%
%TA.AperFunction,ViaPad*%
%ADD20C,0.600000*%
%TD*%
%TA.AperFunction,Conductor*%
%ADD21C,0.200000*%
%TD*%
G04 APERTURE END LIST*
D10*
%TO.P,H1,1*%
%TO.N,N/C*%
X190870000Y-91090000D03*
%TD*%
D11*
%TO.P,am1,32,Pin_32*%
%TO.N,/MOTOR1_A_OUT*%
X171820000Y-118540000D03*
%TO.P,am1,31,Pin_31*%
%TO.N,/MOTOR1_B_OUT*%
X171820000Y-116000000D03*
%TO.P,am1,30,Pin_30*%
%TO.N,/MOTOR1_CTRL2*%
X174360000Y-118540000D03*
%TO.P,am1,29,Pin_29*%
%TO.N,/MOTOR3_B_OUT*%
X174360000Y-116000000D03*
%TO.P,am1,28,Pin_28*%
%TO.N,/MOTOR1_CTRL1*%
X176900000Y-118540000D03*
%TO.P,am1,27,Pin_27*%
%TO.N,/MOTOR3_A_OUT*%
X176900000Y-116000000D03*
%TO.P,am1,26,Pin_26*%
%TO.N,/MOTOR3_CTRL2*%
X179440000Y-118540000D03*
%TO.P,am1,25,Pin_25*%
%TO.N,/CTRL_EXT_LOAD1*%
X179440000Y-116000000D03*
%TO.P,am1,24,Pin_24*%
%TO.N,/MOTOR3_CTRL1*%
X181980000Y-118540000D03*
%TO.P,am1,23,Pin_23*%
%TO.N,GND*%
X181980000Y-116000000D03*
%TO.P,am1,22,Pin_22*%
%TO.N,/HV*%
X184520000Y-118540000D03*
%TO.P,am1,21,Pin_21*%
%TO.N,/EXT_LOAD1_OUT*%
X184520000Y-116000000D03*
%TO.P,am1,20,Pin_20*%
%TO.N,/5V Out*%
X187060000Y-118540000D03*
%TO.P,am1,19,Pin_19*%
%TO.N,GND*%
X187060000Y-116000000D03*
%TO.P,am1,18,Pin_18*%
%TO.N,/3V3 Out*%
X189600000Y-118540000D03*
%TO.P,am1,17,Pin_17*%
%TO.N,/I2C1_SDA*%
X189600000Y-116000000D03*
%TO.P,am1,16,Pin_16*%
%TO.N,/I2C1_SCL*%
X192140000Y-118540000D03*
%TO.P,am1,15,Pin_15*%
%TO.N,unconnected-(am1-Pin_15-Pad15)*%
X192140000Y-116000000D03*
%TO.P,am1,14,Pin_14*%
%TO.N,/Battery*%
X194680000Y-118540000D03*
%TO.P,am1,13,Pin_13*%
%TO.N,/FAST_CHARGE_CTRL*%
X194680000Y-116000000D03*
%TO.P,am1,12,Pin_12*%
%TO.N,/USART2_TX*%
X197220000Y-118540000D03*
%TO.P,am1,11,Pin_11*%
%TO.N,/EXT_LOAD2_OUT*%
X197220000Y-116000000D03*
%TO.P,am1,10,Pin_10*%
%TO.N,/MOTOR4_CTRL2*%
X199760000Y-118540000D03*
%TO.P,am1,9,Pin_9*%
%TO.N,/USART2_RX*%
X199760000Y-116000000D03*
%TO.P,am1,8,Pin_8*%
%TO.N,/MOTOR4_CTRL1*%
X202300000Y-118540000D03*
%TO.P,am1,7,Pin_7*%
%TO.N,/CTRL_EXT_LOAD2*%
X202300000Y-116000000D03*
%TO.P,am1,6,Pin_6*%
%TO.N,/MOTOR2_CTRL2*%
X204840000Y-118540000D03*
%TO.P,am1,5,Pin_5*%
%TO.N,/Motor4_B_OUT*%
X204840000Y-116000000D03*
%TO.P,am1,4,Pin_4*%
%TO.N,/MOTOR2_CTRL1*%
X207380000Y-118540000D03*
%TO.P,am1,3,Pin_3*%
%TO.N,/Motor4_A_OUT*%
X207380000Y-116000000D03*
%TO.P,am1,2,Pin_2*%
%TO.N,/Motor2_A_OUT*%
X209920000Y-118540000D03*
D12*
%TO.P,am1,1,Pin_1*%
%TO.N,/Motor2_B_OUT*%
X209920000Y-116000000D03*
%TD*%
D13*
%TO.P,SW1,1,1*%
%TO.N,GND*%
X226000000Y-99699000D03*
%TO.P,SW1,2,2*%
%TO.N,/V_switch*%
X226000000Y-95000000D03*
%TO.P,SW1,3,3*%
%TO.N,/Battery*%
X226000000Y-90301000D03*
%TD*%
D14*
%TO.P,U10,1,VI*%
%TO.N,/HV*%
X155760000Y-97880000D03*
D15*
%TO.P,U10,2,GND*%
%TO.N,GND*%
X155760000Y-95340000D03*
%TO.P,U10,3,VO*%
%TO.N,/V_BATT_CHRG*%
X155760000Y-92800000D03*
%TD*%
D16*
%TO.P,J1,1,Pin_1*%
%TO.N,/Battery*%
X224350000Y-110730000D03*
D17*
%TO.P,J1,2,Pin_2*%
%TO.N,GND*%
X224350000Y-108730000D03*
%TD*%
D18*
%TO.P,J2,S1,shield*%
%TO.N,GND*%
X159140000Y-103325000D03*
%TO.P,J2,S2*%
%TO.N,N/C*%
X159140000Y-111975000D03*
D19*
%TO.P,J2,S3*%
X154970000Y-103325000D03*
%TO.P,J2,S4*%
X154970000Y-111975000D03*
%TD*%
D20*
%TO.N,Net-(JP6-B)*%
X169922000Y-121125000D03*
X175133000Y-124383000D03*
%TO.N,Net-(JP5-B)*%
X168648000Y-111277000D03*
X169930000Y-124375000D03*
%TO.N,Net-(JP2-C)*%
X181708000Y-94685200D03*
X182452000Y-85107900D03*
%TO.N,Net-(JP1-B)*%
X176166000Y-78031700D03*
X175362000Y-87405000D03*
%TO.N,/VDD*%
X170516000Y-95581200D03*
X169767000Y-102329000D03*
%TO.N,/CC2*%
X162096000Y-104861000D03*
X160792000Y-108977000D03*
%TO.N,Net-(U7-FB)*%
X195103000Y-87729300D03*
X193885000Y-101127000D03*
%TO.N,/V_sensing*%
X200412000Y-90815400D03*
X200412000Y-85957500D03*
X200225000Y-102916000D03*
X211848000Y-102240000D03*
X211848000Y-107448000D03*
X204984000Y-107946000D03*
X211848000Y-121284000D03*
X180485000Y-102602000D03*
X180485000Y-87848800D03*
%TO.N,/V_switch*%
X222685000Y-84654700D03*
X197320000Y-90710100D03*
X197320000Y-102790000D03*
%TO.N,Net-(U2-VCP)*%
X170096000Y-116579000D03*
X170096000Y-112372000D03*
%TO.N,Net-(U1-VINT)*%
X203388000Y-124241000D03*
X202971000Y-121691000D03*
%TO.N,/Motor2_B_OUT*%
X197183000Y-128297000D03*
X200660000Y-123110000D03*
X208002000Y-122812000D03*
%TO.N,/CTRL_EXT_LOAD2*%
X207377000Y-103640000D03*
%TO.N,/Motor4_A_OUT*%
X196783000Y-127282000D03*
X203570000Y-119196000D03*
%TO.N,/5V Out*%
X208280000Y-99695000D03*
X208307000Y-91653600D03*
%TO.N,/MOTOR1_CTRL2*%
X202453000Y-125131000D03*
X212455000Y-122320000D03*
X212455000Y-119702000D03*
X202330000Y-120981000D03*
%TO.N,/MOTOR3_CTRL1*%
X179138000Y-125133000D03*
%TO.N,/EXT_LOAD2_OUT*%
X211143000Y-101802000D03*
X211246000Y-108206000D03*
%TO.N,/MOTOR4_CTRL1*%
X181924000Y-126000000D03*
X166970000Y-118951000D03*
X166970000Y-126452000D03*
%TO.N,/MOTOR2_CTRL2*%
X205524000Y-129515000D03*
%TO.N,/HV*%
X174532000Y-95819000D03*
%TO.N,/MOTOR3_CTRL2*%
X175991000Y-123195000D03*
%TO.N,/FAST_CHARGE_CTRL*%
X194680000Y-99172600D03*
X187840000Y-96621100D03*
X183808000Y-105376000D03*
%TO.N,/MOTOR2_CTRL1*%
X205510000Y-130433000D03*
%TO.N,/CTRL_EXT_LOAD1*%
X214278000Y-104017000D03*
X199784000Y-120152000D03*
%TO.N,/MOTOR1_B_OUT*%
X185933000Y-126036000D03*
X182589000Y-122270000D03*
%TO.N,/Motor2_A_OUT*%
X204232000Y-120131000D03*
X202673000Y-130116000D03*
%TO.N,/MOTOR3_B_OUT*%
X170479000Y-123075000D03*
%TO.N,/MOTOR4_CTRL2*%
X185545000Y-124976000D03*
%TO.N,/Battery*%
X192573000Y-105315000D03*
X190870000Y-124397000D03*
X190049000Y-79399700D03*
X193090000Y-93361300D03*
%TO.N,/3V3 Out*%
X188399000Y-95355000D03*
X217039000Y-85334500D03*
X217039000Y-93716200D03*
%TO.N,/Motor4_B_OUT*%
X181543000Y-123483000D03*
X194795000Y-120786000D03*
%TO.N,GND*%
X157618000Y-112727000D03*
X161595000Y-122920000D03*
X184956000Y-120771000D03*
X201271000Y-122354000D03*
X201271000Y-125870000D03*
%TD*%
D21*
%TO.N,Net-(JP6-B)*%
X170909000Y-124383000D02*
X175133000Y-124383000D01*
X169851000Y-123325000D02*
X170909000Y-124383000D01*
X169851000Y-121195000D02*
X169851000Y-123325000D01*
X169922000Y-121125000D02*
X169851000Y-121195000D01*
%TO.N,Net-(JP5-B)*%
X168648000Y-123093000D02*
X169930000Y-124375000D01*
X168648000Y-111277000D02*
X168648000Y-123093000D01*
%TO.N,Net-(JP2-C)*%
X182452000Y-93941500D02*
X181708000Y-94685200D01*
X182452000Y-85107900D02*
X182452000Y-93941500D01*
%TO.N,Net-(JP1-B)*%
X176166000Y-86600900D02*
X175362000Y-87405000D01*
X176166000Y-78031700D02*
X176166000Y-86600900D01*
%TO.N,/VDD*%
X170516000Y-101581000D02*
X169767000Y-102329000D01*
X170516000Y-95581200D02*
X170516000Y-101581000D01*
%TO.N,/CC2*%
X162096000Y-107674000D02*
X160792000Y-108977000D01*
X162096000Y-104861000D02*
X162096000Y-107674000D01*
%TO.N,Net-(U7-FB)*%
X193885000Y-88946900D02*
X195103000Y-87729300D01*
X193885000Y-101127000D02*
X193885000Y-88946900D01*
%TO.N,/V_sensing*%
X200412000Y-85957500D02*
X200412000Y-90815400D01*
X200225000Y-91001800D02*
X200225000Y-102916000D01*
X200412000Y-90815400D02*
X200225000Y-91001800D01*
X211848000Y-107448000D02*
X211848000Y-102240000D01*
X211848000Y-107448000D02*
X211848000Y-121284000D01*
X200225000Y-103187000D02*
X204984000Y-107946000D01*
X200225000Y-102916000D02*
X200225000Y-103187000D01*
X180485000Y-102602000D02*
X180485000Y-87848800D01*
%TO.N,/V_switch*%
X227357000Y-89326800D02*
X222685000Y-84654700D01*
X227357000Y-93642600D02*
X227357000Y-89326800D01*
X226000000Y-95000000D02*
X227357000Y-93642600D01*
X197320000Y-90710100D02*
X197320000Y-102790000D01*
%TO.N,Net-(U2-VCP)*%
X170096000Y-116579000D02*
X170096000Y-112372000D01*
%TO.N,Net-(U1-VINT)*%
X203388000Y-122108000D02*
X203388000Y-124241000D01*
X202971000Y-121691000D02*
X203388000Y-122108000D01*
%TO.N,/Motor2_B_OUT*%
X200660000Y-124820000D02*
X200660000Y-123110000D01*
X197183000Y-128297000D02*
X200660000Y-124820000D01*
X208768000Y-122045000D02*
X208002000Y-122812000D01*
X208768000Y-118015000D02*
X208768000Y-122045000D01*
X209632000Y-117152000D02*
X208768000Y-118015000D01*
X209920000Y-117152000D02*
X209632000Y-117152000D01*
X209920000Y-116000000D02*
X209920000Y-117152000D01*
%TO.N,/CTRL_EXT_LOAD2*%
X202300000Y-114848000D02*
X202300000Y-116000000D01*
X207376000Y-109772000D02*
X202300000Y-114848000D01*
X207376000Y-103640000D02*
X207376000Y-109772000D01*
X207377000Y-103640000D02*
X207376000Y-103640000D01*
%TO.N,/Motor4_A_OUT*%
X196783000Y-125983000D02*
X196783000Y-127282000D01*
X201728000Y-121038000D02*
X196783000Y-125983000D01*
X201728000Y-120732000D02*
X201728000Y-121038000D01*
X202081000Y-120379000D02*
X201728000Y-120732000D01*
X202386000Y-120379000D02*
X202081000Y-120379000D01*
X203570000Y-119196000D02*
X202386000Y-120379000D01*
%TO.N,/5V Out*%
X208307000Y-99667800D02*
X208280000Y-99695000D01*
X208307000Y-91653600D02*
X208307000Y-99667800D01*
%TO.N,/MOTOR1_CTRL2*%
X202330000Y-125008000D02*
X202453000Y-125131000D01*
X202330000Y-120981000D02*
X202330000Y-125008000D01*
X212455000Y-119702000D02*
X212455000Y-122320000D01*
%TO.N,/MOTOR3_CTRL1*%
X179138000Y-122533000D02*
X179138000Y-125133000D01*
X181980000Y-119692000D02*
X179138000Y-122533000D01*
X181980000Y-118540000D02*
X181980000Y-119692000D01*
%TO.N,/EXT_LOAD2_OUT*%
X211246000Y-101906000D02*
X211143000Y-101802000D01*
X211246000Y-108206000D02*
X211246000Y-101906000D01*
%TO.N,/MOTOR4_CTRL1*%
X166970000Y-126452000D02*
X166970000Y-118951000D01*
X182576000Y-126652000D02*
X181924000Y-126000000D01*
X195241000Y-126652000D02*
X182576000Y-126652000D01*
X202200000Y-119692000D02*
X195241000Y-126652000D01*
X202300000Y-119692000D02*
X202200000Y-119692000D01*
X202300000Y-118540000D02*
X202300000Y-119692000D01*
%TO.N,/MOTOR2_CTRL2*%
X204840000Y-128832000D02*
X205524000Y-129515000D01*
X204840000Y-118540000D02*
X204840000Y-128832000D01*
%TO.N,/HV*%
X184520000Y-117388000D02*
X184520000Y-118540000D01*
X184232000Y-117388000D02*
X184520000Y-117388000D01*
X183368000Y-116525000D02*
X184232000Y-117388000D01*
X183368000Y-106336000D02*
X183368000Y-116525000D01*
X174532000Y-97500200D02*
X183368000Y-106336000D01*
X174532000Y-95819000D02*
X174532000Y-97500200D01*
%TO.N,/MOTOR3_CTRL2*%
X179440000Y-119745000D02*
X175991000Y-123195000D01*
X179440000Y-118540000D02*
X179440000Y-119745000D01*
%TO.N,/FAST_CHARGE_CTRL*%
X194680000Y-116000000D02*
X194680000Y-99172600D01*
X187840000Y-101343000D02*
X183808000Y-105376000D01*
X187840000Y-96621100D02*
X187840000Y-101343000D01*
%TO.N,/MOTOR2_CTRL1*%
X207380000Y-128564000D02*
X205510000Y-130433000D01*
X207380000Y-118540000D02*
X207380000Y-128564000D01*
%TO.N,/CTRL_EXT_LOAD1*%
X201030000Y-118906000D02*
X199784000Y-120152000D01*
X201030000Y-118122000D02*
X201030000Y-118906000D01*
X201882000Y-117270000D02*
X201030000Y-118122000D01*
X202718000Y-117270000D02*
X201882000Y-117270000D01*
X203570000Y-116418000D02*
X202718000Y-117270000D01*
X203570000Y-115370000D02*
X203570000Y-116418000D01*
X209558000Y-109382000D02*
X203570000Y-115370000D01*
X209558000Y-102506000D02*
X209558000Y-109382000D01*
X210913000Y-101152000D02*
X209558000Y-102506000D01*
X211626000Y-101152000D02*
X210913000Y-101152000D01*
X214278000Y-103804000D02*
X211626000Y-101152000D01*
X214278000Y-104017000D02*
X214278000Y-103804000D01*
%TO.N,/MOTOR1_B_OUT*%
X182589000Y-122927000D02*
X182589000Y-122270000D01*
X185698000Y-126036000D02*
X182589000Y-122927000D01*
X185933000Y-126036000D02*
X185698000Y-126036000D01*
%TO.N,/Motor2_A_OUT*%
X204232000Y-128557000D02*
X204232000Y-120131000D01*
X202673000Y-130116000D02*
X204232000Y-128557000D01*
%TO.N,/MOTOR3_B_OUT*%
X173090000Y-120464000D02*
X170479000Y-123075000D01*
X173090000Y-118153000D02*
X173090000Y-120464000D01*
X174092000Y-117152000D02*
X173090000Y-118153000D01*
X174360000Y-117152000D02*
X174092000Y-117152000D01*
X174360000Y-116000000D02*
X174360000Y-117152000D01*
%TO.N,/MOTOR4_CTRL2*%
X198608000Y-118540000D02*
X199760000Y-118540000D01*
X198608000Y-118808000D02*
X198608000Y-118540000D01*
X191974000Y-125443000D02*
X198608000Y-118808000D01*
X187736000Y-125443000D02*
X191974000Y-125443000D01*
X187270000Y-124976000D02*
X187736000Y-125443000D01*
X185545000Y-124976000D02*
X187270000Y-124976000D01*
%TO.N,/Battery*%
X223170000Y-93131500D02*
X226000000Y-90301000D01*
X223170000Y-109550000D02*
X223170000Y-93131500D01*
X224350000Y-110730000D02*
X223170000Y-109550000D01*
X193528000Y-106270000D02*
X192573000Y-105315000D01*
X193528000Y-116525000D02*
X193528000Y-106270000D01*
X194392000Y-117388000D02*
X193528000Y-116525000D01*
X194680000Y-117388000D02*
X194392000Y-117388000D01*
X194680000Y-118540000D02*
X194680000Y-117388000D01*
X190870000Y-118122000D02*
X190870000Y-124397000D01*
X191722000Y-117270000D02*
X190870000Y-118122000D01*
X192783000Y-117270000D02*
X191722000Y-117270000D01*
X193528000Y-116525000D02*
X192783000Y-117270000D01*
X193090000Y-82440900D02*
X193090000Y-93361300D01*
X190049000Y-79399700D02*
X193090000Y-82440900D01*
X193090000Y-104798000D02*
X193090000Y-93361300D01*
X192573000Y-105315000D02*
X193090000Y-104798000D01*
%TO.N,/3V3 Out*%
X217039000Y-93716200D02*
X217039000Y-85334500D01*
X188442000Y-95397400D02*
X188399000Y-95355000D01*
X188442000Y-116518000D02*
X188442000Y-95397400D01*
X189312000Y-117388000D02*
X188442000Y-116518000D01*
X189600000Y-117388000D02*
X189312000Y-117388000D01*
X189600000Y-118540000D02*
X189600000Y-117388000D01*
%TO.N,/Motor4_B_OUT*%
X194795000Y-121344000D02*
X194795000Y-120786000D01*
X191098000Y-125041000D02*
X194795000Y-121344000D01*
X188127000Y-125041000D02*
X191098000Y-125041000D01*
X184725000Y-121639000D02*
X188127000Y-125041000D01*
X182328000Y-121639000D02*
X184725000Y-121639000D01*
X181543000Y-122424000D02*
X182328000Y-121639000D01*
X181543000Y-123483000D02*
X181543000Y-122424000D01*
%TO.N,GND*%
X159140000Y-103325000D02*
X157838000Y-103325000D01*
X157838000Y-97577200D02*
X157838000Y-103325000D01*
X156855000Y-96594200D02*
X157838000Y-97577200D01*
X155760000Y-96594200D02*
X156855000Y-96594200D01*
X155760000Y-95340000D02*
X155760000Y-96594200D01*
X224350000Y-101349000D02*
X226000000Y-99699000D01*
X224350000Y-108730000D02*
X224350000Y-101349000D01*
X157618000Y-103545000D02*
X157618000Y-112727000D01*
X157838000Y-103325000D02*
X157618000Y-103545000D01*
X161595000Y-116704000D02*
X161595000Y-122920000D01*
X157618000Y-112727000D02*
X161595000Y-116704000D01*
X201271000Y-122354000D02*
X201271000Y-125870000D01*
X181980000Y-117152000D02*
X181980000Y-116000000D01*
X182268000Y-117152000D02*
X181980000Y-117152000D01*
X183132000Y-118015000D02*
X182268000Y-117152000D01*
X183132000Y-118947000D02*
X183132000Y-118015000D01*
X184956000Y-120771000D02*
X183132000Y-118947000D01*
%TD*%
M02*
