%TF.GenerationSoftware,KiCad,Pcbnew,9.0.0*%
%TF.CreationDate,2025-04-08T12:05:04+02:00*%
%TF.ProjectId,EEE3088F Project PCB,45454533-3038-4384-9620-50726f6a6563,rev?*%
%TF.SameCoordinates,Original*%
%TF.FileFunction,Copper,L2,Bot*%
%TF.FilePolarity,Positive*%
%FSLAX46Y46*%
G04 Gerber Fmt 4.6, Leading zero omitted, Abs format (unit mm)*
G04 Created by KiCad (PCBNEW 9.0.0) date 2025-04-08 12:05:04*
%MOMM*%
%LPD*%
G01*
G04 APERTURE LIST*
G04 Aperture macros list*
%AMRoundRect*
0 Rectangle with rounded corners*
0 $1 Rounding radius*
0 $2 $3 $4 $5 $6 $7 $8 $9 X,Y pos of 4 corners*
0 Add a 4 corners polygon primitive as box body*
4,1,4,$2,$3,$4,$5,$6,$7,$8,$9,$2,$3,0*
0 Add four circle primitives for the rounded corners*
1,1,$1+$1,$2,$3*
1,1,$1+$1,$4,$5*
1,1,$1+$1,$6,$7*
1,1,$1+$1,$8,$9*
0 Add four rect primitives between the rounded corners*
20,1,$1+$1,$2,$3,$4,$5,0*
20,1,$1+$1,$4,$5,$6,$7,0*
20,1,$1+$1,$6,$7,$8,$9,0*
20,1,$1+$1,$8,$9,$2,$3,0*%
G04 Aperture macros list end*
%TA.AperFunction,ComponentPad*%
%ADD10O,1.700000X0.900000*%
%TD*%
%TA.AperFunction,ComponentPad*%
%ADD11O,2.000000X0.900000*%
%TD*%
%TA.AperFunction,ComponentPad*%
%ADD12R,1.700000X1.700000*%
%TD*%
%TA.AperFunction,ComponentPad*%
%ADD13O,1.700000X1.700000*%
%TD*%
%TA.AperFunction,ComponentPad*%
%ADD14C,2.057400*%
%TD*%
%TA.AperFunction,ComponentPad*%
%ADD15R,2.000000X1.905000*%
%TD*%
%TA.AperFunction,ComponentPad*%
%ADD16O,2.000000X1.905000*%
%TD*%
%TA.AperFunction,ComponentPad*%
%ADD17RoundRect,0.250000X0.625000X-0.350000X0.625000X0.350000X-0.625000X0.350000X-0.625000X-0.350000X0*%
%TD*%
%TA.AperFunction,ComponentPad*%
%ADD18O,1.750000X1.200000*%
%TD*%
G04 APERTURE END LIST*
D10*
%TO.P,J2,S4*%
%TO.N,N/C*%
X154500000Y-113715000D03*
%TO.P,J2,S3*%
X154500000Y-105065000D03*
D11*
%TO.P,J2,S2*%
X158670000Y-113715000D03*
%TO.P,J2,S1,shield*%
%TO.N,GND*%
X158670000Y-105065000D03*
%TD*%
D12*
%TO.P,am1,1,Pin_1*%
%TO.N,/Motor2_B_OUT*%
X210820000Y-114960000D03*
D13*
%TO.P,am1,2,Pin_2*%
%TO.N,/Motor2_A_OUT*%
X210820000Y-117500000D03*
%TO.P,am1,3,Pin_3*%
%TO.N,/Motor4_A_OUT*%
X208280000Y-114960000D03*
%TO.P,am1,4,Pin_4*%
%TO.N,/MOTOR2_CTRL1*%
X208280000Y-117500000D03*
%TO.P,am1,5,Pin_5*%
%TO.N,/Motor4_B_OUT*%
X205740000Y-114960000D03*
%TO.P,am1,6,Pin_6*%
%TO.N,/MOTOR2_CTRL2*%
X205740000Y-117500000D03*
%TO.P,am1,7,Pin_7*%
%TO.N,/CTRL_EXT_LOAD2*%
X203200000Y-114960000D03*
%TO.P,am1,8,Pin_8*%
%TO.N,/MOTOR4_CTRL1*%
X203200000Y-117500000D03*
%TO.P,am1,9,Pin_9*%
%TO.N,/USART2_RX*%
X200660000Y-114960000D03*
%TO.P,am1,10,Pin_10*%
%TO.N,/MOTOR4_CTRL2*%
X200660000Y-117500000D03*
%TO.P,am1,11,Pin_11*%
%TO.N,/EXT_LOAD2_OUT*%
X198120000Y-114960000D03*
%TO.P,am1,12,Pin_12*%
%TO.N,/USART2_TX*%
X198120000Y-117500000D03*
%TO.P,am1,13,Pin_13*%
%TO.N,/FAST_CHARGE_CTRL*%
X195580000Y-114960000D03*
%TO.P,am1,14,Pin_14*%
%TO.N,/Battery*%
X195580000Y-117500000D03*
%TO.P,am1,15,Pin_15*%
%TO.N,unconnected-(am1-Pin_15-Pad15)*%
X193040000Y-114960000D03*
%TO.P,am1,16,Pin_16*%
%TO.N,/I2C1_SCL*%
X193040000Y-117500000D03*
%TO.P,am1,17,Pin_17*%
%TO.N,/I2C1_SDA*%
X190500000Y-114960000D03*
%TO.P,am1,18,Pin_18*%
%TO.N,/3V3 Out*%
X190500000Y-117500000D03*
%TO.P,am1,19,Pin_19*%
%TO.N,GND*%
X187960000Y-114960000D03*
%TO.P,am1,20,Pin_20*%
%TO.N,/5V Out*%
X187960000Y-117500000D03*
%TO.P,am1,21,Pin_21*%
%TO.N,/EXT_LOAD1_OUT*%
X185420000Y-114960000D03*
%TO.P,am1,22,Pin_22*%
%TO.N,/HV*%
X185420000Y-117500000D03*
%TO.P,am1,23,Pin_23*%
%TO.N,GND*%
X182880000Y-114960000D03*
%TO.P,am1,24,Pin_24*%
%TO.N,/MOTOR3_CTRL1*%
X182880000Y-117500000D03*
%TO.P,am1,25,Pin_25*%
%TO.N,/CTRL_EXT_LOAD1*%
X180340000Y-114960000D03*
%TO.P,am1,26,Pin_26*%
%TO.N,/MOTOR3_CTRL2*%
X180340000Y-117500000D03*
%TO.P,am1,27,Pin_27*%
%TO.N,/MOTOR3_A_OUT*%
X177800000Y-114960000D03*
%TO.P,am1,28,Pin_28*%
%TO.N,/MOTOR1_CTRL1*%
X177800000Y-117500000D03*
%TO.P,am1,29,Pin_29*%
%TO.N,/MOTOR3_B_OUT*%
X175260000Y-114960000D03*
%TO.P,am1,30,Pin_30*%
%TO.N,/MOTOR1_CTRL2*%
X175260000Y-117500000D03*
%TO.P,am1,31,Pin_31*%
%TO.N,/MOTOR1_B_OUT*%
X172720000Y-114960000D03*
%TO.P,am1,32,Pin_32*%
%TO.N,/MOTOR1_A_OUT*%
X172720000Y-117500000D03*
%TD*%
D14*
%TO.P,SW1,1,1*%
%TO.N,GND*%
X226000000Y-99699000D03*
%TO.P,SW1,2,2*%
%TO.N,/V_switch*%
X226000000Y-95000000D03*
%TO.P,SW1,3,3*%
%TO.N,/Battery*%
X226000000Y-90301000D03*
%TD*%
D15*
%TO.P,U10,1,VI*%
%TO.N,/HV*%
X156500000Y-98040000D03*
D16*
%TO.P,U10,2,GND*%
%TO.N,GND*%
X156500000Y-95500000D03*
%TO.P,U10,3,VO*%
%TO.N,/V_BATT_CHRG*%
X156500000Y-92960000D03*
%TD*%
D17*
%TO.P,J1,1,Pin_1*%
%TO.N,/Battery*%
X225050000Y-111000000D03*
D18*
%TO.P,J1,2,Pin_2*%
%TO.N,GND*%
X225050000Y-109000000D03*
%TD*%
M02*
