M48
; DRILL file {KiCad 9.0.0} date 2025-04-08T12:05:04+0200
; FORMAT={-:-/ absolute / inch / decimal}
; #@! TF.CreationDate,2025-04-08T12:05:04+02:00
; #@! TF.GenerationSoftware,Kicad,Pcbnew,9.0.0
; #@! TF.FileFunction,Plated,1,2,PTH
FMAT,2
INCH
; #@! TA.AperFunction,Plated,PTH,ComponentDrill
T1C0.0236
; #@! TA.AperFunction,Plated,PTH,ComponentDrill
T2C0.0295
; #@! TA.AperFunction,Plated,PTH,ComponentDrill
T3C0.0394
; #@! TA.AperFunction,Plated,PTH,ComponentDrill
T4C0.0472
; #@! TA.AperFunction,Plated,PTH,ComponentDrill
T5C0.0610
%
G90
G05
T2
X8.8602Y-4.2913
X8.8602Y-4.3701
T3
X6.8Y-4.526
X6.8Y-4.626
X6.9Y-4.526
X6.9Y-4.626
X7.0Y-4.526
X7.0Y-4.626
X7.1Y-4.526
X7.1Y-4.626
X7.2Y-4.526
X7.2Y-4.626
X7.3Y-4.526
X7.3Y-4.626
X7.4Y-4.526
X7.4Y-4.626
X7.5Y-4.526
X7.5Y-4.626
X7.6Y-4.526
X7.6Y-4.626
X7.7Y-4.526
X7.7Y-4.626
X7.8Y-4.526
X7.8Y-4.626
X7.9Y-4.526
X7.9Y-4.626
X8.0Y-4.526
X8.0Y-4.626
X8.1Y-4.526
X8.1Y-4.626
X8.2Y-4.526
X8.2Y-4.626
X8.3Y-4.526
X8.3Y-4.626
T4
X6.1614Y-3.6598
X6.1614Y-3.7598
X6.1614Y-3.8598
T5
X8.8976Y-3.5552
X8.8976Y-3.7402
X8.8976Y-3.9252
T1
G00X6.0984Y-4.1364
M15
G01X6.0669Y-4.1364
M16
G05
G00X6.0984Y-4.477
M15
G01X6.0669Y-4.477
M16
G05
G00X6.2685Y-4.1364
M15
G01X6.2252Y-4.1364
M16
G05
G00X6.2685Y-4.477
M15
G01X6.2252Y-4.477
M16
G05
M30
