%TF.GenerationSoftware,KiCad,Pcbnew,9.0.0*%
%TF.CreationDate,2025-03-28T15:53:13+02:00*%
%TF.ProjectId,EEE3088F Project PCB,45454533-3038-4384-9620-50726f6a6563,rev?*%
%TF.SameCoordinates,Original*%
%TF.FileFunction,Soldermask,Bot*%
%TF.FilePolarity,Negative*%
%FSLAX46Y46*%
G04 Gerber Fmt 4.6, Leading zero omitted, Abs format (unit mm)*
G04 Created by KiCad (PCBNEW 9.0.0) date 2025-03-28 15:53:13*
%MOMM*%
%LPD*%
G01*
G04 APERTURE LIST*
G04 Aperture macros list*
%AMRoundRect*
0 Rectangle with rounded corners*
0 $1 Rounding radius*
0 $2 $3 $4 $5 $6 $7 $8 $9 X,Y pos of 4 corners*
0 Add a 4 corners polygon primitive as box body*
4,1,4,$2,$3,$4,$5,$6,$7,$8,$9,$2,$3,0*
0 Add four circle primitives for the rounded corners*
1,1,$1+$1,$2,$3*
1,1,$1+$1,$4,$5*
1,1,$1+$1,$6,$7*
1,1,$1+$1,$8,$9*
0 Add four rect primitives between the rounded corners*
20,1,$1+$1,$2,$3,$4,$5,0*
20,1,$1+$1,$4,$5,$6,$7,0*
20,1,$1+$1,$6,$7,$8,$9,0*
20,1,$1+$1,$8,$9,$2,$3,0*%
G04 Aperture macros list end*
%ADD10R,1.700000X1.700000*%
%ADD11O,1.700000X1.700000*%
%ADD12C,2.057400*%
%ADD13C,0.600000*%
%ADD14O,0.900000X2.000000*%
%ADD15O,0.900000X1.700000*%
%ADD16R,1.905000X2.000000*%
%ADD17O,1.905000X2.000000*%
%ADD18RoundRect,0.250000X-0.350000X-0.625000X0.350000X-0.625000X0.350000X0.625000X-0.350000X0.625000X0*%
%ADD19O,1.200000X1.750000*%
G04 APERTURE END LIST*
D10*
%TO.C,am1*%
X137640000Y-127000000D03*
D11*
X137640000Y-124460000D03*
X140180000Y-127000000D03*
X140180000Y-124460000D03*
X142720000Y-127000000D03*
X142720000Y-124460000D03*
X145260000Y-127000000D03*
X145260000Y-124460000D03*
X147800000Y-127000000D03*
X147800000Y-124460000D03*
X150340000Y-127000000D03*
X150340000Y-124460000D03*
X152880000Y-127000000D03*
X152880000Y-124460000D03*
X155420000Y-127000000D03*
X155420000Y-124460000D03*
X157960000Y-127000000D03*
X157960000Y-124460000D03*
X160500000Y-127000000D03*
X160500000Y-124460000D03*
X163040000Y-127000000D03*
X163040000Y-124460000D03*
X165580000Y-127000000D03*
X165580000Y-124460000D03*
X168120000Y-127000000D03*
X168120000Y-124460000D03*
X170660000Y-127000000D03*
X170660000Y-124460000D03*
X173200000Y-127000000D03*
X173200000Y-124460000D03*
X175740000Y-127000000D03*
X175740000Y-124460000D03*
%TD*%
D12*
%TO.C,SW1*%
X119000000Y-116699000D03*
X119000000Y-112000000D03*
X119000000Y-107301000D03*
%TD*%
D13*
%TO.C,J2*%
X122860000Y-123070000D03*
X128640000Y-123070000D03*
D14*
X121425000Y-122580000D03*
X130075000Y-122580000D03*
D15*
X121425000Y-126750000D03*
X130075000Y-126750000D03*
%TD*%
D16*
%TO.C,U10*%
X142460000Y-105445000D03*
D17*
X145000000Y-105445000D03*
X147540000Y-105445000D03*
%TD*%
D18*
%TO.C,J1*%
X183500000Y-122500000D03*
D19*
X185500000Y-122500000D03*
%TD*%
M02*
