M48
; DRILL file {KiCad 9.0.0} date 2025-03-28T15:53:13+0200
; FORMAT={-:-/ absolute / inch / decimal}
; #@! TF.CreationDate,2025-03-28T15:53:13+02:00
; #@! TF.GenerationSoftware,Kicad,Pcbnew,9.0.0
; #@! TF.FileFunction,Plated,1,2,PTH
FMAT,2
INCH
; #@! TA.AperFunction,Plated,PTH,ComponentDrill
T1C0.0236
; #@! TA.AperFunction,Plated,PTH,ComponentDrill
T2C0.0295
; #@! TA.AperFunction,Plated,PTH,ComponentDrill
T3C0.0394
; #@! TA.AperFunction,Plated,PTH,ComponentDrill
T4C0.0433
; #@! TA.AperFunction,Plated,PTH,ComponentDrill
T5C0.0610
%
G90
G05
T2
X7.2244Y-4.8228
X7.3031Y-4.8228
T3
X5.4189Y-4.9
X5.4189Y-5.0
X5.5189Y-4.9
X5.5189Y-5.0
X5.6189Y-4.9
X5.6189Y-5.0
X5.7189Y-4.9
X5.7189Y-5.0
X5.8189Y-4.9
X5.8189Y-5.0
X5.9189Y-4.9
X5.9189Y-5.0
X6.0189Y-4.9
X6.0189Y-5.0
X6.1189Y-4.9
X6.1189Y-5.0
X6.2189Y-4.9
X6.2189Y-5.0
X6.3189Y-4.9
X6.3189Y-5.0
X6.4189Y-4.9
X6.4189Y-5.0
X6.5189Y-4.9
X6.5189Y-5.0
X6.6189Y-4.9
X6.6189Y-5.0
X6.7189Y-4.9
X6.7189Y-5.0
X6.8189Y-4.9
X6.8189Y-5.0
X6.9189Y-4.9
X6.9189Y-5.0
T4
X5.6087Y-4.1514
X5.7087Y-4.1514
X5.8087Y-4.1514
T5
X4.685Y-4.2244
X4.685Y-4.4094
X4.685Y-4.5944
T1
G00X4.7805Y-4.8043
M15
G01X4.7805Y-4.8476
M16
G05
G00X4.7805Y-4.9744
M15
G01X4.7805Y-5.0059
M16
G05
G00X5.1211Y-4.8043
M15
G01X5.1211Y-4.8476
M16
G05
G00X5.1211Y-4.9744
M15
G01X5.1211Y-5.0059
M16
G05
M30
